%
M48
M72
T01C0.01200
T02C0.01969
T03C0.02362
T04C0.02756
T05C0.03200
T06C0.04000
T07C0.04331
T08C0.08661
T09C0.12598
%
T01
X102426Y118491
X112576Y89441
X148976Y116041
X157376Y120941
X185726Y142991
X203926Y123391
X208826Y115691
X223526Y100641
X214426Y49541
T02
X230476Y127991
X234476Y93491
T03
X249476Y75991
X129476Y105991
X79476Y110991
X71476Y149491
T04
X248130Y63684
X240256Y63684
X232382Y63684
X224508Y63684
X216634Y63684
X208760Y63684
X200886Y63684
X193012Y63684
X185138Y63684
X177264Y63684
X177264Y150298
X185138Y150298
X193012Y150298
X200886Y150298
X208760Y150298
X216634Y150298
X224508Y150298
X232382Y150298
X240256Y150298
X248130Y150298
T05
X266476Y84491
X266476Y94491
T06
X188976Y49491
X178976Y49491
X168976Y49491
X158976Y49491
X148976Y49491
X138976Y49491
X128976Y49491
X118976Y49491
X108976Y49491
X98976Y49491
X88976Y49491
X78976Y49491
X78976Y164491
X88976Y164491
X98976Y164491
X108976Y164491
X118976Y164491
X128976Y164491
X138976Y164491
X148976Y164491
X158976Y164491
X168976Y164491
X178976Y164491
X188976Y164491
T07
X62476Y79491
X72476Y79491
X82476Y79491
X92476Y79491
X102476Y79491
X112476Y79491
X122476Y79491
X132476Y79491
X142476Y79491
X152476Y79491
X162476Y79491
X172476Y79491
X132476Y89491
X122476Y89491
X152476Y139491
X142476Y139491
X132476Y139491
X122476Y139491
X112476Y139491
X102476Y139491
X92476Y139491
X82476Y139491
X72476Y139491
X62476Y139491
X162476Y139491
X172476Y139491
T08
X153976Y109491
X52476Y136991
X52476Y81991
T09
X59614Y49904
X59614Y164077
X264339Y164077
X264339Y49904
M30
