G75*
%MOIN*%
%OFA0B0*%
%FSLAX25Y25*%
%IPPOS*%
%LPD*%
%AMOC8*
5,1,8,0,0,1.08239X$1,22.5*
%
%ADD10C,0.00200*%
%ADD11C,0.00300*%
%ADD12C,0.00000*%
%ADD13C,0.00800*%
%ADD14C,0.00600*%
%ADD15R,0.01600X0.02800*%
%ADD16C,0.01600*%
%ADD17C,0.00400*%
%ADD18C,0.00500*%
%ADD19C,0.00100*%
%ADD20C,0.01000*%
%ADD21C,0.00591*%
%ADD22C,0.01200*%
D10*
X0072576Y0042458D02*
X0072943Y0042091D01*
X0073677Y0042091D01*
X0074044Y0042458D01*
X0074044Y0043192D01*
X0073310Y0043192D01*
X0072576Y0043926D02*
X0072943Y0044293D01*
X0073677Y0044293D01*
X0074044Y0043926D01*
X0072576Y0043926D02*
X0072576Y0042458D01*
X0082576Y0042458D02*
X0082943Y0042091D01*
X0083677Y0042091D01*
X0084044Y0042458D01*
X0084044Y0042825D01*
X0083677Y0043192D01*
X0082943Y0043192D01*
X0082576Y0043559D01*
X0082576Y0043926D01*
X0082943Y0044293D01*
X0083677Y0044293D01*
X0084044Y0043926D01*
X0084786Y0044293D02*
X0085887Y0044293D01*
X0086254Y0043926D01*
X0086254Y0043559D01*
X0085887Y0043192D01*
X0084786Y0043192D01*
X0084786Y0042091D02*
X0084786Y0044293D01*
X0085887Y0043192D02*
X0086254Y0042825D01*
X0086254Y0042458D01*
X0085887Y0042091D01*
X0084786Y0042091D01*
X0089576Y0042192D02*
X0091044Y0042192D01*
X0090310Y0042926D02*
X0090310Y0041458D01*
X0091786Y0041458D02*
X0092153Y0041091D01*
X0092887Y0041091D01*
X0093254Y0041458D01*
X0093254Y0041825D01*
X0092887Y0042192D01*
X0092520Y0042192D01*
X0092887Y0042192D02*
X0093254Y0042559D01*
X0093254Y0042926D01*
X0092887Y0043293D01*
X0092153Y0043293D01*
X0091786Y0042926D01*
X0093996Y0041458D02*
X0094363Y0041458D01*
X0094363Y0041091D01*
X0093996Y0041091D01*
X0093996Y0041458D01*
X0095101Y0041458D02*
X0095468Y0041091D01*
X0096202Y0041091D01*
X0096569Y0041458D01*
X0096569Y0041825D01*
X0096202Y0042192D01*
X0095835Y0042192D01*
X0096202Y0042192D02*
X0096569Y0042559D01*
X0096569Y0042926D01*
X0096202Y0043293D01*
X0095468Y0043293D01*
X0095101Y0042926D01*
X0103576Y0042458D02*
X0103943Y0042091D01*
X0104677Y0042091D01*
X0105044Y0042458D01*
X0105044Y0043926D01*
X0104677Y0044293D01*
X0103943Y0044293D01*
X0103576Y0043926D01*
X0103576Y0043559D01*
X0103943Y0043192D01*
X0105044Y0043192D01*
X0104677Y0044926D02*
X0103943Y0045660D01*
X0103576Y0045293D01*
X0104677Y0044926D02*
X0105044Y0045293D01*
X0112076Y0043559D02*
X0112810Y0044293D01*
X0112810Y0042091D01*
X0112076Y0042091D02*
X0113544Y0042091D01*
X0114286Y0042458D02*
X0115754Y0043926D01*
X0115754Y0042458D01*
X0115387Y0042091D01*
X0114653Y0042091D01*
X0114286Y0042458D01*
X0114286Y0043926D01*
X0114653Y0044293D01*
X0115387Y0044293D01*
X0115754Y0043926D01*
X0114544Y0045293D02*
X0114177Y0044926D01*
X0113443Y0045660D01*
X0113076Y0045293D01*
X0122076Y0043559D02*
X0122810Y0044293D01*
X0122810Y0042091D01*
X0122076Y0042091D02*
X0123544Y0042091D01*
X0124286Y0042091D02*
X0125754Y0042091D01*
X0125020Y0042091D02*
X0125020Y0044293D01*
X0124286Y0043559D01*
X0124677Y0044926D02*
X0125044Y0045293D01*
X0124677Y0044926D02*
X0123943Y0045660D01*
X0123576Y0045293D01*
X0132076Y0043559D02*
X0132810Y0044293D01*
X0132810Y0042091D01*
X0132076Y0042091D02*
X0133544Y0042091D01*
X0134286Y0042091D02*
X0135754Y0043559D01*
X0135754Y0043926D01*
X0135387Y0044293D01*
X0134653Y0044293D01*
X0134286Y0043926D01*
X0134286Y0042091D02*
X0135754Y0042091D01*
X0142076Y0042091D02*
X0143544Y0042091D01*
X0142810Y0042091D02*
X0142810Y0044293D01*
X0142076Y0043559D01*
X0144286Y0043926D02*
X0144653Y0044293D01*
X0145387Y0044293D01*
X0145754Y0043926D01*
X0145754Y0043559D01*
X0145387Y0043192D01*
X0145754Y0042825D01*
X0145754Y0042458D01*
X0145387Y0042091D01*
X0144653Y0042091D01*
X0144286Y0042458D01*
X0145020Y0043192D02*
X0145387Y0043192D01*
X0152076Y0043192D02*
X0153544Y0043192D01*
X0153544Y0043559D02*
X0153544Y0042091D01*
X0154286Y0042458D02*
X0154653Y0042091D01*
X0155387Y0042091D01*
X0155754Y0042458D01*
X0155754Y0043926D01*
X0154286Y0042458D01*
X0154286Y0043926D01*
X0154653Y0044293D01*
X0155387Y0044293D01*
X0155754Y0043926D01*
X0153544Y0043559D02*
X0152810Y0044293D01*
X0152076Y0043559D01*
X0152076Y0042091D01*
X0162076Y0042091D02*
X0162076Y0043559D01*
X0162810Y0044293D01*
X0163544Y0043559D01*
X0163544Y0042091D01*
X0164286Y0042091D02*
X0165754Y0042091D01*
X0165020Y0042091D02*
X0165020Y0044293D01*
X0164286Y0043559D01*
X0163544Y0043192D02*
X0162076Y0043192D01*
X0172076Y0043192D02*
X0173544Y0043192D01*
X0173544Y0043559D02*
X0173544Y0042091D01*
X0174286Y0043192D02*
X0175754Y0043192D01*
X0175387Y0044293D02*
X0174286Y0043192D01*
X0173544Y0043559D02*
X0172810Y0044293D01*
X0172076Y0043559D01*
X0172076Y0042091D01*
X0175387Y0042091D02*
X0175387Y0044293D01*
X0182576Y0043559D02*
X0182576Y0042091D01*
X0182576Y0043192D02*
X0184044Y0043192D01*
X0184044Y0043559D02*
X0184044Y0042091D01*
X0184786Y0042458D02*
X0185153Y0042091D01*
X0185887Y0042091D01*
X0186254Y0042458D01*
X0186254Y0043192D01*
X0185887Y0043559D01*
X0185520Y0043559D01*
X0184786Y0043192D01*
X0184786Y0044293D01*
X0186254Y0044293D01*
X0184044Y0043559D02*
X0183310Y0044293D01*
X0182576Y0043559D01*
X0182464Y0057091D02*
X0182464Y0058559D01*
X0181730Y0059293D01*
X0180996Y0058559D01*
X0180996Y0057091D01*
X0180254Y0057458D02*
X0180254Y0058926D01*
X0179887Y0059293D01*
X0178786Y0059293D01*
X0178786Y0057091D01*
X0179887Y0057091D01*
X0180254Y0057458D01*
X0180996Y0058192D02*
X0182464Y0058192D01*
X0186576Y0058559D02*
X0186943Y0058192D01*
X0187677Y0058192D01*
X0188044Y0057825D01*
X0188044Y0057458D01*
X0187677Y0057091D01*
X0186943Y0057091D01*
X0186576Y0057458D01*
X0186576Y0058559D02*
X0186576Y0058926D01*
X0186943Y0059293D01*
X0187677Y0059293D01*
X0188044Y0058926D01*
X0188786Y0058926D02*
X0188786Y0057458D01*
X0189153Y0057091D01*
X0189887Y0057091D01*
X0190254Y0057458D01*
X0190996Y0057091D02*
X0192464Y0057091D01*
X0190996Y0057091D02*
X0190996Y0059293D01*
X0190254Y0058926D02*
X0189887Y0059293D01*
X0189153Y0059293D01*
X0188786Y0058926D01*
X0178044Y0058926D02*
X0177677Y0059293D01*
X0176943Y0059293D01*
X0176576Y0058926D01*
X0176576Y0058559D01*
X0176943Y0058192D01*
X0177677Y0058192D01*
X0178044Y0057825D01*
X0178044Y0057458D01*
X0177677Y0057091D01*
X0176943Y0057091D01*
X0176576Y0057458D01*
X0152464Y0057091D02*
X0151363Y0058192D01*
X0150996Y0057825D02*
X0152464Y0059293D01*
X0150996Y0059293D02*
X0150996Y0057091D01*
X0150254Y0057091D02*
X0148786Y0057091D01*
X0148786Y0059293D01*
X0148044Y0058926D02*
X0147677Y0059293D01*
X0146943Y0059293D01*
X0146576Y0058926D01*
X0146576Y0057458D01*
X0146943Y0057091D01*
X0147677Y0057091D01*
X0148044Y0057458D01*
X0141227Y0057458D02*
X0140860Y0057091D01*
X0140126Y0057091D01*
X0139760Y0057458D01*
X0140126Y0058192D02*
X0140860Y0058192D01*
X0141227Y0057825D01*
X0141227Y0057458D01*
X0140126Y0058192D02*
X0139760Y0058559D01*
X0139760Y0058926D01*
X0140126Y0059293D01*
X0140860Y0059293D01*
X0141227Y0058926D01*
X0139020Y0059293D02*
X0138286Y0059293D01*
X0138653Y0059293D02*
X0138653Y0057091D01*
X0138286Y0057091D02*
X0139020Y0057091D01*
X0137544Y0057091D02*
X0137544Y0059293D01*
X0136810Y0058559D01*
X0136076Y0059293D01*
X0136076Y0057091D01*
X0131464Y0057458D02*
X0131097Y0057091D01*
X0130363Y0057091D01*
X0129996Y0057458D01*
X0129254Y0057458D02*
X0129254Y0058926D01*
X0128887Y0059293D01*
X0128153Y0059293D01*
X0127786Y0058926D01*
X0127786Y0057458D01*
X0128153Y0057091D01*
X0128887Y0057091D01*
X0129254Y0057458D01*
X0129996Y0058559D02*
X0130363Y0058192D01*
X0131097Y0058192D01*
X0131464Y0057825D01*
X0131464Y0057458D01*
X0131464Y0058926D02*
X0131097Y0059293D01*
X0130363Y0059293D01*
X0129996Y0058926D01*
X0129996Y0058559D01*
X0127044Y0059293D02*
X0127044Y0057091D01*
X0125576Y0057091D02*
X0125576Y0059293D01*
X0126310Y0058559D01*
X0127044Y0059293D01*
X0209645Y0097351D02*
X0210012Y0096985D01*
X0210746Y0096985D01*
X0211113Y0097351D01*
X0211113Y0098819D01*
X0210746Y0099186D01*
X0210012Y0099186D01*
X0209645Y0098819D01*
X0209645Y0097351D01*
X0210379Y0097718D02*
X0211113Y0096985D01*
X0211855Y0096985D02*
X0213323Y0096985D01*
X0212589Y0096985D02*
X0212589Y0099186D01*
X0211855Y0098452D01*
X0228076Y0100208D02*
X0228443Y0099841D01*
X0229177Y0099841D01*
X0229544Y0100208D01*
X0230286Y0099841D02*
X0231754Y0099841D01*
X0231020Y0099841D02*
X0231020Y0102043D01*
X0230286Y0101309D01*
X0229544Y0101676D02*
X0229177Y0102043D01*
X0228443Y0102043D01*
X0228076Y0101676D01*
X0228076Y0100208D01*
X0241237Y0099441D02*
X0242705Y0099441D01*
X0243447Y0099441D02*
X0244915Y0099441D01*
X0245657Y0099441D02*
X0246758Y0099441D01*
X0247124Y0099808D01*
X0247124Y0101276D01*
X0246758Y0101643D01*
X0245657Y0101643D01*
X0245657Y0099441D01*
X0244181Y0100542D02*
X0243447Y0100542D01*
X0243447Y0101643D02*
X0243447Y0099441D01*
X0243447Y0101643D02*
X0244915Y0101643D01*
X0247866Y0100909D02*
X0248600Y0101643D01*
X0248600Y0099441D01*
X0247866Y0099441D02*
X0249334Y0099441D01*
X0241237Y0099441D02*
X0241237Y0101643D01*
X0245576Y0094543D02*
X0246677Y0094543D01*
X0247044Y0094176D01*
X0247044Y0093442D01*
X0246677Y0093075D01*
X0245576Y0093075D01*
X0245576Y0092341D02*
X0245576Y0094543D01*
X0246310Y0093075D02*
X0247044Y0092341D01*
X0247786Y0092341D02*
X0249254Y0093809D01*
X0249254Y0094176D01*
X0248887Y0094543D01*
X0248153Y0094543D01*
X0247786Y0094176D01*
X0247786Y0092341D02*
X0249254Y0092341D01*
X0231754Y0081676D02*
X0231387Y0082043D01*
X0230653Y0082043D01*
X0230286Y0081676D01*
X0229544Y0081676D02*
X0229177Y0082043D01*
X0228443Y0082043D01*
X0228076Y0081676D01*
X0228076Y0080208D01*
X0228443Y0079841D01*
X0229177Y0079841D01*
X0229544Y0080208D01*
X0230286Y0079841D02*
X0231754Y0081309D01*
X0231754Y0081676D01*
X0231754Y0079841D02*
X0230286Y0079841D01*
X0239310Y0069293D02*
X0240044Y0068559D01*
X0240044Y0067091D01*
X0240786Y0067091D02*
X0240786Y0067458D01*
X0242254Y0068926D01*
X0242254Y0069293D01*
X0240786Y0069293D01*
X0240044Y0068192D02*
X0238576Y0068192D01*
X0238576Y0068559D02*
X0239310Y0069293D01*
X0238576Y0068559D02*
X0238576Y0067091D01*
X0213137Y0136591D02*
X0212403Y0136591D01*
X0212036Y0136958D01*
X0211294Y0136958D02*
X0211294Y0138426D01*
X0210927Y0138793D01*
X0210193Y0138793D01*
X0209826Y0138426D01*
X0209826Y0136958D01*
X0210193Y0136591D01*
X0210927Y0136591D01*
X0211294Y0136958D01*
X0211294Y0136591D02*
X0210560Y0137325D01*
X0212036Y0138426D02*
X0212403Y0138793D01*
X0213137Y0138793D01*
X0213504Y0138426D01*
X0213504Y0138059D01*
X0213137Y0137692D01*
X0213504Y0137325D01*
X0213504Y0136958D01*
X0213137Y0136591D01*
X0213137Y0137692D02*
X0212770Y0137692D01*
X0195929Y0170191D02*
X0196296Y0170558D01*
X0195929Y0170191D02*
X0195195Y0170191D01*
X0194828Y0170558D01*
X0194828Y0170925D01*
X0195195Y0171292D01*
X0195929Y0171292D01*
X0196296Y0171659D01*
X0196296Y0172026D01*
X0195929Y0172393D01*
X0195195Y0172393D01*
X0194828Y0172026D01*
X0194086Y0172393D02*
X0192985Y0172393D01*
X0192618Y0172026D01*
X0192618Y0171659D01*
X0192985Y0171292D01*
X0194086Y0171292D01*
X0192985Y0171292D02*
X0192618Y0170925D01*
X0192618Y0170558D01*
X0192985Y0170191D01*
X0194086Y0170191D01*
X0194086Y0172393D01*
X0186876Y0172157D02*
X0185775Y0172157D01*
X0185408Y0171790D01*
X0185408Y0171056D01*
X0185775Y0170689D01*
X0186876Y0170689D01*
X0186876Y0172891D01*
X0186142Y0172157D02*
X0185408Y0172891D01*
X0184666Y0172524D02*
X0184300Y0172891D01*
X0183566Y0172891D01*
X0183199Y0172524D01*
X0183199Y0172157D01*
X0183566Y0171790D01*
X0184300Y0171790D01*
X0184666Y0171423D01*
X0184666Y0171056D01*
X0184300Y0170689D01*
X0183566Y0170689D01*
X0183199Y0171056D01*
X0182457Y0170689D02*
X0180989Y0170689D01*
X0181723Y0170689D02*
X0181723Y0172891D01*
X0175376Y0172391D02*
X0175376Y0170189D01*
X0174275Y0170189D01*
X0173908Y0170556D01*
X0173908Y0171290D01*
X0174275Y0171657D01*
X0175376Y0171657D01*
X0174642Y0171657D02*
X0173908Y0172391D01*
X0173166Y0172391D02*
X0171699Y0170189D01*
X0173166Y0170189D02*
X0171699Y0172391D01*
X0165876Y0170189D02*
X0164408Y0170189D01*
X0165142Y0170189D02*
X0165142Y0172391D01*
X0163666Y0172391D02*
X0162199Y0170189D01*
X0163666Y0170189D02*
X0162199Y0172391D01*
X0154376Y0172024D02*
X0154009Y0172391D01*
X0153275Y0172391D01*
X0152908Y0172024D01*
X0152908Y0171657D01*
X0153275Y0171290D01*
X0153642Y0171290D01*
X0153275Y0171290D02*
X0152908Y0170923D01*
X0152908Y0170556D01*
X0153275Y0170189D01*
X0154009Y0170189D01*
X0154376Y0170556D01*
X0154544Y0169293D02*
X0154177Y0168926D01*
X0153443Y0169660D01*
X0153076Y0169293D01*
X0144376Y0171290D02*
X0142908Y0171290D01*
X0143275Y0172391D02*
X0143275Y0170189D01*
X0144376Y0171290D01*
X0134876Y0171290D02*
X0134142Y0170923D01*
X0133775Y0170923D01*
X0133408Y0171290D01*
X0133408Y0172024D01*
X0133775Y0172391D01*
X0134509Y0172391D01*
X0134876Y0172024D01*
X0134876Y0171290D02*
X0134876Y0170189D01*
X0133408Y0170189D01*
X0133943Y0169660D02*
X0134677Y0168926D01*
X0135044Y0169293D01*
X0133943Y0169660D02*
X0133576Y0169293D01*
X0124544Y0169793D02*
X0124177Y0169426D01*
X0123443Y0170160D01*
X0123076Y0169793D01*
X0123408Y0170689D02*
X0124142Y0171056D01*
X0124876Y0171790D01*
X0123775Y0171790D01*
X0123408Y0172157D01*
X0123408Y0172524D01*
X0123775Y0172891D01*
X0124509Y0172891D01*
X0124876Y0172524D01*
X0124876Y0171790D01*
X0114376Y0172157D02*
X0114009Y0171790D01*
X0113275Y0171790D01*
X0112908Y0172157D01*
X0112908Y0172524D01*
X0113275Y0172891D01*
X0114009Y0172891D01*
X0114376Y0172524D01*
X0114376Y0172157D01*
X0114009Y0171790D02*
X0114376Y0171423D01*
X0114376Y0171056D01*
X0114009Y0170689D01*
X0113275Y0170689D01*
X0112908Y0171056D01*
X0112908Y0171423D01*
X0113275Y0171790D01*
X0107876Y0171790D02*
X0106408Y0171790D01*
X0107142Y0171056D02*
X0107142Y0172524D01*
X0105666Y0172524D02*
X0105300Y0172891D01*
X0104566Y0172891D01*
X0104199Y0172524D01*
X0104199Y0172157D01*
X0104566Y0171790D01*
X0104933Y0171790D01*
X0104566Y0171790D02*
X0104199Y0171423D01*
X0104199Y0171056D01*
X0104566Y0170689D01*
X0105300Y0170689D01*
X0105666Y0171056D01*
X0103457Y0172524D02*
X0103090Y0172524D01*
X0103090Y0172891D01*
X0103457Y0172891D01*
X0103457Y0172524D01*
X0102352Y0172524D02*
X0101985Y0172891D01*
X0101251Y0172891D01*
X0100884Y0172524D01*
X0100884Y0172157D01*
X0101251Y0171790D01*
X0101618Y0171790D01*
X0101251Y0171790D02*
X0100884Y0171423D01*
X0100884Y0171056D01*
X0101251Y0170689D01*
X0101985Y0170689D01*
X0102352Y0171056D01*
X0096376Y0171290D02*
X0094908Y0171290D01*
X0094166Y0171290D02*
X0093433Y0170923D01*
X0093066Y0170923D01*
X0092699Y0171290D01*
X0092699Y0172024D01*
X0093066Y0172391D01*
X0093800Y0172391D01*
X0094166Y0172024D01*
X0094166Y0171290D02*
X0094166Y0170189D01*
X0092699Y0170189D01*
X0095642Y0170556D02*
X0095642Y0172024D01*
X0084876Y0172024D02*
X0084876Y0170556D01*
X0084509Y0170189D01*
X0083775Y0170189D01*
X0083408Y0170556D01*
X0083408Y0171290D02*
X0084142Y0171290D01*
X0083408Y0171290D02*
X0083408Y0172024D01*
X0083775Y0172391D01*
X0084509Y0172391D01*
X0084876Y0172024D01*
D11*
X0216094Y0047543D02*
X0217061Y0047543D01*
X0216578Y0047543D02*
X0216578Y0045125D01*
X0216094Y0044641D01*
X0215610Y0044641D01*
X0215126Y0045125D01*
X0218073Y0044641D02*
X0218073Y0047543D01*
X0220008Y0047543D01*
X0221019Y0046576D02*
X0221503Y0047060D01*
X0221503Y0048027D01*
X0222976Y0046576D02*
X0224428Y0046576D01*
X0223944Y0045608D02*
X0222976Y0045608D01*
X0222493Y0046092D01*
X0222976Y0046576D01*
X0223944Y0045608D02*
X0224428Y0045125D01*
X0223944Y0044641D01*
X0222493Y0044641D01*
X0219040Y0046092D02*
X0218073Y0046092D01*
X0228386Y0045608D02*
X0229837Y0045608D01*
X0230321Y0046092D01*
X0230321Y0047060D01*
X0229837Y0047543D01*
X0228386Y0047543D01*
X0228386Y0044641D01*
X0229353Y0045608D02*
X0230321Y0044641D01*
X0231332Y0044641D02*
X0233267Y0046576D01*
X0233267Y0047060D01*
X0232783Y0047543D01*
X0231816Y0047543D01*
X0231332Y0047060D01*
X0231332Y0044641D02*
X0233267Y0044641D01*
X0234279Y0045125D02*
X0234279Y0047060D01*
X0234762Y0047543D01*
X0235730Y0047543D01*
X0236214Y0047060D01*
X0236214Y0045125D02*
X0235730Y0044641D01*
X0234762Y0044641D01*
X0234279Y0045125D01*
X0240172Y0045608D02*
X0241139Y0046576D01*
X0241623Y0046576D01*
X0242627Y0046092D02*
X0243111Y0046576D01*
X0244078Y0046576D01*
X0244562Y0046092D01*
X0244562Y0045608D01*
X0242627Y0045608D01*
X0242627Y0045125D02*
X0242627Y0046092D01*
X0242627Y0045125D02*
X0243111Y0044641D01*
X0244078Y0044641D01*
X0245574Y0046576D02*
X0246541Y0044641D01*
X0247509Y0046576D01*
X0248520Y0046092D02*
X0250455Y0046092D01*
X0249971Y0044641D02*
X0249971Y0047543D01*
X0248520Y0046092D01*
X0240172Y0046576D02*
X0240172Y0044641D01*
X0162357Y0007110D02*
X0160505Y0007110D01*
X0159888Y0006492D01*
X0159888Y0005258D01*
X0160505Y0004641D01*
X0162357Y0004641D01*
X0158674Y0004641D02*
X0156205Y0004641D01*
X0158674Y0007110D01*
X0158674Y0007727D01*
X0158057Y0008344D01*
X0156822Y0008344D01*
X0156205Y0007727D01*
X0154987Y0007110D02*
X0154370Y0007110D01*
X0153136Y0005875D01*
X0153136Y0004641D02*
X0153136Y0007110D01*
X0151921Y0008344D02*
X0149453Y0004641D01*
X0148238Y0005258D02*
X0148238Y0006492D01*
X0147621Y0007110D01*
X0146387Y0007110D01*
X0145769Y0006492D01*
X0145769Y0005258D01*
X0146387Y0004641D01*
X0147621Y0004641D01*
X0148238Y0005258D01*
X0144548Y0004641D02*
X0143314Y0004641D01*
X0143931Y0004641D02*
X0143931Y0008344D01*
X0143314Y0008344D01*
X0141476Y0008344D02*
X0141476Y0004641D01*
X0140859Y0004641D02*
X0142093Y0004641D01*
X0139644Y0005875D02*
X0137175Y0005875D01*
X0137175Y0005258D02*
X0137175Y0006492D01*
X0137793Y0007110D01*
X0139027Y0007110D01*
X0139644Y0006492D01*
X0139644Y0005875D01*
X0139027Y0004641D02*
X0137793Y0004641D01*
X0137175Y0005258D01*
X0135961Y0004641D02*
X0134109Y0004641D01*
X0133492Y0005258D01*
X0133492Y0006492D01*
X0134109Y0007110D01*
X0135961Y0007110D01*
X0135961Y0008344D02*
X0135961Y0004641D01*
X0132275Y0007110D02*
X0131657Y0007110D01*
X0130423Y0005875D01*
X0129209Y0005875D02*
X0127357Y0005875D01*
X0126740Y0005258D01*
X0127357Y0004641D01*
X0129209Y0004641D01*
X0129209Y0006492D01*
X0128591Y0007110D01*
X0127357Y0007110D01*
X0125519Y0006492D02*
X0124284Y0006492D01*
X0123063Y0007110D02*
X0123063Y0004024D01*
X0122446Y0003406D01*
X0121829Y0003406D01*
X0124902Y0004641D02*
X0124902Y0007727D01*
X0125519Y0008344D01*
X0123063Y0008344D02*
X0123063Y0008961D01*
X0120615Y0008344D02*
X0118146Y0004641D01*
X0116931Y0004641D02*
X0116931Y0006492D01*
X0116314Y0007110D01*
X0115697Y0006492D01*
X0115697Y0004641D01*
X0114463Y0004641D02*
X0114463Y0007110D01*
X0115080Y0007110D01*
X0115697Y0006492D01*
X0113248Y0006492D02*
X0113248Y0005258D01*
X0112631Y0004641D01*
X0111397Y0004641D01*
X0110780Y0005258D01*
X0110780Y0006492D01*
X0111397Y0007110D01*
X0112631Y0007110D01*
X0113248Y0006492D01*
X0109565Y0007110D02*
X0107714Y0007110D01*
X0107096Y0006492D01*
X0107096Y0005258D01*
X0107714Y0004641D01*
X0109565Y0004641D01*
X0105872Y0004641D02*
X0105255Y0004641D01*
X0105255Y0005258D01*
X0105872Y0005258D01*
X0105872Y0004641D01*
X0104040Y0005258D02*
X0104040Y0006492D01*
X0103423Y0007110D01*
X0101572Y0007110D01*
X0100357Y0007110D02*
X0100357Y0004641D01*
X0098506Y0004641D01*
X0097889Y0005258D01*
X0097889Y0007110D01*
X0096674Y0006492D02*
X0096674Y0004641D01*
X0096674Y0006492D02*
X0096057Y0007110D01*
X0094823Y0007110D01*
X0094205Y0006492D01*
X0092984Y0007110D02*
X0091750Y0007110D01*
X0092367Y0007727D02*
X0092367Y0005258D01*
X0092984Y0004641D01*
X0094205Y0004641D02*
X0094205Y0008344D01*
X0092377Y0009641D02*
X0092377Y0012110D01*
X0091143Y0013344D01*
X0089908Y0012110D01*
X0089908Y0009641D01*
X0089912Y0008961D02*
X0089912Y0008344D01*
X0089912Y0007110D02*
X0089912Y0004641D01*
X0089295Y0004641D02*
X0090529Y0004641D01*
X0088080Y0004641D02*
X0086229Y0004641D01*
X0085611Y0005258D01*
X0085611Y0006492D01*
X0086229Y0007110D01*
X0088080Y0007110D01*
X0088080Y0004024D01*
X0087463Y0003406D01*
X0086846Y0003406D01*
X0089295Y0007110D02*
X0089912Y0007110D01*
X0088077Y0009641D02*
X0086842Y0009641D01*
X0086225Y0010258D01*
X0086842Y0011492D02*
X0088077Y0011492D01*
X0088694Y0010875D01*
X0088694Y0010258D01*
X0088077Y0009641D01*
X0086842Y0011492D02*
X0086225Y0012110D01*
X0086225Y0012727D01*
X0086842Y0013344D01*
X0088077Y0013344D01*
X0088694Y0012727D01*
X0089908Y0011492D02*
X0092377Y0011492D01*
X0085011Y0011492D02*
X0082542Y0011492D01*
X0081328Y0012727D02*
X0081328Y0013344D01*
X0081328Y0012727D02*
X0080093Y0011492D01*
X0080093Y0009641D01*
X0080714Y0008344D02*
X0078245Y0004641D01*
X0077021Y0004641D02*
X0076404Y0004641D01*
X0076404Y0005258D01*
X0077021Y0005258D01*
X0077021Y0004641D01*
X0077021Y0006492D02*
X0076404Y0006492D01*
X0076404Y0007110D01*
X0077021Y0007110D01*
X0077021Y0006492D01*
X0075189Y0006492D02*
X0075189Y0005258D01*
X0074572Y0004641D01*
X0072720Y0004641D01*
X0071499Y0004641D02*
X0070882Y0005258D01*
X0070882Y0007727D01*
X0070265Y0007110D02*
X0071499Y0007110D01*
X0072720Y0007110D02*
X0074572Y0007110D01*
X0075189Y0006492D01*
X0072720Y0007110D02*
X0072720Y0003406D01*
X0069044Y0004641D02*
X0068427Y0005258D01*
X0068427Y0007727D01*
X0067810Y0007110D02*
X0069044Y0007110D01*
X0066595Y0006492D02*
X0066595Y0004641D01*
X0066595Y0006492D02*
X0065978Y0007110D01*
X0064744Y0007110D01*
X0064126Y0006492D01*
X0064126Y0004641D02*
X0064126Y0008344D01*
X0064744Y0009641D02*
X0065978Y0009641D01*
X0066595Y0010258D01*
X0067810Y0010258D02*
X0068427Y0009641D01*
X0069661Y0009641D01*
X0070278Y0010258D01*
X0071493Y0011492D02*
X0073961Y0011492D01*
X0075176Y0011492D02*
X0077027Y0011492D01*
X0077645Y0010875D01*
X0077645Y0010258D01*
X0077027Y0009641D01*
X0075176Y0009641D01*
X0075176Y0013344D01*
X0077027Y0013344D01*
X0077645Y0012727D01*
X0077645Y0012110D01*
X0077027Y0011492D01*
X0078859Y0012727D02*
X0080093Y0011492D01*
X0078859Y0012727D02*
X0078859Y0013344D01*
X0073961Y0015258D02*
X0073344Y0014641D01*
X0072110Y0014641D01*
X0071493Y0015258D01*
X0071493Y0017727D01*
X0072110Y0018344D01*
X0073344Y0018344D01*
X0073961Y0017727D01*
X0070278Y0017727D02*
X0069661Y0018344D01*
X0068427Y0018344D01*
X0067810Y0017727D01*
X0066595Y0017727D02*
X0066595Y0016492D01*
X0065978Y0015875D01*
X0064126Y0015875D01*
X0064126Y0014641D02*
X0064126Y0018344D01*
X0065978Y0018344D01*
X0066595Y0017727D01*
X0065361Y0015875D02*
X0066595Y0014641D01*
X0067810Y0014641D02*
X0070278Y0017110D01*
X0070278Y0017727D01*
X0070278Y0014641D02*
X0067810Y0014641D01*
X0068427Y0013344D02*
X0067810Y0012727D01*
X0067810Y0010258D01*
X0066595Y0012727D02*
X0065978Y0013344D01*
X0064744Y0013344D01*
X0064126Y0012727D01*
X0064126Y0010258D01*
X0064744Y0009641D01*
X0068427Y0013344D02*
X0069661Y0013344D01*
X0070278Y0012727D01*
X0081928Y0004641D02*
X0084397Y0008344D01*
X0101572Y0008344D02*
X0101572Y0004641D01*
X0103423Y0004641D01*
X0104040Y0005258D01*
X0130423Y0004641D02*
X0130423Y0007110D01*
X0140859Y0008344D02*
X0141476Y0008344D01*
D12*
X0059614Y0034156D02*
X0264339Y0034156D01*
X0258040Y0049904D02*
X0258042Y0050062D01*
X0258048Y0050220D01*
X0258058Y0050378D01*
X0258072Y0050536D01*
X0258090Y0050693D01*
X0258111Y0050850D01*
X0258137Y0051006D01*
X0258167Y0051162D01*
X0258200Y0051317D01*
X0258238Y0051470D01*
X0258279Y0051623D01*
X0258324Y0051775D01*
X0258373Y0051926D01*
X0258426Y0052075D01*
X0258482Y0052223D01*
X0258542Y0052369D01*
X0258606Y0052514D01*
X0258674Y0052657D01*
X0258745Y0052799D01*
X0258819Y0052939D01*
X0258897Y0053076D01*
X0258979Y0053212D01*
X0259063Y0053346D01*
X0259152Y0053477D01*
X0259243Y0053606D01*
X0259338Y0053733D01*
X0259435Y0053858D01*
X0259536Y0053980D01*
X0259640Y0054099D01*
X0259747Y0054216D01*
X0259857Y0054330D01*
X0259970Y0054441D01*
X0260085Y0054550D01*
X0260203Y0054655D01*
X0260324Y0054757D01*
X0260447Y0054857D01*
X0260573Y0054953D01*
X0260701Y0055046D01*
X0260831Y0055136D01*
X0260964Y0055222D01*
X0261099Y0055306D01*
X0261235Y0055385D01*
X0261374Y0055462D01*
X0261515Y0055534D01*
X0261657Y0055604D01*
X0261801Y0055669D01*
X0261947Y0055731D01*
X0262094Y0055789D01*
X0262243Y0055844D01*
X0262393Y0055895D01*
X0262544Y0055942D01*
X0262696Y0055985D01*
X0262849Y0056024D01*
X0263004Y0056060D01*
X0263159Y0056091D01*
X0263315Y0056119D01*
X0263471Y0056143D01*
X0263628Y0056163D01*
X0263786Y0056179D01*
X0263943Y0056191D01*
X0264102Y0056199D01*
X0264260Y0056203D01*
X0264418Y0056203D01*
X0264576Y0056199D01*
X0264735Y0056191D01*
X0264892Y0056179D01*
X0265050Y0056163D01*
X0265207Y0056143D01*
X0265363Y0056119D01*
X0265519Y0056091D01*
X0265674Y0056060D01*
X0265829Y0056024D01*
X0265982Y0055985D01*
X0266134Y0055942D01*
X0266285Y0055895D01*
X0266435Y0055844D01*
X0266584Y0055789D01*
X0266731Y0055731D01*
X0266877Y0055669D01*
X0267021Y0055604D01*
X0267163Y0055534D01*
X0267304Y0055462D01*
X0267443Y0055385D01*
X0267579Y0055306D01*
X0267714Y0055222D01*
X0267847Y0055136D01*
X0267977Y0055046D01*
X0268105Y0054953D01*
X0268231Y0054857D01*
X0268354Y0054757D01*
X0268475Y0054655D01*
X0268593Y0054550D01*
X0268708Y0054441D01*
X0268821Y0054330D01*
X0268931Y0054216D01*
X0269038Y0054099D01*
X0269142Y0053980D01*
X0269243Y0053858D01*
X0269340Y0053733D01*
X0269435Y0053606D01*
X0269526Y0053477D01*
X0269615Y0053346D01*
X0269699Y0053212D01*
X0269781Y0053076D01*
X0269859Y0052939D01*
X0269933Y0052799D01*
X0270004Y0052657D01*
X0270072Y0052514D01*
X0270136Y0052369D01*
X0270196Y0052223D01*
X0270252Y0052075D01*
X0270305Y0051926D01*
X0270354Y0051775D01*
X0270399Y0051623D01*
X0270440Y0051470D01*
X0270478Y0051317D01*
X0270511Y0051162D01*
X0270541Y0051006D01*
X0270567Y0050850D01*
X0270588Y0050693D01*
X0270606Y0050536D01*
X0270620Y0050378D01*
X0270630Y0050220D01*
X0270636Y0050062D01*
X0270638Y0049904D01*
X0270636Y0049746D01*
X0270630Y0049588D01*
X0270620Y0049430D01*
X0270606Y0049272D01*
X0270588Y0049115D01*
X0270567Y0048958D01*
X0270541Y0048802D01*
X0270511Y0048646D01*
X0270478Y0048491D01*
X0270440Y0048338D01*
X0270399Y0048185D01*
X0270354Y0048033D01*
X0270305Y0047882D01*
X0270252Y0047733D01*
X0270196Y0047585D01*
X0270136Y0047439D01*
X0270072Y0047294D01*
X0270004Y0047151D01*
X0269933Y0047009D01*
X0269859Y0046869D01*
X0269781Y0046732D01*
X0269699Y0046596D01*
X0269615Y0046462D01*
X0269526Y0046331D01*
X0269435Y0046202D01*
X0269340Y0046075D01*
X0269243Y0045950D01*
X0269142Y0045828D01*
X0269038Y0045709D01*
X0268931Y0045592D01*
X0268821Y0045478D01*
X0268708Y0045367D01*
X0268593Y0045258D01*
X0268475Y0045153D01*
X0268354Y0045051D01*
X0268231Y0044951D01*
X0268105Y0044855D01*
X0267977Y0044762D01*
X0267847Y0044672D01*
X0267714Y0044586D01*
X0267579Y0044502D01*
X0267443Y0044423D01*
X0267304Y0044346D01*
X0267163Y0044274D01*
X0267021Y0044204D01*
X0266877Y0044139D01*
X0266731Y0044077D01*
X0266584Y0044019D01*
X0266435Y0043964D01*
X0266285Y0043913D01*
X0266134Y0043866D01*
X0265982Y0043823D01*
X0265829Y0043784D01*
X0265674Y0043748D01*
X0265519Y0043717D01*
X0265363Y0043689D01*
X0265207Y0043665D01*
X0265050Y0043645D01*
X0264892Y0043629D01*
X0264735Y0043617D01*
X0264576Y0043609D01*
X0264418Y0043605D01*
X0264260Y0043605D01*
X0264102Y0043609D01*
X0263943Y0043617D01*
X0263786Y0043629D01*
X0263628Y0043645D01*
X0263471Y0043665D01*
X0263315Y0043689D01*
X0263159Y0043717D01*
X0263004Y0043748D01*
X0262849Y0043784D01*
X0262696Y0043823D01*
X0262544Y0043866D01*
X0262393Y0043913D01*
X0262243Y0043964D01*
X0262094Y0044019D01*
X0261947Y0044077D01*
X0261801Y0044139D01*
X0261657Y0044204D01*
X0261515Y0044274D01*
X0261374Y0044346D01*
X0261235Y0044423D01*
X0261099Y0044502D01*
X0260964Y0044586D01*
X0260831Y0044672D01*
X0260701Y0044762D01*
X0260573Y0044855D01*
X0260447Y0044951D01*
X0260324Y0045051D01*
X0260203Y0045153D01*
X0260085Y0045258D01*
X0259970Y0045367D01*
X0259857Y0045478D01*
X0259747Y0045592D01*
X0259640Y0045709D01*
X0259536Y0045828D01*
X0259435Y0045950D01*
X0259338Y0046075D01*
X0259243Y0046202D01*
X0259152Y0046331D01*
X0259063Y0046462D01*
X0258979Y0046596D01*
X0258897Y0046732D01*
X0258819Y0046869D01*
X0258745Y0047009D01*
X0258674Y0047151D01*
X0258606Y0047294D01*
X0258542Y0047439D01*
X0258482Y0047585D01*
X0258426Y0047733D01*
X0258373Y0047882D01*
X0258324Y0048033D01*
X0258279Y0048185D01*
X0258238Y0048338D01*
X0258200Y0048491D01*
X0258167Y0048646D01*
X0258137Y0048802D01*
X0258111Y0048958D01*
X0258090Y0049115D01*
X0258072Y0049272D01*
X0258058Y0049430D01*
X0258048Y0049588D01*
X0258042Y0049746D01*
X0258040Y0049904D01*
X0264339Y0034156D02*
X0264720Y0034161D01*
X0265100Y0034174D01*
X0265480Y0034197D01*
X0265859Y0034230D01*
X0266237Y0034271D01*
X0266614Y0034321D01*
X0266990Y0034381D01*
X0267365Y0034449D01*
X0267737Y0034527D01*
X0268108Y0034614D01*
X0268476Y0034709D01*
X0268842Y0034814D01*
X0269205Y0034927D01*
X0269566Y0035049D01*
X0269923Y0035179D01*
X0270277Y0035319D01*
X0270628Y0035466D01*
X0270975Y0035623D01*
X0271318Y0035787D01*
X0271657Y0035960D01*
X0271992Y0036141D01*
X0272323Y0036330D01*
X0272648Y0036527D01*
X0272969Y0036731D01*
X0273285Y0036944D01*
X0273595Y0037164D01*
X0273901Y0037391D01*
X0274200Y0037626D01*
X0274494Y0037868D01*
X0274782Y0038116D01*
X0275064Y0038372D01*
X0275339Y0038635D01*
X0275608Y0038904D01*
X0275871Y0039179D01*
X0276127Y0039461D01*
X0276375Y0039749D01*
X0276617Y0040043D01*
X0276852Y0040342D01*
X0277079Y0040648D01*
X0277299Y0040958D01*
X0277512Y0041274D01*
X0277716Y0041595D01*
X0277913Y0041920D01*
X0278102Y0042251D01*
X0278283Y0042586D01*
X0278456Y0042925D01*
X0278620Y0043268D01*
X0278777Y0043615D01*
X0278924Y0043966D01*
X0279064Y0044320D01*
X0279194Y0044677D01*
X0279316Y0045038D01*
X0279429Y0045401D01*
X0279534Y0045767D01*
X0279629Y0046135D01*
X0279716Y0046506D01*
X0279794Y0046878D01*
X0279862Y0047253D01*
X0279922Y0047629D01*
X0279972Y0048006D01*
X0280013Y0048384D01*
X0280046Y0048763D01*
X0280069Y0049143D01*
X0280082Y0049523D01*
X0280087Y0049904D01*
X0280087Y0164077D01*
X0258040Y0164077D02*
X0258042Y0164235D01*
X0258048Y0164393D01*
X0258058Y0164551D01*
X0258072Y0164709D01*
X0258090Y0164866D01*
X0258111Y0165023D01*
X0258137Y0165179D01*
X0258167Y0165335D01*
X0258200Y0165490D01*
X0258238Y0165643D01*
X0258279Y0165796D01*
X0258324Y0165948D01*
X0258373Y0166099D01*
X0258426Y0166248D01*
X0258482Y0166396D01*
X0258542Y0166542D01*
X0258606Y0166687D01*
X0258674Y0166830D01*
X0258745Y0166972D01*
X0258819Y0167112D01*
X0258897Y0167249D01*
X0258979Y0167385D01*
X0259063Y0167519D01*
X0259152Y0167650D01*
X0259243Y0167779D01*
X0259338Y0167906D01*
X0259435Y0168031D01*
X0259536Y0168153D01*
X0259640Y0168272D01*
X0259747Y0168389D01*
X0259857Y0168503D01*
X0259970Y0168614D01*
X0260085Y0168723D01*
X0260203Y0168828D01*
X0260324Y0168930D01*
X0260447Y0169030D01*
X0260573Y0169126D01*
X0260701Y0169219D01*
X0260831Y0169309D01*
X0260964Y0169395D01*
X0261099Y0169479D01*
X0261235Y0169558D01*
X0261374Y0169635D01*
X0261515Y0169707D01*
X0261657Y0169777D01*
X0261801Y0169842D01*
X0261947Y0169904D01*
X0262094Y0169962D01*
X0262243Y0170017D01*
X0262393Y0170068D01*
X0262544Y0170115D01*
X0262696Y0170158D01*
X0262849Y0170197D01*
X0263004Y0170233D01*
X0263159Y0170264D01*
X0263315Y0170292D01*
X0263471Y0170316D01*
X0263628Y0170336D01*
X0263786Y0170352D01*
X0263943Y0170364D01*
X0264102Y0170372D01*
X0264260Y0170376D01*
X0264418Y0170376D01*
X0264576Y0170372D01*
X0264735Y0170364D01*
X0264892Y0170352D01*
X0265050Y0170336D01*
X0265207Y0170316D01*
X0265363Y0170292D01*
X0265519Y0170264D01*
X0265674Y0170233D01*
X0265829Y0170197D01*
X0265982Y0170158D01*
X0266134Y0170115D01*
X0266285Y0170068D01*
X0266435Y0170017D01*
X0266584Y0169962D01*
X0266731Y0169904D01*
X0266877Y0169842D01*
X0267021Y0169777D01*
X0267163Y0169707D01*
X0267304Y0169635D01*
X0267443Y0169558D01*
X0267579Y0169479D01*
X0267714Y0169395D01*
X0267847Y0169309D01*
X0267977Y0169219D01*
X0268105Y0169126D01*
X0268231Y0169030D01*
X0268354Y0168930D01*
X0268475Y0168828D01*
X0268593Y0168723D01*
X0268708Y0168614D01*
X0268821Y0168503D01*
X0268931Y0168389D01*
X0269038Y0168272D01*
X0269142Y0168153D01*
X0269243Y0168031D01*
X0269340Y0167906D01*
X0269435Y0167779D01*
X0269526Y0167650D01*
X0269615Y0167519D01*
X0269699Y0167385D01*
X0269781Y0167249D01*
X0269859Y0167112D01*
X0269933Y0166972D01*
X0270004Y0166830D01*
X0270072Y0166687D01*
X0270136Y0166542D01*
X0270196Y0166396D01*
X0270252Y0166248D01*
X0270305Y0166099D01*
X0270354Y0165948D01*
X0270399Y0165796D01*
X0270440Y0165643D01*
X0270478Y0165490D01*
X0270511Y0165335D01*
X0270541Y0165179D01*
X0270567Y0165023D01*
X0270588Y0164866D01*
X0270606Y0164709D01*
X0270620Y0164551D01*
X0270630Y0164393D01*
X0270636Y0164235D01*
X0270638Y0164077D01*
X0270636Y0163919D01*
X0270630Y0163761D01*
X0270620Y0163603D01*
X0270606Y0163445D01*
X0270588Y0163288D01*
X0270567Y0163131D01*
X0270541Y0162975D01*
X0270511Y0162819D01*
X0270478Y0162664D01*
X0270440Y0162511D01*
X0270399Y0162358D01*
X0270354Y0162206D01*
X0270305Y0162055D01*
X0270252Y0161906D01*
X0270196Y0161758D01*
X0270136Y0161612D01*
X0270072Y0161467D01*
X0270004Y0161324D01*
X0269933Y0161182D01*
X0269859Y0161042D01*
X0269781Y0160905D01*
X0269699Y0160769D01*
X0269615Y0160635D01*
X0269526Y0160504D01*
X0269435Y0160375D01*
X0269340Y0160248D01*
X0269243Y0160123D01*
X0269142Y0160001D01*
X0269038Y0159882D01*
X0268931Y0159765D01*
X0268821Y0159651D01*
X0268708Y0159540D01*
X0268593Y0159431D01*
X0268475Y0159326D01*
X0268354Y0159224D01*
X0268231Y0159124D01*
X0268105Y0159028D01*
X0267977Y0158935D01*
X0267847Y0158845D01*
X0267714Y0158759D01*
X0267579Y0158675D01*
X0267443Y0158596D01*
X0267304Y0158519D01*
X0267163Y0158447D01*
X0267021Y0158377D01*
X0266877Y0158312D01*
X0266731Y0158250D01*
X0266584Y0158192D01*
X0266435Y0158137D01*
X0266285Y0158086D01*
X0266134Y0158039D01*
X0265982Y0157996D01*
X0265829Y0157957D01*
X0265674Y0157921D01*
X0265519Y0157890D01*
X0265363Y0157862D01*
X0265207Y0157838D01*
X0265050Y0157818D01*
X0264892Y0157802D01*
X0264735Y0157790D01*
X0264576Y0157782D01*
X0264418Y0157778D01*
X0264260Y0157778D01*
X0264102Y0157782D01*
X0263943Y0157790D01*
X0263786Y0157802D01*
X0263628Y0157818D01*
X0263471Y0157838D01*
X0263315Y0157862D01*
X0263159Y0157890D01*
X0263004Y0157921D01*
X0262849Y0157957D01*
X0262696Y0157996D01*
X0262544Y0158039D01*
X0262393Y0158086D01*
X0262243Y0158137D01*
X0262094Y0158192D01*
X0261947Y0158250D01*
X0261801Y0158312D01*
X0261657Y0158377D01*
X0261515Y0158447D01*
X0261374Y0158519D01*
X0261235Y0158596D01*
X0261099Y0158675D01*
X0260964Y0158759D01*
X0260831Y0158845D01*
X0260701Y0158935D01*
X0260573Y0159028D01*
X0260447Y0159124D01*
X0260324Y0159224D01*
X0260203Y0159326D01*
X0260085Y0159431D01*
X0259970Y0159540D01*
X0259857Y0159651D01*
X0259747Y0159765D01*
X0259640Y0159882D01*
X0259536Y0160001D01*
X0259435Y0160123D01*
X0259338Y0160248D01*
X0259243Y0160375D01*
X0259152Y0160504D01*
X0259063Y0160635D01*
X0258979Y0160769D01*
X0258897Y0160905D01*
X0258819Y0161042D01*
X0258745Y0161182D01*
X0258674Y0161324D01*
X0258606Y0161467D01*
X0258542Y0161612D01*
X0258482Y0161758D01*
X0258426Y0161906D01*
X0258373Y0162055D01*
X0258324Y0162206D01*
X0258279Y0162358D01*
X0258238Y0162511D01*
X0258200Y0162664D01*
X0258167Y0162819D01*
X0258137Y0162975D01*
X0258111Y0163131D01*
X0258090Y0163288D01*
X0258072Y0163445D01*
X0258058Y0163603D01*
X0258048Y0163761D01*
X0258042Y0163919D01*
X0258040Y0164077D01*
X0264339Y0179825D02*
X0264720Y0179820D01*
X0265100Y0179807D01*
X0265480Y0179784D01*
X0265859Y0179751D01*
X0266237Y0179710D01*
X0266614Y0179660D01*
X0266990Y0179600D01*
X0267365Y0179532D01*
X0267737Y0179454D01*
X0268108Y0179367D01*
X0268476Y0179272D01*
X0268842Y0179167D01*
X0269205Y0179054D01*
X0269566Y0178932D01*
X0269923Y0178802D01*
X0270277Y0178662D01*
X0270628Y0178515D01*
X0270975Y0178358D01*
X0271318Y0178194D01*
X0271657Y0178021D01*
X0271992Y0177840D01*
X0272323Y0177651D01*
X0272648Y0177454D01*
X0272969Y0177250D01*
X0273285Y0177037D01*
X0273595Y0176817D01*
X0273901Y0176590D01*
X0274200Y0176355D01*
X0274494Y0176113D01*
X0274782Y0175865D01*
X0275064Y0175609D01*
X0275339Y0175346D01*
X0275608Y0175077D01*
X0275871Y0174802D01*
X0276127Y0174520D01*
X0276375Y0174232D01*
X0276617Y0173938D01*
X0276852Y0173639D01*
X0277079Y0173333D01*
X0277299Y0173023D01*
X0277512Y0172707D01*
X0277716Y0172386D01*
X0277913Y0172061D01*
X0278102Y0171730D01*
X0278283Y0171395D01*
X0278456Y0171056D01*
X0278620Y0170713D01*
X0278777Y0170366D01*
X0278924Y0170015D01*
X0279064Y0169661D01*
X0279194Y0169304D01*
X0279316Y0168943D01*
X0279429Y0168580D01*
X0279534Y0168214D01*
X0279629Y0167846D01*
X0279716Y0167475D01*
X0279794Y0167103D01*
X0279862Y0166728D01*
X0279922Y0166352D01*
X0279972Y0165975D01*
X0280013Y0165597D01*
X0280046Y0165218D01*
X0280069Y0164838D01*
X0280082Y0164458D01*
X0280087Y0164077D01*
X0280082Y0164458D01*
X0280069Y0164838D01*
X0280046Y0165218D01*
X0280013Y0165597D01*
X0279972Y0165975D01*
X0279922Y0166352D01*
X0279862Y0166728D01*
X0279794Y0167103D01*
X0279716Y0167475D01*
X0279629Y0167846D01*
X0279534Y0168214D01*
X0279429Y0168580D01*
X0279316Y0168943D01*
X0279194Y0169304D01*
X0279064Y0169661D01*
X0278924Y0170015D01*
X0278777Y0170366D01*
X0278620Y0170713D01*
X0278456Y0171056D01*
X0278283Y0171395D01*
X0278102Y0171730D01*
X0277913Y0172061D01*
X0277716Y0172386D01*
X0277512Y0172707D01*
X0277299Y0173023D01*
X0277079Y0173333D01*
X0276852Y0173639D01*
X0276617Y0173938D01*
X0276375Y0174232D01*
X0276127Y0174520D01*
X0275871Y0174802D01*
X0275608Y0175077D01*
X0275339Y0175346D01*
X0275064Y0175609D01*
X0274782Y0175865D01*
X0274494Y0176113D01*
X0274200Y0176355D01*
X0273901Y0176590D01*
X0273595Y0176817D01*
X0273285Y0177037D01*
X0272969Y0177250D01*
X0272648Y0177454D01*
X0272323Y0177651D01*
X0271992Y0177840D01*
X0271657Y0178021D01*
X0271318Y0178194D01*
X0270975Y0178358D01*
X0270628Y0178515D01*
X0270277Y0178662D01*
X0269923Y0178802D01*
X0269566Y0178932D01*
X0269205Y0179054D01*
X0268842Y0179167D01*
X0268476Y0179272D01*
X0268108Y0179367D01*
X0267737Y0179454D01*
X0267365Y0179532D01*
X0266990Y0179600D01*
X0266614Y0179660D01*
X0266237Y0179710D01*
X0265859Y0179751D01*
X0265480Y0179784D01*
X0265100Y0179807D01*
X0264720Y0179820D01*
X0264339Y0179825D01*
X0059614Y0179825D01*
X0053315Y0164077D02*
X0053317Y0164235D01*
X0053323Y0164393D01*
X0053333Y0164551D01*
X0053347Y0164709D01*
X0053365Y0164866D01*
X0053386Y0165023D01*
X0053412Y0165179D01*
X0053442Y0165335D01*
X0053475Y0165490D01*
X0053513Y0165643D01*
X0053554Y0165796D01*
X0053599Y0165948D01*
X0053648Y0166099D01*
X0053701Y0166248D01*
X0053757Y0166396D01*
X0053817Y0166542D01*
X0053881Y0166687D01*
X0053949Y0166830D01*
X0054020Y0166972D01*
X0054094Y0167112D01*
X0054172Y0167249D01*
X0054254Y0167385D01*
X0054338Y0167519D01*
X0054427Y0167650D01*
X0054518Y0167779D01*
X0054613Y0167906D01*
X0054710Y0168031D01*
X0054811Y0168153D01*
X0054915Y0168272D01*
X0055022Y0168389D01*
X0055132Y0168503D01*
X0055245Y0168614D01*
X0055360Y0168723D01*
X0055478Y0168828D01*
X0055599Y0168930D01*
X0055722Y0169030D01*
X0055848Y0169126D01*
X0055976Y0169219D01*
X0056106Y0169309D01*
X0056239Y0169395D01*
X0056374Y0169479D01*
X0056510Y0169558D01*
X0056649Y0169635D01*
X0056790Y0169707D01*
X0056932Y0169777D01*
X0057076Y0169842D01*
X0057222Y0169904D01*
X0057369Y0169962D01*
X0057518Y0170017D01*
X0057668Y0170068D01*
X0057819Y0170115D01*
X0057971Y0170158D01*
X0058124Y0170197D01*
X0058279Y0170233D01*
X0058434Y0170264D01*
X0058590Y0170292D01*
X0058746Y0170316D01*
X0058903Y0170336D01*
X0059061Y0170352D01*
X0059218Y0170364D01*
X0059377Y0170372D01*
X0059535Y0170376D01*
X0059693Y0170376D01*
X0059851Y0170372D01*
X0060010Y0170364D01*
X0060167Y0170352D01*
X0060325Y0170336D01*
X0060482Y0170316D01*
X0060638Y0170292D01*
X0060794Y0170264D01*
X0060949Y0170233D01*
X0061104Y0170197D01*
X0061257Y0170158D01*
X0061409Y0170115D01*
X0061560Y0170068D01*
X0061710Y0170017D01*
X0061859Y0169962D01*
X0062006Y0169904D01*
X0062152Y0169842D01*
X0062296Y0169777D01*
X0062438Y0169707D01*
X0062579Y0169635D01*
X0062718Y0169558D01*
X0062854Y0169479D01*
X0062989Y0169395D01*
X0063122Y0169309D01*
X0063252Y0169219D01*
X0063380Y0169126D01*
X0063506Y0169030D01*
X0063629Y0168930D01*
X0063750Y0168828D01*
X0063868Y0168723D01*
X0063983Y0168614D01*
X0064096Y0168503D01*
X0064206Y0168389D01*
X0064313Y0168272D01*
X0064417Y0168153D01*
X0064518Y0168031D01*
X0064615Y0167906D01*
X0064710Y0167779D01*
X0064801Y0167650D01*
X0064890Y0167519D01*
X0064974Y0167385D01*
X0065056Y0167249D01*
X0065134Y0167112D01*
X0065208Y0166972D01*
X0065279Y0166830D01*
X0065347Y0166687D01*
X0065411Y0166542D01*
X0065471Y0166396D01*
X0065527Y0166248D01*
X0065580Y0166099D01*
X0065629Y0165948D01*
X0065674Y0165796D01*
X0065715Y0165643D01*
X0065753Y0165490D01*
X0065786Y0165335D01*
X0065816Y0165179D01*
X0065842Y0165023D01*
X0065863Y0164866D01*
X0065881Y0164709D01*
X0065895Y0164551D01*
X0065905Y0164393D01*
X0065911Y0164235D01*
X0065913Y0164077D01*
X0065911Y0163919D01*
X0065905Y0163761D01*
X0065895Y0163603D01*
X0065881Y0163445D01*
X0065863Y0163288D01*
X0065842Y0163131D01*
X0065816Y0162975D01*
X0065786Y0162819D01*
X0065753Y0162664D01*
X0065715Y0162511D01*
X0065674Y0162358D01*
X0065629Y0162206D01*
X0065580Y0162055D01*
X0065527Y0161906D01*
X0065471Y0161758D01*
X0065411Y0161612D01*
X0065347Y0161467D01*
X0065279Y0161324D01*
X0065208Y0161182D01*
X0065134Y0161042D01*
X0065056Y0160905D01*
X0064974Y0160769D01*
X0064890Y0160635D01*
X0064801Y0160504D01*
X0064710Y0160375D01*
X0064615Y0160248D01*
X0064518Y0160123D01*
X0064417Y0160001D01*
X0064313Y0159882D01*
X0064206Y0159765D01*
X0064096Y0159651D01*
X0063983Y0159540D01*
X0063868Y0159431D01*
X0063750Y0159326D01*
X0063629Y0159224D01*
X0063506Y0159124D01*
X0063380Y0159028D01*
X0063252Y0158935D01*
X0063122Y0158845D01*
X0062989Y0158759D01*
X0062854Y0158675D01*
X0062718Y0158596D01*
X0062579Y0158519D01*
X0062438Y0158447D01*
X0062296Y0158377D01*
X0062152Y0158312D01*
X0062006Y0158250D01*
X0061859Y0158192D01*
X0061710Y0158137D01*
X0061560Y0158086D01*
X0061409Y0158039D01*
X0061257Y0157996D01*
X0061104Y0157957D01*
X0060949Y0157921D01*
X0060794Y0157890D01*
X0060638Y0157862D01*
X0060482Y0157838D01*
X0060325Y0157818D01*
X0060167Y0157802D01*
X0060010Y0157790D01*
X0059851Y0157782D01*
X0059693Y0157778D01*
X0059535Y0157778D01*
X0059377Y0157782D01*
X0059218Y0157790D01*
X0059061Y0157802D01*
X0058903Y0157818D01*
X0058746Y0157838D01*
X0058590Y0157862D01*
X0058434Y0157890D01*
X0058279Y0157921D01*
X0058124Y0157957D01*
X0057971Y0157996D01*
X0057819Y0158039D01*
X0057668Y0158086D01*
X0057518Y0158137D01*
X0057369Y0158192D01*
X0057222Y0158250D01*
X0057076Y0158312D01*
X0056932Y0158377D01*
X0056790Y0158447D01*
X0056649Y0158519D01*
X0056510Y0158596D01*
X0056374Y0158675D01*
X0056239Y0158759D01*
X0056106Y0158845D01*
X0055976Y0158935D01*
X0055848Y0159028D01*
X0055722Y0159124D01*
X0055599Y0159224D01*
X0055478Y0159326D01*
X0055360Y0159431D01*
X0055245Y0159540D01*
X0055132Y0159651D01*
X0055022Y0159765D01*
X0054915Y0159882D01*
X0054811Y0160001D01*
X0054710Y0160123D01*
X0054613Y0160248D01*
X0054518Y0160375D01*
X0054427Y0160504D01*
X0054338Y0160635D01*
X0054254Y0160769D01*
X0054172Y0160905D01*
X0054094Y0161042D01*
X0054020Y0161182D01*
X0053949Y0161324D01*
X0053881Y0161467D01*
X0053817Y0161612D01*
X0053757Y0161758D01*
X0053701Y0161906D01*
X0053648Y0162055D01*
X0053599Y0162206D01*
X0053554Y0162358D01*
X0053513Y0162511D01*
X0053475Y0162664D01*
X0053442Y0162819D01*
X0053412Y0162975D01*
X0053386Y0163131D01*
X0053365Y0163288D01*
X0053347Y0163445D01*
X0053333Y0163603D01*
X0053323Y0163761D01*
X0053317Y0163919D01*
X0053315Y0164077D01*
X0043866Y0164077D02*
X0043871Y0164458D01*
X0043884Y0164838D01*
X0043907Y0165218D01*
X0043940Y0165597D01*
X0043981Y0165975D01*
X0044031Y0166352D01*
X0044091Y0166728D01*
X0044159Y0167103D01*
X0044237Y0167475D01*
X0044324Y0167846D01*
X0044419Y0168214D01*
X0044524Y0168580D01*
X0044637Y0168943D01*
X0044759Y0169304D01*
X0044889Y0169661D01*
X0045029Y0170015D01*
X0045176Y0170366D01*
X0045333Y0170713D01*
X0045497Y0171056D01*
X0045670Y0171395D01*
X0045851Y0171730D01*
X0046040Y0172061D01*
X0046237Y0172386D01*
X0046441Y0172707D01*
X0046654Y0173023D01*
X0046874Y0173333D01*
X0047101Y0173639D01*
X0047336Y0173938D01*
X0047578Y0174232D01*
X0047826Y0174520D01*
X0048082Y0174802D01*
X0048345Y0175077D01*
X0048614Y0175346D01*
X0048889Y0175609D01*
X0049171Y0175865D01*
X0049459Y0176113D01*
X0049753Y0176355D01*
X0050052Y0176590D01*
X0050358Y0176817D01*
X0050668Y0177037D01*
X0050984Y0177250D01*
X0051305Y0177454D01*
X0051630Y0177651D01*
X0051961Y0177840D01*
X0052296Y0178021D01*
X0052635Y0178194D01*
X0052978Y0178358D01*
X0053325Y0178515D01*
X0053676Y0178662D01*
X0054030Y0178802D01*
X0054387Y0178932D01*
X0054748Y0179054D01*
X0055111Y0179167D01*
X0055477Y0179272D01*
X0055845Y0179367D01*
X0056216Y0179454D01*
X0056588Y0179532D01*
X0056963Y0179600D01*
X0057339Y0179660D01*
X0057716Y0179710D01*
X0058094Y0179751D01*
X0058473Y0179784D01*
X0058853Y0179807D01*
X0059233Y0179820D01*
X0059614Y0179825D01*
X0059233Y0179820D01*
X0058853Y0179807D01*
X0058473Y0179784D01*
X0058094Y0179751D01*
X0057716Y0179710D01*
X0057339Y0179660D01*
X0056963Y0179600D01*
X0056588Y0179532D01*
X0056216Y0179454D01*
X0055845Y0179367D01*
X0055477Y0179272D01*
X0055111Y0179167D01*
X0054748Y0179054D01*
X0054387Y0178932D01*
X0054030Y0178802D01*
X0053676Y0178662D01*
X0053325Y0178515D01*
X0052978Y0178358D01*
X0052635Y0178194D01*
X0052296Y0178021D01*
X0051961Y0177840D01*
X0051630Y0177651D01*
X0051305Y0177454D01*
X0050984Y0177250D01*
X0050668Y0177037D01*
X0050358Y0176817D01*
X0050052Y0176590D01*
X0049753Y0176355D01*
X0049459Y0176113D01*
X0049171Y0175865D01*
X0048889Y0175609D01*
X0048614Y0175346D01*
X0048345Y0175077D01*
X0048082Y0174802D01*
X0047826Y0174520D01*
X0047578Y0174232D01*
X0047336Y0173938D01*
X0047101Y0173639D01*
X0046874Y0173333D01*
X0046654Y0173023D01*
X0046441Y0172707D01*
X0046237Y0172386D01*
X0046040Y0172061D01*
X0045851Y0171730D01*
X0045670Y0171395D01*
X0045497Y0171056D01*
X0045333Y0170713D01*
X0045176Y0170366D01*
X0045029Y0170015D01*
X0044889Y0169661D01*
X0044759Y0169304D01*
X0044637Y0168943D01*
X0044524Y0168580D01*
X0044419Y0168214D01*
X0044324Y0167846D01*
X0044237Y0167475D01*
X0044159Y0167103D01*
X0044091Y0166728D01*
X0044031Y0166352D01*
X0043981Y0165975D01*
X0043940Y0165597D01*
X0043907Y0165218D01*
X0043884Y0164838D01*
X0043871Y0164458D01*
X0043866Y0164077D01*
X0043866Y0049904D01*
X0053315Y0049904D02*
X0053317Y0050062D01*
X0053323Y0050220D01*
X0053333Y0050378D01*
X0053347Y0050536D01*
X0053365Y0050693D01*
X0053386Y0050850D01*
X0053412Y0051006D01*
X0053442Y0051162D01*
X0053475Y0051317D01*
X0053513Y0051470D01*
X0053554Y0051623D01*
X0053599Y0051775D01*
X0053648Y0051926D01*
X0053701Y0052075D01*
X0053757Y0052223D01*
X0053817Y0052369D01*
X0053881Y0052514D01*
X0053949Y0052657D01*
X0054020Y0052799D01*
X0054094Y0052939D01*
X0054172Y0053076D01*
X0054254Y0053212D01*
X0054338Y0053346D01*
X0054427Y0053477D01*
X0054518Y0053606D01*
X0054613Y0053733D01*
X0054710Y0053858D01*
X0054811Y0053980D01*
X0054915Y0054099D01*
X0055022Y0054216D01*
X0055132Y0054330D01*
X0055245Y0054441D01*
X0055360Y0054550D01*
X0055478Y0054655D01*
X0055599Y0054757D01*
X0055722Y0054857D01*
X0055848Y0054953D01*
X0055976Y0055046D01*
X0056106Y0055136D01*
X0056239Y0055222D01*
X0056374Y0055306D01*
X0056510Y0055385D01*
X0056649Y0055462D01*
X0056790Y0055534D01*
X0056932Y0055604D01*
X0057076Y0055669D01*
X0057222Y0055731D01*
X0057369Y0055789D01*
X0057518Y0055844D01*
X0057668Y0055895D01*
X0057819Y0055942D01*
X0057971Y0055985D01*
X0058124Y0056024D01*
X0058279Y0056060D01*
X0058434Y0056091D01*
X0058590Y0056119D01*
X0058746Y0056143D01*
X0058903Y0056163D01*
X0059061Y0056179D01*
X0059218Y0056191D01*
X0059377Y0056199D01*
X0059535Y0056203D01*
X0059693Y0056203D01*
X0059851Y0056199D01*
X0060010Y0056191D01*
X0060167Y0056179D01*
X0060325Y0056163D01*
X0060482Y0056143D01*
X0060638Y0056119D01*
X0060794Y0056091D01*
X0060949Y0056060D01*
X0061104Y0056024D01*
X0061257Y0055985D01*
X0061409Y0055942D01*
X0061560Y0055895D01*
X0061710Y0055844D01*
X0061859Y0055789D01*
X0062006Y0055731D01*
X0062152Y0055669D01*
X0062296Y0055604D01*
X0062438Y0055534D01*
X0062579Y0055462D01*
X0062718Y0055385D01*
X0062854Y0055306D01*
X0062989Y0055222D01*
X0063122Y0055136D01*
X0063252Y0055046D01*
X0063380Y0054953D01*
X0063506Y0054857D01*
X0063629Y0054757D01*
X0063750Y0054655D01*
X0063868Y0054550D01*
X0063983Y0054441D01*
X0064096Y0054330D01*
X0064206Y0054216D01*
X0064313Y0054099D01*
X0064417Y0053980D01*
X0064518Y0053858D01*
X0064615Y0053733D01*
X0064710Y0053606D01*
X0064801Y0053477D01*
X0064890Y0053346D01*
X0064974Y0053212D01*
X0065056Y0053076D01*
X0065134Y0052939D01*
X0065208Y0052799D01*
X0065279Y0052657D01*
X0065347Y0052514D01*
X0065411Y0052369D01*
X0065471Y0052223D01*
X0065527Y0052075D01*
X0065580Y0051926D01*
X0065629Y0051775D01*
X0065674Y0051623D01*
X0065715Y0051470D01*
X0065753Y0051317D01*
X0065786Y0051162D01*
X0065816Y0051006D01*
X0065842Y0050850D01*
X0065863Y0050693D01*
X0065881Y0050536D01*
X0065895Y0050378D01*
X0065905Y0050220D01*
X0065911Y0050062D01*
X0065913Y0049904D01*
X0065911Y0049746D01*
X0065905Y0049588D01*
X0065895Y0049430D01*
X0065881Y0049272D01*
X0065863Y0049115D01*
X0065842Y0048958D01*
X0065816Y0048802D01*
X0065786Y0048646D01*
X0065753Y0048491D01*
X0065715Y0048338D01*
X0065674Y0048185D01*
X0065629Y0048033D01*
X0065580Y0047882D01*
X0065527Y0047733D01*
X0065471Y0047585D01*
X0065411Y0047439D01*
X0065347Y0047294D01*
X0065279Y0047151D01*
X0065208Y0047009D01*
X0065134Y0046869D01*
X0065056Y0046732D01*
X0064974Y0046596D01*
X0064890Y0046462D01*
X0064801Y0046331D01*
X0064710Y0046202D01*
X0064615Y0046075D01*
X0064518Y0045950D01*
X0064417Y0045828D01*
X0064313Y0045709D01*
X0064206Y0045592D01*
X0064096Y0045478D01*
X0063983Y0045367D01*
X0063868Y0045258D01*
X0063750Y0045153D01*
X0063629Y0045051D01*
X0063506Y0044951D01*
X0063380Y0044855D01*
X0063252Y0044762D01*
X0063122Y0044672D01*
X0062989Y0044586D01*
X0062854Y0044502D01*
X0062718Y0044423D01*
X0062579Y0044346D01*
X0062438Y0044274D01*
X0062296Y0044204D01*
X0062152Y0044139D01*
X0062006Y0044077D01*
X0061859Y0044019D01*
X0061710Y0043964D01*
X0061560Y0043913D01*
X0061409Y0043866D01*
X0061257Y0043823D01*
X0061104Y0043784D01*
X0060949Y0043748D01*
X0060794Y0043717D01*
X0060638Y0043689D01*
X0060482Y0043665D01*
X0060325Y0043645D01*
X0060167Y0043629D01*
X0060010Y0043617D01*
X0059851Y0043609D01*
X0059693Y0043605D01*
X0059535Y0043605D01*
X0059377Y0043609D01*
X0059218Y0043617D01*
X0059061Y0043629D01*
X0058903Y0043645D01*
X0058746Y0043665D01*
X0058590Y0043689D01*
X0058434Y0043717D01*
X0058279Y0043748D01*
X0058124Y0043784D01*
X0057971Y0043823D01*
X0057819Y0043866D01*
X0057668Y0043913D01*
X0057518Y0043964D01*
X0057369Y0044019D01*
X0057222Y0044077D01*
X0057076Y0044139D01*
X0056932Y0044204D01*
X0056790Y0044274D01*
X0056649Y0044346D01*
X0056510Y0044423D01*
X0056374Y0044502D01*
X0056239Y0044586D01*
X0056106Y0044672D01*
X0055976Y0044762D01*
X0055848Y0044855D01*
X0055722Y0044951D01*
X0055599Y0045051D01*
X0055478Y0045153D01*
X0055360Y0045258D01*
X0055245Y0045367D01*
X0055132Y0045478D01*
X0055022Y0045592D01*
X0054915Y0045709D01*
X0054811Y0045828D01*
X0054710Y0045950D01*
X0054613Y0046075D01*
X0054518Y0046202D01*
X0054427Y0046331D01*
X0054338Y0046462D01*
X0054254Y0046596D01*
X0054172Y0046732D01*
X0054094Y0046869D01*
X0054020Y0047009D01*
X0053949Y0047151D01*
X0053881Y0047294D01*
X0053817Y0047439D01*
X0053757Y0047585D01*
X0053701Y0047733D01*
X0053648Y0047882D01*
X0053599Y0048033D01*
X0053554Y0048185D01*
X0053513Y0048338D01*
X0053475Y0048491D01*
X0053442Y0048646D01*
X0053412Y0048802D01*
X0053386Y0048958D01*
X0053365Y0049115D01*
X0053347Y0049272D01*
X0053333Y0049430D01*
X0053323Y0049588D01*
X0053317Y0049746D01*
X0053315Y0049904D01*
X0043866Y0049904D02*
X0043871Y0049523D01*
X0043884Y0049143D01*
X0043907Y0048763D01*
X0043940Y0048384D01*
X0043981Y0048006D01*
X0044031Y0047629D01*
X0044091Y0047253D01*
X0044159Y0046878D01*
X0044237Y0046506D01*
X0044324Y0046135D01*
X0044419Y0045767D01*
X0044524Y0045401D01*
X0044637Y0045038D01*
X0044759Y0044677D01*
X0044889Y0044320D01*
X0045029Y0043966D01*
X0045176Y0043615D01*
X0045333Y0043268D01*
X0045497Y0042925D01*
X0045670Y0042586D01*
X0045851Y0042251D01*
X0046040Y0041920D01*
X0046237Y0041595D01*
X0046441Y0041274D01*
X0046654Y0040958D01*
X0046874Y0040648D01*
X0047101Y0040342D01*
X0047336Y0040043D01*
X0047578Y0039749D01*
X0047826Y0039461D01*
X0048082Y0039179D01*
X0048345Y0038904D01*
X0048614Y0038635D01*
X0048889Y0038372D01*
X0049171Y0038116D01*
X0049459Y0037868D01*
X0049753Y0037626D01*
X0050052Y0037391D01*
X0050358Y0037164D01*
X0050668Y0036944D01*
X0050984Y0036731D01*
X0051305Y0036527D01*
X0051630Y0036330D01*
X0051961Y0036141D01*
X0052296Y0035960D01*
X0052635Y0035787D01*
X0052978Y0035623D01*
X0053325Y0035466D01*
X0053676Y0035319D01*
X0054030Y0035179D01*
X0054387Y0035049D01*
X0054748Y0034927D01*
X0055111Y0034814D01*
X0055477Y0034709D01*
X0055845Y0034614D01*
X0056216Y0034527D01*
X0056588Y0034449D01*
X0056963Y0034381D01*
X0057339Y0034321D01*
X0057716Y0034271D01*
X0058094Y0034230D01*
X0058473Y0034197D01*
X0058853Y0034174D01*
X0059233Y0034161D01*
X0059614Y0034156D01*
X0059233Y0034161D01*
X0058853Y0034174D01*
X0058473Y0034197D01*
X0058094Y0034230D01*
X0057716Y0034271D01*
X0057339Y0034321D01*
X0056963Y0034381D01*
X0056588Y0034449D01*
X0056216Y0034527D01*
X0055845Y0034614D01*
X0055477Y0034709D01*
X0055111Y0034814D01*
X0054748Y0034927D01*
X0054387Y0035049D01*
X0054030Y0035179D01*
X0053676Y0035319D01*
X0053325Y0035466D01*
X0052978Y0035623D01*
X0052635Y0035787D01*
X0052296Y0035960D01*
X0051961Y0036141D01*
X0051630Y0036330D01*
X0051305Y0036527D01*
X0050984Y0036731D01*
X0050668Y0036944D01*
X0050358Y0037164D01*
X0050052Y0037391D01*
X0049753Y0037626D01*
X0049459Y0037868D01*
X0049171Y0038116D01*
X0048889Y0038372D01*
X0048614Y0038635D01*
X0048345Y0038904D01*
X0048082Y0039179D01*
X0047826Y0039461D01*
X0047578Y0039749D01*
X0047336Y0040043D01*
X0047101Y0040342D01*
X0046874Y0040648D01*
X0046654Y0040958D01*
X0046441Y0041274D01*
X0046237Y0041595D01*
X0046040Y0041920D01*
X0045851Y0042251D01*
X0045670Y0042586D01*
X0045497Y0042925D01*
X0045333Y0043268D01*
X0045176Y0043615D01*
X0045029Y0043966D01*
X0044889Y0044320D01*
X0044759Y0044677D01*
X0044637Y0045038D01*
X0044524Y0045401D01*
X0044419Y0045767D01*
X0044324Y0046135D01*
X0044237Y0046506D01*
X0044159Y0046878D01*
X0044091Y0047253D01*
X0044031Y0047629D01*
X0043981Y0048006D01*
X0043940Y0048384D01*
X0043907Y0048763D01*
X0043884Y0049143D01*
X0043871Y0049523D01*
X0043866Y0049904D01*
X0052976Y0074491D02*
X0187476Y0074491D01*
X0187476Y0078991D01*
X0192476Y0083991D01*
X0192476Y0120241D01*
X0187476Y0125241D01*
X0187476Y0142991D01*
X0185726Y0144491D01*
X0052976Y0144491D01*
X0052795Y0144489D01*
X0052614Y0144482D01*
X0052433Y0144471D01*
X0052252Y0144456D01*
X0052072Y0144436D01*
X0051892Y0144412D01*
X0051713Y0144384D01*
X0051535Y0144351D01*
X0051358Y0144314D01*
X0051181Y0144273D01*
X0051006Y0144228D01*
X0050831Y0144178D01*
X0050658Y0144124D01*
X0050487Y0144066D01*
X0050316Y0144004D01*
X0050148Y0143937D01*
X0049981Y0143867D01*
X0049815Y0143793D01*
X0049652Y0143714D01*
X0049491Y0143632D01*
X0049331Y0143546D01*
X0049174Y0143456D01*
X0049019Y0143362D01*
X0048866Y0143265D01*
X0048716Y0143163D01*
X0048568Y0143059D01*
X0048422Y0142950D01*
X0048280Y0142839D01*
X0048140Y0142723D01*
X0048003Y0142605D01*
X0047868Y0142483D01*
X0047737Y0142358D01*
X0047609Y0142230D01*
X0047484Y0142099D01*
X0047362Y0141964D01*
X0047244Y0141827D01*
X0047128Y0141687D01*
X0047017Y0141545D01*
X0046908Y0141399D01*
X0046804Y0141251D01*
X0046702Y0141101D01*
X0046605Y0140948D01*
X0046511Y0140793D01*
X0046421Y0140636D01*
X0046335Y0140476D01*
X0046253Y0140315D01*
X0046174Y0140152D01*
X0046100Y0139986D01*
X0046030Y0139819D01*
X0045963Y0139651D01*
X0045901Y0139480D01*
X0045843Y0139309D01*
X0045789Y0139136D01*
X0045739Y0138961D01*
X0045694Y0138786D01*
X0045653Y0138609D01*
X0045616Y0138432D01*
X0045583Y0138254D01*
X0045555Y0138075D01*
X0045531Y0137895D01*
X0045511Y0137715D01*
X0045496Y0137534D01*
X0045485Y0137353D01*
X0045478Y0137172D01*
X0045476Y0136991D01*
X0045476Y0081991D01*
X0048145Y0081991D02*
X0048147Y0082122D01*
X0048153Y0082254D01*
X0048163Y0082385D01*
X0048177Y0082516D01*
X0048195Y0082646D01*
X0048217Y0082775D01*
X0048242Y0082904D01*
X0048272Y0083032D01*
X0048306Y0083159D01*
X0048343Y0083286D01*
X0048384Y0083410D01*
X0048429Y0083534D01*
X0048478Y0083656D01*
X0048530Y0083777D01*
X0048586Y0083895D01*
X0048646Y0084013D01*
X0048709Y0084128D01*
X0048776Y0084241D01*
X0048846Y0084353D01*
X0048919Y0084462D01*
X0048995Y0084568D01*
X0049075Y0084673D01*
X0049158Y0084775D01*
X0049244Y0084874D01*
X0049333Y0084971D01*
X0049425Y0085065D01*
X0049520Y0085156D01*
X0049617Y0085245D01*
X0049717Y0085330D01*
X0049820Y0085412D01*
X0049925Y0085491D01*
X0050032Y0085567D01*
X0050142Y0085639D01*
X0050254Y0085708D01*
X0050368Y0085774D01*
X0050483Y0085836D01*
X0050601Y0085895D01*
X0050720Y0085950D01*
X0050841Y0086002D01*
X0050964Y0086049D01*
X0051088Y0086093D01*
X0051213Y0086134D01*
X0051339Y0086170D01*
X0051467Y0086203D01*
X0051595Y0086231D01*
X0051724Y0086256D01*
X0051854Y0086277D01*
X0051984Y0086294D01*
X0052115Y0086307D01*
X0052246Y0086316D01*
X0052377Y0086321D01*
X0052509Y0086322D01*
X0052640Y0086319D01*
X0052772Y0086312D01*
X0052903Y0086301D01*
X0053033Y0086286D01*
X0053163Y0086267D01*
X0053293Y0086244D01*
X0053421Y0086218D01*
X0053549Y0086187D01*
X0053676Y0086152D01*
X0053802Y0086114D01*
X0053926Y0086072D01*
X0054050Y0086026D01*
X0054171Y0085976D01*
X0054291Y0085923D01*
X0054410Y0085866D01*
X0054527Y0085806D01*
X0054641Y0085742D01*
X0054754Y0085674D01*
X0054865Y0085603D01*
X0054974Y0085529D01*
X0055080Y0085452D01*
X0055184Y0085371D01*
X0055285Y0085288D01*
X0055384Y0085201D01*
X0055480Y0085111D01*
X0055573Y0085018D01*
X0055664Y0084923D01*
X0055751Y0084825D01*
X0055836Y0084724D01*
X0055917Y0084621D01*
X0055995Y0084515D01*
X0056070Y0084407D01*
X0056142Y0084297D01*
X0056210Y0084185D01*
X0056275Y0084071D01*
X0056336Y0083954D01*
X0056394Y0083836D01*
X0056448Y0083716D01*
X0056499Y0083595D01*
X0056546Y0083472D01*
X0056589Y0083348D01*
X0056628Y0083223D01*
X0056664Y0083096D01*
X0056695Y0082968D01*
X0056723Y0082840D01*
X0056747Y0082711D01*
X0056767Y0082581D01*
X0056783Y0082450D01*
X0056795Y0082319D01*
X0056803Y0082188D01*
X0056807Y0082057D01*
X0056807Y0081925D01*
X0056803Y0081794D01*
X0056795Y0081663D01*
X0056783Y0081532D01*
X0056767Y0081401D01*
X0056747Y0081271D01*
X0056723Y0081142D01*
X0056695Y0081014D01*
X0056664Y0080886D01*
X0056628Y0080759D01*
X0056589Y0080634D01*
X0056546Y0080510D01*
X0056499Y0080387D01*
X0056448Y0080266D01*
X0056394Y0080146D01*
X0056336Y0080028D01*
X0056275Y0079911D01*
X0056210Y0079797D01*
X0056142Y0079685D01*
X0056070Y0079575D01*
X0055995Y0079467D01*
X0055917Y0079361D01*
X0055836Y0079258D01*
X0055751Y0079157D01*
X0055664Y0079059D01*
X0055573Y0078964D01*
X0055480Y0078871D01*
X0055384Y0078781D01*
X0055285Y0078694D01*
X0055184Y0078611D01*
X0055080Y0078530D01*
X0054974Y0078453D01*
X0054865Y0078379D01*
X0054754Y0078308D01*
X0054642Y0078240D01*
X0054527Y0078176D01*
X0054410Y0078116D01*
X0054291Y0078059D01*
X0054171Y0078006D01*
X0054050Y0077956D01*
X0053926Y0077910D01*
X0053802Y0077868D01*
X0053676Y0077830D01*
X0053549Y0077795D01*
X0053421Y0077764D01*
X0053293Y0077738D01*
X0053163Y0077715D01*
X0053033Y0077696D01*
X0052903Y0077681D01*
X0052772Y0077670D01*
X0052640Y0077663D01*
X0052509Y0077660D01*
X0052377Y0077661D01*
X0052246Y0077666D01*
X0052115Y0077675D01*
X0051984Y0077688D01*
X0051854Y0077705D01*
X0051724Y0077726D01*
X0051595Y0077751D01*
X0051467Y0077779D01*
X0051339Y0077812D01*
X0051213Y0077848D01*
X0051088Y0077889D01*
X0050964Y0077933D01*
X0050841Y0077980D01*
X0050720Y0078032D01*
X0050601Y0078087D01*
X0050483Y0078146D01*
X0050368Y0078208D01*
X0050254Y0078274D01*
X0050142Y0078343D01*
X0050032Y0078415D01*
X0049925Y0078491D01*
X0049820Y0078570D01*
X0049717Y0078652D01*
X0049617Y0078737D01*
X0049520Y0078826D01*
X0049425Y0078917D01*
X0049333Y0079011D01*
X0049244Y0079108D01*
X0049158Y0079207D01*
X0049075Y0079309D01*
X0048995Y0079414D01*
X0048919Y0079520D01*
X0048846Y0079629D01*
X0048776Y0079741D01*
X0048709Y0079854D01*
X0048646Y0079969D01*
X0048586Y0080087D01*
X0048530Y0080205D01*
X0048478Y0080326D01*
X0048429Y0080448D01*
X0048384Y0080572D01*
X0048343Y0080696D01*
X0048306Y0080823D01*
X0048272Y0080950D01*
X0048242Y0081078D01*
X0048217Y0081207D01*
X0048195Y0081336D01*
X0048177Y0081466D01*
X0048163Y0081597D01*
X0048153Y0081728D01*
X0048147Y0081860D01*
X0048145Y0081991D01*
X0045476Y0081991D02*
X0045478Y0081810D01*
X0045485Y0081629D01*
X0045496Y0081448D01*
X0045511Y0081267D01*
X0045531Y0081087D01*
X0045555Y0080907D01*
X0045583Y0080728D01*
X0045616Y0080550D01*
X0045653Y0080373D01*
X0045694Y0080196D01*
X0045739Y0080021D01*
X0045789Y0079846D01*
X0045843Y0079673D01*
X0045901Y0079502D01*
X0045963Y0079331D01*
X0046030Y0079163D01*
X0046100Y0078996D01*
X0046174Y0078830D01*
X0046253Y0078667D01*
X0046335Y0078506D01*
X0046421Y0078346D01*
X0046511Y0078189D01*
X0046605Y0078034D01*
X0046702Y0077881D01*
X0046804Y0077731D01*
X0046908Y0077583D01*
X0047017Y0077437D01*
X0047128Y0077295D01*
X0047244Y0077155D01*
X0047362Y0077018D01*
X0047484Y0076883D01*
X0047609Y0076752D01*
X0047737Y0076624D01*
X0047868Y0076499D01*
X0048003Y0076377D01*
X0048140Y0076259D01*
X0048280Y0076143D01*
X0048422Y0076032D01*
X0048568Y0075923D01*
X0048716Y0075819D01*
X0048866Y0075717D01*
X0049019Y0075620D01*
X0049174Y0075526D01*
X0049331Y0075436D01*
X0049491Y0075350D01*
X0049652Y0075268D01*
X0049815Y0075189D01*
X0049981Y0075115D01*
X0050148Y0075045D01*
X0050316Y0074978D01*
X0050487Y0074916D01*
X0050658Y0074858D01*
X0050831Y0074804D01*
X0051006Y0074754D01*
X0051181Y0074709D01*
X0051358Y0074668D01*
X0051535Y0074631D01*
X0051713Y0074598D01*
X0051892Y0074570D01*
X0052072Y0074546D01*
X0052252Y0074526D01*
X0052433Y0074511D01*
X0052614Y0074500D01*
X0052795Y0074493D01*
X0052976Y0074491D01*
X0048145Y0136991D02*
X0048147Y0137122D01*
X0048153Y0137254D01*
X0048163Y0137385D01*
X0048177Y0137516D01*
X0048195Y0137646D01*
X0048217Y0137775D01*
X0048242Y0137904D01*
X0048272Y0138032D01*
X0048306Y0138159D01*
X0048343Y0138286D01*
X0048384Y0138410D01*
X0048429Y0138534D01*
X0048478Y0138656D01*
X0048530Y0138777D01*
X0048586Y0138895D01*
X0048646Y0139013D01*
X0048709Y0139128D01*
X0048776Y0139241D01*
X0048846Y0139353D01*
X0048919Y0139462D01*
X0048995Y0139568D01*
X0049075Y0139673D01*
X0049158Y0139775D01*
X0049244Y0139874D01*
X0049333Y0139971D01*
X0049425Y0140065D01*
X0049520Y0140156D01*
X0049617Y0140245D01*
X0049717Y0140330D01*
X0049820Y0140412D01*
X0049925Y0140491D01*
X0050032Y0140567D01*
X0050142Y0140639D01*
X0050254Y0140708D01*
X0050368Y0140774D01*
X0050483Y0140836D01*
X0050601Y0140895D01*
X0050720Y0140950D01*
X0050841Y0141002D01*
X0050964Y0141049D01*
X0051088Y0141093D01*
X0051213Y0141134D01*
X0051339Y0141170D01*
X0051467Y0141203D01*
X0051595Y0141231D01*
X0051724Y0141256D01*
X0051854Y0141277D01*
X0051984Y0141294D01*
X0052115Y0141307D01*
X0052246Y0141316D01*
X0052377Y0141321D01*
X0052509Y0141322D01*
X0052640Y0141319D01*
X0052772Y0141312D01*
X0052903Y0141301D01*
X0053033Y0141286D01*
X0053163Y0141267D01*
X0053293Y0141244D01*
X0053421Y0141218D01*
X0053549Y0141187D01*
X0053676Y0141152D01*
X0053802Y0141114D01*
X0053926Y0141072D01*
X0054050Y0141026D01*
X0054171Y0140976D01*
X0054291Y0140923D01*
X0054410Y0140866D01*
X0054527Y0140806D01*
X0054641Y0140742D01*
X0054754Y0140674D01*
X0054865Y0140603D01*
X0054974Y0140529D01*
X0055080Y0140452D01*
X0055184Y0140371D01*
X0055285Y0140288D01*
X0055384Y0140201D01*
X0055480Y0140111D01*
X0055573Y0140018D01*
X0055664Y0139923D01*
X0055751Y0139825D01*
X0055836Y0139724D01*
X0055917Y0139621D01*
X0055995Y0139515D01*
X0056070Y0139407D01*
X0056142Y0139297D01*
X0056210Y0139185D01*
X0056275Y0139071D01*
X0056336Y0138954D01*
X0056394Y0138836D01*
X0056448Y0138716D01*
X0056499Y0138595D01*
X0056546Y0138472D01*
X0056589Y0138348D01*
X0056628Y0138223D01*
X0056664Y0138096D01*
X0056695Y0137968D01*
X0056723Y0137840D01*
X0056747Y0137711D01*
X0056767Y0137581D01*
X0056783Y0137450D01*
X0056795Y0137319D01*
X0056803Y0137188D01*
X0056807Y0137057D01*
X0056807Y0136925D01*
X0056803Y0136794D01*
X0056795Y0136663D01*
X0056783Y0136532D01*
X0056767Y0136401D01*
X0056747Y0136271D01*
X0056723Y0136142D01*
X0056695Y0136014D01*
X0056664Y0135886D01*
X0056628Y0135759D01*
X0056589Y0135634D01*
X0056546Y0135510D01*
X0056499Y0135387D01*
X0056448Y0135266D01*
X0056394Y0135146D01*
X0056336Y0135028D01*
X0056275Y0134911D01*
X0056210Y0134797D01*
X0056142Y0134685D01*
X0056070Y0134575D01*
X0055995Y0134467D01*
X0055917Y0134361D01*
X0055836Y0134258D01*
X0055751Y0134157D01*
X0055664Y0134059D01*
X0055573Y0133964D01*
X0055480Y0133871D01*
X0055384Y0133781D01*
X0055285Y0133694D01*
X0055184Y0133611D01*
X0055080Y0133530D01*
X0054974Y0133453D01*
X0054865Y0133379D01*
X0054754Y0133308D01*
X0054642Y0133240D01*
X0054527Y0133176D01*
X0054410Y0133116D01*
X0054291Y0133059D01*
X0054171Y0133006D01*
X0054050Y0132956D01*
X0053926Y0132910D01*
X0053802Y0132868D01*
X0053676Y0132830D01*
X0053549Y0132795D01*
X0053421Y0132764D01*
X0053293Y0132738D01*
X0053163Y0132715D01*
X0053033Y0132696D01*
X0052903Y0132681D01*
X0052772Y0132670D01*
X0052640Y0132663D01*
X0052509Y0132660D01*
X0052377Y0132661D01*
X0052246Y0132666D01*
X0052115Y0132675D01*
X0051984Y0132688D01*
X0051854Y0132705D01*
X0051724Y0132726D01*
X0051595Y0132751D01*
X0051467Y0132779D01*
X0051339Y0132812D01*
X0051213Y0132848D01*
X0051088Y0132889D01*
X0050964Y0132933D01*
X0050841Y0132980D01*
X0050720Y0133032D01*
X0050601Y0133087D01*
X0050483Y0133146D01*
X0050368Y0133208D01*
X0050254Y0133274D01*
X0050142Y0133343D01*
X0050032Y0133415D01*
X0049925Y0133491D01*
X0049820Y0133570D01*
X0049717Y0133652D01*
X0049617Y0133737D01*
X0049520Y0133826D01*
X0049425Y0133917D01*
X0049333Y0134011D01*
X0049244Y0134108D01*
X0049158Y0134207D01*
X0049075Y0134309D01*
X0048995Y0134414D01*
X0048919Y0134520D01*
X0048846Y0134629D01*
X0048776Y0134741D01*
X0048709Y0134854D01*
X0048646Y0134969D01*
X0048586Y0135087D01*
X0048530Y0135205D01*
X0048478Y0135326D01*
X0048429Y0135448D01*
X0048384Y0135572D01*
X0048343Y0135696D01*
X0048306Y0135823D01*
X0048272Y0135950D01*
X0048242Y0136078D01*
X0048217Y0136207D01*
X0048195Y0136336D01*
X0048177Y0136466D01*
X0048163Y0136597D01*
X0048153Y0136728D01*
X0048147Y0136860D01*
X0048145Y0136991D01*
X0149645Y0109491D02*
X0149647Y0109622D01*
X0149653Y0109754D01*
X0149663Y0109885D01*
X0149677Y0110016D01*
X0149695Y0110146D01*
X0149717Y0110275D01*
X0149742Y0110404D01*
X0149772Y0110532D01*
X0149806Y0110659D01*
X0149843Y0110786D01*
X0149884Y0110910D01*
X0149929Y0111034D01*
X0149978Y0111156D01*
X0150030Y0111277D01*
X0150086Y0111395D01*
X0150146Y0111513D01*
X0150209Y0111628D01*
X0150276Y0111741D01*
X0150346Y0111853D01*
X0150419Y0111962D01*
X0150495Y0112068D01*
X0150575Y0112173D01*
X0150658Y0112275D01*
X0150744Y0112374D01*
X0150833Y0112471D01*
X0150925Y0112565D01*
X0151020Y0112656D01*
X0151117Y0112745D01*
X0151217Y0112830D01*
X0151320Y0112912D01*
X0151425Y0112991D01*
X0151532Y0113067D01*
X0151642Y0113139D01*
X0151754Y0113208D01*
X0151868Y0113274D01*
X0151983Y0113336D01*
X0152101Y0113395D01*
X0152220Y0113450D01*
X0152341Y0113502D01*
X0152464Y0113549D01*
X0152588Y0113593D01*
X0152713Y0113634D01*
X0152839Y0113670D01*
X0152967Y0113703D01*
X0153095Y0113731D01*
X0153224Y0113756D01*
X0153354Y0113777D01*
X0153484Y0113794D01*
X0153615Y0113807D01*
X0153746Y0113816D01*
X0153877Y0113821D01*
X0154009Y0113822D01*
X0154140Y0113819D01*
X0154272Y0113812D01*
X0154403Y0113801D01*
X0154533Y0113786D01*
X0154663Y0113767D01*
X0154793Y0113744D01*
X0154921Y0113718D01*
X0155049Y0113687D01*
X0155176Y0113652D01*
X0155302Y0113614D01*
X0155426Y0113572D01*
X0155550Y0113526D01*
X0155671Y0113476D01*
X0155791Y0113423D01*
X0155910Y0113366D01*
X0156027Y0113306D01*
X0156141Y0113242D01*
X0156254Y0113174D01*
X0156365Y0113103D01*
X0156474Y0113029D01*
X0156580Y0112952D01*
X0156684Y0112871D01*
X0156785Y0112788D01*
X0156884Y0112701D01*
X0156980Y0112611D01*
X0157073Y0112518D01*
X0157164Y0112423D01*
X0157251Y0112325D01*
X0157336Y0112224D01*
X0157417Y0112121D01*
X0157495Y0112015D01*
X0157570Y0111907D01*
X0157642Y0111797D01*
X0157710Y0111685D01*
X0157775Y0111571D01*
X0157836Y0111454D01*
X0157894Y0111336D01*
X0157948Y0111216D01*
X0157999Y0111095D01*
X0158046Y0110972D01*
X0158089Y0110848D01*
X0158128Y0110723D01*
X0158164Y0110596D01*
X0158195Y0110468D01*
X0158223Y0110340D01*
X0158247Y0110211D01*
X0158267Y0110081D01*
X0158283Y0109950D01*
X0158295Y0109819D01*
X0158303Y0109688D01*
X0158307Y0109557D01*
X0158307Y0109425D01*
X0158303Y0109294D01*
X0158295Y0109163D01*
X0158283Y0109032D01*
X0158267Y0108901D01*
X0158247Y0108771D01*
X0158223Y0108642D01*
X0158195Y0108514D01*
X0158164Y0108386D01*
X0158128Y0108259D01*
X0158089Y0108134D01*
X0158046Y0108010D01*
X0157999Y0107887D01*
X0157948Y0107766D01*
X0157894Y0107646D01*
X0157836Y0107528D01*
X0157775Y0107411D01*
X0157710Y0107297D01*
X0157642Y0107185D01*
X0157570Y0107075D01*
X0157495Y0106967D01*
X0157417Y0106861D01*
X0157336Y0106758D01*
X0157251Y0106657D01*
X0157164Y0106559D01*
X0157073Y0106464D01*
X0156980Y0106371D01*
X0156884Y0106281D01*
X0156785Y0106194D01*
X0156684Y0106111D01*
X0156580Y0106030D01*
X0156474Y0105953D01*
X0156365Y0105879D01*
X0156254Y0105808D01*
X0156142Y0105740D01*
X0156027Y0105676D01*
X0155910Y0105616D01*
X0155791Y0105559D01*
X0155671Y0105506D01*
X0155550Y0105456D01*
X0155426Y0105410D01*
X0155302Y0105368D01*
X0155176Y0105330D01*
X0155049Y0105295D01*
X0154921Y0105264D01*
X0154793Y0105238D01*
X0154663Y0105215D01*
X0154533Y0105196D01*
X0154403Y0105181D01*
X0154272Y0105170D01*
X0154140Y0105163D01*
X0154009Y0105160D01*
X0153877Y0105161D01*
X0153746Y0105166D01*
X0153615Y0105175D01*
X0153484Y0105188D01*
X0153354Y0105205D01*
X0153224Y0105226D01*
X0153095Y0105251D01*
X0152967Y0105279D01*
X0152839Y0105312D01*
X0152713Y0105348D01*
X0152588Y0105389D01*
X0152464Y0105433D01*
X0152341Y0105480D01*
X0152220Y0105532D01*
X0152101Y0105587D01*
X0151983Y0105646D01*
X0151868Y0105708D01*
X0151754Y0105774D01*
X0151642Y0105843D01*
X0151532Y0105915D01*
X0151425Y0105991D01*
X0151320Y0106070D01*
X0151217Y0106152D01*
X0151117Y0106237D01*
X0151020Y0106326D01*
X0150925Y0106417D01*
X0150833Y0106511D01*
X0150744Y0106608D01*
X0150658Y0106707D01*
X0150575Y0106809D01*
X0150495Y0106914D01*
X0150419Y0107020D01*
X0150346Y0107129D01*
X0150276Y0107241D01*
X0150209Y0107354D01*
X0150146Y0107469D01*
X0150086Y0107587D01*
X0150030Y0107705D01*
X0149978Y0107826D01*
X0149929Y0107948D01*
X0149884Y0108072D01*
X0149843Y0108196D01*
X0149806Y0108323D01*
X0149772Y0108450D01*
X0149742Y0108578D01*
X0149717Y0108707D01*
X0149695Y0108836D01*
X0149677Y0108966D01*
X0149663Y0109097D01*
X0149653Y0109228D01*
X0149647Y0109360D01*
X0149645Y0109491D01*
X0264339Y0034156D02*
X0264720Y0034161D01*
X0265100Y0034174D01*
X0265480Y0034197D01*
X0265859Y0034230D01*
X0266237Y0034271D01*
X0266614Y0034321D01*
X0266990Y0034381D01*
X0267365Y0034449D01*
X0267737Y0034527D01*
X0268108Y0034614D01*
X0268476Y0034709D01*
X0268842Y0034814D01*
X0269205Y0034927D01*
X0269566Y0035049D01*
X0269923Y0035179D01*
X0270277Y0035319D01*
X0270628Y0035466D01*
X0270975Y0035623D01*
X0271318Y0035787D01*
X0271657Y0035960D01*
X0271992Y0036141D01*
X0272323Y0036330D01*
X0272648Y0036527D01*
X0272969Y0036731D01*
X0273285Y0036944D01*
X0273595Y0037164D01*
X0273901Y0037391D01*
X0274200Y0037626D01*
X0274494Y0037868D01*
X0274782Y0038116D01*
X0275064Y0038372D01*
X0275339Y0038635D01*
X0275608Y0038904D01*
X0275871Y0039179D01*
X0276127Y0039461D01*
X0276375Y0039749D01*
X0276617Y0040043D01*
X0276852Y0040342D01*
X0277079Y0040648D01*
X0277299Y0040958D01*
X0277512Y0041274D01*
X0277716Y0041595D01*
X0277913Y0041920D01*
X0278102Y0042251D01*
X0278283Y0042586D01*
X0278456Y0042925D01*
X0278620Y0043268D01*
X0278777Y0043615D01*
X0278924Y0043966D01*
X0279064Y0044320D01*
X0279194Y0044677D01*
X0279316Y0045038D01*
X0279429Y0045401D01*
X0279534Y0045767D01*
X0279629Y0046135D01*
X0279716Y0046506D01*
X0279794Y0046878D01*
X0279862Y0047253D01*
X0279922Y0047629D01*
X0279972Y0048006D01*
X0280013Y0048384D01*
X0280046Y0048763D01*
X0280069Y0049143D01*
X0280082Y0049523D01*
X0280087Y0049904D01*
D13*
X0210807Y0091597D02*
X0210807Y0094747D01*
X0209626Y0094747D01*
X0203327Y0094747D02*
X0202146Y0094747D01*
X0202146Y0091597D01*
X0240807Y0095180D02*
X0240807Y0096991D01*
X0242028Y0097911D01*
X0240807Y0098802D02*
X0240807Y0096991D01*
X0240868Y0096891D02*
X0242028Y0096131D01*
D14*
X0233665Y0119392D02*
X0227287Y0119392D01*
X0227287Y0119762D01*
X0227287Y0122936D02*
X0227287Y0127046D01*
X0227287Y0130219D02*
X0227287Y0130589D01*
X0233665Y0130589D01*
X0233665Y0130219D01*
X0233665Y0127046D02*
X0233665Y0126676D01*
X0233665Y0123306D02*
X0233665Y0122936D01*
X0233665Y0119762D02*
X0233665Y0119392D01*
X0191476Y0159491D02*
X0186476Y0159491D01*
X0183976Y0161991D01*
X0181476Y0159491D01*
X0176476Y0159491D01*
X0173976Y0161991D01*
X0171476Y0159491D01*
X0166476Y0159491D01*
X0163976Y0161991D01*
X0161476Y0159491D01*
X0156476Y0159491D01*
X0153976Y0161991D01*
X0151476Y0159491D01*
X0146476Y0159491D01*
X0143976Y0161991D01*
X0141476Y0159491D01*
X0136476Y0159491D01*
X0133976Y0161991D01*
X0131476Y0159491D01*
X0126476Y0159491D01*
X0123976Y0161991D01*
X0121476Y0159491D01*
X0116476Y0159491D01*
X0113976Y0161991D01*
X0111476Y0159491D01*
X0106476Y0159491D01*
X0103976Y0161991D01*
X0101476Y0159491D01*
X0096476Y0159491D01*
X0093976Y0161991D01*
X0091476Y0159491D01*
X0086476Y0159491D01*
X0083976Y0161991D01*
X0081476Y0159491D01*
X0076476Y0159491D01*
X0073976Y0161991D01*
X0073976Y0166991D01*
X0076476Y0169491D01*
X0081476Y0169491D01*
X0083976Y0166991D01*
X0086476Y0169491D01*
X0091476Y0169491D01*
X0093976Y0166991D01*
X0093976Y0161991D01*
X0093976Y0166991D02*
X0096476Y0169491D01*
X0101476Y0169491D01*
X0103976Y0166991D01*
X0106476Y0169491D01*
X0111476Y0169491D01*
X0113976Y0166991D01*
X0116476Y0169491D01*
X0121476Y0169491D01*
X0123976Y0166991D01*
X0123976Y0161991D01*
X0123976Y0166991D02*
X0126476Y0169491D01*
X0131476Y0169491D01*
X0133976Y0166991D01*
X0136476Y0169491D01*
X0141476Y0169491D01*
X0143976Y0166991D01*
X0146476Y0169491D01*
X0151476Y0169491D01*
X0153976Y0166991D01*
X0153976Y0161991D01*
X0153976Y0166991D02*
X0156476Y0169491D01*
X0161476Y0169491D01*
X0163976Y0166991D01*
X0166476Y0169491D01*
X0171476Y0169491D01*
X0173976Y0166991D01*
X0176476Y0169491D01*
X0181476Y0169491D01*
X0183976Y0166991D01*
X0186476Y0169491D01*
X0191476Y0169491D01*
X0193976Y0166991D01*
X0193976Y0161991D01*
X0191476Y0159491D01*
X0183976Y0161991D02*
X0183976Y0166991D01*
X0173976Y0166991D02*
X0173976Y0161991D01*
X0163976Y0161991D02*
X0163976Y0166991D01*
X0143976Y0166991D02*
X0143976Y0161991D01*
X0133976Y0161991D02*
X0133976Y0166991D01*
X0113976Y0166991D02*
X0113976Y0161991D01*
X0103976Y0161991D02*
X0103976Y0166991D01*
X0083976Y0166991D02*
X0083976Y0161991D01*
X0054942Y0115145D02*
X0053475Y0115145D01*
X0052741Y0114411D01*
X0052741Y0112943D01*
X0053475Y0112209D01*
X0054942Y0112209D01*
X0055676Y0112943D01*
X0055676Y0114411D01*
X0054942Y0115145D01*
X0052741Y0110574D02*
X0052741Y0109840D01*
X0054208Y0108372D01*
X0052741Y0108372D02*
X0055676Y0108372D01*
X0053475Y0106704D02*
X0054208Y0105970D01*
X0054208Y0103769D01*
X0055676Y0103769D02*
X0051273Y0103769D01*
X0051273Y0105970D01*
X0052007Y0106704D01*
X0053475Y0106704D01*
X0076476Y0054491D02*
X0081476Y0054491D01*
X0083976Y0051991D01*
X0086476Y0054491D01*
X0091476Y0054491D01*
X0093976Y0051991D01*
X0096476Y0054491D01*
X0101476Y0054491D01*
X0103976Y0051991D01*
X0106476Y0054491D01*
X0111476Y0054491D01*
X0113976Y0051991D01*
X0116476Y0054491D01*
X0121476Y0054491D01*
X0123976Y0051991D01*
X0126476Y0054491D01*
X0131476Y0054491D01*
X0133976Y0051991D01*
X0136476Y0054491D01*
X0141476Y0054491D01*
X0143976Y0051991D01*
X0146476Y0054491D01*
X0151476Y0054491D01*
X0153976Y0051991D01*
X0156476Y0054491D01*
X0161476Y0054491D01*
X0163976Y0051991D01*
X0166476Y0054491D01*
X0171476Y0054491D01*
X0173976Y0051991D01*
X0176476Y0054491D01*
X0181476Y0054491D01*
X0183976Y0051991D01*
X0186476Y0054491D01*
X0191476Y0054491D01*
X0193976Y0051991D01*
X0193976Y0046991D01*
X0191476Y0044491D01*
X0186476Y0044491D01*
X0183976Y0046991D01*
X0181476Y0044491D01*
X0176476Y0044491D01*
X0173976Y0046991D01*
X0173976Y0051991D01*
X0173976Y0046991D02*
X0171476Y0044491D01*
X0166476Y0044491D01*
X0163976Y0046991D01*
X0161476Y0044491D01*
X0156476Y0044491D01*
X0153976Y0046991D01*
X0151476Y0044491D01*
X0146476Y0044491D01*
X0143976Y0046991D01*
X0143976Y0051991D01*
X0143976Y0046991D02*
X0141476Y0044491D01*
X0136476Y0044491D01*
X0133976Y0046991D01*
X0131476Y0044491D01*
X0126476Y0044491D01*
X0123976Y0046991D01*
X0121476Y0044491D01*
X0116476Y0044491D01*
X0113976Y0046991D01*
X0113976Y0051991D01*
X0113976Y0046991D02*
X0111476Y0044491D01*
X0106476Y0044491D01*
X0103976Y0046991D01*
X0101476Y0044491D01*
X0096476Y0044491D01*
X0093976Y0046991D01*
X0091476Y0044491D01*
X0086476Y0044491D01*
X0083976Y0046991D01*
X0081476Y0044491D01*
X0076476Y0044491D01*
X0073976Y0046991D01*
X0073976Y0051991D01*
X0076476Y0054491D01*
X0083976Y0051991D02*
X0083976Y0046991D01*
X0093976Y0046991D02*
X0093976Y0051991D01*
X0103976Y0051991D02*
X0103976Y0046991D01*
X0123976Y0046991D02*
X0123976Y0051991D01*
X0133976Y0051991D02*
X0133976Y0046991D01*
X0153976Y0046991D02*
X0153976Y0051991D01*
X0163976Y0051991D02*
X0163976Y0046991D01*
X0183976Y0046991D02*
X0183976Y0051991D01*
D15*
X0241476Y0089491D03*
D16*
X0226476Y0089611D02*
X0226476Y0089371D01*
X0226476Y0096871D02*
X0226476Y0097111D01*
D17*
X0174776Y0125141D02*
X0171173Y0125141D01*
X0171173Y0126943D01*
X0171774Y0127543D01*
X0172975Y0127543D01*
X0173575Y0126943D01*
X0173575Y0125141D01*
X0173575Y0126342D02*
X0174776Y0127543D01*
X0174176Y0128825D02*
X0174776Y0129425D01*
X0174776Y0130626D01*
X0174176Y0131227D01*
X0173575Y0131227D01*
X0172975Y0130626D01*
X0172975Y0129425D01*
X0172374Y0128825D01*
X0171774Y0128825D01*
X0171173Y0129425D01*
X0171173Y0130626D01*
X0171774Y0131227D01*
X0171173Y0132508D02*
X0171173Y0134910D01*
X0171173Y0133709D02*
X0174776Y0133709D01*
X0164276Y0134910D02*
X0160673Y0132508D01*
X0161274Y0131227D02*
X0162475Y0131227D01*
X0163075Y0130626D01*
X0163075Y0128825D01*
X0163075Y0130026D02*
X0164276Y0131227D01*
X0164276Y0132508D02*
X0160673Y0134910D01*
X0161274Y0131227D02*
X0160673Y0130626D01*
X0160673Y0128825D01*
X0164276Y0128825D01*
X0154276Y0129776D02*
X0150673Y0129776D01*
X0150673Y0128575D02*
X0150673Y0130977D01*
X0150673Y0132258D02*
X0154276Y0134660D01*
X0154276Y0132258D02*
X0150673Y0134660D01*
X0144276Y0134309D02*
X0144276Y0133108D01*
X0143676Y0132508D01*
X0142475Y0133709D02*
X0142475Y0134309D01*
X0143075Y0134910D01*
X0143676Y0134910D01*
X0144276Y0134309D01*
X0142475Y0134309D02*
X0141874Y0134910D01*
X0141274Y0134910D01*
X0140673Y0134309D01*
X0140673Y0133108D01*
X0141274Y0132508D01*
X0139173Y0132508D02*
X0138573Y0133108D01*
X0139774Y0134309D01*
X0139173Y0134910D01*
X0134276Y0134309D02*
X0130673Y0134309D01*
X0132475Y0132508D01*
X0132475Y0134910D01*
X0124276Y0134309D02*
X0124276Y0133108D01*
X0123676Y0132508D01*
X0122475Y0132508D02*
X0121874Y0133709D01*
X0121874Y0134309D01*
X0122475Y0134910D01*
X0123676Y0134910D01*
X0124276Y0134309D01*
X0122475Y0132508D02*
X0120673Y0132508D01*
X0120673Y0134910D01*
X0119774Y0134309D02*
X0118573Y0133108D01*
X0119173Y0132508D01*
X0119774Y0134309D02*
X0119173Y0134910D01*
X0114276Y0133309D02*
X0114276Y0132108D01*
X0113676Y0131508D01*
X0112475Y0131508D01*
X0112475Y0133309D01*
X0113075Y0133910D01*
X0113676Y0133910D01*
X0114276Y0133309D01*
X0112475Y0131508D02*
X0111274Y0132709D01*
X0110673Y0133910D01*
X0109774Y0133809D02*
X0109173Y0134410D01*
X0109774Y0133809D02*
X0108573Y0132608D01*
X0109173Y0132008D01*
X0104776Y0132108D02*
X0104776Y0133309D01*
X0104176Y0133910D01*
X0103575Y0133910D01*
X0102975Y0133309D01*
X0102975Y0132108D01*
X0102374Y0131508D01*
X0101774Y0131508D01*
X0101173Y0132108D01*
X0101173Y0133309D01*
X0101774Y0133910D01*
X0102374Y0133910D01*
X0102975Y0133309D01*
X0102975Y0132108D02*
X0103575Y0131508D01*
X0104176Y0131508D01*
X0104776Y0132108D01*
X0094526Y0132108D02*
X0094526Y0133309D01*
X0093926Y0133910D01*
X0094526Y0132108D02*
X0093926Y0131508D01*
X0091524Y0131508D01*
X0090923Y0132108D01*
X0090923Y0133309D01*
X0091524Y0133910D01*
X0091524Y0130227D02*
X0090923Y0129626D01*
X0090923Y0128425D01*
X0091524Y0127825D01*
X0093926Y0127825D01*
X0094526Y0128425D01*
X0094526Y0129626D01*
X0093926Y0130227D01*
X0093325Y0126543D02*
X0090923Y0126543D01*
X0090923Y0124141D02*
X0093325Y0124141D01*
X0094526Y0125342D01*
X0093325Y0126543D01*
X0084376Y0127145D02*
X0084376Y0125444D01*
X0080973Y0125444D01*
X0080973Y0127145D01*
X0081541Y0127712D01*
X0082108Y0127712D01*
X0082675Y0127145D01*
X0082675Y0125444D01*
X0082675Y0127145D02*
X0083242Y0127712D01*
X0083809Y0127712D01*
X0084376Y0127145D01*
X0083809Y0128943D02*
X0080973Y0128943D01*
X0080973Y0131211D02*
X0083809Y0131211D01*
X0084376Y0130644D01*
X0084376Y0129510D01*
X0083809Y0128943D01*
X0083809Y0132442D02*
X0084376Y0133009D01*
X0084376Y0134143D01*
X0083809Y0134710D01*
X0083242Y0134710D01*
X0082675Y0134143D01*
X0082675Y0133009D01*
X0082108Y0132442D01*
X0081541Y0132442D01*
X0080973Y0133009D01*
X0080973Y0134143D01*
X0081541Y0134710D01*
X0074176Y0134509D02*
X0074176Y0132707D01*
X0070573Y0132707D01*
X0070573Y0134509D01*
X0071174Y0135109D01*
X0073576Y0135109D01*
X0074176Y0134509D01*
X0074176Y0131426D02*
X0070573Y0131426D01*
X0070573Y0129024D02*
X0074176Y0131426D01*
X0074176Y0129024D02*
X0070573Y0129024D01*
X0071174Y0127743D02*
X0070573Y0127142D01*
X0070573Y0125941D01*
X0071174Y0125341D01*
X0073576Y0125341D01*
X0074176Y0125941D01*
X0074176Y0127142D01*
X0073576Y0127743D01*
X0072375Y0127743D01*
X0072375Y0126542D01*
X0064526Y0125891D02*
X0064526Y0127693D01*
X0063926Y0128293D01*
X0063325Y0128293D01*
X0062725Y0127693D01*
X0062725Y0125891D01*
X0064526Y0125891D02*
X0060923Y0125891D01*
X0060923Y0127693D01*
X0061524Y0128293D01*
X0062124Y0128293D01*
X0062725Y0127693D01*
X0062725Y0129575D02*
X0062725Y0131977D01*
X0062124Y0131977D02*
X0064526Y0131977D01*
X0062124Y0131977D02*
X0060923Y0130776D01*
X0062124Y0129575D01*
X0064526Y0129575D01*
X0060923Y0133258D02*
X0060923Y0135660D01*
X0060923Y0134459D02*
X0064526Y0134459D01*
X0120673Y0100276D02*
X0121274Y0099075D01*
X0122475Y0097874D01*
X0122475Y0099675D01*
X0123075Y0100276D01*
X0123676Y0100276D01*
X0124276Y0099675D01*
X0124276Y0098474D01*
X0123676Y0097874D01*
X0122475Y0097874D01*
X0122475Y0096593D02*
X0122475Y0094191D01*
X0121874Y0094191D02*
X0120673Y0095392D01*
X0121874Y0096593D01*
X0124276Y0096593D01*
X0124276Y0094191D02*
X0121874Y0094191D01*
X0114776Y0093245D02*
X0114776Y0092044D01*
X0114176Y0091443D01*
X0112975Y0091443D01*
X0112374Y0092044D01*
X0112374Y0093245D01*
X0112975Y0093845D01*
X0113575Y0093845D01*
X0113575Y0091443D01*
X0112374Y0090175D02*
X0112374Y0089575D01*
X0113575Y0088374D01*
X0114776Y0088374D02*
X0112374Y0088374D01*
X0112374Y0087093D02*
X0114776Y0087093D01*
X0112975Y0087093D02*
X0112975Y0084691D01*
X0112374Y0084691D02*
X0111173Y0085892D01*
X0112374Y0087093D01*
X0112374Y0084691D02*
X0114776Y0084691D01*
X0125424Y0085431D02*
X0125424Y0086465D01*
X0125941Y0086982D01*
X0128009Y0084914D01*
X0128526Y0085431D01*
X0128526Y0086465D01*
X0128009Y0086982D01*
X0125941Y0086982D01*
X0125424Y0085431D02*
X0125941Y0084914D01*
X0128009Y0084914D01*
X0128526Y0083759D02*
X0126458Y0083759D01*
X0125424Y0082725D01*
X0126458Y0081691D01*
X0128526Y0081691D01*
X0126975Y0081691D02*
X0126975Y0083759D01*
X0135773Y0083325D02*
X0136908Y0084459D01*
X0139176Y0084459D01*
X0139176Y0085690D02*
X0139176Y0087958D01*
X0139176Y0086824D02*
X0135773Y0086824D01*
X0136908Y0085690D01*
X0137475Y0084459D02*
X0137475Y0082191D01*
X0136908Y0082191D02*
X0135773Y0083325D01*
X0136908Y0082191D02*
X0139176Y0082191D01*
X0143673Y0085392D02*
X0144874Y0086593D01*
X0147276Y0086593D01*
X0147276Y0087874D02*
X0144874Y0090276D01*
X0144274Y0090276D01*
X0143673Y0089675D01*
X0143673Y0088474D01*
X0144274Y0087874D01*
X0145475Y0086593D02*
X0145475Y0084191D01*
X0144874Y0084191D02*
X0143673Y0085392D01*
X0144874Y0084191D02*
X0147276Y0084191D01*
X0150673Y0085392D02*
X0151874Y0086593D01*
X0154276Y0086593D01*
X0153676Y0087874D02*
X0154276Y0088474D01*
X0154276Y0089675D01*
X0153676Y0090276D01*
X0153075Y0090276D01*
X0152475Y0089675D01*
X0152475Y0089075D01*
X0152475Y0089675D02*
X0151874Y0090276D01*
X0151274Y0090276D01*
X0150673Y0089675D01*
X0150673Y0088474D01*
X0151274Y0087874D01*
X0152475Y0086593D02*
X0152475Y0084191D01*
X0151874Y0084191D02*
X0150673Y0085392D01*
X0151874Y0084191D02*
X0154276Y0084191D01*
X0160673Y0085392D02*
X0161874Y0086593D01*
X0164276Y0086593D01*
X0162475Y0086593D02*
X0162475Y0084191D01*
X0161874Y0084191D02*
X0160673Y0085392D01*
X0161874Y0084191D02*
X0164276Y0084191D01*
X0162475Y0087874D02*
X0162475Y0090276D01*
X0164276Y0089675D02*
X0160673Y0089675D01*
X0162475Y0087874D01*
X0170173Y0087874D02*
X0171975Y0087874D01*
X0171374Y0089075D01*
X0171374Y0089675D01*
X0171975Y0090276D01*
X0173176Y0090276D01*
X0173776Y0089675D01*
X0173776Y0088474D01*
X0173176Y0087874D01*
X0173776Y0086593D02*
X0171374Y0086593D01*
X0170173Y0085392D01*
X0171374Y0084191D01*
X0173776Y0084191D01*
X0171975Y0084191D02*
X0171975Y0086593D01*
X0170173Y0087874D02*
X0170173Y0090276D01*
X0147276Y0090276D02*
X0147276Y0087874D01*
X0134776Y0094691D02*
X0132374Y0094691D01*
X0131173Y0095892D01*
X0132374Y0097093D01*
X0134776Y0097093D01*
X0134776Y0098374D02*
X0134176Y0098374D01*
X0131774Y0100776D01*
X0131173Y0100776D01*
X0131173Y0098374D01*
X0132975Y0097093D02*
X0132975Y0094691D01*
X0114776Y0095727D02*
X0111774Y0095727D01*
X0111173Y0096327D01*
X0112975Y0096327D02*
X0112975Y0095126D01*
X0104276Y0090175D02*
X0104276Y0088974D01*
X0103676Y0088374D01*
X0104276Y0087093D02*
X0104276Y0084691D01*
X0104276Y0085892D02*
X0100673Y0085892D01*
X0101874Y0084691D01*
X0101274Y0088374D02*
X0100673Y0088974D01*
X0100673Y0090175D01*
X0101274Y0090776D01*
X0101874Y0090776D01*
X0102475Y0090175D01*
X0103075Y0090776D01*
X0103676Y0090776D01*
X0104276Y0090175D01*
X0102475Y0090175D02*
X0102475Y0089575D01*
X0094276Y0090776D02*
X0094276Y0088374D01*
X0091874Y0090776D01*
X0091274Y0090776D01*
X0090673Y0090175D01*
X0090673Y0088974D01*
X0091274Y0088374D01*
X0090673Y0085892D02*
X0094276Y0085892D01*
X0094276Y0084691D02*
X0094276Y0087093D01*
X0091874Y0084691D02*
X0090673Y0085892D01*
X0084276Y0085892D02*
X0080673Y0085892D01*
X0081874Y0084691D01*
X0084276Y0084691D02*
X0084276Y0087093D01*
X0084276Y0088374D02*
X0084276Y0090776D01*
X0084276Y0089575D02*
X0080673Y0089575D01*
X0081874Y0088374D01*
X0080274Y0088492D02*
X0079673Y0089093D01*
X0080274Y0088492D02*
X0079073Y0087291D01*
X0079673Y0086691D01*
X0074276Y0087093D02*
X0074276Y0084691D01*
X0074276Y0085892D02*
X0070673Y0085892D01*
X0071874Y0084691D01*
X0068673Y0086008D02*
X0068073Y0086608D01*
X0069274Y0087809D01*
X0068673Y0088410D01*
X0070673Y0088974D02*
X0070673Y0090175D01*
X0071274Y0090776D01*
X0073676Y0088374D01*
X0074276Y0088974D01*
X0074276Y0090175D01*
X0073676Y0090776D01*
X0071274Y0090776D01*
X0070673Y0088974D02*
X0071274Y0088374D01*
X0073676Y0088374D01*
X0064276Y0085809D02*
X0064276Y0084608D01*
X0063676Y0084008D01*
X0062475Y0084608D02*
X0062475Y0086410D01*
X0063676Y0086410D02*
X0061274Y0086410D01*
X0060673Y0085809D01*
X0060673Y0084608D01*
X0061274Y0084008D01*
X0061874Y0084008D01*
X0062475Y0084608D01*
X0064276Y0085809D02*
X0063676Y0086410D01*
X0059274Y0085809D02*
X0058073Y0084608D01*
X0058673Y0084008D01*
X0059274Y0085809D02*
X0058673Y0086410D01*
D18*
X0056473Y0098620D02*
X0056473Y0101289D01*
X0056473Y0099954D02*
X0060476Y0099954D01*
X0060476Y0102763D02*
X0057807Y0102763D01*
X0059142Y0102763D02*
X0057807Y0104098D01*
X0057807Y0104765D01*
X0057807Y0106216D02*
X0057807Y0106883D01*
X0060476Y0106883D01*
X0060476Y0106216D02*
X0060476Y0107551D01*
X0060476Y0108978D02*
X0057807Y0108978D01*
X0057807Y0110980D01*
X0058475Y0111647D01*
X0060476Y0111647D01*
X0060476Y0113122D02*
X0056473Y0113122D01*
X0057807Y0115124D02*
X0059142Y0113122D01*
X0060476Y0115124D01*
X0059809Y0116575D02*
X0060476Y0117242D01*
X0060476Y0118577D01*
X0059142Y0119244D02*
X0059142Y0116575D01*
X0059809Y0116575D02*
X0058475Y0116575D01*
X0057807Y0117242D01*
X0057807Y0118577D01*
X0058475Y0119244D01*
X0059142Y0119244D01*
X0057807Y0120718D02*
X0057807Y0122053D01*
X0057140Y0121386D02*
X0059809Y0121386D01*
X0060476Y0122053D01*
X0060476Y0123481D02*
X0059809Y0123481D01*
X0058475Y0123481D02*
X0055806Y0123481D01*
X0055806Y0106883D02*
X0056473Y0106883D01*
X0054469Y0015396D02*
X0053484Y0015396D01*
X0053976Y0010967D01*
X0054469Y0015396D01*
X0054430Y0015049D02*
X0053523Y0015049D01*
X0053578Y0014550D02*
X0054375Y0014550D01*
X0054319Y0014052D02*
X0053634Y0014052D01*
X0053689Y0013553D02*
X0054264Y0013553D01*
X0054208Y0013055D02*
X0053744Y0013055D01*
X0053800Y0012556D02*
X0054153Y0012556D01*
X0054098Y0012058D02*
X0053855Y0012058D01*
X0053911Y0011559D02*
X0054042Y0011559D01*
X0053987Y0011061D02*
X0053966Y0011061D01*
X0053484Y0009491D02*
X0053486Y0009535D01*
X0053492Y0009579D01*
X0053502Y0009622D01*
X0053515Y0009664D01*
X0053533Y0009704D01*
X0053554Y0009743D01*
X0053578Y0009780D01*
X0053605Y0009815D01*
X0053636Y0009847D01*
X0053669Y0009876D01*
X0053705Y0009902D01*
X0053743Y0009924D01*
X0053783Y0009943D01*
X0053824Y0009959D01*
X0053867Y0009971D01*
X0053910Y0009979D01*
X0053954Y0009983D01*
X0053998Y0009983D01*
X0054042Y0009979D01*
X0054085Y0009971D01*
X0054128Y0009959D01*
X0054169Y0009943D01*
X0054209Y0009924D01*
X0054247Y0009902D01*
X0054283Y0009876D01*
X0054316Y0009847D01*
X0054347Y0009815D01*
X0054374Y0009780D01*
X0054398Y0009743D01*
X0054419Y0009704D01*
X0054437Y0009664D01*
X0054450Y0009622D01*
X0054460Y0009579D01*
X0054466Y0009535D01*
X0054468Y0009491D01*
X0054466Y0009447D01*
X0054460Y0009403D01*
X0054450Y0009360D01*
X0054437Y0009318D01*
X0054419Y0009278D01*
X0054398Y0009239D01*
X0054374Y0009202D01*
X0054347Y0009167D01*
X0054316Y0009135D01*
X0054283Y0009106D01*
X0054247Y0009080D01*
X0054209Y0009058D01*
X0054169Y0009039D01*
X0054128Y0009023D01*
X0054085Y0009011D01*
X0054042Y0009003D01*
X0053998Y0008999D01*
X0053954Y0008999D01*
X0053910Y0009003D01*
X0053867Y0009011D01*
X0053824Y0009023D01*
X0053783Y0009039D01*
X0053743Y0009058D01*
X0053705Y0009080D01*
X0053669Y0009106D01*
X0053636Y0009135D01*
X0053605Y0009167D01*
X0053578Y0009202D01*
X0053554Y0009239D01*
X0053533Y0009278D01*
X0053515Y0009318D01*
X0053502Y0009360D01*
X0053492Y0009403D01*
X0053486Y0009447D01*
X0053484Y0009491D01*
X0053484Y0015396D02*
X0053486Y0015439D01*
X0053491Y0015481D01*
X0053501Y0015523D01*
X0053514Y0015564D01*
X0053530Y0015604D01*
X0053550Y0015642D01*
X0053573Y0015678D01*
X0053599Y0015712D01*
X0053628Y0015744D01*
X0053660Y0015773D01*
X0053694Y0015799D01*
X0053730Y0015822D01*
X0053768Y0015842D01*
X0053808Y0015858D01*
X0053849Y0015871D01*
X0053891Y0015881D01*
X0053933Y0015886D01*
X0053976Y0015888D01*
X0054019Y0015886D01*
X0054061Y0015881D01*
X0054103Y0015871D01*
X0054144Y0015858D01*
X0054184Y0015842D01*
X0054222Y0015822D01*
X0054258Y0015799D01*
X0054292Y0015773D01*
X0054324Y0015744D01*
X0054353Y0015712D01*
X0054379Y0015678D01*
X0054402Y0015642D01*
X0054422Y0015604D01*
X0054438Y0015564D01*
X0054451Y0015523D01*
X0054461Y0015481D01*
X0054466Y0015439D01*
X0054468Y0015396D01*
D19*
X0274925Y0089541D02*
X0274025Y0089541D01*
X0274026Y0089541D02*
X0274022Y0089724D01*
X0274015Y0089907D01*
X0274002Y0090090D01*
X0273985Y0090273D01*
X0273964Y0090455D01*
X0273939Y0090636D01*
X0273909Y0090817D01*
X0273874Y0090997D01*
X0273836Y0091176D01*
X0273793Y0091354D01*
X0273745Y0091531D01*
X0273694Y0091706D01*
X0273638Y0091881D01*
X0273578Y0092054D01*
X0273513Y0092225D01*
X0273445Y0092395D01*
X0273373Y0092564D01*
X0273296Y0092730D01*
X0273215Y0092894D01*
X0273131Y0093057D01*
X0273042Y0093217D01*
X0272950Y0093376D01*
X0272854Y0093532D01*
X0272754Y0093685D01*
X0272650Y0093836D01*
X0272543Y0093985D01*
X0272432Y0094131D01*
X0272318Y0094274D01*
X0272200Y0094414D01*
X0272079Y0094551D01*
X0271955Y0094686D01*
X0271827Y0094817D01*
X0271696Y0094946D01*
X0271562Y0095071D01*
X0271426Y0095192D01*
X0271286Y0095311D01*
X0271143Y0095426D01*
X0270998Y0095537D01*
X0270850Y0095645D01*
X0270699Y0095749D01*
X0270546Y0095850D01*
X0270391Y0095947D01*
X0270233Y0096040D01*
X0270073Y0096129D01*
X0270496Y0096923D01*
X0270676Y0096823D01*
X0270853Y0096719D01*
X0271027Y0096611D01*
X0271199Y0096498D01*
X0271367Y0096381D01*
X0271533Y0096260D01*
X0271696Y0096136D01*
X0271856Y0096007D01*
X0272013Y0095874D01*
X0272166Y0095738D01*
X0272316Y0095598D01*
X0272463Y0095454D01*
X0272606Y0095307D01*
X0272746Y0095156D01*
X0272881Y0095002D01*
X0273013Y0094845D01*
X0273141Y0094685D01*
X0273266Y0094521D01*
X0273386Y0094355D01*
X0273502Y0094185D01*
X0273614Y0094013D01*
X0273722Y0093839D01*
X0273825Y0093661D01*
X0273924Y0093482D01*
X0274019Y0093299D01*
X0274109Y0093115D01*
X0274195Y0092929D01*
X0274276Y0092740D01*
X0274353Y0092550D01*
X0274425Y0092357D01*
X0274492Y0092163D01*
X0274555Y0091968D01*
X0274613Y0091771D01*
X0274666Y0091573D01*
X0274714Y0091373D01*
X0274757Y0091172D01*
X0274795Y0090971D01*
X0274829Y0090768D01*
X0274857Y0090565D01*
X0274881Y0090361D01*
X0274900Y0090156D01*
X0274913Y0089952D01*
X0274922Y0089747D01*
X0274926Y0089541D01*
X0274832Y0089541D01*
X0274828Y0089744D01*
X0274820Y0089947D01*
X0274806Y0090150D01*
X0274788Y0090352D01*
X0274764Y0090553D01*
X0274736Y0090754D01*
X0274703Y0090955D01*
X0274665Y0091154D01*
X0274622Y0091352D01*
X0274574Y0091550D01*
X0274522Y0091746D01*
X0274465Y0091941D01*
X0274403Y0092134D01*
X0274336Y0092326D01*
X0274265Y0092516D01*
X0274190Y0092704D01*
X0274109Y0092890D01*
X0274024Y0093075D01*
X0273935Y0093257D01*
X0273841Y0093437D01*
X0273743Y0093615D01*
X0273641Y0093790D01*
X0273535Y0093963D01*
X0273424Y0094133D01*
X0273309Y0094301D01*
X0273190Y0094465D01*
X0273067Y0094627D01*
X0272941Y0094785D01*
X0272810Y0094941D01*
X0272676Y0095093D01*
X0272538Y0095242D01*
X0272397Y0095388D01*
X0272252Y0095530D01*
X0272103Y0095668D01*
X0271952Y0095803D01*
X0271797Y0095934D01*
X0271639Y0096061D01*
X0271477Y0096185D01*
X0271313Y0096304D01*
X0271146Y0096420D01*
X0270977Y0096531D01*
X0270804Y0096639D01*
X0270629Y0096742D01*
X0270452Y0096840D01*
X0270408Y0096757D01*
X0270583Y0096660D01*
X0270756Y0096558D01*
X0270926Y0096452D01*
X0271094Y0096342D01*
X0271259Y0096228D01*
X0271421Y0096109D01*
X0271581Y0095987D01*
X0271737Y0095861D01*
X0271890Y0095732D01*
X0272040Y0095598D01*
X0272187Y0095462D01*
X0272330Y0095321D01*
X0272470Y0095177D01*
X0272606Y0095030D01*
X0272739Y0094879D01*
X0272868Y0094726D01*
X0272993Y0094569D01*
X0273115Y0094409D01*
X0273232Y0094246D01*
X0273346Y0094081D01*
X0273455Y0093913D01*
X0273561Y0093742D01*
X0273662Y0093569D01*
X0273759Y0093393D01*
X0273851Y0093215D01*
X0273939Y0093035D01*
X0274023Y0092852D01*
X0274103Y0092668D01*
X0274178Y0092482D01*
X0274248Y0092294D01*
X0274314Y0092104D01*
X0274375Y0091913D01*
X0274431Y0091721D01*
X0274483Y0091527D01*
X0274530Y0091332D01*
X0274573Y0091136D01*
X0274610Y0090938D01*
X0274643Y0090740D01*
X0274671Y0090542D01*
X0274694Y0090342D01*
X0274712Y0090143D01*
X0274726Y0089942D01*
X0274734Y0089742D01*
X0274738Y0089541D01*
X0274644Y0089541D01*
X0274640Y0089740D01*
X0274632Y0089938D01*
X0274619Y0090136D01*
X0274600Y0090333D01*
X0274578Y0090530D01*
X0274550Y0090727D01*
X0274518Y0090922D01*
X0274480Y0091117D01*
X0274439Y0091311D01*
X0274392Y0091504D01*
X0274341Y0091696D01*
X0274285Y0091886D01*
X0274225Y0092075D01*
X0274160Y0092262D01*
X0274090Y0092448D01*
X0274016Y0092632D01*
X0273937Y0092814D01*
X0273854Y0092994D01*
X0273767Y0093173D01*
X0273676Y0093349D01*
X0273580Y0093522D01*
X0273480Y0093694D01*
X0273376Y0093862D01*
X0273268Y0094029D01*
X0273155Y0094192D01*
X0273039Y0094353D01*
X0272919Y0094511D01*
X0272795Y0094666D01*
X0272668Y0094818D01*
X0272537Y0094967D01*
X0272402Y0095112D01*
X0272264Y0095255D01*
X0272122Y0095393D01*
X0271977Y0095529D01*
X0271829Y0095661D01*
X0271677Y0095789D01*
X0271523Y0095913D01*
X0271366Y0096034D01*
X0271205Y0096151D01*
X0271042Y0096264D01*
X0270876Y0096372D01*
X0270708Y0096477D01*
X0270537Y0096578D01*
X0270364Y0096674D01*
X0270319Y0096592D01*
X0270491Y0096496D01*
X0270660Y0096397D01*
X0270826Y0096293D01*
X0270990Y0096185D01*
X0271151Y0096074D01*
X0271310Y0095958D01*
X0271465Y0095839D01*
X0271618Y0095716D01*
X0271767Y0095589D01*
X0271914Y0095459D01*
X0272057Y0095325D01*
X0272197Y0095188D01*
X0272334Y0095047D01*
X0272467Y0094904D01*
X0272597Y0094757D01*
X0272723Y0094606D01*
X0272845Y0094453D01*
X0272964Y0094297D01*
X0273079Y0094138D01*
X0273189Y0093976D01*
X0273296Y0093812D01*
X0273399Y0093645D01*
X0273498Y0093476D01*
X0273593Y0093304D01*
X0273683Y0093130D01*
X0273770Y0092954D01*
X0273851Y0092776D01*
X0273929Y0092596D01*
X0274002Y0092414D01*
X0274071Y0092231D01*
X0274135Y0092045D01*
X0274195Y0091859D01*
X0274250Y0091671D01*
X0274301Y0091481D01*
X0274347Y0091291D01*
X0274388Y0091099D01*
X0274425Y0090906D01*
X0274457Y0090713D01*
X0274484Y0090519D01*
X0274507Y0090324D01*
X0274525Y0090129D01*
X0274538Y0089933D01*
X0274546Y0089737D01*
X0274550Y0089541D01*
X0274456Y0089541D01*
X0274452Y0089735D01*
X0274444Y0089929D01*
X0274431Y0090122D01*
X0274413Y0090315D01*
X0274391Y0090507D01*
X0274364Y0090699D01*
X0274332Y0090890D01*
X0274296Y0091081D01*
X0274255Y0091270D01*
X0274210Y0091458D01*
X0274160Y0091645D01*
X0274105Y0091831D01*
X0274046Y0092016D01*
X0273983Y0092199D01*
X0273915Y0092380D01*
X0273842Y0092560D01*
X0273766Y0092738D01*
X0273685Y0092914D01*
X0273599Y0093088D01*
X0273510Y0093260D01*
X0273416Y0093430D01*
X0273319Y0093597D01*
X0273217Y0093762D01*
X0273111Y0093924D01*
X0273002Y0094084D01*
X0272888Y0094241D01*
X0272771Y0094395D01*
X0272650Y0094547D01*
X0272526Y0094695D01*
X0272398Y0094840D01*
X0272266Y0094983D01*
X0272131Y0095122D01*
X0271993Y0095257D01*
X0271851Y0095389D01*
X0271706Y0095518D01*
X0271558Y0095643D01*
X0271407Y0095765D01*
X0271254Y0095883D01*
X0271097Y0095997D01*
X0270938Y0096107D01*
X0270776Y0096213D01*
X0270611Y0096316D01*
X0270444Y0096414D01*
X0270275Y0096509D01*
X0270231Y0096426D01*
X0270398Y0096332D01*
X0270563Y0096235D01*
X0270726Y0096134D01*
X0270886Y0096029D01*
X0271043Y0095920D01*
X0271198Y0095807D01*
X0271350Y0095691D01*
X0271499Y0095571D01*
X0271645Y0095447D01*
X0271788Y0095320D01*
X0271928Y0095189D01*
X0272064Y0095055D01*
X0272198Y0094918D01*
X0272328Y0094777D01*
X0272455Y0094634D01*
X0272578Y0094487D01*
X0272697Y0094337D01*
X0272813Y0094185D01*
X0272925Y0094030D01*
X0273033Y0093872D01*
X0273138Y0093711D01*
X0273238Y0093548D01*
X0273335Y0093383D01*
X0273427Y0093216D01*
X0273515Y0093046D01*
X0273600Y0092874D01*
X0273680Y0092700D01*
X0273755Y0092524D01*
X0273827Y0092346D01*
X0273894Y0092167D01*
X0273957Y0091986D01*
X0274015Y0091804D01*
X0274069Y0091620D01*
X0274119Y0091435D01*
X0274163Y0091249D01*
X0274204Y0091062D01*
X0274240Y0090874D01*
X0274271Y0090685D01*
X0274298Y0090496D01*
X0274320Y0090306D01*
X0274337Y0090115D01*
X0274350Y0089924D01*
X0274358Y0089733D01*
X0274362Y0089541D01*
X0274268Y0089541D01*
X0274264Y0089730D01*
X0274256Y0089919D01*
X0274244Y0090108D01*
X0274226Y0090296D01*
X0274204Y0090484D01*
X0274178Y0090671D01*
X0274147Y0090858D01*
X0274112Y0091044D01*
X0274072Y0091229D01*
X0274027Y0091413D01*
X0273978Y0091595D01*
X0273925Y0091777D01*
X0273868Y0091957D01*
X0273806Y0092135D01*
X0273739Y0092313D01*
X0273669Y0092488D01*
X0273594Y0092662D01*
X0273515Y0092834D01*
X0273431Y0093003D01*
X0273344Y0093171D01*
X0273253Y0093337D01*
X0273157Y0093500D01*
X0273058Y0093661D01*
X0272955Y0093820D01*
X0272848Y0093976D01*
X0272737Y0094129D01*
X0272623Y0094280D01*
X0272505Y0094427D01*
X0272383Y0094572D01*
X0272258Y0094714D01*
X0272130Y0094853D01*
X0271998Y0094988D01*
X0271863Y0095121D01*
X0271725Y0095250D01*
X0271583Y0095376D01*
X0271439Y0095498D01*
X0271292Y0095617D01*
X0271142Y0095732D01*
X0270989Y0095843D01*
X0270833Y0095951D01*
X0270675Y0096055D01*
X0270515Y0096155D01*
X0270352Y0096251D01*
X0270187Y0096343D01*
X0270142Y0096260D01*
X0270306Y0096169D01*
X0270467Y0096074D01*
X0270625Y0095975D01*
X0270781Y0095873D01*
X0270935Y0095766D01*
X0271086Y0095656D01*
X0271234Y0095542D01*
X0271380Y0095425D01*
X0271522Y0095304D01*
X0271662Y0095180D01*
X0271798Y0095053D01*
X0271932Y0094922D01*
X0272062Y0094788D01*
X0272189Y0094651D01*
X0272312Y0094511D01*
X0272432Y0094368D01*
X0272549Y0094222D01*
X0272662Y0094073D01*
X0272771Y0093921D01*
X0272877Y0093767D01*
X0272979Y0093611D01*
X0273077Y0093452D01*
X0273171Y0093290D01*
X0273261Y0093127D01*
X0273348Y0092961D01*
X0273430Y0092793D01*
X0273508Y0092624D01*
X0273582Y0092452D01*
X0273651Y0092279D01*
X0273717Y0092104D01*
X0273778Y0091927D01*
X0273835Y0091749D01*
X0273888Y0091570D01*
X0273936Y0091390D01*
X0273980Y0091208D01*
X0274020Y0091025D01*
X0274055Y0090842D01*
X0274085Y0090658D01*
X0274111Y0090473D01*
X0274133Y0090287D01*
X0274150Y0090101D01*
X0274162Y0089915D01*
X0274170Y0089728D01*
X0274174Y0089541D01*
X0274080Y0089541D01*
X0274076Y0089726D01*
X0274068Y0089910D01*
X0274056Y0090094D01*
X0274039Y0090278D01*
X0274018Y0090461D01*
X0273992Y0090644D01*
X0273962Y0090826D01*
X0273927Y0091007D01*
X0273888Y0091187D01*
X0273845Y0091367D01*
X0273797Y0091545D01*
X0273745Y0091722D01*
X0273689Y0091898D01*
X0273629Y0092072D01*
X0273564Y0092245D01*
X0273495Y0092416D01*
X0273422Y0092585D01*
X0273345Y0092753D01*
X0273264Y0092919D01*
X0273178Y0093082D01*
X0273089Y0093244D01*
X0272996Y0093403D01*
X0272899Y0093560D01*
X0272799Y0093715D01*
X0272694Y0093867D01*
X0272586Y0094017D01*
X0272475Y0094164D01*
X0272360Y0094308D01*
X0272241Y0094449D01*
X0272119Y0094588D01*
X0271994Y0094723D01*
X0271865Y0094855D01*
X0271733Y0094985D01*
X0271599Y0095111D01*
X0271461Y0095233D01*
X0271320Y0095352D01*
X0271176Y0095468D01*
X0271030Y0095581D01*
X0270881Y0095689D01*
X0270729Y0095794D01*
X0270575Y0095896D01*
X0270418Y0095993D01*
X0270259Y0096087D01*
X0270098Y0096177D01*
X0262241Y0096802D02*
X0262687Y0096021D01*
X0262530Y0095928D01*
X0262376Y0095831D01*
X0262224Y0095730D01*
X0262075Y0095625D01*
X0261928Y0095517D01*
X0261783Y0095406D01*
X0261642Y0095291D01*
X0261503Y0095172D01*
X0261368Y0095050D01*
X0261235Y0094925D01*
X0261105Y0094797D01*
X0260979Y0094666D01*
X0260855Y0094532D01*
X0260735Y0094395D01*
X0260618Y0094255D01*
X0260505Y0094112D01*
X0260395Y0093966D01*
X0260289Y0093818D01*
X0260186Y0093667D01*
X0260087Y0093514D01*
X0259992Y0093359D01*
X0259901Y0093201D01*
X0259813Y0093041D01*
X0259729Y0092879D01*
X0259649Y0092716D01*
X0259573Y0092550D01*
X0259502Y0092382D01*
X0259434Y0092213D01*
X0259370Y0092042D01*
X0259311Y0091870D01*
X0259255Y0091696D01*
X0259204Y0091521D01*
X0259157Y0091345D01*
X0259115Y0091168D01*
X0259076Y0090989D01*
X0259042Y0090810D01*
X0259012Y0090630D01*
X0258987Y0090450D01*
X0258966Y0090269D01*
X0258950Y0090087D01*
X0258937Y0089905D01*
X0258930Y0089723D01*
X0258926Y0089541D01*
X0258027Y0089540D01*
X0258026Y0089541D01*
X0258030Y0089745D01*
X0258038Y0089949D01*
X0258052Y0090153D01*
X0258070Y0090357D01*
X0258094Y0090560D01*
X0258122Y0090762D01*
X0258155Y0090964D01*
X0258193Y0091164D01*
X0258236Y0091364D01*
X0258284Y0091563D01*
X0258336Y0091760D01*
X0258394Y0091956D01*
X0258456Y0092151D01*
X0258522Y0092344D01*
X0258594Y0092536D01*
X0258670Y0092725D01*
X0258750Y0092913D01*
X0258835Y0093099D01*
X0258925Y0093283D01*
X0259018Y0093464D01*
X0259117Y0093643D01*
X0259219Y0093820D01*
X0259326Y0093994D01*
X0259437Y0094166D01*
X0259552Y0094335D01*
X0259671Y0094501D01*
X0259794Y0094664D01*
X0259921Y0094824D01*
X0260052Y0094981D01*
X0260187Y0095135D01*
X0260325Y0095285D01*
X0260467Y0095432D01*
X0260612Y0095576D01*
X0260761Y0095716D01*
X0260913Y0095852D01*
X0261069Y0095985D01*
X0261227Y0096113D01*
X0261389Y0096238D01*
X0261554Y0096359D01*
X0261721Y0096476D01*
X0261892Y0096589D01*
X0262065Y0096698D01*
X0262240Y0096803D01*
X0262287Y0096721D01*
X0262113Y0096618D01*
X0261942Y0096510D01*
X0261774Y0096398D01*
X0261608Y0096283D01*
X0261445Y0096163D01*
X0261286Y0096039D01*
X0261129Y0095912D01*
X0260975Y0095781D01*
X0260825Y0095646D01*
X0260677Y0095508D01*
X0260534Y0095366D01*
X0260393Y0095220D01*
X0260257Y0095072D01*
X0260124Y0094920D01*
X0259994Y0094764D01*
X0259869Y0094606D01*
X0259747Y0094445D01*
X0259629Y0094281D01*
X0259515Y0094114D01*
X0259406Y0093944D01*
X0259300Y0093772D01*
X0259199Y0093597D01*
X0259101Y0093420D01*
X0259009Y0093241D01*
X0258920Y0093059D01*
X0258836Y0092875D01*
X0258756Y0092690D01*
X0258681Y0092502D01*
X0258611Y0092313D01*
X0258545Y0092122D01*
X0258484Y0091929D01*
X0258427Y0091735D01*
X0258375Y0091540D01*
X0258328Y0091344D01*
X0258286Y0091146D01*
X0258248Y0090948D01*
X0258215Y0090748D01*
X0258187Y0090548D01*
X0258164Y0090347D01*
X0258146Y0090146D01*
X0258132Y0089945D01*
X0258124Y0089743D01*
X0258120Y0089541D01*
X0258214Y0089541D01*
X0258218Y0089740D01*
X0258226Y0089940D01*
X0258239Y0090139D01*
X0258258Y0090338D01*
X0258280Y0090537D01*
X0258308Y0090734D01*
X0258341Y0090932D01*
X0258378Y0091128D01*
X0258420Y0091323D01*
X0258466Y0091517D01*
X0258518Y0091710D01*
X0258574Y0091902D01*
X0258634Y0092092D01*
X0258699Y0092281D01*
X0258769Y0092468D01*
X0258843Y0092654D01*
X0258922Y0092837D01*
X0259005Y0093019D01*
X0259093Y0093199D01*
X0259184Y0093376D01*
X0259280Y0093551D01*
X0259381Y0093724D01*
X0259485Y0093894D01*
X0259594Y0094062D01*
X0259706Y0094227D01*
X0259822Y0094389D01*
X0259943Y0094548D01*
X0260067Y0094705D01*
X0260195Y0094858D01*
X0260326Y0095009D01*
X0260462Y0095156D01*
X0260600Y0095299D01*
X0260742Y0095440D01*
X0260888Y0095577D01*
X0261037Y0095710D01*
X0261189Y0095840D01*
X0261344Y0095966D01*
X0261502Y0096088D01*
X0261663Y0096206D01*
X0261826Y0096320D01*
X0261993Y0096431D01*
X0262162Y0096537D01*
X0262333Y0096639D01*
X0262380Y0096558D01*
X0262210Y0096457D01*
X0262043Y0096352D01*
X0261879Y0096242D01*
X0261717Y0096129D01*
X0261558Y0096012D01*
X0261402Y0095892D01*
X0261248Y0095767D01*
X0261098Y0095639D01*
X0260951Y0095507D01*
X0260807Y0095372D01*
X0260667Y0095233D01*
X0260530Y0095091D01*
X0260396Y0094946D01*
X0260266Y0094797D01*
X0260140Y0094645D01*
X0260017Y0094491D01*
X0259898Y0094333D01*
X0259783Y0094173D01*
X0259672Y0094010D01*
X0259565Y0093844D01*
X0259461Y0093676D01*
X0259362Y0093505D01*
X0259267Y0093332D01*
X0259177Y0093156D01*
X0259090Y0092979D01*
X0259008Y0092799D01*
X0258930Y0092618D01*
X0258857Y0092435D01*
X0258788Y0092250D01*
X0258724Y0092063D01*
X0258664Y0091875D01*
X0258608Y0091685D01*
X0258558Y0091495D01*
X0258511Y0091303D01*
X0258470Y0091110D01*
X0258433Y0090916D01*
X0258401Y0090721D01*
X0258374Y0090525D01*
X0258351Y0090329D01*
X0258333Y0090132D01*
X0258320Y0089935D01*
X0258312Y0089738D01*
X0258308Y0089541D01*
X0258402Y0089541D01*
X0258406Y0089736D01*
X0258414Y0089931D01*
X0258427Y0090126D01*
X0258445Y0090320D01*
X0258467Y0090514D01*
X0258494Y0090707D01*
X0258526Y0090900D01*
X0258562Y0091091D01*
X0258603Y0091282D01*
X0258649Y0091472D01*
X0258699Y0091660D01*
X0258754Y0091848D01*
X0258813Y0092034D01*
X0258876Y0092218D01*
X0258945Y0092401D01*
X0259017Y0092582D01*
X0259094Y0092761D01*
X0259175Y0092939D01*
X0259261Y0093114D01*
X0259350Y0093288D01*
X0259444Y0093459D01*
X0259542Y0093627D01*
X0259644Y0093794D01*
X0259750Y0093958D01*
X0259860Y0094119D01*
X0259974Y0094277D01*
X0260091Y0094433D01*
X0260213Y0094586D01*
X0260338Y0094736D01*
X0260466Y0094883D01*
X0260598Y0095026D01*
X0260734Y0095167D01*
X0260873Y0095304D01*
X0261015Y0095438D01*
X0261160Y0095568D01*
X0261308Y0095695D01*
X0261460Y0095818D01*
X0261614Y0095937D01*
X0261771Y0096053D01*
X0261931Y0096164D01*
X0262094Y0096272D01*
X0262259Y0096376D01*
X0262427Y0096476D01*
X0262473Y0096395D01*
X0262308Y0096296D01*
X0262144Y0096193D01*
X0261984Y0096086D01*
X0261826Y0095976D01*
X0261670Y0095862D01*
X0261518Y0095744D01*
X0261368Y0095622D01*
X0261222Y0095497D01*
X0261078Y0095368D01*
X0260938Y0095236D01*
X0260800Y0095101D01*
X0260666Y0094962D01*
X0260536Y0094820D01*
X0260409Y0094675D01*
X0260285Y0094527D01*
X0260166Y0094376D01*
X0260049Y0094222D01*
X0259937Y0094065D01*
X0259828Y0093906D01*
X0259724Y0093744D01*
X0259623Y0093579D01*
X0259526Y0093413D01*
X0259433Y0093243D01*
X0259345Y0093072D01*
X0259260Y0092899D01*
X0259180Y0092723D01*
X0259104Y0092546D01*
X0259032Y0092367D01*
X0258965Y0092186D01*
X0258902Y0092004D01*
X0258844Y0091820D01*
X0258790Y0091635D01*
X0258740Y0091449D01*
X0258695Y0091261D01*
X0258654Y0091073D01*
X0258618Y0090884D01*
X0258587Y0090693D01*
X0258560Y0090502D01*
X0258538Y0090311D01*
X0258521Y0090119D01*
X0258508Y0089926D01*
X0258500Y0089734D01*
X0258496Y0089541D01*
X0258590Y0089541D01*
X0258594Y0089731D01*
X0258602Y0089922D01*
X0258614Y0090112D01*
X0258632Y0090302D01*
X0258654Y0090491D01*
X0258680Y0090679D01*
X0258711Y0090867D01*
X0258747Y0091055D01*
X0258787Y0091241D01*
X0258831Y0091426D01*
X0258880Y0091610D01*
X0258934Y0091793D01*
X0258991Y0091975D01*
X0259054Y0092155D01*
X0259120Y0092333D01*
X0259191Y0092510D01*
X0259266Y0092685D01*
X0259345Y0092859D01*
X0259429Y0093030D01*
X0259516Y0093199D01*
X0259608Y0093366D01*
X0259704Y0093531D01*
X0259803Y0093694D01*
X0259907Y0093854D01*
X0260014Y0094011D01*
X0260125Y0094166D01*
X0260240Y0094318D01*
X0260358Y0094467D01*
X0260480Y0094613D01*
X0260606Y0094757D01*
X0260735Y0094897D01*
X0260867Y0095034D01*
X0261003Y0095168D01*
X0261141Y0095299D01*
X0261283Y0095426D01*
X0261428Y0095550D01*
X0261576Y0095670D01*
X0261727Y0095786D01*
X0261880Y0095899D01*
X0262036Y0096008D01*
X0262195Y0096114D01*
X0262356Y0096215D01*
X0262520Y0096313D01*
X0262567Y0096231D01*
X0262405Y0096135D01*
X0262246Y0096035D01*
X0262089Y0095931D01*
X0261934Y0095823D01*
X0261783Y0095711D01*
X0261634Y0095596D01*
X0261488Y0095477D01*
X0261345Y0095355D01*
X0261205Y0095229D01*
X0261068Y0095100D01*
X0260934Y0094968D01*
X0260803Y0094832D01*
X0260676Y0094694D01*
X0260552Y0094552D01*
X0260431Y0094408D01*
X0260314Y0094260D01*
X0260201Y0094110D01*
X0260091Y0093957D01*
X0259985Y0093801D01*
X0259883Y0093643D01*
X0259784Y0093483D01*
X0259690Y0093320D01*
X0259599Y0093155D01*
X0259513Y0092988D01*
X0259430Y0092819D01*
X0259352Y0092648D01*
X0259278Y0092475D01*
X0259208Y0092300D01*
X0259142Y0092123D01*
X0259081Y0091945D01*
X0259024Y0091766D01*
X0258971Y0091585D01*
X0258922Y0091403D01*
X0258878Y0091220D01*
X0258839Y0091036D01*
X0258804Y0090851D01*
X0258773Y0090666D01*
X0258747Y0090479D01*
X0258725Y0090292D01*
X0258708Y0090105D01*
X0258696Y0089917D01*
X0258688Y0089729D01*
X0258684Y0089541D01*
X0258778Y0089541D01*
X0258782Y0089727D01*
X0258790Y0089912D01*
X0258802Y0090098D01*
X0258819Y0090283D01*
X0258840Y0090468D01*
X0258866Y0090652D01*
X0258896Y0090835D01*
X0258931Y0091018D01*
X0258970Y0091200D01*
X0259014Y0091381D01*
X0259061Y0091560D01*
X0259114Y0091739D01*
X0259170Y0091916D01*
X0259231Y0092092D01*
X0259296Y0092266D01*
X0259365Y0092439D01*
X0259438Y0092610D01*
X0259515Y0092779D01*
X0259597Y0092946D01*
X0259682Y0093111D01*
X0259772Y0093274D01*
X0259865Y0093435D01*
X0259962Y0093593D01*
X0260063Y0093749D01*
X0260168Y0093903D01*
X0260276Y0094054D01*
X0260388Y0094203D01*
X0260504Y0094348D01*
X0260623Y0094491D01*
X0260745Y0094631D01*
X0260871Y0094768D01*
X0261000Y0094902D01*
X0261133Y0095032D01*
X0261268Y0095160D01*
X0261406Y0095284D01*
X0261548Y0095405D01*
X0261692Y0095522D01*
X0261839Y0095636D01*
X0261989Y0095746D01*
X0262141Y0095853D01*
X0262296Y0095955D01*
X0262454Y0096054D01*
X0262613Y0096150D01*
X0262660Y0096068D01*
X0262502Y0095974D01*
X0262347Y0095876D01*
X0262194Y0095775D01*
X0262043Y0095669D01*
X0261895Y0095560D01*
X0261750Y0095448D01*
X0261608Y0095332D01*
X0261468Y0095213D01*
X0261331Y0095090D01*
X0261198Y0094964D01*
X0261067Y0094835D01*
X0260939Y0094703D01*
X0260815Y0094568D01*
X0260694Y0094430D01*
X0260577Y0094289D01*
X0260463Y0094145D01*
X0260352Y0093998D01*
X0260245Y0093849D01*
X0260141Y0093697D01*
X0260042Y0093543D01*
X0259946Y0093387D01*
X0259854Y0093228D01*
X0259765Y0093067D01*
X0259681Y0092904D01*
X0259600Y0092739D01*
X0259524Y0092572D01*
X0259452Y0092403D01*
X0259383Y0092232D01*
X0259319Y0092060D01*
X0259259Y0091887D01*
X0259203Y0091712D01*
X0259152Y0091535D01*
X0259105Y0091358D01*
X0259062Y0091179D01*
X0259023Y0091000D01*
X0258989Y0090819D01*
X0258959Y0090638D01*
X0258934Y0090456D01*
X0258912Y0090274D01*
X0258896Y0090091D01*
X0258883Y0089908D01*
X0258876Y0089724D01*
X0258872Y0089541D01*
X0258027Y0089442D02*
X0258927Y0089442D01*
X0258926Y0089441D02*
X0258930Y0089257D01*
X0258938Y0089072D01*
X0258950Y0088888D01*
X0258967Y0088705D01*
X0258989Y0088521D01*
X0259014Y0088339D01*
X0259045Y0088157D01*
X0259080Y0087976D01*
X0259119Y0087795D01*
X0259163Y0087616D01*
X0259211Y0087438D01*
X0259263Y0087261D01*
X0259320Y0087085D01*
X0259380Y0086911D01*
X0259446Y0086739D01*
X0259515Y0086568D01*
X0259588Y0086398D01*
X0259666Y0086231D01*
X0259748Y0086066D01*
X0259833Y0085902D01*
X0259923Y0085741D01*
X0260017Y0085582D01*
X0260114Y0085425D01*
X0260215Y0085271D01*
X0260320Y0085119D01*
X0260429Y0084970D01*
X0260541Y0084824D01*
X0260657Y0084680D01*
X0260776Y0084540D01*
X0260899Y0084402D01*
X0261025Y0084267D01*
X0261154Y0084135D01*
X0261287Y0084007D01*
X0261422Y0083882D01*
X0261561Y0083760D01*
X0260980Y0083073D01*
X0260824Y0083209D01*
X0260672Y0083350D01*
X0260523Y0083494D01*
X0260378Y0083641D01*
X0260237Y0083792D01*
X0260100Y0083946D01*
X0259966Y0084104D01*
X0259836Y0084265D01*
X0259710Y0084429D01*
X0259588Y0084596D01*
X0259470Y0084766D01*
X0259357Y0084939D01*
X0259248Y0085115D01*
X0259143Y0085293D01*
X0259042Y0085474D01*
X0258946Y0085657D01*
X0258854Y0085842D01*
X0258767Y0086030D01*
X0258685Y0086220D01*
X0258607Y0086411D01*
X0258534Y0086605D01*
X0258466Y0086800D01*
X0258402Y0086997D01*
X0258344Y0087195D01*
X0258290Y0087395D01*
X0258241Y0087596D01*
X0258197Y0087798D01*
X0258158Y0088001D01*
X0258124Y0088205D01*
X0258095Y0088410D01*
X0258071Y0088615D01*
X0258053Y0088821D01*
X0258039Y0089028D01*
X0258030Y0089234D01*
X0258026Y0089441D01*
X0258120Y0089441D01*
X0258124Y0089237D01*
X0258133Y0089032D01*
X0258146Y0088828D01*
X0258165Y0088625D01*
X0258189Y0088422D01*
X0258217Y0088219D01*
X0258251Y0088017D01*
X0258289Y0087817D01*
X0258333Y0087617D01*
X0258381Y0087418D01*
X0258434Y0087221D01*
X0258492Y0087024D01*
X0258555Y0086830D01*
X0258623Y0086637D01*
X0258695Y0086445D01*
X0258772Y0086256D01*
X0258853Y0086068D01*
X0258939Y0085883D01*
X0259030Y0085700D01*
X0259125Y0085518D01*
X0259224Y0085340D01*
X0259328Y0085164D01*
X0259436Y0084990D01*
X0259548Y0084819D01*
X0259665Y0084651D01*
X0259785Y0084486D01*
X0259910Y0084323D01*
X0260038Y0084164D01*
X0260170Y0084008D01*
X0260306Y0083856D01*
X0260446Y0083706D01*
X0260589Y0083561D01*
X0260736Y0083418D01*
X0260887Y0083280D01*
X0261040Y0083145D01*
X0261101Y0083216D01*
X0260949Y0083350D01*
X0260800Y0083487D01*
X0260655Y0083628D01*
X0260514Y0083772D01*
X0260375Y0083919D01*
X0260241Y0084070D01*
X0260110Y0084224D01*
X0259983Y0084382D01*
X0259860Y0084542D01*
X0259741Y0084706D01*
X0259626Y0084872D01*
X0259515Y0085041D01*
X0259408Y0085212D01*
X0259306Y0085387D01*
X0259207Y0085563D01*
X0259113Y0085742D01*
X0259024Y0085924D01*
X0258939Y0086107D01*
X0258858Y0086292D01*
X0258782Y0086480D01*
X0258711Y0086669D01*
X0258644Y0086860D01*
X0258582Y0087052D01*
X0258525Y0087246D01*
X0258472Y0087441D01*
X0258425Y0087638D01*
X0258382Y0087835D01*
X0258344Y0088034D01*
X0258310Y0088233D01*
X0258282Y0088433D01*
X0258259Y0088634D01*
X0258240Y0088835D01*
X0258226Y0089037D01*
X0258218Y0089239D01*
X0258214Y0089441D01*
X0258308Y0089441D01*
X0258312Y0089241D01*
X0258320Y0089042D01*
X0258334Y0088842D01*
X0258352Y0088643D01*
X0258375Y0088445D01*
X0258403Y0088247D01*
X0258436Y0088050D01*
X0258474Y0087854D01*
X0258516Y0087658D01*
X0258563Y0087464D01*
X0258615Y0087271D01*
X0258672Y0087080D01*
X0258733Y0086889D01*
X0258799Y0086701D01*
X0258870Y0086514D01*
X0258945Y0086329D01*
X0259025Y0086145D01*
X0259109Y0085964D01*
X0259197Y0085785D01*
X0259290Y0085608D01*
X0259387Y0085433D01*
X0259489Y0085261D01*
X0259594Y0085092D01*
X0259704Y0084924D01*
X0259818Y0084760D01*
X0259935Y0084599D01*
X0260057Y0084440D01*
X0260182Y0084285D01*
X0260312Y0084132D01*
X0260445Y0083983D01*
X0260581Y0083837D01*
X0260721Y0083695D01*
X0260865Y0083556D01*
X0261012Y0083420D01*
X0261162Y0083288D01*
X0261222Y0083360D01*
X0261074Y0083490D01*
X0260929Y0083624D01*
X0260787Y0083762D01*
X0260649Y0083903D01*
X0260514Y0084047D01*
X0260382Y0084194D01*
X0260255Y0084345D01*
X0260131Y0084499D01*
X0260010Y0084655D01*
X0259894Y0084815D01*
X0259782Y0084977D01*
X0259673Y0085142D01*
X0259569Y0085310D01*
X0259469Y0085480D01*
X0259373Y0085653D01*
X0259281Y0085828D01*
X0259193Y0086005D01*
X0259110Y0086184D01*
X0259032Y0086365D01*
X0258957Y0086548D01*
X0258888Y0086733D01*
X0258823Y0086919D01*
X0258762Y0087107D01*
X0258706Y0087297D01*
X0258655Y0087487D01*
X0258608Y0087679D01*
X0258566Y0087872D01*
X0258529Y0088066D01*
X0258496Y0088261D01*
X0258469Y0088457D01*
X0258446Y0088653D01*
X0258428Y0088849D01*
X0258414Y0089046D01*
X0258406Y0089244D01*
X0258402Y0089441D01*
X0258496Y0089441D01*
X0258500Y0089246D01*
X0258508Y0089051D01*
X0258521Y0088856D01*
X0258539Y0088662D01*
X0258562Y0088468D01*
X0258589Y0088275D01*
X0258621Y0088082D01*
X0258658Y0087891D01*
X0258700Y0087700D01*
X0258746Y0087510D01*
X0258796Y0087322D01*
X0258852Y0087135D01*
X0258912Y0086949D01*
X0258976Y0086765D01*
X0259045Y0086582D01*
X0259118Y0086401D01*
X0259196Y0086222D01*
X0259278Y0086045D01*
X0259365Y0085870D01*
X0259455Y0085698D01*
X0259550Y0085527D01*
X0259649Y0085359D01*
X0259752Y0085193D01*
X0259859Y0085030D01*
X0259970Y0084869D01*
X0260085Y0084712D01*
X0260204Y0084557D01*
X0260327Y0084405D01*
X0260453Y0084256D01*
X0260583Y0084110D01*
X0260716Y0083968D01*
X0260853Y0083829D01*
X0260993Y0083693D01*
X0261137Y0083561D01*
X0261283Y0083432D01*
X0261344Y0083504D01*
X0261199Y0083631D01*
X0261057Y0083762D01*
X0260919Y0083896D01*
X0260784Y0084033D01*
X0260652Y0084174D01*
X0260524Y0084318D01*
X0260399Y0084465D01*
X0260278Y0084615D01*
X0260161Y0084768D01*
X0260047Y0084924D01*
X0259937Y0085083D01*
X0259831Y0085244D01*
X0259730Y0085408D01*
X0259632Y0085574D01*
X0259538Y0085742D01*
X0259448Y0085913D01*
X0259363Y0086086D01*
X0259282Y0086261D01*
X0259205Y0086438D01*
X0259133Y0086616D01*
X0259064Y0086797D01*
X0259001Y0086979D01*
X0258942Y0087162D01*
X0258887Y0087347D01*
X0258837Y0087533D01*
X0258791Y0087721D01*
X0258750Y0087909D01*
X0258714Y0088099D01*
X0258682Y0088289D01*
X0258655Y0088480D01*
X0258633Y0088671D01*
X0258615Y0088863D01*
X0258602Y0089056D01*
X0258594Y0089248D01*
X0258590Y0089441D01*
X0258684Y0089441D01*
X0258688Y0089251D01*
X0258696Y0089060D01*
X0258709Y0088870D01*
X0258726Y0088681D01*
X0258748Y0088491D01*
X0258775Y0088303D01*
X0258806Y0088115D01*
X0258842Y0087928D01*
X0258883Y0087742D01*
X0258928Y0087557D01*
X0258977Y0087373D01*
X0259032Y0087190D01*
X0259090Y0087009D01*
X0259153Y0086829D01*
X0259220Y0086651D01*
X0259292Y0086474D01*
X0259368Y0086299D01*
X0259448Y0086127D01*
X0259532Y0085956D01*
X0259621Y0085787D01*
X0259713Y0085621D01*
X0259810Y0085456D01*
X0259910Y0085295D01*
X0260015Y0085135D01*
X0260123Y0084979D01*
X0260236Y0084825D01*
X0260352Y0084674D01*
X0260471Y0084525D01*
X0260594Y0084380D01*
X0260721Y0084238D01*
X0260851Y0084099D01*
X0260985Y0083963D01*
X0261121Y0083830D01*
X0261261Y0083701D01*
X0261405Y0083575D01*
X0261465Y0083647D01*
X0261324Y0083771D01*
X0261186Y0083899D01*
X0261051Y0084030D01*
X0260919Y0084164D01*
X0260790Y0084301D01*
X0260665Y0084442D01*
X0260543Y0084586D01*
X0260425Y0084732D01*
X0260311Y0084881D01*
X0260200Y0085033D01*
X0260093Y0085188D01*
X0259990Y0085345D01*
X0259890Y0085505D01*
X0259795Y0085667D01*
X0259703Y0085832D01*
X0259616Y0085998D01*
X0259533Y0086167D01*
X0259453Y0086338D01*
X0259378Y0086510D01*
X0259308Y0086685D01*
X0259241Y0086861D01*
X0259179Y0087038D01*
X0259121Y0087218D01*
X0259068Y0087398D01*
X0259019Y0087580D01*
X0258975Y0087762D01*
X0258935Y0087946D01*
X0258899Y0088131D01*
X0258868Y0088317D01*
X0258842Y0088503D01*
X0258820Y0088690D01*
X0258803Y0088877D01*
X0258790Y0089065D01*
X0258782Y0089253D01*
X0258778Y0089441D01*
X0258872Y0089441D01*
X0258876Y0089255D01*
X0258884Y0089070D01*
X0258896Y0088884D01*
X0258913Y0088699D01*
X0258935Y0088515D01*
X0258961Y0088331D01*
X0258992Y0088147D01*
X0259027Y0087965D01*
X0259066Y0087783D01*
X0259110Y0087603D01*
X0259159Y0087423D01*
X0259211Y0087245D01*
X0259268Y0087068D01*
X0259330Y0086893D01*
X0259395Y0086719D01*
X0259465Y0086547D01*
X0259539Y0086376D01*
X0259617Y0086208D01*
X0259700Y0086041D01*
X0259786Y0085877D01*
X0259876Y0085714D01*
X0259971Y0085554D01*
X0260069Y0085396D01*
X0260171Y0085241D01*
X0260276Y0085088D01*
X0260386Y0084938D01*
X0260499Y0084790D01*
X0260616Y0084646D01*
X0260736Y0084504D01*
X0260859Y0084365D01*
X0260986Y0084229D01*
X0261116Y0084097D01*
X0261250Y0083968D01*
X0261386Y0083841D01*
X0261526Y0083719D01*
X0271924Y0083032D02*
X0271347Y0083724D01*
X0271348Y0083723D02*
X0271485Y0083842D01*
X0271619Y0083963D01*
X0271750Y0084088D01*
X0271878Y0084216D01*
X0272002Y0084347D01*
X0272124Y0084481D01*
X0272243Y0084618D01*
X0272358Y0084757D01*
X0272469Y0084900D01*
X0272578Y0085045D01*
X0272683Y0085192D01*
X0272784Y0085342D01*
X0272881Y0085494D01*
X0272975Y0085649D01*
X0273066Y0085806D01*
X0273152Y0085965D01*
X0273235Y0086126D01*
X0273313Y0086289D01*
X0273388Y0086454D01*
X0273459Y0086620D01*
X0273526Y0086788D01*
X0273588Y0086958D01*
X0273647Y0087129D01*
X0273702Y0087302D01*
X0273752Y0087475D01*
X0273798Y0087650D01*
X0273840Y0087826D01*
X0273878Y0088003D01*
X0273911Y0088181D01*
X0273941Y0088360D01*
X0273966Y0088539D01*
X0273986Y0088719D01*
X0274003Y0088899D01*
X0274015Y0089079D01*
X0274022Y0089260D01*
X0274026Y0089441D01*
X0274925Y0089442D01*
X0274926Y0089441D01*
X0274922Y0089238D01*
X0274914Y0089036D01*
X0274900Y0088833D01*
X0274882Y0088631D01*
X0274859Y0088430D01*
X0274831Y0088229D01*
X0274798Y0088029D01*
X0274761Y0087829D01*
X0274719Y0087631D01*
X0274672Y0087433D01*
X0274620Y0087237D01*
X0274563Y0087043D01*
X0274502Y0086849D01*
X0274437Y0086657D01*
X0274366Y0086467D01*
X0274291Y0086278D01*
X0274212Y0086092D01*
X0274128Y0085907D01*
X0274040Y0085724D01*
X0273947Y0085544D01*
X0273851Y0085366D01*
X0273749Y0085190D01*
X0273644Y0085017D01*
X0273535Y0084846D01*
X0273421Y0084678D01*
X0273304Y0084512D01*
X0273182Y0084350D01*
X0273057Y0084190D01*
X0272928Y0084034D01*
X0272795Y0083881D01*
X0272658Y0083731D01*
X0272518Y0083584D01*
X0272375Y0083441D01*
X0272228Y0083301D01*
X0272078Y0083164D01*
X0271924Y0083032D01*
X0271864Y0083104D01*
X0272016Y0083235D01*
X0272164Y0083370D01*
X0272309Y0083508D01*
X0272451Y0083650D01*
X0272590Y0083795D01*
X0272725Y0083943D01*
X0272856Y0084095D01*
X0272984Y0084250D01*
X0273108Y0084407D01*
X0273228Y0084568D01*
X0273344Y0084731D01*
X0273456Y0084898D01*
X0273564Y0085066D01*
X0273669Y0085238D01*
X0273769Y0085412D01*
X0273864Y0085588D01*
X0273956Y0085766D01*
X0274043Y0085947D01*
X0274126Y0086130D01*
X0274205Y0086314D01*
X0274279Y0086500D01*
X0274348Y0086689D01*
X0274413Y0086878D01*
X0274473Y0087070D01*
X0274529Y0087262D01*
X0274580Y0087456D01*
X0274627Y0087651D01*
X0274669Y0087847D01*
X0274706Y0088044D01*
X0274738Y0088242D01*
X0274766Y0088441D01*
X0274789Y0088640D01*
X0274807Y0088840D01*
X0274820Y0089040D01*
X0274828Y0089241D01*
X0274832Y0089441D01*
X0274738Y0089441D01*
X0274734Y0089243D01*
X0274726Y0089045D01*
X0274713Y0088847D01*
X0274695Y0088649D01*
X0274672Y0088452D01*
X0274645Y0088256D01*
X0274613Y0088060D01*
X0274577Y0087866D01*
X0274535Y0087672D01*
X0274489Y0087479D01*
X0274439Y0087287D01*
X0274383Y0087097D01*
X0274324Y0086908D01*
X0274259Y0086720D01*
X0274191Y0086534D01*
X0274118Y0086350D01*
X0274040Y0086167D01*
X0273958Y0085987D01*
X0273872Y0085808D01*
X0273781Y0085632D01*
X0273687Y0085458D01*
X0273588Y0085286D01*
X0273485Y0085116D01*
X0273378Y0084949D01*
X0273267Y0084785D01*
X0273152Y0084624D01*
X0273033Y0084465D01*
X0272911Y0084309D01*
X0272785Y0084156D01*
X0272655Y0084006D01*
X0272521Y0083859D01*
X0272384Y0083716D01*
X0272244Y0083576D01*
X0272101Y0083439D01*
X0271954Y0083306D01*
X0271804Y0083176D01*
X0271744Y0083248D01*
X0271892Y0083377D01*
X0272037Y0083508D01*
X0272179Y0083643D01*
X0272317Y0083782D01*
X0272453Y0083924D01*
X0272585Y0084069D01*
X0272713Y0084217D01*
X0272838Y0084368D01*
X0272959Y0084522D01*
X0273076Y0084679D01*
X0273190Y0084839D01*
X0273299Y0085001D01*
X0273405Y0085166D01*
X0273507Y0085334D01*
X0273605Y0085504D01*
X0273698Y0085676D01*
X0273788Y0085850D01*
X0273873Y0086027D01*
X0273954Y0086205D01*
X0274031Y0086385D01*
X0274103Y0086568D01*
X0274171Y0086751D01*
X0274234Y0086937D01*
X0274293Y0087124D01*
X0274348Y0087312D01*
X0274398Y0087501D01*
X0274443Y0087692D01*
X0274484Y0087884D01*
X0274521Y0088076D01*
X0274552Y0088270D01*
X0274579Y0088464D01*
X0274601Y0088659D01*
X0274619Y0088854D01*
X0274632Y0089049D01*
X0274640Y0089245D01*
X0274644Y0089441D01*
X0274550Y0089441D01*
X0274546Y0089247D01*
X0274538Y0089054D01*
X0274525Y0088861D01*
X0274508Y0088668D01*
X0274486Y0088475D01*
X0274459Y0088283D01*
X0274428Y0088092D01*
X0274392Y0087902D01*
X0274352Y0087712D01*
X0274307Y0087524D01*
X0274257Y0087337D01*
X0274203Y0087151D01*
X0274145Y0086966D01*
X0274082Y0086783D01*
X0274015Y0086601D01*
X0273944Y0086421D01*
X0273868Y0086243D01*
X0273788Y0086066D01*
X0273704Y0085892D01*
X0273615Y0085720D01*
X0273523Y0085550D01*
X0273426Y0085382D01*
X0273325Y0085216D01*
X0273221Y0085053D01*
X0273113Y0084893D01*
X0273000Y0084735D01*
X0272884Y0084580D01*
X0272765Y0084427D01*
X0272641Y0084278D01*
X0272515Y0084131D01*
X0272384Y0083988D01*
X0272251Y0083848D01*
X0272114Y0083711D01*
X0271973Y0083578D01*
X0271830Y0083447D01*
X0271683Y0083321D01*
X0271623Y0083393D01*
X0271768Y0083518D01*
X0271910Y0083647D01*
X0272048Y0083779D01*
X0272184Y0083914D01*
X0272316Y0084053D01*
X0272445Y0084194D01*
X0272570Y0084339D01*
X0272692Y0084486D01*
X0272810Y0084637D01*
X0272925Y0084790D01*
X0273035Y0084946D01*
X0273143Y0085105D01*
X0273246Y0085266D01*
X0273345Y0085430D01*
X0273441Y0085596D01*
X0273532Y0085764D01*
X0273619Y0085934D01*
X0273703Y0086106D01*
X0273782Y0086281D01*
X0273857Y0086457D01*
X0273927Y0086635D01*
X0273994Y0086814D01*
X0274056Y0086995D01*
X0274113Y0087178D01*
X0274167Y0087362D01*
X0274216Y0087547D01*
X0274260Y0087733D01*
X0274300Y0087920D01*
X0274335Y0088108D01*
X0274366Y0088297D01*
X0274393Y0088487D01*
X0274414Y0088677D01*
X0274432Y0088867D01*
X0274444Y0089058D01*
X0274452Y0089250D01*
X0274456Y0089441D01*
X0274362Y0089441D01*
X0274358Y0089252D01*
X0274350Y0089063D01*
X0274338Y0088874D01*
X0274321Y0088686D01*
X0274299Y0088498D01*
X0274273Y0088311D01*
X0274243Y0088124D01*
X0274208Y0087938D01*
X0274168Y0087753D01*
X0274124Y0087569D01*
X0274076Y0087387D01*
X0274023Y0087205D01*
X0273966Y0087025D01*
X0273905Y0086846D01*
X0273839Y0086668D01*
X0273770Y0086492D01*
X0273696Y0086318D01*
X0273618Y0086146D01*
X0273535Y0085976D01*
X0273449Y0085808D01*
X0273359Y0085642D01*
X0273264Y0085478D01*
X0273166Y0085316D01*
X0273064Y0085157D01*
X0272958Y0085000D01*
X0272849Y0084846D01*
X0272735Y0084694D01*
X0272619Y0084546D01*
X0272498Y0084400D01*
X0272375Y0084257D01*
X0272247Y0084117D01*
X0272117Y0083980D01*
X0271983Y0083846D01*
X0271846Y0083716D01*
X0271706Y0083589D01*
X0271563Y0083465D01*
X0271503Y0083537D01*
X0271644Y0083660D01*
X0271782Y0083785D01*
X0271918Y0083914D01*
X0272050Y0084046D01*
X0272179Y0084181D01*
X0272304Y0084320D01*
X0272427Y0084461D01*
X0272546Y0084605D01*
X0272661Y0084752D01*
X0272773Y0084901D01*
X0272881Y0085054D01*
X0272986Y0085209D01*
X0273086Y0085366D01*
X0273183Y0085526D01*
X0273277Y0085687D01*
X0273366Y0085852D01*
X0273451Y0086018D01*
X0273532Y0086186D01*
X0273610Y0086356D01*
X0273683Y0086528D01*
X0273752Y0086702D01*
X0273816Y0086877D01*
X0273877Y0087054D01*
X0273933Y0087232D01*
X0273985Y0087411D01*
X0274033Y0087592D01*
X0274076Y0087774D01*
X0274115Y0087956D01*
X0274150Y0088140D01*
X0274180Y0088324D01*
X0274206Y0088509D01*
X0274227Y0088695D01*
X0274244Y0088881D01*
X0274256Y0089068D01*
X0274264Y0089254D01*
X0274268Y0089441D01*
X0274174Y0089441D01*
X0274170Y0089257D01*
X0274163Y0089072D01*
X0274150Y0088888D01*
X0274134Y0088704D01*
X0274113Y0088521D01*
X0274087Y0088338D01*
X0274057Y0088156D01*
X0274023Y0087975D01*
X0273985Y0087794D01*
X0273942Y0087615D01*
X0273895Y0087436D01*
X0273843Y0087259D01*
X0273788Y0087083D01*
X0273728Y0086908D01*
X0273664Y0086735D01*
X0273596Y0086564D01*
X0273524Y0086394D01*
X0273447Y0086226D01*
X0273367Y0086060D01*
X0273283Y0085896D01*
X0273195Y0085733D01*
X0273103Y0085573D01*
X0273007Y0085416D01*
X0272907Y0085260D01*
X0272804Y0085107D01*
X0272697Y0084957D01*
X0272587Y0084809D01*
X0272473Y0084664D01*
X0272355Y0084522D01*
X0272234Y0084382D01*
X0272110Y0084246D01*
X0271983Y0084112D01*
X0271852Y0083982D01*
X0271719Y0083854D01*
X0271582Y0083730D01*
X0271443Y0083610D01*
X0271382Y0083682D01*
X0271520Y0083801D01*
X0271655Y0083924D01*
X0271787Y0084049D01*
X0271916Y0084178D01*
X0272042Y0084310D01*
X0272164Y0084445D01*
X0272284Y0084583D01*
X0272400Y0084723D01*
X0272512Y0084867D01*
X0272621Y0085013D01*
X0272727Y0085161D01*
X0272829Y0085312D01*
X0272927Y0085466D01*
X0273022Y0085621D01*
X0273113Y0085779D01*
X0273200Y0085940D01*
X0273283Y0086102D01*
X0273362Y0086266D01*
X0273437Y0086432D01*
X0273509Y0086600D01*
X0273576Y0086769D01*
X0273639Y0086940D01*
X0273698Y0087112D01*
X0273753Y0087286D01*
X0273804Y0087461D01*
X0273851Y0087637D01*
X0273893Y0087815D01*
X0273931Y0087993D01*
X0273965Y0088172D01*
X0273994Y0088352D01*
X0274019Y0088532D01*
X0274040Y0088713D01*
X0274057Y0088895D01*
X0274069Y0089077D01*
X0274076Y0089259D01*
X0274080Y0089441D01*
D20*
X0271576Y0083291D02*
X0269576Y0083291D01*
X0263176Y0083291D02*
X0261376Y0083291D01*
D21*
X0206630Y0050127D02*
X0205612Y0051144D01*
X0204128Y0049934D01*
X0203530Y0050242D01*
X0202890Y0050447D01*
X0202696Y0052352D01*
X0201257Y0052352D01*
X0201063Y0050447D01*
X0200423Y0050242D01*
X0199825Y0049934D01*
X0198341Y0051144D01*
X0197323Y0050127D01*
X0198533Y0048642D01*
X0198225Y0048045D01*
X0198020Y0047404D01*
X0196115Y0047210D01*
X0196115Y0045771D01*
X0198020Y0045577D01*
X0198225Y0044937D01*
X0198533Y0044339D01*
X0197323Y0042855D01*
X0198341Y0041837D01*
X0199825Y0043048D01*
X0200422Y0042740D01*
X0201270Y0044786D01*
X0200891Y0044998D01*
X0200573Y0045292D01*
X0200332Y0045653D01*
X0200182Y0046060D01*
X0200131Y0046491D01*
X0200184Y0046929D01*
X0200339Y0047343D01*
X0200589Y0047707D01*
X0200918Y0048002D01*
X0201307Y0048210D01*
X0201735Y0048320D01*
X0202177Y0048325D01*
X0202607Y0048224D01*
X0203001Y0048025D01*
X0203337Y0047737D01*
X0203594Y0047378D01*
X0203759Y0046968D01*
X0203821Y0046531D01*
X0203778Y0046091D01*
X0203631Y0045675D01*
X0203390Y0045305D01*
X0203068Y0045002D01*
X0202683Y0044786D01*
X0203530Y0042740D01*
X0204128Y0043048D01*
X0205612Y0041837D01*
X0206630Y0042855D01*
X0205420Y0044339D01*
X0205728Y0044937D01*
X0205933Y0045577D01*
X0207838Y0045771D01*
X0207838Y0047210D01*
X0205933Y0047404D01*
X0205728Y0048045D01*
X0205420Y0048642D01*
X0206630Y0050127D01*
X0206361Y0050395D02*
X0204694Y0050395D01*
X0205416Y0050985D02*
X0205772Y0050985D01*
X0206369Y0049806D02*
X0197584Y0049806D01*
X0197592Y0050395D02*
X0199259Y0050395D01*
X0198537Y0050985D02*
X0198181Y0050985D01*
X0198064Y0049217D02*
X0205889Y0049217D01*
X0205427Y0048628D02*
X0198526Y0048628D01*
X0198223Y0048039D02*
X0200987Y0048039D01*
X0200413Y0047450D02*
X0198035Y0047450D01*
X0196115Y0046861D02*
X0200175Y0046861D01*
X0200157Y0046272D02*
X0196115Y0046272D01*
X0196982Y0045683D02*
X0200321Y0045683D01*
X0200787Y0045094D02*
X0198175Y0045094D01*
X0198448Y0044505D02*
X0201154Y0044505D01*
X0200910Y0043916D02*
X0198188Y0043916D01*
X0197708Y0043327D02*
X0200666Y0043327D01*
X0199445Y0042738D02*
X0197440Y0042738D01*
X0198029Y0042149D02*
X0198722Y0042149D01*
X0203043Y0043916D02*
X0205765Y0043916D01*
X0205505Y0044505D02*
X0202799Y0044505D01*
X0203165Y0045094D02*
X0205778Y0045094D01*
X0206971Y0045683D02*
X0203634Y0045683D01*
X0203796Y0046272D02*
X0207838Y0046272D01*
X0207838Y0046861D02*
X0203774Y0046861D01*
X0203542Y0047450D02*
X0205918Y0047450D01*
X0205729Y0048039D02*
X0202973Y0048039D01*
X0203051Y0050395D02*
X0200902Y0050395D01*
X0201118Y0050985D02*
X0202835Y0050985D01*
X0202775Y0051574D02*
X0201178Y0051574D01*
X0201237Y0052163D02*
X0202715Y0052163D01*
X0203287Y0043327D02*
X0206245Y0043327D01*
X0206513Y0042738D02*
X0204508Y0042738D01*
X0205230Y0042149D02*
X0205924Y0042149D01*
D22*
X0053730Y0019333D02*
X0047579Y0008014D01*
X0048071Y0007522D01*
X0059882Y0007522D01*
X0060374Y0008014D01*
X0054222Y0019333D01*
X0053730Y0019333D01*
M02*
