G75*
%MOIN*%
%OFA0B0*%
%FSLAX25Y25*%
%IPPOS*%
%LPD*%
%AMOC8*
5,1,8,0,0,1.08239X$1,22.5*
%
%ADD10R,0.18110X0.03937*%
%ADD11R,0.13386X0.06299*%
%ADD12C,0.00000*%
%ADD13R,0.02756X0.02756*%
%ADD14R,0.04724X0.02165*%
%ADD15R,0.03150X0.03150*%
%ADD16R,0.02756X0.03543*%
%ADD17C,0.06496*%
%ADD18C,0.06000*%
%ADD19C,0.05600*%
%ADD20R,0.05600X0.05600*%
%ADD21C,0.07400*%
%ADD22C,0.01600*%
%ADD23C,0.03562*%
%ADD24OC8,0.03169*%
%ADD25C,0.03169*%
%ADD26C,0.01500*%
%ADD27C,0.00800*%
%ADD28C,0.02400*%
D10*
X0268043Y0122554D03*
X0268043Y0130428D03*
D11*
X0247571Y0139877D03*
X0247571Y0113105D03*
D12*
X0264339Y0034156D02*
X0059614Y0034156D01*
X0053315Y0049904D02*
X0053317Y0050062D01*
X0053323Y0050220D01*
X0053333Y0050378D01*
X0053347Y0050536D01*
X0053365Y0050693D01*
X0053386Y0050850D01*
X0053412Y0051006D01*
X0053442Y0051162D01*
X0053475Y0051317D01*
X0053513Y0051470D01*
X0053554Y0051623D01*
X0053599Y0051775D01*
X0053648Y0051926D01*
X0053701Y0052075D01*
X0053757Y0052223D01*
X0053817Y0052369D01*
X0053881Y0052514D01*
X0053949Y0052657D01*
X0054020Y0052799D01*
X0054094Y0052939D01*
X0054172Y0053076D01*
X0054254Y0053212D01*
X0054338Y0053346D01*
X0054427Y0053477D01*
X0054518Y0053606D01*
X0054613Y0053733D01*
X0054710Y0053858D01*
X0054811Y0053980D01*
X0054915Y0054099D01*
X0055022Y0054216D01*
X0055132Y0054330D01*
X0055245Y0054441D01*
X0055360Y0054550D01*
X0055478Y0054655D01*
X0055599Y0054757D01*
X0055722Y0054857D01*
X0055848Y0054953D01*
X0055976Y0055046D01*
X0056106Y0055136D01*
X0056239Y0055222D01*
X0056374Y0055306D01*
X0056510Y0055385D01*
X0056649Y0055462D01*
X0056790Y0055534D01*
X0056932Y0055604D01*
X0057076Y0055669D01*
X0057222Y0055731D01*
X0057369Y0055789D01*
X0057518Y0055844D01*
X0057668Y0055895D01*
X0057819Y0055942D01*
X0057971Y0055985D01*
X0058124Y0056024D01*
X0058279Y0056060D01*
X0058434Y0056091D01*
X0058590Y0056119D01*
X0058746Y0056143D01*
X0058903Y0056163D01*
X0059061Y0056179D01*
X0059218Y0056191D01*
X0059377Y0056199D01*
X0059535Y0056203D01*
X0059693Y0056203D01*
X0059851Y0056199D01*
X0060010Y0056191D01*
X0060167Y0056179D01*
X0060325Y0056163D01*
X0060482Y0056143D01*
X0060638Y0056119D01*
X0060794Y0056091D01*
X0060949Y0056060D01*
X0061104Y0056024D01*
X0061257Y0055985D01*
X0061409Y0055942D01*
X0061560Y0055895D01*
X0061710Y0055844D01*
X0061859Y0055789D01*
X0062006Y0055731D01*
X0062152Y0055669D01*
X0062296Y0055604D01*
X0062438Y0055534D01*
X0062579Y0055462D01*
X0062718Y0055385D01*
X0062854Y0055306D01*
X0062989Y0055222D01*
X0063122Y0055136D01*
X0063252Y0055046D01*
X0063380Y0054953D01*
X0063506Y0054857D01*
X0063629Y0054757D01*
X0063750Y0054655D01*
X0063868Y0054550D01*
X0063983Y0054441D01*
X0064096Y0054330D01*
X0064206Y0054216D01*
X0064313Y0054099D01*
X0064417Y0053980D01*
X0064518Y0053858D01*
X0064615Y0053733D01*
X0064710Y0053606D01*
X0064801Y0053477D01*
X0064890Y0053346D01*
X0064974Y0053212D01*
X0065056Y0053076D01*
X0065134Y0052939D01*
X0065208Y0052799D01*
X0065279Y0052657D01*
X0065347Y0052514D01*
X0065411Y0052369D01*
X0065471Y0052223D01*
X0065527Y0052075D01*
X0065580Y0051926D01*
X0065629Y0051775D01*
X0065674Y0051623D01*
X0065715Y0051470D01*
X0065753Y0051317D01*
X0065786Y0051162D01*
X0065816Y0051006D01*
X0065842Y0050850D01*
X0065863Y0050693D01*
X0065881Y0050536D01*
X0065895Y0050378D01*
X0065905Y0050220D01*
X0065911Y0050062D01*
X0065913Y0049904D01*
X0065911Y0049746D01*
X0065905Y0049588D01*
X0065895Y0049430D01*
X0065881Y0049272D01*
X0065863Y0049115D01*
X0065842Y0048958D01*
X0065816Y0048802D01*
X0065786Y0048646D01*
X0065753Y0048491D01*
X0065715Y0048338D01*
X0065674Y0048185D01*
X0065629Y0048033D01*
X0065580Y0047882D01*
X0065527Y0047733D01*
X0065471Y0047585D01*
X0065411Y0047439D01*
X0065347Y0047294D01*
X0065279Y0047151D01*
X0065208Y0047009D01*
X0065134Y0046869D01*
X0065056Y0046732D01*
X0064974Y0046596D01*
X0064890Y0046462D01*
X0064801Y0046331D01*
X0064710Y0046202D01*
X0064615Y0046075D01*
X0064518Y0045950D01*
X0064417Y0045828D01*
X0064313Y0045709D01*
X0064206Y0045592D01*
X0064096Y0045478D01*
X0063983Y0045367D01*
X0063868Y0045258D01*
X0063750Y0045153D01*
X0063629Y0045051D01*
X0063506Y0044951D01*
X0063380Y0044855D01*
X0063252Y0044762D01*
X0063122Y0044672D01*
X0062989Y0044586D01*
X0062854Y0044502D01*
X0062718Y0044423D01*
X0062579Y0044346D01*
X0062438Y0044274D01*
X0062296Y0044204D01*
X0062152Y0044139D01*
X0062006Y0044077D01*
X0061859Y0044019D01*
X0061710Y0043964D01*
X0061560Y0043913D01*
X0061409Y0043866D01*
X0061257Y0043823D01*
X0061104Y0043784D01*
X0060949Y0043748D01*
X0060794Y0043717D01*
X0060638Y0043689D01*
X0060482Y0043665D01*
X0060325Y0043645D01*
X0060167Y0043629D01*
X0060010Y0043617D01*
X0059851Y0043609D01*
X0059693Y0043605D01*
X0059535Y0043605D01*
X0059377Y0043609D01*
X0059218Y0043617D01*
X0059061Y0043629D01*
X0058903Y0043645D01*
X0058746Y0043665D01*
X0058590Y0043689D01*
X0058434Y0043717D01*
X0058279Y0043748D01*
X0058124Y0043784D01*
X0057971Y0043823D01*
X0057819Y0043866D01*
X0057668Y0043913D01*
X0057518Y0043964D01*
X0057369Y0044019D01*
X0057222Y0044077D01*
X0057076Y0044139D01*
X0056932Y0044204D01*
X0056790Y0044274D01*
X0056649Y0044346D01*
X0056510Y0044423D01*
X0056374Y0044502D01*
X0056239Y0044586D01*
X0056106Y0044672D01*
X0055976Y0044762D01*
X0055848Y0044855D01*
X0055722Y0044951D01*
X0055599Y0045051D01*
X0055478Y0045153D01*
X0055360Y0045258D01*
X0055245Y0045367D01*
X0055132Y0045478D01*
X0055022Y0045592D01*
X0054915Y0045709D01*
X0054811Y0045828D01*
X0054710Y0045950D01*
X0054613Y0046075D01*
X0054518Y0046202D01*
X0054427Y0046331D01*
X0054338Y0046462D01*
X0054254Y0046596D01*
X0054172Y0046732D01*
X0054094Y0046869D01*
X0054020Y0047009D01*
X0053949Y0047151D01*
X0053881Y0047294D01*
X0053817Y0047439D01*
X0053757Y0047585D01*
X0053701Y0047733D01*
X0053648Y0047882D01*
X0053599Y0048033D01*
X0053554Y0048185D01*
X0053513Y0048338D01*
X0053475Y0048491D01*
X0053442Y0048646D01*
X0053412Y0048802D01*
X0053386Y0048958D01*
X0053365Y0049115D01*
X0053347Y0049272D01*
X0053333Y0049430D01*
X0053323Y0049588D01*
X0053317Y0049746D01*
X0053315Y0049904D01*
X0043866Y0049904D02*
X0043871Y0049523D01*
X0043884Y0049143D01*
X0043907Y0048763D01*
X0043940Y0048384D01*
X0043981Y0048006D01*
X0044031Y0047629D01*
X0044091Y0047253D01*
X0044159Y0046878D01*
X0044237Y0046506D01*
X0044324Y0046135D01*
X0044419Y0045767D01*
X0044524Y0045401D01*
X0044637Y0045038D01*
X0044759Y0044677D01*
X0044889Y0044320D01*
X0045029Y0043966D01*
X0045176Y0043615D01*
X0045333Y0043268D01*
X0045497Y0042925D01*
X0045670Y0042586D01*
X0045851Y0042251D01*
X0046040Y0041920D01*
X0046237Y0041595D01*
X0046441Y0041274D01*
X0046654Y0040958D01*
X0046874Y0040648D01*
X0047101Y0040342D01*
X0047336Y0040043D01*
X0047578Y0039749D01*
X0047826Y0039461D01*
X0048082Y0039179D01*
X0048345Y0038904D01*
X0048614Y0038635D01*
X0048889Y0038372D01*
X0049171Y0038116D01*
X0049459Y0037868D01*
X0049753Y0037626D01*
X0050052Y0037391D01*
X0050358Y0037164D01*
X0050668Y0036944D01*
X0050984Y0036731D01*
X0051305Y0036527D01*
X0051630Y0036330D01*
X0051961Y0036141D01*
X0052296Y0035960D01*
X0052635Y0035787D01*
X0052978Y0035623D01*
X0053325Y0035466D01*
X0053676Y0035319D01*
X0054030Y0035179D01*
X0054387Y0035049D01*
X0054748Y0034927D01*
X0055111Y0034814D01*
X0055477Y0034709D01*
X0055845Y0034614D01*
X0056216Y0034527D01*
X0056588Y0034449D01*
X0056963Y0034381D01*
X0057339Y0034321D01*
X0057716Y0034271D01*
X0058094Y0034230D01*
X0058473Y0034197D01*
X0058853Y0034174D01*
X0059233Y0034161D01*
X0059614Y0034156D01*
X0059233Y0034161D01*
X0058853Y0034174D01*
X0058473Y0034197D01*
X0058094Y0034230D01*
X0057716Y0034271D01*
X0057339Y0034321D01*
X0056963Y0034381D01*
X0056588Y0034449D01*
X0056216Y0034527D01*
X0055845Y0034614D01*
X0055477Y0034709D01*
X0055111Y0034814D01*
X0054748Y0034927D01*
X0054387Y0035049D01*
X0054030Y0035179D01*
X0053676Y0035319D01*
X0053325Y0035466D01*
X0052978Y0035623D01*
X0052635Y0035787D01*
X0052296Y0035960D01*
X0051961Y0036141D01*
X0051630Y0036330D01*
X0051305Y0036527D01*
X0050984Y0036731D01*
X0050668Y0036944D01*
X0050358Y0037164D01*
X0050052Y0037391D01*
X0049753Y0037626D01*
X0049459Y0037868D01*
X0049171Y0038116D01*
X0048889Y0038372D01*
X0048614Y0038635D01*
X0048345Y0038904D01*
X0048082Y0039179D01*
X0047826Y0039461D01*
X0047578Y0039749D01*
X0047336Y0040043D01*
X0047101Y0040342D01*
X0046874Y0040648D01*
X0046654Y0040958D01*
X0046441Y0041274D01*
X0046237Y0041595D01*
X0046040Y0041920D01*
X0045851Y0042251D01*
X0045670Y0042586D01*
X0045497Y0042925D01*
X0045333Y0043268D01*
X0045176Y0043615D01*
X0045029Y0043966D01*
X0044889Y0044320D01*
X0044759Y0044677D01*
X0044637Y0045038D01*
X0044524Y0045401D01*
X0044419Y0045767D01*
X0044324Y0046135D01*
X0044237Y0046506D01*
X0044159Y0046878D01*
X0044091Y0047253D01*
X0044031Y0047629D01*
X0043981Y0048006D01*
X0043940Y0048384D01*
X0043907Y0048763D01*
X0043884Y0049143D01*
X0043871Y0049523D01*
X0043866Y0049904D01*
X0043866Y0164077D01*
X0053315Y0164077D02*
X0053317Y0164235D01*
X0053323Y0164393D01*
X0053333Y0164551D01*
X0053347Y0164709D01*
X0053365Y0164866D01*
X0053386Y0165023D01*
X0053412Y0165179D01*
X0053442Y0165335D01*
X0053475Y0165490D01*
X0053513Y0165643D01*
X0053554Y0165796D01*
X0053599Y0165948D01*
X0053648Y0166099D01*
X0053701Y0166248D01*
X0053757Y0166396D01*
X0053817Y0166542D01*
X0053881Y0166687D01*
X0053949Y0166830D01*
X0054020Y0166972D01*
X0054094Y0167112D01*
X0054172Y0167249D01*
X0054254Y0167385D01*
X0054338Y0167519D01*
X0054427Y0167650D01*
X0054518Y0167779D01*
X0054613Y0167906D01*
X0054710Y0168031D01*
X0054811Y0168153D01*
X0054915Y0168272D01*
X0055022Y0168389D01*
X0055132Y0168503D01*
X0055245Y0168614D01*
X0055360Y0168723D01*
X0055478Y0168828D01*
X0055599Y0168930D01*
X0055722Y0169030D01*
X0055848Y0169126D01*
X0055976Y0169219D01*
X0056106Y0169309D01*
X0056239Y0169395D01*
X0056374Y0169479D01*
X0056510Y0169558D01*
X0056649Y0169635D01*
X0056790Y0169707D01*
X0056932Y0169777D01*
X0057076Y0169842D01*
X0057222Y0169904D01*
X0057369Y0169962D01*
X0057518Y0170017D01*
X0057668Y0170068D01*
X0057819Y0170115D01*
X0057971Y0170158D01*
X0058124Y0170197D01*
X0058279Y0170233D01*
X0058434Y0170264D01*
X0058590Y0170292D01*
X0058746Y0170316D01*
X0058903Y0170336D01*
X0059061Y0170352D01*
X0059218Y0170364D01*
X0059377Y0170372D01*
X0059535Y0170376D01*
X0059693Y0170376D01*
X0059851Y0170372D01*
X0060010Y0170364D01*
X0060167Y0170352D01*
X0060325Y0170336D01*
X0060482Y0170316D01*
X0060638Y0170292D01*
X0060794Y0170264D01*
X0060949Y0170233D01*
X0061104Y0170197D01*
X0061257Y0170158D01*
X0061409Y0170115D01*
X0061560Y0170068D01*
X0061710Y0170017D01*
X0061859Y0169962D01*
X0062006Y0169904D01*
X0062152Y0169842D01*
X0062296Y0169777D01*
X0062438Y0169707D01*
X0062579Y0169635D01*
X0062718Y0169558D01*
X0062854Y0169479D01*
X0062989Y0169395D01*
X0063122Y0169309D01*
X0063252Y0169219D01*
X0063380Y0169126D01*
X0063506Y0169030D01*
X0063629Y0168930D01*
X0063750Y0168828D01*
X0063868Y0168723D01*
X0063983Y0168614D01*
X0064096Y0168503D01*
X0064206Y0168389D01*
X0064313Y0168272D01*
X0064417Y0168153D01*
X0064518Y0168031D01*
X0064615Y0167906D01*
X0064710Y0167779D01*
X0064801Y0167650D01*
X0064890Y0167519D01*
X0064974Y0167385D01*
X0065056Y0167249D01*
X0065134Y0167112D01*
X0065208Y0166972D01*
X0065279Y0166830D01*
X0065347Y0166687D01*
X0065411Y0166542D01*
X0065471Y0166396D01*
X0065527Y0166248D01*
X0065580Y0166099D01*
X0065629Y0165948D01*
X0065674Y0165796D01*
X0065715Y0165643D01*
X0065753Y0165490D01*
X0065786Y0165335D01*
X0065816Y0165179D01*
X0065842Y0165023D01*
X0065863Y0164866D01*
X0065881Y0164709D01*
X0065895Y0164551D01*
X0065905Y0164393D01*
X0065911Y0164235D01*
X0065913Y0164077D01*
X0065911Y0163919D01*
X0065905Y0163761D01*
X0065895Y0163603D01*
X0065881Y0163445D01*
X0065863Y0163288D01*
X0065842Y0163131D01*
X0065816Y0162975D01*
X0065786Y0162819D01*
X0065753Y0162664D01*
X0065715Y0162511D01*
X0065674Y0162358D01*
X0065629Y0162206D01*
X0065580Y0162055D01*
X0065527Y0161906D01*
X0065471Y0161758D01*
X0065411Y0161612D01*
X0065347Y0161467D01*
X0065279Y0161324D01*
X0065208Y0161182D01*
X0065134Y0161042D01*
X0065056Y0160905D01*
X0064974Y0160769D01*
X0064890Y0160635D01*
X0064801Y0160504D01*
X0064710Y0160375D01*
X0064615Y0160248D01*
X0064518Y0160123D01*
X0064417Y0160001D01*
X0064313Y0159882D01*
X0064206Y0159765D01*
X0064096Y0159651D01*
X0063983Y0159540D01*
X0063868Y0159431D01*
X0063750Y0159326D01*
X0063629Y0159224D01*
X0063506Y0159124D01*
X0063380Y0159028D01*
X0063252Y0158935D01*
X0063122Y0158845D01*
X0062989Y0158759D01*
X0062854Y0158675D01*
X0062718Y0158596D01*
X0062579Y0158519D01*
X0062438Y0158447D01*
X0062296Y0158377D01*
X0062152Y0158312D01*
X0062006Y0158250D01*
X0061859Y0158192D01*
X0061710Y0158137D01*
X0061560Y0158086D01*
X0061409Y0158039D01*
X0061257Y0157996D01*
X0061104Y0157957D01*
X0060949Y0157921D01*
X0060794Y0157890D01*
X0060638Y0157862D01*
X0060482Y0157838D01*
X0060325Y0157818D01*
X0060167Y0157802D01*
X0060010Y0157790D01*
X0059851Y0157782D01*
X0059693Y0157778D01*
X0059535Y0157778D01*
X0059377Y0157782D01*
X0059218Y0157790D01*
X0059061Y0157802D01*
X0058903Y0157818D01*
X0058746Y0157838D01*
X0058590Y0157862D01*
X0058434Y0157890D01*
X0058279Y0157921D01*
X0058124Y0157957D01*
X0057971Y0157996D01*
X0057819Y0158039D01*
X0057668Y0158086D01*
X0057518Y0158137D01*
X0057369Y0158192D01*
X0057222Y0158250D01*
X0057076Y0158312D01*
X0056932Y0158377D01*
X0056790Y0158447D01*
X0056649Y0158519D01*
X0056510Y0158596D01*
X0056374Y0158675D01*
X0056239Y0158759D01*
X0056106Y0158845D01*
X0055976Y0158935D01*
X0055848Y0159028D01*
X0055722Y0159124D01*
X0055599Y0159224D01*
X0055478Y0159326D01*
X0055360Y0159431D01*
X0055245Y0159540D01*
X0055132Y0159651D01*
X0055022Y0159765D01*
X0054915Y0159882D01*
X0054811Y0160001D01*
X0054710Y0160123D01*
X0054613Y0160248D01*
X0054518Y0160375D01*
X0054427Y0160504D01*
X0054338Y0160635D01*
X0054254Y0160769D01*
X0054172Y0160905D01*
X0054094Y0161042D01*
X0054020Y0161182D01*
X0053949Y0161324D01*
X0053881Y0161467D01*
X0053817Y0161612D01*
X0053757Y0161758D01*
X0053701Y0161906D01*
X0053648Y0162055D01*
X0053599Y0162206D01*
X0053554Y0162358D01*
X0053513Y0162511D01*
X0053475Y0162664D01*
X0053442Y0162819D01*
X0053412Y0162975D01*
X0053386Y0163131D01*
X0053365Y0163288D01*
X0053347Y0163445D01*
X0053333Y0163603D01*
X0053323Y0163761D01*
X0053317Y0163919D01*
X0053315Y0164077D01*
X0043866Y0164077D02*
X0043871Y0164458D01*
X0043884Y0164838D01*
X0043907Y0165218D01*
X0043940Y0165597D01*
X0043981Y0165975D01*
X0044031Y0166352D01*
X0044091Y0166728D01*
X0044159Y0167103D01*
X0044237Y0167475D01*
X0044324Y0167846D01*
X0044419Y0168214D01*
X0044524Y0168580D01*
X0044637Y0168943D01*
X0044759Y0169304D01*
X0044889Y0169661D01*
X0045029Y0170015D01*
X0045176Y0170366D01*
X0045333Y0170713D01*
X0045497Y0171056D01*
X0045670Y0171395D01*
X0045851Y0171730D01*
X0046040Y0172061D01*
X0046237Y0172386D01*
X0046441Y0172707D01*
X0046654Y0173023D01*
X0046874Y0173333D01*
X0047101Y0173639D01*
X0047336Y0173938D01*
X0047578Y0174232D01*
X0047826Y0174520D01*
X0048082Y0174802D01*
X0048345Y0175077D01*
X0048614Y0175346D01*
X0048889Y0175609D01*
X0049171Y0175865D01*
X0049459Y0176113D01*
X0049753Y0176355D01*
X0050052Y0176590D01*
X0050358Y0176817D01*
X0050668Y0177037D01*
X0050984Y0177250D01*
X0051305Y0177454D01*
X0051630Y0177651D01*
X0051961Y0177840D01*
X0052296Y0178021D01*
X0052635Y0178194D01*
X0052978Y0178358D01*
X0053325Y0178515D01*
X0053676Y0178662D01*
X0054030Y0178802D01*
X0054387Y0178932D01*
X0054748Y0179054D01*
X0055111Y0179167D01*
X0055477Y0179272D01*
X0055845Y0179367D01*
X0056216Y0179454D01*
X0056588Y0179532D01*
X0056963Y0179600D01*
X0057339Y0179660D01*
X0057716Y0179710D01*
X0058094Y0179751D01*
X0058473Y0179784D01*
X0058853Y0179807D01*
X0059233Y0179820D01*
X0059614Y0179825D01*
X0264339Y0179825D01*
X0258040Y0164077D02*
X0258042Y0164235D01*
X0258048Y0164393D01*
X0258058Y0164551D01*
X0258072Y0164709D01*
X0258090Y0164866D01*
X0258111Y0165023D01*
X0258137Y0165179D01*
X0258167Y0165335D01*
X0258200Y0165490D01*
X0258238Y0165643D01*
X0258279Y0165796D01*
X0258324Y0165948D01*
X0258373Y0166099D01*
X0258426Y0166248D01*
X0258482Y0166396D01*
X0258542Y0166542D01*
X0258606Y0166687D01*
X0258674Y0166830D01*
X0258745Y0166972D01*
X0258819Y0167112D01*
X0258897Y0167249D01*
X0258979Y0167385D01*
X0259063Y0167519D01*
X0259152Y0167650D01*
X0259243Y0167779D01*
X0259338Y0167906D01*
X0259435Y0168031D01*
X0259536Y0168153D01*
X0259640Y0168272D01*
X0259747Y0168389D01*
X0259857Y0168503D01*
X0259970Y0168614D01*
X0260085Y0168723D01*
X0260203Y0168828D01*
X0260324Y0168930D01*
X0260447Y0169030D01*
X0260573Y0169126D01*
X0260701Y0169219D01*
X0260831Y0169309D01*
X0260964Y0169395D01*
X0261099Y0169479D01*
X0261235Y0169558D01*
X0261374Y0169635D01*
X0261515Y0169707D01*
X0261657Y0169777D01*
X0261801Y0169842D01*
X0261947Y0169904D01*
X0262094Y0169962D01*
X0262243Y0170017D01*
X0262393Y0170068D01*
X0262544Y0170115D01*
X0262696Y0170158D01*
X0262849Y0170197D01*
X0263004Y0170233D01*
X0263159Y0170264D01*
X0263315Y0170292D01*
X0263471Y0170316D01*
X0263628Y0170336D01*
X0263786Y0170352D01*
X0263943Y0170364D01*
X0264102Y0170372D01*
X0264260Y0170376D01*
X0264418Y0170376D01*
X0264576Y0170372D01*
X0264735Y0170364D01*
X0264892Y0170352D01*
X0265050Y0170336D01*
X0265207Y0170316D01*
X0265363Y0170292D01*
X0265519Y0170264D01*
X0265674Y0170233D01*
X0265829Y0170197D01*
X0265982Y0170158D01*
X0266134Y0170115D01*
X0266285Y0170068D01*
X0266435Y0170017D01*
X0266584Y0169962D01*
X0266731Y0169904D01*
X0266877Y0169842D01*
X0267021Y0169777D01*
X0267163Y0169707D01*
X0267304Y0169635D01*
X0267443Y0169558D01*
X0267579Y0169479D01*
X0267714Y0169395D01*
X0267847Y0169309D01*
X0267977Y0169219D01*
X0268105Y0169126D01*
X0268231Y0169030D01*
X0268354Y0168930D01*
X0268475Y0168828D01*
X0268593Y0168723D01*
X0268708Y0168614D01*
X0268821Y0168503D01*
X0268931Y0168389D01*
X0269038Y0168272D01*
X0269142Y0168153D01*
X0269243Y0168031D01*
X0269340Y0167906D01*
X0269435Y0167779D01*
X0269526Y0167650D01*
X0269615Y0167519D01*
X0269699Y0167385D01*
X0269781Y0167249D01*
X0269859Y0167112D01*
X0269933Y0166972D01*
X0270004Y0166830D01*
X0270072Y0166687D01*
X0270136Y0166542D01*
X0270196Y0166396D01*
X0270252Y0166248D01*
X0270305Y0166099D01*
X0270354Y0165948D01*
X0270399Y0165796D01*
X0270440Y0165643D01*
X0270478Y0165490D01*
X0270511Y0165335D01*
X0270541Y0165179D01*
X0270567Y0165023D01*
X0270588Y0164866D01*
X0270606Y0164709D01*
X0270620Y0164551D01*
X0270630Y0164393D01*
X0270636Y0164235D01*
X0270638Y0164077D01*
X0270636Y0163919D01*
X0270630Y0163761D01*
X0270620Y0163603D01*
X0270606Y0163445D01*
X0270588Y0163288D01*
X0270567Y0163131D01*
X0270541Y0162975D01*
X0270511Y0162819D01*
X0270478Y0162664D01*
X0270440Y0162511D01*
X0270399Y0162358D01*
X0270354Y0162206D01*
X0270305Y0162055D01*
X0270252Y0161906D01*
X0270196Y0161758D01*
X0270136Y0161612D01*
X0270072Y0161467D01*
X0270004Y0161324D01*
X0269933Y0161182D01*
X0269859Y0161042D01*
X0269781Y0160905D01*
X0269699Y0160769D01*
X0269615Y0160635D01*
X0269526Y0160504D01*
X0269435Y0160375D01*
X0269340Y0160248D01*
X0269243Y0160123D01*
X0269142Y0160001D01*
X0269038Y0159882D01*
X0268931Y0159765D01*
X0268821Y0159651D01*
X0268708Y0159540D01*
X0268593Y0159431D01*
X0268475Y0159326D01*
X0268354Y0159224D01*
X0268231Y0159124D01*
X0268105Y0159028D01*
X0267977Y0158935D01*
X0267847Y0158845D01*
X0267714Y0158759D01*
X0267579Y0158675D01*
X0267443Y0158596D01*
X0267304Y0158519D01*
X0267163Y0158447D01*
X0267021Y0158377D01*
X0266877Y0158312D01*
X0266731Y0158250D01*
X0266584Y0158192D01*
X0266435Y0158137D01*
X0266285Y0158086D01*
X0266134Y0158039D01*
X0265982Y0157996D01*
X0265829Y0157957D01*
X0265674Y0157921D01*
X0265519Y0157890D01*
X0265363Y0157862D01*
X0265207Y0157838D01*
X0265050Y0157818D01*
X0264892Y0157802D01*
X0264735Y0157790D01*
X0264576Y0157782D01*
X0264418Y0157778D01*
X0264260Y0157778D01*
X0264102Y0157782D01*
X0263943Y0157790D01*
X0263786Y0157802D01*
X0263628Y0157818D01*
X0263471Y0157838D01*
X0263315Y0157862D01*
X0263159Y0157890D01*
X0263004Y0157921D01*
X0262849Y0157957D01*
X0262696Y0157996D01*
X0262544Y0158039D01*
X0262393Y0158086D01*
X0262243Y0158137D01*
X0262094Y0158192D01*
X0261947Y0158250D01*
X0261801Y0158312D01*
X0261657Y0158377D01*
X0261515Y0158447D01*
X0261374Y0158519D01*
X0261235Y0158596D01*
X0261099Y0158675D01*
X0260964Y0158759D01*
X0260831Y0158845D01*
X0260701Y0158935D01*
X0260573Y0159028D01*
X0260447Y0159124D01*
X0260324Y0159224D01*
X0260203Y0159326D01*
X0260085Y0159431D01*
X0259970Y0159540D01*
X0259857Y0159651D01*
X0259747Y0159765D01*
X0259640Y0159882D01*
X0259536Y0160001D01*
X0259435Y0160123D01*
X0259338Y0160248D01*
X0259243Y0160375D01*
X0259152Y0160504D01*
X0259063Y0160635D01*
X0258979Y0160769D01*
X0258897Y0160905D01*
X0258819Y0161042D01*
X0258745Y0161182D01*
X0258674Y0161324D01*
X0258606Y0161467D01*
X0258542Y0161612D01*
X0258482Y0161758D01*
X0258426Y0161906D01*
X0258373Y0162055D01*
X0258324Y0162206D01*
X0258279Y0162358D01*
X0258238Y0162511D01*
X0258200Y0162664D01*
X0258167Y0162819D01*
X0258137Y0162975D01*
X0258111Y0163131D01*
X0258090Y0163288D01*
X0258072Y0163445D01*
X0258058Y0163603D01*
X0258048Y0163761D01*
X0258042Y0163919D01*
X0258040Y0164077D01*
X0264339Y0179825D02*
X0264720Y0179820D01*
X0265100Y0179807D01*
X0265480Y0179784D01*
X0265859Y0179751D01*
X0266237Y0179710D01*
X0266614Y0179660D01*
X0266990Y0179600D01*
X0267365Y0179532D01*
X0267737Y0179454D01*
X0268108Y0179367D01*
X0268476Y0179272D01*
X0268842Y0179167D01*
X0269205Y0179054D01*
X0269566Y0178932D01*
X0269923Y0178802D01*
X0270277Y0178662D01*
X0270628Y0178515D01*
X0270975Y0178358D01*
X0271318Y0178194D01*
X0271657Y0178021D01*
X0271992Y0177840D01*
X0272323Y0177651D01*
X0272648Y0177454D01*
X0272969Y0177250D01*
X0273285Y0177037D01*
X0273595Y0176817D01*
X0273901Y0176590D01*
X0274200Y0176355D01*
X0274494Y0176113D01*
X0274782Y0175865D01*
X0275064Y0175609D01*
X0275339Y0175346D01*
X0275608Y0175077D01*
X0275871Y0174802D01*
X0276127Y0174520D01*
X0276375Y0174232D01*
X0276617Y0173938D01*
X0276852Y0173639D01*
X0277079Y0173333D01*
X0277299Y0173023D01*
X0277512Y0172707D01*
X0277716Y0172386D01*
X0277913Y0172061D01*
X0278102Y0171730D01*
X0278283Y0171395D01*
X0278456Y0171056D01*
X0278620Y0170713D01*
X0278777Y0170366D01*
X0278924Y0170015D01*
X0279064Y0169661D01*
X0279194Y0169304D01*
X0279316Y0168943D01*
X0279429Y0168580D01*
X0279534Y0168214D01*
X0279629Y0167846D01*
X0279716Y0167475D01*
X0279794Y0167103D01*
X0279862Y0166728D01*
X0279922Y0166352D01*
X0279972Y0165975D01*
X0280013Y0165597D01*
X0280046Y0165218D01*
X0280069Y0164838D01*
X0280082Y0164458D01*
X0280087Y0164077D01*
X0280087Y0049904D01*
X0258040Y0049904D02*
X0258042Y0050062D01*
X0258048Y0050220D01*
X0258058Y0050378D01*
X0258072Y0050536D01*
X0258090Y0050693D01*
X0258111Y0050850D01*
X0258137Y0051006D01*
X0258167Y0051162D01*
X0258200Y0051317D01*
X0258238Y0051470D01*
X0258279Y0051623D01*
X0258324Y0051775D01*
X0258373Y0051926D01*
X0258426Y0052075D01*
X0258482Y0052223D01*
X0258542Y0052369D01*
X0258606Y0052514D01*
X0258674Y0052657D01*
X0258745Y0052799D01*
X0258819Y0052939D01*
X0258897Y0053076D01*
X0258979Y0053212D01*
X0259063Y0053346D01*
X0259152Y0053477D01*
X0259243Y0053606D01*
X0259338Y0053733D01*
X0259435Y0053858D01*
X0259536Y0053980D01*
X0259640Y0054099D01*
X0259747Y0054216D01*
X0259857Y0054330D01*
X0259970Y0054441D01*
X0260085Y0054550D01*
X0260203Y0054655D01*
X0260324Y0054757D01*
X0260447Y0054857D01*
X0260573Y0054953D01*
X0260701Y0055046D01*
X0260831Y0055136D01*
X0260964Y0055222D01*
X0261099Y0055306D01*
X0261235Y0055385D01*
X0261374Y0055462D01*
X0261515Y0055534D01*
X0261657Y0055604D01*
X0261801Y0055669D01*
X0261947Y0055731D01*
X0262094Y0055789D01*
X0262243Y0055844D01*
X0262393Y0055895D01*
X0262544Y0055942D01*
X0262696Y0055985D01*
X0262849Y0056024D01*
X0263004Y0056060D01*
X0263159Y0056091D01*
X0263315Y0056119D01*
X0263471Y0056143D01*
X0263628Y0056163D01*
X0263786Y0056179D01*
X0263943Y0056191D01*
X0264102Y0056199D01*
X0264260Y0056203D01*
X0264418Y0056203D01*
X0264576Y0056199D01*
X0264735Y0056191D01*
X0264892Y0056179D01*
X0265050Y0056163D01*
X0265207Y0056143D01*
X0265363Y0056119D01*
X0265519Y0056091D01*
X0265674Y0056060D01*
X0265829Y0056024D01*
X0265982Y0055985D01*
X0266134Y0055942D01*
X0266285Y0055895D01*
X0266435Y0055844D01*
X0266584Y0055789D01*
X0266731Y0055731D01*
X0266877Y0055669D01*
X0267021Y0055604D01*
X0267163Y0055534D01*
X0267304Y0055462D01*
X0267443Y0055385D01*
X0267579Y0055306D01*
X0267714Y0055222D01*
X0267847Y0055136D01*
X0267977Y0055046D01*
X0268105Y0054953D01*
X0268231Y0054857D01*
X0268354Y0054757D01*
X0268475Y0054655D01*
X0268593Y0054550D01*
X0268708Y0054441D01*
X0268821Y0054330D01*
X0268931Y0054216D01*
X0269038Y0054099D01*
X0269142Y0053980D01*
X0269243Y0053858D01*
X0269340Y0053733D01*
X0269435Y0053606D01*
X0269526Y0053477D01*
X0269615Y0053346D01*
X0269699Y0053212D01*
X0269781Y0053076D01*
X0269859Y0052939D01*
X0269933Y0052799D01*
X0270004Y0052657D01*
X0270072Y0052514D01*
X0270136Y0052369D01*
X0270196Y0052223D01*
X0270252Y0052075D01*
X0270305Y0051926D01*
X0270354Y0051775D01*
X0270399Y0051623D01*
X0270440Y0051470D01*
X0270478Y0051317D01*
X0270511Y0051162D01*
X0270541Y0051006D01*
X0270567Y0050850D01*
X0270588Y0050693D01*
X0270606Y0050536D01*
X0270620Y0050378D01*
X0270630Y0050220D01*
X0270636Y0050062D01*
X0270638Y0049904D01*
X0270636Y0049746D01*
X0270630Y0049588D01*
X0270620Y0049430D01*
X0270606Y0049272D01*
X0270588Y0049115D01*
X0270567Y0048958D01*
X0270541Y0048802D01*
X0270511Y0048646D01*
X0270478Y0048491D01*
X0270440Y0048338D01*
X0270399Y0048185D01*
X0270354Y0048033D01*
X0270305Y0047882D01*
X0270252Y0047733D01*
X0270196Y0047585D01*
X0270136Y0047439D01*
X0270072Y0047294D01*
X0270004Y0047151D01*
X0269933Y0047009D01*
X0269859Y0046869D01*
X0269781Y0046732D01*
X0269699Y0046596D01*
X0269615Y0046462D01*
X0269526Y0046331D01*
X0269435Y0046202D01*
X0269340Y0046075D01*
X0269243Y0045950D01*
X0269142Y0045828D01*
X0269038Y0045709D01*
X0268931Y0045592D01*
X0268821Y0045478D01*
X0268708Y0045367D01*
X0268593Y0045258D01*
X0268475Y0045153D01*
X0268354Y0045051D01*
X0268231Y0044951D01*
X0268105Y0044855D01*
X0267977Y0044762D01*
X0267847Y0044672D01*
X0267714Y0044586D01*
X0267579Y0044502D01*
X0267443Y0044423D01*
X0267304Y0044346D01*
X0267163Y0044274D01*
X0267021Y0044204D01*
X0266877Y0044139D01*
X0266731Y0044077D01*
X0266584Y0044019D01*
X0266435Y0043964D01*
X0266285Y0043913D01*
X0266134Y0043866D01*
X0265982Y0043823D01*
X0265829Y0043784D01*
X0265674Y0043748D01*
X0265519Y0043717D01*
X0265363Y0043689D01*
X0265207Y0043665D01*
X0265050Y0043645D01*
X0264892Y0043629D01*
X0264735Y0043617D01*
X0264576Y0043609D01*
X0264418Y0043605D01*
X0264260Y0043605D01*
X0264102Y0043609D01*
X0263943Y0043617D01*
X0263786Y0043629D01*
X0263628Y0043645D01*
X0263471Y0043665D01*
X0263315Y0043689D01*
X0263159Y0043717D01*
X0263004Y0043748D01*
X0262849Y0043784D01*
X0262696Y0043823D01*
X0262544Y0043866D01*
X0262393Y0043913D01*
X0262243Y0043964D01*
X0262094Y0044019D01*
X0261947Y0044077D01*
X0261801Y0044139D01*
X0261657Y0044204D01*
X0261515Y0044274D01*
X0261374Y0044346D01*
X0261235Y0044423D01*
X0261099Y0044502D01*
X0260964Y0044586D01*
X0260831Y0044672D01*
X0260701Y0044762D01*
X0260573Y0044855D01*
X0260447Y0044951D01*
X0260324Y0045051D01*
X0260203Y0045153D01*
X0260085Y0045258D01*
X0259970Y0045367D01*
X0259857Y0045478D01*
X0259747Y0045592D01*
X0259640Y0045709D01*
X0259536Y0045828D01*
X0259435Y0045950D01*
X0259338Y0046075D01*
X0259243Y0046202D01*
X0259152Y0046331D01*
X0259063Y0046462D01*
X0258979Y0046596D01*
X0258897Y0046732D01*
X0258819Y0046869D01*
X0258745Y0047009D01*
X0258674Y0047151D01*
X0258606Y0047294D01*
X0258542Y0047439D01*
X0258482Y0047585D01*
X0258426Y0047733D01*
X0258373Y0047882D01*
X0258324Y0048033D01*
X0258279Y0048185D01*
X0258238Y0048338D01*
X0258200Y0048491D01*
X0258167Y0048646D01*
X0258137Y0048802D01*
X0258111Y0048958D01*
X0258090Y0049115D01*
X0258072Y0049272D01*
X0258058Y0049430D01*
X0258048Y0049588D01*
X0258042Y0049746D01*
X0258040Y0049904D01*
X0264339Y0034156D02*
X0264720Y0034161D01*
X0265100Y0034174D01*
X0265480Y0034197D01*
X0265859Y0034230D01*
X0266237Y0034271D01*
X0266614Y0034321D01*
X0266990Y0034381D01*
X0267365Y0034449D01*
X0267737Y0034527D01*
X0268108Y0034614D01*
X0268476Y0034709D01*
X0268842Y0034814D01*
X0269205Y0034927D01*
X0269566Y0035049D01*
X0269923Y0035179D01*
X0270277Y0035319D01*
X0270628Y0035466D01*
X0270975Y0035623D01*
X0271318Y0035787D01*
X0271657Y0035960D01*
X0271992Y0036141D01*
X0272323Y0036330D01*
X0272648Y0036527D01*
X0272969Y0036731D01*
X0273285Y0036944D01*
X0273595Y0037164D01*
X0273901Y0037391D01*
X0274200Y0037626D01*
X0274494Y0037868D01*
X0274782Y0038116D01*
X0275064Y0038372D01*
X0275339Y0038635D01*
X0275608Y0038904D01*
X0275871Y0039179D01*
X0276127Y0039461D01*
X0276375Y0039749D01*
X0276617Y0040043D01*
X0276852Y0040342D01*
X0277079Y0040648D01*
X0277299Y0040958D01*
X0277512Y0041274D01*
X0277716Y0041595D01*
X0277913Y0041920D01*
X0278102Y0042251D01*
X0278283Y0042586D01*
X0278456Y0042925D01*
X0278620Y0043268D01*
X0278777Y0043615D01*
X0278924Y0043966D01*
X0279064Y0044320D01*
X0279194Y0044677D01*
X0279316Y0045038D01*
X0279429Y0045401D01*
X0279534Y0045767D01*
X0279629Y0046135D01*
X0279716Y0046506D01*
X0279794Y0046878D01*
X0279862Y0047253D01*
X0279922Y0047629D01*
X0279972Y0048006D01*
X0280013Y0048384D01*
X0280046Y0048763D01*
X0280069Y0049143D01*
X0280082Y0049523D01*
X0280087Y0049904D01*
X0280082Y0049523D01*
X0280069Y0049143D01*
X0280046Y0048763D01*
X0280013Y0048384D01*
X0279972Y0048006D01*
X0279922Y0047629D01*
X0279862Y0047253D01*
X0279794Y0046878D01*
X0279716Y0046506D01*
X0279629Y0046135D01*
X0279534Y0045767D01*
X0279429Y0045401D01*
X0279316Y0045038D01*
X0279194Y0044677D01*
X0279064Y0044320D01*
X0278924Y0043966D01*
X0278777Y0043615D01*
X0278620Y0043268D01*
X0278456Y0042925D01*
X0278283Y0042586D01*
X0278102Y0042251D01*
X0277913Y0041920D01*
X0277716Y0041595D01*
X0277512Y0041274D01*
X0277299Y0040958D01*
X0277079Y0040648D01*
X0276852Y0040342D01*
X0276617Y0040043D01*
X0276375Y0039749D01*
X0276127Y0039461D01*
X0275871Y0039179D01*
X0275608Y0038904D01*
X0275339Y0038635D01*
X0275064Y0038372D01*
X0274782Y0038116D01*
X0274494Y0037868D01*
X0274200Y0037626D01*
X0273901Y0037391D01*
X0273595Y0037164D01*
X0273285Y0036944D01*
X0272969Y0036731D01*
X0272648Y0036527D01*
X0272323Y0036330D01*
X0271992Y0036141D01*
X0271657Y0035960D01*
X0271318Y0035787D01*
X0270975Y0035623D01*
X0270628Y0035466D01*
X0270277Y0035319D01*
X0269923Y0035179D01*
X0269566Y0035049D01*
X0269205Y0034927D01*
X0268842Y0034814D01*
X0268476Y0034709D01*
X0268108Y0034614D01*
X0267737Y0034527D01*
X0267365Y0034449D01*
X0266990Y0034381D01*
X0266614Y0034321D01*
X0266237Y0034271D01*
X0265859Y0034230D01*
X0265480Y0034197D01*
X0265100Y0034174D01*
X0264720Y0034161D01*
X0264339Y0034156D01*
X0149645Y0109491D02*
X0149647Y0109622D01*
X0149653Y0109754D01*
X0149663Y0109885D01*
X0149677Y0110016D01*
X0149695Y0110146D01*
X0149717Y0110275D01*
X0149742Y0110404D01*
X0149772Y0110532D01*
X0149806Y0110659D01*
X0149843Y0110786D01*
X0149884Y0110910D01*
X0149929Y0111034D01*
X0149978Y0111156D01*
X0150030Y0111277D01*
X0150086Y0111395D01*
X0150146Y0111513D01*
X0150209Y0111628D01*
X0150276Y0111741D01*
X0150346Y0111853D01*
X0150419Y0111962D01*
X0150495Y0112068D01*
X0150575Y0112173D01*
X0150658Y0112275D01*
X0150744Y0112374D01*
X0150833Y0112471D01*
X0150925Y0112565D01*
X0151020Y0112656D01*
X0151117Y0112745D01*
X0151217Y0112830D01*
X0151320Y0112912D01*
X0151425Y0112991D01*
X0151532Y0113067D01*
X0151642Y0113139D01*
X0151754Y0113208D01*
X0151868Y0113274D01*
X0151983Y0113336D01*
X0152101Y0113395D01*
X0152220Y0113450D01*
X0152341Y0113502D01*
X0152464Y0113549D01*
X0152588Y0113593D01*
X0152713Y0113634D01*
X0152839Y0113670D01*
X0152967Y0113703D01*
X0153095Y0113731D01*
X0153224Y0113756D01*
X0153354Y0113777D01*
X0153484Y0113794D01*
X0153615Y0113807D01*
X0153746Y0113816D01*
X0153877Y0113821D01*
X0154009Y0113822D01*
X0154140Y0113819D01*
X0154272Y0113812D01*
X0154403Y0113801D01*
X0154533Y0113786D01*
X0154663Y0113767D01*
X0154793Y0113744D01*
X0154921Y0113718D01*
X0155049Y0113687D01*
X0155176Y0113652D01*
X0155302Y0113614D01*
X0155426Y0113572D01*
X0155550Y0113526D01*
X0155671Y0113476D01*
X0155791Y0113423D01*
X0155910Y0113366D01*
X0156027Y0113306D01*
X0156141Y0113242D01*
X0156254Y0113174D01*
X0156365Y0113103D01*
X0156474Y0113029D01*
X0156580Y0112952D01*
X0156684Y0112871D01*
X0156785Y0112788D01*
X0156884Y0112701D01*
X0156980Y0112611D01*
X0157073Y0112518D01*
X0157164Y0112423D01*
X0157251Y0112325D01*
X0157336Y0112224D01*
X0157417Y0112121D01*
X0157495Y0112015D01*
X0157570Y0111907D01*
X0157642Y0111797D01*
X0157710Y0111685D01*
X0157775Y0111571D01*
X0157836Y0111454D01*
X0157894Y0111336D01*
X0157948Y0111216D01*
X0157999Y0111095D01*
X0158046Y0110972D01*
X0158089Y0110848D01*
X0158128Y0110723D01*
X0158164Y0110596D01*
X0158195Y0110468D01*
X0158223Y0110340D01*
X0158247Y0110211D01*
X0158267Y0110081D01*
X0158283Y0109950D01*
X0158295Y0109819D01*
X0158303Y0109688D01*
X0158307Y0109557D01*
X0158307Y0109425D01*
X0158303Y0109294D01*
X0158295Y0109163D01*
X0158283Y0109032D01*
X0158267Y0108901D01*
X0158247Y0108771D01*
X0158223Y0108642D01*
X0158195Y0108514D01*
X0158164Y0108386D01*
X0158128Y0108259D01*
X0158089Y0108134D01*
X0158046Y0108010D01*
X0157999Y0107887D01*
X0157948Y0107766D01*
X0157894Y0107646D01*
X0157836Y0107528D01*
X0157775Y0107411D01*
X0157710Y0107297D01*
X0157642Y0107185D01*
X0157570Y0107075D01*
X0157495Y0106967D01*
X0157417Y0106861D01*
X0157336Y0106758D01*
X0157251Y0106657D01*
X0157164Y0106559D01*
X0157073Y0106464D01*
X0156980Y0106371D01*
X0156884Y0106281D01*
X0156785Y0106194D01*
X0156684Y0106111D01*
X0156580Y0106030D01*
X0156474Y0105953D01*
X0156365Y0105879D01*
X0156254Y0105808D01*
X0156142Y0105740D01*
X0156027Y0105676D01*
X0155910Y0105616D01*
X0155791Y0105559D01*
X0155671Y0105506D01*
X0155550Y0105456D01*
X0155426Y0105410D01*
X0155302Y0105368D01*
X0155176Y0105330D01*
X0155049Y0105295D01*
X0154921Y0105264D01*
X0154793Y0105238D01*
X0154663Y0105215D01*
X0154533Y0105196D01*
X0154403Y0105181D01*
X0154272Y0105170D01*
X0154140Y0105163D01*
X0154009Y0105160D01*
X0153877Y0105161D01*
X0153746Y0105166D01*
X0153615Y0105175D01*
X0153484Y0105188D01*
X0153354Y0105205D01*
X0153224Y0105226D01*
X0153095Y0105251D01*
X0152967Y0105279D01*
X0152839Y0105312D01*
X0152713Y0105348D01*
X0152588Y0105389D01*
X0152464Y0105433D01*
X0152341Y0105480D01*
X0152220Y0105532D01*
X0152101Y0105587D01*
X0151983Y0105646D01*
X0151868Y0105708D01*
X0151754Y0105774D01*
X0151642Y0105843D01*
X0151532Y0105915D01*
X0151425Y0105991D01*
X0151320Y0106070D01*
X0151217Y0106152D01*
X0151117Y0106237D01*
X0151020Y0106326D01*
X0150925Y0106417D01*
X0150833Y0106511D01*
X0150744Y0106608D01*
X0150658Y0106707D01*
X0150575Y0106809D01*
X0150495Y0106914D01*
X0150419Y0107020D01*
X0150346Y0107129D01*
X0150276Y0107241D01*
X0150209Y0107354D01*
X0150146Y0107469D01*
X0150086Y0107587D01*
X0150030Y0107705D01*
X0149978Y0107826D01*
X0149929Y0107948D01*
X0149884Y0108072D01*
X0149843Y0108196D01*
X0149806Y0108323D01*
X0149772Y0108450D01*
X0149742Y0108578D01*
X0149717Y0108707D01*
X0149695Y0108836D01*
X0149677Y0108966D01*
X0149663Y0109097D01*
X0149653Y0109228D01*
X0149647Y0109360D01*
X0149645Y0109491D01*
X0059614Y0179825D02*
X0059233Y0179820D01*
X0058853Y0179807D01*
X0058473Y0179784D01*
X0058094Y0179751D01*
X0057716Y0179710D01*
X0057339Y0179660D01*
X0056963Y0179600D01*
X0056588Y0179532D01*
X0056216Y0179454D01*
X0055845Y0179367D01*
X0055477Y0179272D01*
X0055111Y0179167D01*
X0054748Y0179054D01*
X0054387Y0178932D01*
X0054030Y0178802D01*
X0053676Y0178662D01*
X0053325Y0178515D01*
X0052978Y0178358D01*
X0052635Y0178194D01*
X0052296Y0178021D01*
X0051961Y0177840D01*
X0051630Y0177651D01*
X0051305Y0177454D01*
X0050984Y0177250D01*
X0050668Y0177037D01*
X0050358Y0176817D01*
X0050052Y0176590D01*
X0049753Y0176355D01*
X0049459Y0176113D01*
X0049171Y0175865D01*
X0048889Y0175609D01*
X0048614Y0175346D01*
X0048345Y0175077D01*
X0048082Y0174802D01*
X0047826Y0174520D01*
X0047578Y0174232D01*
X0047336Y0173938D01*
X0047101Y0173639D01*
X0046874Y0173333D01*
X0046654Y0173023D01*
X0046441Y0172707D01*
X0046237Y0172386D01*
X0046040Y0172061D01*
X0045851Y0171730D01*
X0045670Y0171395D01*
X0045497Y0171056D01*
X0045333Y0170713D01*
X0045176Y0170366D01*
X0045029Y0170015D01*
X0044889Y0169661D01*
X0044759Y0169304D01*
X0044637Y0168943D01*
X0044524Y0168580D01*
X0044419Y0168214D01*
X0044324Y0167846D01*
X0044237Y0167475D01*
X0044159Y0167103D01*
X0044091Y0166728D01*
X0044031Y0166352D01*
X0043981Y0165975D01*
X0043940Y0165597D01*
X0043907Y0165218D01*
X0043884Y0164838D01*
X0043871Y0164458D01*
X0043866Y0164077D01*
X0048145Y0136991D02*
X0048147Y0137122D01*
X0048153Y0137254D01*
X0048163Y0137385D01*
X0048177Y0137516D01*
X0048195Y0137646D01*
X0048217Y0137775D01*
X0048242Y0137904D01*
X0048272Y0138032D01*
X0048306Y0138159D01*
X0048343Y0138286D01*
X0048384Y0138410D01*
X0048429Y0138534D01*
X0048478Y0138656D01*
X0048530Y0138777D01*
X0048586Y0138895D01*
X0048646Y0139013D01*
X0048709Y0139128D01*
X0048776Y0139241D01*
X0048846Y0139353D01*
X0048919Y0139462D01*
X0048995Y0139568D01*
X0049075Y0139673D01*
X0049158Y0139775D01*
X0049244Y0139874D01*
X0049333Y0139971D01*
X0049425Y0140065D01*
X0049520Y0140156D01*
X0049617Y0140245D01*
X0049717Y0140330D01*
X0049820Y0140412D01*
X0049925Y0140491D01*
X0050032Y0140567D01*
X0050142Y0140639D01*
X0050254Y0140708D01*
X0050368Y0140774D01*
X0050483Y0140836D01*
X0050601Y0140895D01*
X0050720Y0140950D01*
X0050841Y0141002D01*
X0050964Y0141049D01*
X0051088Y0141093D01*
X0051213Y0141134D01*
X0051339Y0141170D01*
X0051467Y0141203D01*
X0051595Y0141231D01*
X0051724Y0141256D01*
X0051854Y0141277D01*
X0051984Y0141294D01*
X0052115Y0141307D01*
X0052246Y0141316D01*
X0052377Y0141321D01*
X0052509Y0141322D01*
X0052640Y0141319D01*
X0052772Y0141312D01*
X0052903Y0141301D01*
X0053033Y0141286D01*
X0053163Y0141267D01*
X0053293Y0141244D01*
X0053421Y0141218D01*
X0053549Y0141187D01*
X0053676Y0141152D01*
X0053802Y0141114D01*
X0053926Y0141072D01*
X0054050Y0141026D01*
X0054171Y0140976D01*
X0054291Y0140923D01*
X0054410Y0140866D01*
X0054527Y0140806D01*
X0054641Y0140742D01*
X0054754Y0140674D01*
X0054865Y0140603D01*
X0054974Y0140529D01*
X0055080Y0140452D01*
X0055184Y0140371D01*
X0055285Y0140288D01*
X0055384Y0140201D01*
X0055480Y0140111D01*
X0055573Y0140018D01*
X0055664Y0139923D01*
X0055751Y0139825D01*
X0055836Y0139724D01*
X0055917Y0139621D01*
X0055995Y0139515D01*
X0056070Y0139407D01*
X0056142Y0139297D01*
X0056210Y0139185D01*
X0056275Y0139071D01*
X0056336Y0138954D01*
X0056394Y0138836D01*
X0056448Y0138716D01*
X0056499Y0138595D01*
X0056546Y0138472D01*
X0056589Y0138348D01*
X0056628Y0138223D01*
X0056664Y0138096D01*
X0056695Y0137968D01*
X0056723Y0137840D01*
X0056747Y0137711D01*
X0056767Y0137581D01*
X0056783Y0137450D01*
X0056795Y0137319D01*
X0056803Y0137188D01*
X0056807Y0137057D01*
X0056807Y0136925D01*
X0056803Y0136794D01*
X0056795Y0136663D01*
X0056783Y0136532D01*
X0056767Y0136401D01*
X0056747Y0136271D01*
X0056723Y0136142D01*
X0056695Y0136014D01*
X0056664Y0135886D01*
X0056628Y0135759D01*
X0056589Y0135634D01*
X0056546Y0135510D01*
X0056499Y0135387D01*
X0056448Y0135266D01*
X0056394Y0135146D01*
X0056336Y0135028D01*
X0056275Y0134911D01*
X0056210Y0134797D01*
X0056142Y0134685D01*
X0056070Y0134575D01*
X0055995Y0134467D01*
X0055917Y0134361D01*
X0055836Y0134258D01*
X0055751Y0134157D01*
X0055664Y0134059D01*
X0055573Y0133964D01*
X0055480Y0133871D01*
X0055384Y0133781D01*
X0055285Y0133694D01*
X0055184Y0133611D01*
X0055080Y0133530D01*
X0054974Y0133453D01*
X0054865Y0133379D01*
X0054754Y0133308D01*
X0054642Y0133240D01*
X0054527Y0133176D01*
X0054410Y0133116D01*
X0054291Y0133059D01*
X0054171Y0133006D01*
X0054050Y0132956D01*
X0053926Y0132910D01*
X0053802Y0132868D01*
X0053676Y0132830D01*
X0053549Y0132795D01*
X0053421Y0132764D01*
X0053293Y0132738D01*
X0053163Y0132715D01*
X0053033Y0132696D01*
X0052903Y0132681D01*
X0052772Y0132670D01*
X0052640Y0132663D01*
X0052509Y0132660D01*
X0052377Y0132661D01*
X0052246Y0132666D01*
X0052115Y0132675D01*
X0051984Y0132688D01*
X0051854Y0132705D01*
X0051724Y0132726D01*
X0051595Y0132751D01*
X0051467Y0132779D01*
X0051339Y0132812D01*
X0051213Y0132848D01*
X0051088Y0132889D01*
X0050964Y0132933D01*
X0050841Y0132980D01*
X0050720Y0133032D01*
X0050601Y0133087D01*
X0050483Y0133146D01*
X0050368Y0133208D01*
X0050254Y0133274D01*
X0050142Y0133343D01*
X0050032Y0133415D01*
X0049925Y0133491D01*
X0049820Y0133570D01*
X0049717Y0133652D01*
X0049617Y0133737D01*
X0049520Y0133826D01*
X0049425Y0133917D01*
X0049333Y0134011D01*
X0049244Y0134108D01*
X0049158Y0134207D01*
X0049075Y0134309D01*
X0048995Y0134414D01*
X0048919Y0134520D01*
X0048846Y0134629D01*
X0048776Y0134741D01*
X0048709Y0134854D01*
X0048646Y0134969D01*
X0048586Y0135087D01*
X0048530Y0135205D01*
X0048478Y0135326D01*
X0048429Y0135448D01*
X0048384Y0135572D01*
X0048343Y0135696D01*
X0048306Y0135823D01*
X0048272Y0135950D01*
X0048242Y0136078D01*
X0048217Y0136207D01*
X0048195Y0136336D01*
X0048177Y0136466D01*
X0048163Y0136597D01*
X0048153Y0136728D01*
X0048147Y0136860D01*
X0048145Y0136991D01*
X0048145Y0081991D02*
X0048147Y0082122D01*
X0048153Y0082254D01*
X0048163Y0082385D01*
X0048177Y0082516D01*
X0048195Y0082646D01*
X0048217Y0082775D01*
X0048242Y0082904D01*
X0048272Y0083032D01*
X0048306Y0083159D01*
X0048343Y0083286D01*
X0048384Y0083410D01*
X0048429Y0083534D01*
X0048478Y0083656D01*
X0048530Y0083777D01*
X0048586Y0083895D01*
X0048646Y0084013D01*
X0048709Y0084128D01*
X0048776Y0084241D01*
X0048846Y0084353D01*
X0048919Y0084462D01*
X0048995Y0084568D01*
X0049075Y0084673D01*
X0049158Y0084775D01*
X0049244Y0084874D01*
X0049333Y0084971D01*
X0049425Y0085065D01*
X0049520Y0085156D01*
X0049617Y0085245D01*
X0049717Y0085330D01*
X0049820Y0085412D01*
X0049925Y0085491D01*
X0050032Y0085567D01*
X0050142Y0085639D01*
X0050254Y0085708D01*
X0050368Y0085774D01*
X0050483Y0085836D01*
X0050601Y0085895D01*
X0050720Y0085950D01*
X0050841Y0086002D01*
X0050964Y0086049D01*
X0051088Y0086093D01*
X0051213Y0086134D01*
X0051339Y0086170D01*
X0051467Y0086203D01*
X0051595Y0086231D01*
X0051724Y0086256D01*
X0051854Y0086277D01*
X0051984Y0086294D01*
X0052115Y0086307D01*
X0052246Y0086316D01*
X0052377Y0086321D01*
X0052509Y0086322D01*
X0052640Y0086319D01*
X0052772Y0086312D01*
X0052903Y0086301D01*
X0053033Y0086286D01*
X0053163Y0086267D01*
X0053293Y0086244D01*
X0053421Y0086218D01*
X0053549Y0086187D01*
X0053676Y0086152D01*
X0053802Y0086114D01*
X0053926Y0086072D01*
X0054050Y0086026D01*
X0054171Y0085976D01*
X0054291Y0085923D01*
X0054410Y0085866D01*
X0054527Y0085806D01*
X0054641Y0085742D01*
X0054754Y0085674D01*
X0054865Y0085603D01*
X0054974Y0085529D01*
X0055080Y0085452D01*
X0055184Y0085371D01*
X0055285Y0085288D01*
X0055384Y0085201D01*
X0055480Y0085111D01*
X0055573Y0085018D01*
X0055664Y0084923D01*
X0055751Y0084825D01*
X0055836Y0084724D01*
X0055917Y0084621D01*
X0055995Y0084515D01*
X0056070Y0084407D01*
X0056142Y0084297D01*
X0056210Y0084185D01*
X0056275Y0084071D01*
X0056336Y0083954D01*
X0056394Y0083836D01*
X0056448Y0083716D01*
X0056499Y0083595D01*
X0056546Y0083472D01*
X0056589Y0083348D01*
X0056628Y0083223D01*
X0056664Y0083096D01*
X0056695Y0082968D01*
X0056723Y0082840D01*
X0056747Y0082711D01*
X0056767Y0082581D01*
X0056783Y0082450D01*
X0056795Y0082319D01*
X0056803Y0082188D01*
X0056807Y0082057D01*
X0056807Y0081925D01*
X0056803Y0081794D01*
X0056795Y0081663D01*
X0056783Y0081532D01*
X0056767Y0081401D01*
X0056747Y0081271D01*
X0056723Y0081142D01*
X0056695Y0081014D01*
X0056664Y0080886D01*
X0056628Y0080759D01*
X0056589Y0080634D01*
X0056546Y0080510D01*
X0056499Y0080387D01*
X0056448Y0080266D01*
X0056394Y0080146D01*
X0056336Y0080028D01*
X0056275Y0079911D01*
X0056210Y0079797D01*
X0056142Y0079685D01*
X0056070Y0079575D01*
X0055995Y0079467D01*
X0055917Y0079361D01*
X0055836Y0079258D01*
X0055751Y0079157D01*
X0055664Y0079059D01*
X0055573Y0078964D01*
X0055480Y0078871D01*
X0055384Y0078781D01*
X0055285Y0078694D01*
X0055184Y0078611D01*
X0055080Y0078530D01*
X0054974Y0078453D01*
X0054865Y0078379D01*
X0054754Y0078308D01*
X0054642Y0078240D01*
X0054527Y0078176D01*
X0054410Y0078116D01*
X0054291Y0078059D01*
X0054171Y0078006D01*
X0054050Y0077956D01*
X0053926Y0077910D01*
X0053802Y0077868D01*
X0053676Y0077830D01*
X0053549Y0077795D01*
X0053421Y0077764D01*
X0053293Y0077738D01*
X0053163Y0077715D01*
X0053033Y0077696D01*
X0052903Y0077681D01*
X0052772Y0077670D01*
X0052640Y0077663D01*
X0052509Y0077660D01*
X0052377Y0077661D01*
X0052246Y0077666D01*
X0052115Y0077675D01*
X0051984Y0077688D01*
X0051854Y0077705D01*
X0051724Y0077726D01*
X0051595Y0077751D01*
X0051467Y0077779D01*
X0051339Y0077812D01*
X0051213Y0077848D01*
X0051088Y0077889D01*
X0050964Y0077933D01*
X0050841Y0077980D01*
X0050720Y0078032D01*
X0050601Y0078087D01*
X0050483Y0078146D01*
X0050368Y0078208D01*
X0050254Y0078274D01*
X0050142Y0078343D01*
X0050032Y0078415D01*
X0049925Y0078491D01*
X0049820Y0078570D01*
X0049717Y0078652D01*
X0049617Y0078737D01*
X0049520Y0078826D01*
X0049425Y0078917D01*
X0049333Y0079011D01*
X0049244Y0079108D01*
X0049158Y0079207D01*
X0049075Y0079309D01*
X0048995Y0079414D01*
X0048919Y0079520D01*
X0048846Y0079629D01*
X0048776Y0079741D01*
X0048709Y0079854D01*
X0048646Y0079969D01*
X0048586Y0080087D01*
X0048530Y0080205D01*
X0048478Y0080326D01*
X0048429Y0080448D01*
X0048384Y0080572D01*
X0048343Y0080696D01*
X0048306Y0080823D01*
X0048272Y0080950D01*
X0048242Y0081078D01*
X0048217Y0081207D01*
X0048195Y0081336D01*
X0048177Y0081466D01*
X0048163Y0081597D01*
X0048153Y0081728D01*
X0048147Y0081860D01*
X0048145Y0081991D01*
X0264339Y0179825D02*
X0264720Y0179820D01*
X0265100Y0179807D01*
X0265480Y0179784D01*
X0265859Y0179751D01*
X0266237Y0179710D01*
X0266614Y0179660D01*
X0266990Y0179600D01*
X0267365Y0179532D01*
X0267737Y0179454D01*
X0268108Y0179367D01*
X0268476Y0179272D01*
X0268842Y0179167D01*
X0269205Y0179054D01*
X0269566Y0178932D01*
X0269923Y0178802D01*
X0270277Y0178662D01*
X0270628Y0178515D01*
X0270975Y0178358D01*
X0271318Y0178194D01*
X0271657Y0178021D01*
X0271992Y0177840D01*
X0272323Y0177651D01*
X0272648Y0177454D01*
X0272969Y0177250D01*
X0273285Y0177037D01*
X0273595Y0176817D01*
X0273901Y0176590D01*
X0274200Y0176355D01*
X0274494Y0176113D01*
X0274782Y0175865D01*
X0275064Y0175609D01*
X0275339Y0175346D01*
X0275608Y0175077D01*
X0275871Y0174802D01*
X0276127Y0174520D01*
X0276375Y0174232D01*
X0276617Y0173938D01*
X0276852Y0173639D01*
X0277079Y0173333D01*
X0277299Y0173023D01*
X0277512Y0172707D01*
X0277716Y0172386D01*
X0277913Y0172061D01*
X0278102Y0171730D01*
X0278283Y0171395D01*
X0278456Y0171056D01*
X0278620Y0170713D01*
X0278777Y0170366D01*
X0278924Y0170015D01*
X0279064Y0169661D01*
X0279194Y0169304D01*
X0279316Y0168943D01*
X0279429Y0168580D01*
X0279534Y0168214D01*
X0279629Y0167846D01*
X0279716Y0167475D01*
X0279794Y0167103D01*
X0279862Y0166728D01*
X0279922Y0166352D01*
X0279972Y0165975D01*
X0280013Y0165597D01*
X0280046Y0165218D01*
X0280069Y0164838D01*
X0280082Y0164458D01*
X0280087Y0164077D01*
D13*
X0206476Y0095633D03*
X0203917Y0088349D03*
X0209035Y0088349D03*
D14*
X0225358Y0121251D03*
X0225358Y0128731D03*
X0235594Y0128731D03*
X0235594Y0124991D03*
X0235594Y0121251D03*
D15*
X0238524Y0096991D03*
X0244429Y0096991D03*
D16*
X0244035Y0089491D03*
X0238917Y0089491D03*
X0229035Y0089491D03*
X0223917Y0089491D03*
X0223917Y0096991D03*
X0229035Y0096991D03*
D17*
X0172476Y0079491D03*
X0162476Y0079491D03*
X0152476Y0079491D03*
X0142476Y0079491D03*
X0132476Y0079491D03*
X0122476Y0079491D03*
X0112476Y0079491D03*
X0102476Y0079491D03*
X0092476Y0079491D03*
X0082476Y0079491D03*
X0072476Y0079491D03*
X0062476Y0079491D03*
X0122476Y0089491D03*
X0132476Y0089491D03*
X0132476Y0139491D03*
X0122476Y0139491D03*
X0112476Y0139491D03*
X0102476Y0139491D03*
X0092476Y0139491D03*
X0082476Y0139491D03*
X0072476Y0139491D03*
X0062476Y0139491D03*
X0142476Y0139491D03*
X0152476Y0139491D03*
X0162476Y0139491D03*
X0172476Y0139491D03*
D18*
X0168976Y0161491D02*
X0168976Y0167491D01*
X0158976Y0167491D02*
X0158976Y0161491D01*
X0148976Y0161491D02*
X0148976Y0167491D01*
X0138976Y0167491D02*
X0138976Y0161491D01*
X0128976Y0161491D02*
X0128976Y0167491D01*
X0118976Y0167491D02*
X0118976Y0161491D01*
X0108976Y0161491D02*
X0108976Y0167491D01*
X0098976Y0167491D02*
X0098976Y0161491D01*
X0088976Y0161491D02*
X0088976Y0167491D01*
X0078976Y0167491D02*
X0078976Y0161491D01*
X0178976Y0161491D02*
X0178976Y0167491D01*
X0188976Y0167491D02*
X0188976Y0161491D01*
X0188976Y0052491D02*
X0188976Y0046491D01*
X0178976Y0046491D02*
X0178976Y0052491D01*
X0168976Y0052491D02*
X0168976Y0046491D01*
X0158976Y0046491D02*
X0158976Y0052491D01*
X0148976Y0052491D02*
X0148976Y0046491D01*
X0138976Y0046491D02*
X0138976Y0052491D01*
X0128976Y0052491D02*
X0128976Y0046491D01*
X0118976Y0046491D02*
X0118976Y0052491D01*
X0108976Y0052491D02*
X0108976Y0046491D01*
X0098976Y0046491D02*
X0098976Y0052491D01*
X0088976Y0052491D02*
X0088976Y0046491D01*
X0078976Y0046491D02*
X0078976Y0052491D01*
D19*
X0177264Y0063684D03*
X0185138Y0063684D03*
X0193012Y0063684D03*
X0200886Y0063684D03*
X0208760Y0063684D03*
X0216634Y0063684D03*
X0224508Y0063684D03*
X0232382Y0063684D03*
X0240256Y0063684D03*
X0240256Y0150298D03*
X0232382Y0150298D03*
X0224508Y0150298D03*
X0216634Y0150298D03*
X0208760Y0150298D03*
X0200886Y0150298D03*
X0193012Y0150298D03*
X0185138Y0150298D03*
X0177264Y0150298D03*
X0248130Y0150298D03*
D20*
X0248130Y0063684D03*
D21*
X0266476Y0084491D03*
X0266476Y0094491D03*
D22*
X0271027Y0096833D02*
X0278287Y0096833D01*
X0278287Y0098431D02*
X0269748Y0098431D01*
X0269365Y0098814D02*
X0267491Y0099591D01*
X0265462Y0099591D01*
X0263587Y0098814D01*
X0262153Y0097380D01*
X0261376Y0095505D01*
X0261376Y0093476D01*
X0262153Y0091602D01*
X0263587Y0090167D01*
X0264713Y0089701D01*
X0264365Y0089588D01*
X0263594Y0089195D01*
X0262893Y0088686D01*
X0262281Y0088074D01*
X0261772Y0087373D01*
X0261379Y0086602D01*
X0261112Y0085779D01*
X0260976Y0084924D01*
X0260976Y0084491D01*
X0266476Y0084491D01*
X0266476Y0084491D01*
X0260976Y0084491D01*
X0260976Y0084058D01*
X0261112Y0083203D01*
X0261379Y0082380D01*
X0261772Y0081608D01*
X0262281Y0080908D01*
X0262893Y0080296D01*
X0263594Y0079787D01*
X0264365Y0079394D01*
X0265188Y0079126D01*
X0266044Y0078991D01*
X0266476Y0078991D01*
X0266476Y0084491D01*
X0266476Y0084491D01*
X0266477Y0084491D02*
X0271976Y0084491D01*
X0271976Y0084924D01*
X0271841Y0085779D01*
X0271573Y0086602D01*
X0271180Y0087373D01*
X0270672Y0088074D01*
X0270059Y0088686D01*
X0269359Y0089195D01*
X0268588Y0089588D01*
X0268240Y0089701D01*
X0269365Y0090167D01*
X0270800Y0091602D01*
X0271576Y0093476D01*
X0271576Y0095505D01*
X0270800Y0097380D01*
X0269365Y0098814D01*
X0271576Y0095234D02*
X0278287Y0095234D01*
X0278287Y0093636D02*
X0271576Y0093636D01*
X0270980Y0092037D02*
X0278287Y0092037D01*
X0278287Y0090439D02*
X0269637Y0090439D01*
X0269847Y0088840D02*
X0278287Y0088840D01*
X0278287Y0087242D02*
X0271248Y0087242D01*
X0271862Y0085643D02*
X0278287Y0085643D01*
X0278287Y0084045D02*
X0271974Y0084045D01*
X0271976Y0084058D02*
X0271976Y0084491D01*
X0266477Y0084491D01*
X0266477Y0084491D01*
X0266476Y0084491D02*
X0266476Y0078991D01*
X0266909Y0078991D01*
X0267764Y0079126D01*
X0268588Y0079394D01*
X0269359Y0079787D01*
X0270059Y0080296D01*
X0270672Y0080908D01*
X0271180Y0081608D01*
X0271573Y0082380D01*
X0271841Y0083203D01*
X0271976Y0084058D01*
X0271595Y0082446D02*
X0278287Y0082446D01*
X0278287Y0080848D02*
X0270611Y0080848D01*
X0268142Y0079249D02*
X0278287Y0079249D01*
X0278287Y0077651D02*
X0176745Y0077651D01*
X0176417Y0076858D02*
X0177124Y0078566D01*
X0177124Y0080415D01*
X0176417Y0082124D01*
X0175109Y0083431D01*
X0173401Y0084139D01*
X0171552Y0084139D01*
X0169843Y0083431D01*
X0168536Y0082124D01*
X0167828Y0080415D01*
X0167828Y0078566D01*
X0168536Y0076858D01*
X0169843Y0075550D01*
X0171552Y0074843D01*
X0173401Y0074843D01*
X0175109Y0075550D01*
X0176417Y0076858D01*
X0175611Y0076052D02*
X0278287Y0076052D01*
X0278287Y0074454D02*
X0120580Y0074454D01*
X0121026Y0074900D02*
X0121026Y0075060D01*
X0121552Y0074843D01*
X0123401Y0074843D01*
X0125109Y0075550D01*
X0126417Y0076858D01*
X0127124Y0078566D01*
X0127124Y0080415D01*
X0126417Y0082124D01*
X0125109Y0083431D01*
X0123401Y0084139D01*
X0121552Y0084139D01*
X0121026Y0083921D01*
X0121026Y0084031D01*
X0119767Y0085291D01*
X0117526Y0087531D01*
X0117526Y0115181D01*
X0116267Y0116441D01*
X0096133Y0136574D01*
X0096417Y0136858D01*
X0097124Y0138566D01*
X0097124Y0140415D01*
X0096417Y0142124D01*
X0096133Y0142407D01*
X0098276Y0144550D01*
X0098276Y0155050D01*
X0099676Y0156450D01*
X0099676Y0156800D01*
X0100048Y0157172D01*
X0101469Y0157761D01*
X0102707Y0158998D01*
X0103376Y0160616D01*
X0103376Y0168366D01*
X0102707Y0169983D01*
X0101469Y0171221D01*
X0099852Y0171891D01*
X0098101Y0171891D01*
X0096484Y0171221D01*
X0095246Y0169983D01*
X0094576Y0168366D01*
X0094576Y0160616D01*
X0095246Y0158998D01*
X0095520Y0158725D01*
X0095376Y0158581D01*
X0095376Y0158231D01*
X0095236Y0158091D01*
X0093976Y0156831D01*
X0093976Y0146331D01*
X0091784Y0144139D01*
X0091552Y0144139D01*
X0089843Y0143431D01*
X0088536Y0142124D01*
X0087828Y0140415D01*
X0087828Y0138566D01*
X0088536Y0136858D01*
X0089843Y0135550D01*
X0091552Y0134843D01*
X0091784Y0134843D01*
X0113226Y0113400D01*
X0113226Y0091986D01*
X0113094Y0092041D01*
X0112059Y0092041D01*
X0111104Y0091645D01*
X0110372Y0090914D01*
X0109976Y0089958D01*
X0109976Y0089386D01*
X0104340Y0083750D01*
X0103401Y0084139D01*
X0101552Y0084139D01*
X0099843Y0083431D01*
X0098536Y0082124D01*
X0097828Y0080415D01*
X0097828Y0078566D01*
X0098536Y0076858D01*
X0099843Y0075550D01*
X0101552Y0074843D01*
X0103401Y0074843D01*
X0104800Y0075422D01*
X0105176Y0075045D01*
X0105176Y0070936D01*
X0090756Y0056516D01*
X0089852Y0056891D01*
X0088101Y0056891D01*
X0086484Y0056221D01*
X0085246Y0054983D01*
X0084576Y0053366D01*
X0084576Y0045616D01*
X0085246Y0043998D01*
X0086484Y0042761D01*
X0088101Y0042091D01*
X0089852Y0042091D01*
X0091469Y0042761D01*
X0092707Y0043998D01*
X0093376Y0045616D01*
X0093376Y0053366D01*
X0093177Y0053846D01*
X0107722Y0068391D01*
X0108776Y0069445D01*
X0108776Y0076536D01*
X0108472Y0076841D01*
X0108522Y0076891D01*
X0108536Y0076858D01*
X0109843Y0075550D01*
X0111552Y0074843D01*
X0113401Y0074843D01*
X0115109Y0075550D01*
X0115943Y0076384D01*
X0116186Y0076141D01*
X0115676Y0075631D01*
X0115676Y0072131D01*
X0100265Y0056720D01*
X0099852Y0056891D01*
X0098101Y0056891D01*
X0096484Y0056221D01*
X0095246Y0054983D01*
X0094576Y0053366D01*
X0094576Y0045616D01*
X0095246Y0043998D01*
X0096484Y0042761D01*
X0098101Y0042091D01*
X0099852Y0042091D01*
X0101469Y0042761D01*
X0102707Y0043998D01*
X0103376Y0045616D01*
X0103376Y0053366D01*
X0103264Y0053638D01*
X0118017Y0068391D01*
X0244336Y0068391D01*
X0244843Y0067884D01*
X0244750Y0067884D01*
X0243930Y0067064D01*
X0243930Y0065789D01*
X0243816Y0066063D01*
X0242635Y0067244D01*
X0241091Y0067884D01*
X0239420Y0067884D01*
X0237877Y0067244D01*
X0236695Y0066063D01*
X0236319Y0065154D01*
X0235942Y0066063D01*
X0234761Y0067244D01*
X0233217Y0067884D01*
X0231546Y0067884D01*
X0230003Y0067244D01*
X0228821Y0066063D01*
X0228445Y0065154D01*
X0228068Y0066063D01*
X0226887Y0067244D01*
X0225343Y0067884D01*
X0223672Y0067884D01*
X0222129Y0067244D01*
X0220947Y0066063D01*
X0220571Y0065154D01*
X0220194Y0066063D01*
X0219013Y0067244D01*
X0217469Y0067884D01*
X0215798Y0067884D01*
X0214255Y0067244D01*
X0213073Y0066063D01*
X0212697Y0065154D01*
X0212320Y0066063D01*
X0211139Y0067244D01*
X0209595Y0067884D01*
X0207924Y0067884D01*
X0206381Y0067244D01*
X0205199Y0066063D01*
X0204823Y0065154D01*
X0204446Y0066063D01*
X0203265Y0067244D01*
X0201721Y0067884D01*
X0200050Y0067884D01*
X0198507Y0067244D01*
X0197325Y0066063D01*
X0196949Y0065154D01*
X0196572Y0066063D01*
X0195391Y0067244D01*
X0193847Y0067884D01*
X0192176Y0067884D01*
X0190633Y0067244D01*
X0189451Y0066063D01*
X0189075Y0065154D01*
X0188698Y0066063D01*
X0187517Y0067244D01*
X0185973Y0067884D01*
X0184302Y0067884D01*
X0182759Y0067244D01*
X0181577Y0066063D01*
X0181414Y0065670D01*
X0181198Y0066095D01*
X0180772Y0066680D01*
X0180260Y0067192D01*
X0179675Y0067618D01*
X0179030Y0067947D01*
X0178341Y0068170D01*
X0177626Y0068284D01*
X0177264Y0068284D01*
X0177264Y0063684D01*
X0177264Y0063684D01*
X0177264Y0068284D01*
X0176902Y0068284D01*
X0176187Y0068170D01*
X0175498Y0067947D01*
X0174853Y0067618D01*
X0174267Y0067192D01*
X0173755Y0066680D01*
X0173330Y0066095D01*
X0173001Y0065450D01*
X0172777Y0064761D01*
X0172664Y0064046D01*
X0172664Y0063684D01*
X0177264Y0063684D01*
X0177264Y0063684D01*
X0177264Y0059084D01*
X0177626Y0059084D01*
X0178341Y0059197D01*
X0179030Y0059421D01*
X0179675Y0059749D01*
X0180260Y0060175D01*
X0180772Y0060687D01*
X0181198Y0061273D01*
X0181414Y0061698D01*
X0181577Y0061305D01*
X0182759Y0060123D01*
X0184302Y0059484D01*
X0185973Y0059484D01*
X0187517Y0060123D01*
X0188698Y0061305D01*
X0189075Y0062213D01*
X0189451Y0061305D01*
X0190633Y0060123D01*
X0192176Y0059484D01*
X0193847Y0059484D01*
X0193876Y0059496D01*
X0204576Y0048795D01*
X0205631Y0047741D01*
X0212549Y0047741D01*
X0212954Y0047337D01*
X0213909Y0046941D01*
X0214944Y0046941D01*
X0215899Y0047337D01*
X0216631Y0048068D01*
X0217026Y0049024D01*
X0217026Y0050058D01*
X0216631Y0051014D01*
X0215899Y0051745D01*
X0214944Y0052141D01*
X0213909Y0052141D01*
X0212954Y0051745D01*
X0212549Y0051341D01*
X0207122Y0051341D01*
X0196744Y0061719D01*
X0196949Y0062213D01*
X0197325Y0061305D01*
X0198507Y0060123D01*
X0200050Y0059484D01*
X0201721Y0059484D01*
X0203265Y0060123D01*
X0204446Y0061305D01*
X0204823Y0062213D01*
X0205199Y0061305D01*
X0206381Y0060123D01*
X0207924Y0059484D01*
X0209595Y0059484D01*
X0211139Y0060123D01*
X0212320Y0061305D01*
X0212697Y0062213D01*
X0213073Y0061305D01*
X0214255Y0060123D01*
X0215798Y0059484D01*
X0217469Y0059484D01*
X0219013Y0060123D01*
X0220194Y0061305D01*
X0220571Y0062213D01*
X0220947Y0061305D01*
X0222129Y0060123D01*
X0223672Y0059484D01*
X0225343Y0059484D01*
X0226887Y0060123D01*
X0228068Y0061305D01*
X0228445Y0062213D01*
X0228821Y0061305D01*
X0230003Y0060123D01*
X0231546Y0059484D01*
X0233217Y0059484D01*
X0234761Y0060123D01*
X0235942Y0061305D01*
X0236319Y0062213D01*
X0236695Y0061305D01*
X0237877Y0060123D01*
X0239420Y0059484D01*
X0241091Y0059484D01*
X0242635Y0060123D01*
X0243816Y0061305D01*
X0243930Y0061578D01*
X0243930Y0060304D01*
X0244750Y0059484D01*
X0251510Y0059484D01*
X0252330Y0060304D01*
X0252330Y0067064D01*
X0251510Y0067884D01*
X0250176Y0067884D01*
X0250176Y0068631D01*
X0247376Y0071431D01*
X0246117Y0072691D01*
X0119976Y0072691D01*
X0119976Y0073850D01*
X0121026Y0074900D01*
X0119976Y0072855D02*
X0278287Y0072855D01*
X0278287Y0071257D02*
X0247551Y0071257D01*
X0249150Y0069658D02*
X0278287Y0069658D01*
X0278287Y0068060D02*
X0250176Y0068060D01*
X0252330Y0066461D02*
X0278287Y0066461D01*
X0278287Y0064863D02*
X0252330Y0064863D01*
X0252330Y0063264D02*
X0278287Y0063264D01*
X0278287Y0062515D02*
X0264637Y0062515D01*
X0264612Y0062537D01*
X0264310Y0062515D01*
X0264007Y0062515D01*
X0263984Y0062492D01*
X0262866Y0062412D01*
X0262811Y0062447D01*
X0262544Y0062389D01*
X0262270Y0062369D01*
X0262227Y0062320D01*
X0261101Y0062075D01*
X0261042Y0062102D01*
X0260785Y0062006D01*
X0260517Y0061948D01*
X0260482Y0061893D01*
X0259402Y0061490D01*
X0259340Y0061509D01*
X0259099Y0061377D01*
X0258842Y0061282D01*
X0258815Y0061222D01*
X0257803Y0060670D01*
X0257739Y0060679D01*
X0257519Y0060515D01*
X0257279Y0060384D01*
X0257260Y0060321D01*
X0256338Y0059630D01*
X0256273Y0059630D01*
X0256079Y0059437D01*
X0255859Y0059272D01*
X0255850Y0059208D01*
X0255035Y0058393D01*
X0254971Y0058383D01*
X0254806Y0058164D01*
X0254612Y0057970D01*
X0254612Y0057905D01*
X0253922Y0056982D01*
X0253859Y0056964D01*
X0253728Y0056723D01*
X0253564Y0056504D01*
X0253573Y0056439D01*
X0253020Y0055428D01*
X0252961Y0055401D01*
X0252865Y0055144D01*
X0252734Y0054903D01*
X0252752Y0054841D01*
X0252349Y0053761D01*
X0252295Y0053726D01*
X0252236Y0053458D01*
X0252141Y0053201D01*
X0252168Y0053142D01*
X0251923Y0052015D01*
X0251873Y0051973D01*
X0251854Y0051699D01*
X0251796Y0051431D01*
X0251831Y0051377D01*
X0251751Y0050259D01*
X0251728Y0050236D01*
X0251728Y0049933D01*
X0251706Y0049631D01*
X0251728Y0049606D01*
X0251728Y0035956D01*
X0072225Y0035956D01*
X0072225Y0049606D01*
X0072247Y0049631D01*
X0072225Y0049933D01*
X0072225Y0050236D01*
X0072202Y0050259D01*
X0072122Y0051377D01*
X0072157Y0051431D01*
X0072099Y0051699D01*
X0072079Y0051973D01*
X0072030Y0052015D01*
X0071785Y0053142D01*
X0071812Y0053201D01*
X0071716Y0053458D01*
X0071658Y0053726D01*
X0071603Y0053761D01*
X0071200Y0054841D01*
X0071219Y0054903D01*
X0071087Y0055144D01*
X0070992Y0055401D01*
X0070932Y0055428D01*
X0070380Y0056439D01*
X0070389Y0056504D01*
X0070225Y0056723D01*
X0070094Y0056964D01*
X0070031Y0056982D01*
X0069340Y0057905D01*
X0069340Y0057970D01*
X0069146Y0058164D01*
X0068982Y0058383D01*
X0068918Y0058393D01*
X0068103Y0059208D01*
X0068093Y0059272D01*
X0067874Y0059437D01*
X0067680Y0059630D01*
X0067615Y0059630D01*
X0066692Y0060321D01*
X0066674Y0060384D01*
X0066433Y0060515D01*
X0066214Y0060679D01*
X0066149Y0060670D01*
X0065138Y0061222D01*
X0065111Y0061282D01*
X0064854Y0061377D01*
X0064613Y0061509D01*
X0064551Y0061490D01*
X0063471Y0061893D01*
X0063436Y0061948D01*
X0063168Y0062006D01*
X0062911Y0062102D01*
X0062852Y0062075D01*
X0061725Y0062320D01*
X0061683Y0062369D01*
X0061409Y0062389D01*
X0061141Y0062447D01*
X0061087Y0062412D01*
X0059969Y0062492D01*
X0059946Y0062515D01*
X0059643Y0062515D01*
X0059341Y0062537D01*
X0059316Y0062515D01*
X0045666Y0062515D01*
X0045666Y0151466D01*
X0059316Y0151466D01*
X0059341Y0151445D01*
X0059643Y0151466D01*
X0059946Y0151466D01*
X0059969Y0151490D01*
X0061087Y0151570D01*
X0061141Y0151534D01*
X0061409Y0151593D01*
X0061683Y0151612D01*
X0061725Y0151662D01*
X0062852Y0151907D01*
X0062911Y0151879D01*
X0063168Y0151975D01*
X0063436Y0152034D01*
X0063471Y0152088D01*
X0064551Y0152491D01*
X0064613Y0152473D01*
X0064854Y0152604D01*
X0065111Y0152700D01*
X0065138Y0152759D01*
X0066149Y0153312D01*
X0066214Y0153302D01*
X0066433Y0153467D01*
X0066674Y0153598D01*
X0066692Y0153660D01*
X0067615Y0154351D01*
X0067680Y0154351D01*
X0067874Y0154545D01*
X0068093Y0154709D01*
X0068103Y0154774D01*
X0068918Y0155589D01*
X0068982Y0155598D01*
X0069146Y0155818D01*
X0069340Y0156011D01*
X0069340Y0156077D01*
X0070031Y0156999D01*
X0070094Y0157018D01*
X0070225Y0157258D01*
X0070389Y0157478D01*
X0070380Y0157542D01*
X0070932Y0158554D01*
X0070992Y0158581D01*
X0071087Y0158838D01*
X0071219Y0159078D01*
X0071200Y0159141D01*
X0071603Y0160221D01*
X0071658Y0160256D01*
X0071716Y0160524D01*
X0071812Y0160781D01*
X0071785Y0160840D01*
X0072030Y0161966D01*
X0072079Y0162009D01*
X0072099Y0162282D01*
X0072157Y0162550D01*
X0072122Y0162605D01*
X0072202Y0163723D01*
X0072225Y0163746D01*
X0072225Y0164049D01*
X0072247Y0164351D01*
X0072225Y0164376D01*
X0072225Y0178025D01*
X0251728Y0178025D01*
X0251728Y0164376D01*
X0251706Y0164351D01*
X0251728Y0164049D01*
X0251728Y0163746D01*
X0251751Y0163723D01*
X0251831Y0162605D01*
X0251796Y0162550D01*
X0251854Y0162282D01*
X0251873Y0162009D01*
X0251923Y0161966D01*
X0252168Y0160840D01*
X0252141Y0160781D01*
X0252236Y0160524D01*
X0252295Y0160256D01*
X0252349Y0160221D01*
X0252752Y0159141D01*
X0252734Y0159078D01*
X0252865Y0158838D01*
X0252961Y0158581D01*
X0253020Y0158554D01*
X0253573Y0157542D01*
X0253564Y0157478D01*
X0253728Y0157258D01*
X0253859Y0157018D01*
X0253922Y0156999D01*
X0254612Y0156077D01*
X0254612Y0156011D01*
X0254806Y0155818D01*
X0254971Y0155598D01*
X0255035Y0155589D01*
X0255850Y0154774D01*
X0255859Y0154709D01*
X0256079Y0154545D01*
X0256273Y0154351D01*
X0256338Y0154351D01*
X0257260Y0153660D01*
X0257279Y0153598D01*
X0257519Y0153467D01*
X0257739Y0153302D01*
X0257803Y0153312D01*
X0258815Y0152759D01*
X0258842Y0152700D01*
X0259099Y0152604D01*
X0259340Y0152473D01*
X0259402Y0152491D01*
X0260482Y0152088D01*
X0260517Y0152034D01*
X0260785Y0151975D01*
X0261042Y0151879D01*
X0261101Y0151907D01*
X0262227Y0151662D01*
X0262270Y0151612D01*
X0262544Y0151593D01*
X0262811Y0151534D01*
X0262866Y0151570D01*
X0263984Y0151490D01*
X0264007Y0151466D01*
X0264310Y0151466D01*
X0264612Y0151445D01*
X0264637Y0151466D01*
X0278287Y0151466D01*
X0278287Y0133188D01*
X0277678Y0133796D01*
X0258408Y0133796D01*
X0257588Y0132976D01*
X0257588Y0132191D01*
X0242822Y0132191D01*
X0241076Y0133936D01*
X0240022Y0134991D01*
X0221031Y0134991D01*
X0208301Y0122261D01*
X0206436Y0124127D01*
X0206131Y0124864D01*
X0205399Y0125595D01*
X0204444Y0125991D01*
X0203409Y0125991D01*
X0202454Y0125595D01*
X0201722Y0124864D01*
X0201326Y0123908D01*
X0201326Y0123686D01*
X0200381Y0122741D01*
X0159253Y0122741D01*
X0158849Y0123145D01*
X0158691Y0123210D01*
X0166522Y0131041D01*
X0176322Y0131041D01*
X0185672Y0140391D01*
X0186244Y0140391D01*
X0187199Y0140787D01*
X0187931Y0141518D01*
X0188326Y0142474D01*
X0188326Y0143508D01*
X0187931Y0144464D01*
X0187199Y0145195D01*
X0186244Y0145591D01*
X0185209Y0145591D01*
X0184254Y0145195D01*
X0183522Y0144464D01*
X0183126Y0143508D01*
X0183126Y0142936D01*
X0174831Y0134641D01*
X0165031Y0134641D01*
X0163976Y0133586D01*
X0149031Y0118641D01*
X0148459Y0118641D01*
X0147504Y0118245D01*
X0146772Y0117514D01*
X0146376Y0116558D01*
X0146376Y0115524D01*
X0146772Y0114568D01*
X0147504Y0113837D01*
X0148459Y0113441D01*
X0149256Y0113441D01*
X0148779Y0112964D01*
X0147846Y0110710D01*
X0147846Y0108271D01*
X0148779Y0106018D01*
X0150504Y0104293D01*
X0152757Y0103360D01*
X0155196Y0103360D01*
X0157449Y0104293D01*
X0159174Y0106018D01*
X0160107Y0108271D01*
X0160107Y0110710D01*
X0159174Y0112964D01*
X0157449Y0114688D01*
X0155196Y0115622D01*
X0152757Y0115622D01*
X0151381Y0115052D01*
X0151576Y0115524D01*
X0151576Y0116095D01*
X0155107Y0119626D01*
X0155172Y0119468D01*
X0155904Y0118737D01*
X0156859Y0118341D01*
X0157894Y0118341D01*
X0158849Y0118737D01*
X0159253Y0119141D01*
X0201872Y0119141D01*
X0203522Y0120791D01*
X0204444Y0120791D01*
X0204611Y0120860D01*
X0207511Y0117960D01*
X0207354Y0117895D01*
X0206622Y0117164D01*
X0206226Y0116208D01*
X0206226Y0115636D01*
X0204576Y0113986D01*
X0204576Y0098410D01*
X0204519Y0098410D01*
X0203698Y0097590D01*
X0203698Y0093675D01*
X0204519Y0092855D01*
X0208434Y0092855D01*
X0209254Y0093675D01*
X0209254Y0097590D01*
X0208434Y0098410D01*
X0208176Y0098410D01*
X0208176Y0112495D01*
X0208772Y0113091D01*
X0209344Y0113091D01*
X0210299Y0113487D01*
X0211031Y0114218D01*
X0211096Y0114376D01*
X0218706Y0106766D01*
X0218581Y0106641D01*
X0217526Y0105586D01*
X0217526Y0090095D01*
X0218576Y0089045D01*
X0219631Y0087991D01*
X0221139Y0087991D01*
X0221139Y0087139D01*
X0221959Y0086319D01*
X0222076Y0086319D01*
X0222076Y0084845D01*
X0223826Y0083095D01*
X0224881Y0082041D01*
X0232672Y0082041D01*
X0236955Y0086324D01*
X0236959Y0086319D01*
X0240875Y0086319D01*
X0241476Y0086920D01*
X0242078Y0086319D01*
X0245993Y0086319D01*
X0246813Y0087139D01*
X0246813Y0091842D01*
X0245993Y0092662D01*
X0245976Y0092662D01*
X0245976Y0094016D01*
X0246584Y0094016D01*
X0247404Y0094836D01*
X0247404Y0099146D01*
X0246584Y0099966D01*
X0242274Y0099966D01*
X0241476Y0099168D01*
X0240678Y0099966D01*
X0240376Y0099966D01*
X0240376Y0108386D01*
X0239326Y0109436D01*
X0239326Y0117045D01*
X0242472Y0120191D01*
X0243526Y0121245D01*
X0243526Y0128336D01*
X0243272Y0128591D01*
X0257588Y0128591D01*
X0257588Y0127879D01*
X0258408Y0127059D01*
X0277678Y0127059D01*
X0278287Y0127668D01*
X0278287Y0125880D01*
X0278204Y0125963D01*
X0277793Y0126200D01*
X0277335Y0126322D01*
X0268228Y0126322D01*
X0268228Y0122738D01*
X0267859Y0122738D01*
X0267859Y0122370D01*
X0257188Y0122370D01*
X0257188Y0120348D01*
X0257311Y0119891D01*
X0257548Y0119480D01*
X0257883Y0119145D01*
X0258293Y0118908D01*
X0258751Y0118785D01*
X0267859Y0118785D01*
X0267859Y0122369D01*
X0268228Y0122369D01*
X0268228Y0118785D01*
X0277335Y0118785D01*
X0277793Y0118908D01*
X0278204Y0119145D01*
X0278287Y0119228D01*
X0278287Y0062515D01*
X0259871Y0061666D02*
X0252330Y0061666D01*
X0252093Y0060067D02*
X0256921Y0060067D01*
X0255111Y0058468D02*
X0199994Y0058468D01*
X0198642Y0060067D02*
X0198396Y0060067D01*
X0197176Y0061666D02*
X0196797Y0061666D01*
X0194903Y0058468D02*
X0108095Y0058468D01*
X0108101Y0056891D02*
X0106484Y0056221D01*
X0105246Y0054983D01*
X0104576Y0053366D01*
X0104576Y0045616D01*
X0105246Y0043998D01*
X0106484Y0042761D01*
X0108101Y0042091D01*
X0109852Y0042091D01*
X0111469Y0042761D01*
X0112707Y0043998D01*
X0113376Y0045616D01*
X0113376Y0053366D01*
X0112707Y0054983D01*
X0111469Y0056221D01*
X0109852Y0056891D01*
X0108101Y0056891D01*
X0108051Y0056870D02*
X0106496Y0056870D01*
X0105534Y0055271D02*
X0104898Y0055271D01*
X0104704Y0053673D02*
X0103299Y0053673D01*
X0103376Y0052074D02*
X0104576Y0052074D01*
X0104576Y0050476D02*
X0103376Y0050476D01*
X0103376Y0048877D02*
X0104576Y0048877D01*
X0104576Y0047279D02*
X0103376Y0047279D01*
X0103376Y0045680D02*
X0104576Y0045680D01*
X0105212Y0044082D02*
X0102741Y0044082D01*
X0100799Y0042483D02*
X0107153Y0042483D01*
X0110799Y0042483D02*
X0117153Y0042483D01*
X0116484Y0042761D02*
X0118101Y0042091D01*
X0119852Y0042091D01*
X0121469Y0042761D01*
X0122707Y0043998D01*
X0123376Y0045616D01*
X0123376Y0053366D01*
X0122707Y0054983D01*
X0121469Y0056221D01*
X0119852Y0056891D01*
X0118101Y0056891D01*
X0116484Y0056221D01*
X0115246Y0054983D01*
X0114576Y0053366D01*
X0114576Y0045616D01*
X0115246Y0043998D01*
X0116484Y0042761D01*
X0115212Y0044082D02*
X0112741Y0044082D01*
X0113376Y0045680D02*
X0114576Y0045680D01*
X0114576Y0047279D02*
X0113376Y0047279D01*
X0113376Y0048877D02*
X0114576Y0048877D01*
X0114576Y0050476D02*
X0113376Y0050476D01*
X0113376Y0052074D02*
X0114576Y0052074D01*
X0114704Y0053673D02*
X0113249Y0053673D01*
X0112418Y0055271D02*
X0115534Y0055271D01*
X0118051Y0056870D02*
X0109902Y0056870D01*
X0109693Y0060067D02*
X0174416Y0060067D01*
X0174267Y0060175D02*
X0174853Y0059749D01*
X0175498Y0059421D01*
X0176187Y0059197D01*
X0176902Y0059084D01*
X0177264Y0059084D01*
X0177264Y0063684D01*
X0177264Y0063684D01*
X0172664Y0063684D01*
X0172664Y0063322D01*
X0172777Y0062607D01*
X0173001Y0061918D01*
X0173330Y0061273D01*
X0173755Y0060687D01*
X0174267Y0060175D01*
X0173129Y0061666D02*
X0111292Y0061666D01*
X0112890Y0063264D02*
X0172673Y0063264D01*
X0172810Y0064863D02*
X0114489Y0064863D01*
X0116087Y0066461D02*
X0173596Y0066461D01*
X0175845Y0068060D02*
X0117686Y0068060D01*
X0114802Y0071257D02*
X0108776Y0071257D01*
X0108776Y0072855D02*
X0115676Y0072855D01*
X0115676Y0074454D02*
X0108776Y0074454D01*
X0108776Y0076052D02*
X0109342Y0076052D01*
X0105176Y0074454D02*
X0045666Y0074454D01*
X0045666Y0076052D02*
X0050793Y0076052D01*
X0051257Y0075860D02*
X0053696Y0075860D01*
X0055949Y0076793D01*
X0057674Y0078518D01*
X0057828Y0078891D01*
X0057828Y0078566D01*
X0058536Y0076858D01*
X0059843Y0075550D01*
X0061552Y0074843D01*
X0063401Y0074843D01*
X0065109Y0075550D01*
X0066417Y0076858D01*
X0067124Y0078566D01*
X0067124Y0080415D01*
X0066417Y0082124D01*
X0065109Y0083431D01*
X0063401Y0084139D01*
X0061552Y0084139D01*
X0059843Y0083431D01*
X0058607Y0082195D01*
X0058607Y0083210D01*
X0057674Y0085464D01*
X0055949Y0087188D01*
X0053696Y0088122D01*
X0051257Y0088122D01*
X0049004Y0087188D01*
X0047279Y0085464D01*
X0046346Y0083210D01*
X0046346Y0080771D01*
X0047279Y0078518D01*
X0049004Y0076793D01*
X0051257Y0075860D01*
X0054159Y0076052D02*
X0059342Y0076052D01*
X0058208Y0077651D02*
X0056806Y0077651D01*
X0058607Y0082446D02*
X0058858Y0082446D01*
X0058261Y0084045D02*
X0061324Y0084045D01*
X0063628Y0084045D02*
X0071324Y0084045D01*
X0071552Y0084139D02*
X0069843Y0083431D01*
X0068536Y0082124D01*
X0067828Y0080415D01*
X0067828Y0078566D01*
X0068536Y0076858D01*
X0069843Y0075550D01*
X0071552Y0074843D01*
X0073401Y0074843D01*
X0075109Y0075550D01*
X0076417Y0076858D01*
X0077124Y0078566D01*
X0077124Y0080415D01*
X0076417Y0082124D01*
X0075109Y0083431D01*
X0073401Y0084139D01*
X0071552Y0084139D01*
X0073628Y0084045D02*
X0081324Y0084045D01*
X0081552Y0084139D02*
X0079843Y0083431D01*
X0078536Y0082124D01*
X0077828Y0080415D01*
X0077828Y0078566D01*
X0078536Y0076858D01*
X0079843Y0075550D01*
X0081552Y0074843D01*
X0083401Y0074843D01*
X0085109Y0075550D01*
X0086417Y0076858D01*
X0087124Y0078566D01*
X0087124Y0080415D01*
X0086417Y0082124D01*
X0085109Y0083431D01*
X0083401Y0084139D01*
X0081552Y0084139D01*
X0083628Y0084045D02*
X0091324Y0084045D01*
X0091552Y0084139D02*
X0089843Y0083431D01*
X0088536Y0082124D01*
X0087828Y0080415D01*
X0087828Y0078566D01*
X0088536Y0076858D01*
X0089843Y0075550D01*
X0091552Y0074843D01*
X0093401Y0074843D01*
X0095109Y0075550D01*
X0096417Y0076858D01*
X0097124Y0078566D01*
X0097124Y0080415D01*
X0096417Y0082124D01*
X0095109Y0083431D01*
X0093401Y0084139D01*
X0091552Y0084139D01*
X0093628Y0084045D02*
X0101324Y0084045D01*
X0103628Y0084045D02*
X0104635Y0084045D01*
X0106233Y0085643D02*
X0057494Y0085643D01*
X0055820Y0087242D02*
X0107832Y0087242D01*
X0109430Y0088840D02*
X0045666Y0088840D01*
X0045666Y0087242D02*
X0049133Y0087242D01*
X0047459Y0085643D02*
X0045666Y0085643D01*
X0045666Y0084045D02*
X0046691Y0084045D01*
X0046346Y0082446D02*
X0045666Y0082446D01*
X0045666Y0080848D02*
X0046346Y0080848D01*
X0046976Y0079249D02*
X0045666Y0079249D01*
X0045666Y0077651D02*
X0048146Y0077651D01*
X0045666Y0072855D02*
X0105176Y0072855D01*
X0105176Y0071257D02*
X0045666Y0071257D01*
X0045666Y0069658D02*
X0103898Y0069658D01*
X0102300Y0068060D02*
X0045666Y0068060D01*
X0045666Y0066461D02*
X0100701Y0066461D01*
X0099103Y0064863D02*
X0045666Y0064863D01*
X0045666Y0063264D02*
X0097504Y0063264D01*
X0095905Y0061666D02*
X0064081Y0061666D01*
X0067032Y0060067D02*
X0094307Y0060067D01*
X0092708Y0058468D02*
X0068842Y0058468D01*
X0070145Y0056870D02*
X0076998Y0056870D01*
X0077134Y0056939D02*
X0076461Y0056596D01*
X0075849Y0056152D01*
X0075315Y0055618D01*
X0074871Y0055007D01*
X0074528Y0054333D01*
X0074295Y0053615D01*
X0074176Y0052869D01*
X0074176Y0049691D01*
X0078776Y0049691D01*
X0078776Y0049291D01*
X0074176Y0049291D01*
X0074176Y0046113D01*
X0074295Y0045367D01*
X0074528Y0044648D01*
X0074871Y0043975D01*
X0075315Y0043364D01*
X0075849Y0042830D01*
X0076461Y0042385D01*
X0077134Y0042042D01*
X0077852Y0041809D01*
X0078599Y0041691D01*
X0078776Y0041691D01*
X0078776Y0049291D01*
X0079176Y0049291D01*
X0079176Y0041691D01*
X0079354Y0041691D01*
X0080100Y0041809D01*
X0080819Y0042042D01*
X0081492Y0042385D01*
X0082103Y0042830D01*
X0082638Y0043364D01*
X0083082Y0043975D01*
X0083425Y0044648D01*
X0083658Y0045367D01*
X0083776Y0046113D01*
X0083776Y0049291D01*
X0079176Y0049291D01*
X0079176Y0049691D01*
X0078776Y0049691D01*
X0078776Y0057291D01*
X0078599Y0057291D01*
X0077852Y0057173D01*
X0077134Y0056939D01*
X0078776Y0056870D02*
X0079176Y0056870D01*
X0079176Y0057291D02*
X0079176Y0049691D01*
X0083776Y0049691D01*
X0083776Y0052869D01*
X0083658Y0053615D01*
X0083425Y0054333D01*
X0083082Y0055007D01*
X0082638Y0055618D01*
X0082103Y0056152D01*
X0081492Y0056596D01*
X0080819Y0056939D01*
X0080100Y0057173D01*
X0079354Y0057291D01*
X0079176Y0057291D01*
X0080955Y0056870D02*
X0088051Y0056870D01*
X0089902Y0056870D02*
X0091110Y0056870D01*
X0094603Y0055271D02*
X0095534Y0055271D01*
X0096201Y0056870D02*
X0098051Y0056870D01*
X0097800Y0058468D02*
X0102014Y0058468D01*
X0103612Y0060067D02*
X0099398Y0060067D01*
X0100997Y0061666D02*
X0105211Y0061666D01*
X0106809Y0063264D02*
X0102595Y0063264D01*
X0104194Y0064863D02*
X0108408Y0064863D01*
X0110006Y0066461D02*
X0105792Y0066461D01*
X0107391Y0068060D02*
X0111605Y0068060D01*
X0113203Y0069658D02*
X0108776Y0069658D01*
X0115611Y0076052D02*
X0116097Y0076052D01*
X0125611Y0076052D02*
X0129342Y0076052D01*
X0129843Y0075550D02*
X0128536Y0076858D01*
X0127828Y0078566D01*
X0127828Y0080415D01*
X0128536Y0082124D01*
X0129843Y0083431D01*
X0131552Y0084139D01*
X0133401Y0084139D01*
X0135109Y0083431D01*
X0136417Y0082124D01*
X0137124Y0080415D01*
X0137124Y0078566D01*
X0136417Y0076858D01*
X0135109Y0075550D01*
X0133401Y0074843D01*
X0131552Y0074843D01*
X0129843Y0075550D01*
X0128208Y0077651D02*
X0126745Y0077651D01*
X0127124Y0079249D02*
X0127828Y0079249D01*
X0128007Y0080848D02*
X0126945Y0080848D01*
X0126094Y0082446D02*
X0128858Y0082446D01*
X0131324Y0084045D02*
X0123628Y0084045D01*
X0123401Y0084843D02*
X0121552Y0084843D01*
X0119843Y0085550D01*
X0118536Y0086858D01*
X0117828Y0088566D01*
X0117828Y0090415D01*
X0118536Y0092124D01*
X0119843Y0093431D01*
X0121552Y0094139D01*
X0123401Y0094139D01*
X0125109Y0093431D01*
X0126417Y0092124D01*
X0127124Y0090415D01*
X0127124Y0088566D01*
X0126417Y0086858D01*
X0125109Y0085550D01*
X0123401Y0084843D01*
X0125202Y0085643D02*
X0129751Y0085643D01*
X0129843Y0085550D02*
X0131552Y0084843D01*
X0133401Y0084843D01*
X0135109Y0085550D01*
X0136417Y0086858D01*
X0137124Y0088566D01*
X0137124Y0090415D01*
X0136417Y0092124D01*
X0135109Y0093431D01*
X0133401Y0094139D01*
X0131552Y0094139D01*
X0129843Y0093431D01*
X0128536Y0092124D01*
X0127828Y0090415D01*
X0127828Y0088566D01*
X0128536Y0086858D01*
X0129843Y0085550D01*
X0128377Y0087242D02*
X0126576Y0087242D01*
X0127124Y0088840D02*
X0127828Y0088840D01*
X0127838Y0090439D02*
X0127115Y0090439D01*
X0126453Y0092037D02*
X0128500Y0092037D01*
X0130337Y0093636D02*
X0124616Y0093636D01*
X0120337Y0093636D02*
X0117526Y0093636D01*
X0117526Y0095234D02*
X0203698Y0095234D01*
X0203698Y0096833D02*
X0117526Y0096833D01*
X0117526Y0098431D02*
X0204576Y0098431D01*
X0204576Y0100030D02*
X0117526Y0100030D01*
X0117526Y0101628D02*
X0204576Y0101628D01*
X0204576Y0103227D02*
X0117526Y0103227D01*
X0117526Y0104825D02*
X0149972Y0104825D01*
X0148611Y0106424D02*
X0117526Y0106424D01*
X0117526Y0108022D02*
X0147949Y0108022D01*
X0147846Y0109621D02*
X0117526Y0109621D01*
X0117526Y0111219D02*
X0148057Y0111219D01*
X0148719Y0112818D02*
X0117526Y0112818D01*
X0117526Y0114416D02*
X0146924Y0114416D01*
X0146376Y0116015D02*
X0116693Y0116015D01*
X0115094Y0117613D02*
X0146872Y0117613D01*
X0149602Y0119212D02*
X0113496Y0119212D01*
X0111897Y0120810D02*
X0151200Y0120810D01*
X0152799Y0122409D02*
X0110299Y0122409D01*
X0108700Y0124007D02*
X0154397Y0124007D01*
X0155996Y0125606D02*
X0107102Y0125606D01*
X0105503Y0127204D02*
X0157594Y0127204D01*
X0159193Y0128803D02*
X0103905Y0128803D01*
X0102306Y0130401D02*
X0160791Y0130401D01*
X0162390Y0132000D02*
X0100708Y0132000D01*
X0099109Y0133599D02*
X0163988Y0133599D01*
X0163401Y0134843D02*
X0165109Y0135550D01*
X0166417Y0136858D01*
X0167124Y0138566D01*
X0167124Y0140415D01*
X0166417Y0142124D01*
X0165886Y0142655D01*
X0167226Y0143995D01*
X0167226Y0155545D01*
X0168772Y0157091D01*
X0169852Y0157091D01*
X0171469Y0157761D01*
X0172707Y0158998D01*
X0173376Y0160616D01*
X0173376Y0168366D01*
X0172707Y0169983D01*
X0171469Y0171221D01*
X0169852Y0171891D01*
X0168101Y0171891D01*
X0166484Y0171221D01*
X0165246Y0169983D01*
X0164576Y0168366D01*
X0164576Y0160616D01*
X0165246Y0158998D01*
X0165417Y0158827D01*
X0164681Y0158091D01*
X0163626Y0157036D01*
X0163626Y0145486D01*
X0162279Y0144139D01*
X0161552Y0144139D01*
X0159843Y0143431D01*
X0158536Y0142124D01*
X0157828Y0140415D01*
X0157828Y0138566D01*
X0158536Y0136858D01*
X0159843Y0135550D01*
X0161552Y0134843D01*
X0163401Y0134843D01*
X0164256Y0135197D02*
X0170697Y0135197D01*
X0169843Y0135550D02*
X0171552Y0134843D01*
X0173401Y0134843D01*
X0175109Y0135550D01*
X0176417Y0136858D01*
X0177124Y0138566D01*
X0177124Y0140415D01*
X0176417Y0142124D01*
X0175109Y0143431D01*
X0173526Y0144087D01*
X0173176Y0144436D01*
X0173176Y0145486D01*
X0172826Y0145836D01*
X0172826Y0153445D01*
X0176949Y0157568D01*
X0178101Y0157091D01*
X0179852Y0157091D01*
X0181469Y0157761D01*
X0182707Y0158998D01*
X0183376Y0160616D01*
X0183376Y0168366D01*
X0182707Y0169983D01*
X0181469Y0171221D01*
X0179852Y0171891D01*
X0178101Y0171891D01*
X0176484Y0171221D01*
X0175246Y0169983D01*
X0174576Y0168366D01*
X0174576Y0160616D01*
X0174673Y0160383D01*
X0170281Y0155991D01*
X0169226Y0154936D01*
X0169226Y0144345D01*
X0169576Y0143995D01*
X0169576Y0143164D01*
X0168536Y0142124D01*
X0167828Y0140415D01*
X0167828Y0138566D01*
X0168536Y0136858D01*
X0169843Y0135550D01*
X0168598Y0136796D02*
X0166354Y0136796D01*
X0167053Y0138394D02*
X0167900Y0138394D01*
X0167828Y0139993D02*
X0167124Y0139993D01*
X0166637Y0141591D02*
X0168315Y0141591D01*
X0169576Y0143190D02*
X0166421Y0143190D01*
X0167226Y0144788D02*
X0169226Y0144788D01*
X0169226Y0146387D02*
X0167226Y0146387D01*
X0167226Y0147985D02*
X0169226Y0147985D01*
X0169226Y0149584D02*
X0167226Y0149584D01*
X0167226Y0151182D02*
X0169226Y0151182D01*
X0169226Y0152781D02*
X0167226Y0152781D01*
X0167226Y0154379D02*
X0169226Y0154379D01*
X0170268Y0155978D02*
X0167659Y0155978D01*
X0171023Y0157576D02*
X0171866Y0157576D01*
X0172780Y0159175D02*
X0173465Y0159175D01*
X0173376Y0160773D02*
X0174576Y0160773D01*
X0174576Y0162372D02*
X0173376Y0162372D01*
X0173376Y0163970D02*
X0174576Y0163970D01*
X0174576Y0165569D02*
X0173376Y0165569D01*
X0173376Y0167167D02*
X0174576Y0167167D01*
X0174742Y0168766D02*
X0173211Y0168766D01*
X0172325Y0170364D02*
X0175627Y0170364D01*
X0182325Y0170364D02*
X0185627Y0170364D01*
X0185246Y0169983D02*
X0184576Y0168366D01*
X0184576Y0160616D01*
X0185246Y0158998D01*
X0186484Y0157761D01*
X0188101Y0157091D01*
X0189852Y0157091D01*
X0191469Y0157761D01*
X0192707Y0158998D01*
X0193376Y0160616D01*
X0193376Y0168366D01*
X0192707Y0169983D01*
X0191469Y0171221D01*
X0189852Y0171891D01*
X0188101Y0171891D01*
X0186484Y0171221D01*
X0185246Y0169983D01*
X0184742Y0168766D02*
X0183211Y0168766D01*
X0183376Y0167167D02*
X0184576Y0167167D01*
X0184576Y0165569D02*
X0183376Y0165569D01*
X0183376Y0163970D02*
X0184576Y0163970D01*
X0184576Y0162372D02*
X0183376Y0162372D01*
X0183376Y0160773D02*
X0184576Y0160773D01*
X0185173Y0159175D02*
X0182780Y0159175D01*
X0181023Y0157576D02*
X0186929Y0157576D01*
X0191023Y0157576D02*
X0253554Y0157576D01*
X0252740Y0159175D02*
X0192780Y0159175D01*
X0193376Y0160773D02*
X0252143Y0160773D01*
X0251834Y0162372D02*
X0193376Y0162372D01*
X0193376Y0163970D02*
X0251728Y0163970D01*
X0251728Y0165569D02*
X0193376Y0165569D01*
X0193376Y0167167D02*
X0251728Y0167167D01*
X0251728Y0168766D02*
X0193211Y0168766D01*
X0192325Y0170364D02*
X0251728Y0170364D01*
X0251728Y0171963D02*
X0080746Y0171963D01*
X0080819Y0171939D02*
X0080100Y0172173D01*
X0079354Y0172291D01*
X0079176Y0172291D01*
X0079176Y0164691D01*
X0078776Y0164691D01*
X0078776Y0164291D01*
X0074176Y0164291D01*
X0074176Y0161113D01*
X0074295Y0160367D01*
X0074528Y0159648D01*
X0074871Y0158975D01*
X0075315Y0158364D01*
X0075849Y0157830D01*
X0076461Y0157385D01*
X0077134Y0157042D01*
X0077852Y0156809D01*
X0078599Y0156691D01*
X0078776Y0156691D01*
X0078776Y0164291D01*
X0079176Y0164291D01*
X0079176Y0156691D01*
X0079354Y0156691D01*
X0080100Y0156809D01*
X0080819Y0157042D01*
X0081492Y0157385D01*
X0082103Y0157830D01*
X0082638Y0158364D01*
X0083082Y0158975D01*
X0083425Y0159648D01*
X0083658Y0160367D01*
X0083776Y0161113D01*
X0083776Y0164291D01*
X0079176Y0164291D01*
X0079176Y0164691D01*
X0083776Y0164691D01*
X0083776Y0167869D01*
X0083658Y0168615D01*
X0083425Y0169333D01*
X0083082Y0170007D01*
X0082638Y0170618D01*
X0082103Y0171152D01*
X0081492Y0171596D01*
X0080819Y0171939D01*
X0079176Y0171963D02*
X0078776Y0171963D01*
X0078776Y0172291D02*
X0078599Y0172291D01*
X0077852Y0172173D01*
X0077134Y0171939D01*
X0076461Y0171596D01*
X0075849Y0171152D01*
X0075315Y0170618D01*
X0074871Y0170007D01*
X0074528Y0169333D01*
X0074295Y0168615D01*
X0074176Y0167869D01*
X0074176Y0164691D01*
X0078776Y0164691D01*
X0078776Y0172291D01*
X0077207Y0171963D02*
X0072225Y0171963D01*
X0072225Y0173561D02*
X0251728Y0173561D01*
X0251728Y0175160D02*
X0072225Y0175160D01*
X0072225Y0176758D02*
X0251728Y0176758D01*
X0254646Y0155978D02*
X0175359Y0155978D01*
X0176142Y0154379D02*
X0173760Y0154379D01*
X0174885Y0153858D02*
X0173703Y0152677D01*
X0173064Y0151133D01*
X0173064Y0149462D01*
X0173703Y0147919D01*
X0174885Y0146737D01*
X0176428Y0146098D01*
X0178099Y0146098D01*
X0179643Y0146737D01*
X0180824Y0147919D01*
X0181201Y0148828D01*
X0181577Y0147919D01*
X0182759Y0146737D01*
X0184302Y0146098D01*
X0185973Y0146098D01*
X0187517Y0146737D01*
X0188698Y0147919D01*
X0189075Y0148828D01*
X0189451Y0147919D01*
X0190633Y0146737D01*
X0192176Y0146098D01*
X0193847Y0146098D01*
X0195391Y0146737D01*
X0196572Y0147919D01*
X0196949Y0148828D01*
X0197325Y0147919D01*
X0198507Y0146737D01*
X0200050Y0146098D01*
X0201721Y0146098D01*
X0203265Y0146737D01*
X0204446Y0147919D01*
X0204823Y0148828D01*
X0205199Y0147919D01*
X0206381Y0146737D01*
X0207924Y0146098D01*
X0209595Y0146098D01*
X0211139Y0146737D01*
X0212320Y0147919D01*
X0212697Y0148828D01*
X0213073Y0147919D01*
X0214255Y0146737D01*
X0215798Y0146098D01*
X0217469Y0146098D01*
X0219013Y0146737D01*
X0220194Y0147919D01*
X0220571Y0148828D01*
X0220947Y0147919D01*
X0222129Y0146737D01*
X0223672Y0146098D01*
X0225343Y0146098D01*
X0226887Y0146737D01*
X0228068Y0147919D01*
X0228445Y0148828D01*
X0228821Y0147919D01*
X0230003Y0146737D01*
X0231546Y0146098D01*
X0233217Y0146098D01*
X0234761Y0146737D01*
X0235942Y0147919D01*
X0236319Y0148828D01*
X0236695Y0147919D01*
X0237877Y0146737D01*
X0239420Y0146098D01*
X0241091Y0146098D01*
X0242635Y0146737D01*
X0243816Y0147919D01*
X0244193Y0148828D01*
X0244569Y0147919D01*
X0245751Y0146737D01*
X0247294Y0146098D01*
X0248965Y0146098D01*
X0250509Y0146737D01*
X0251691Y0147919D01*
X0252330Y0149462D01*
X0252330Y0151133D01*
X0251691Y0152677D01*
X0250509Y0153858D01*
X0248965Y0154498D01*
X0247294Y0154498D01*
X0245751Y0153858D01*
X0244569Y0152677D01*
X0244193Y0151768D01*
X0243816Y0152677D01*
X0242635Y0153858D01*
X0241091Y0154498D01*
X0239420Y0154498D01*
X0237877Y0153858D01*
X0236695Y0152677D01*
X0236319Y0151768D01*
X0235942Y0152677D01*
X0234761Y0153858D01*
X0233217Y0154498D01*
X0231546Y0154498D01*
X0230003Y0153858D01*
X0228821Y0152677D01*
X0228445Y0151768D01*
X0228068Y0152677D01*
X0226887Y0153858D01*
X0225343Y0154498D01*
X0223672Y0154498D01*
X0222129Y0153858D01*
X0220947Y0152677D01*
X0220571Y0151768D01*
X0220194Y0152677D01*
X0219013Y0153858D01*
X0217469Y0154498D01*
X0215798Y0154498D01*
X0214255Y0153858D01*
X0213073Y0152677D01*
X0212697Y0151768D01*
X0212320Y0152677D01*
X0211139Y0153858D01*
X0209595Y0154498D01*
X0207924Y0154498D01*
X0206381Y0153858D01*
X0205199Y0152677D01*
X0204823Y0151768D01*
X0204446Y0152677D01*
X0203265Y0153858D01*
X0201721Y0154498D01*
X0200050Y0154498D01*
X0198507Y0153858D01*
X0197325Y0152677D01*
X0196949Y0151768D01*
X0196572Y0152677D01*
X0195391Y0153858D01*
X0193847Y0154498D01*
X0192176Y0154498D01*
X0190633Y0153858D01*
X0189451Y0152677D01*
X0189075Y0151768D01*
X0188698Y0152677D01*
X0187517Y0153858D01*
X0185973Y0154498D01*
X0184302Y0154498D01*
X0182759Y0153858D01*
X0181577Y0152677D01*
X0181201Y0151768D01*
X0180824Y0152677D01*
X0179643Y0153858D01*
X0178099Y0154498D01*
X0176428Y0154498D01*
X0174885Y0153858D01*
X0173807Y0152781D02*
X0172826Y0152781D01*
X0172826Y0151182D02*
X0173084Y0151182D01*
X0173064Y0149584D02*
X0172826Y0149584D01*
X0172826Y0147985D02*
X0173676Y0147985D01*
X0172826Y0146387D02*
X0175731Y0146387D01*
X0173176Y0144788D02*
X0183847Y0144788D01*
X0183605Y0146387D02*
X0178796Y0146387D01*
X0180852Y0147985D02*
X0181550Y0147985D01*
X0181681Y0152781D02*
X0180721Y0152781D01*
X0178386Y0154379D02*
X0184016Y0154379D01*
X0186260Y0154379D02*
X0191890Y0154379D01*
X0194134Y0154379D02*
X0199764Y0154379D01*
X0202008Y0154379D02*
X0207638Y0154379D01*
X0209882Y0154379D02*
X0215512Y0154379D01*
X0217756Y0154379D02*
X0223386Y0154379D01*
X0225630Y0154379D02*
X0231260Y0154379D01*
X0233504Y0154379D02*
X0239134Y0154379D01*
X0241378Y0154379D02*
X0247008Y0154379D01*
X0249252Y0154379D02*
X0256245Y0154379D01*
X0258776Y0152781D02*
X0251587Y0152781D01*
X0252310Y0151182D02*
X0278287Y0151182D01*
X0278287Y0149584D02*
X0252330Y0149584D01*
X0251718Y0147985D02*
X0278287Y0147985D01*
X0278287Y0146387D02*
X0249662Y0146387D01*
X0246597Y0146387D02*
X0241788Y0146387D01*
X0240298Y0144426D02*
X0239478Y0143606D01*
X0239478Y0136147D01*
X0240298Y0135327D01*
X0254844Y0135327D01*
X0255664Y0136147D01*
X0255664Y0143606D01*
X0254844Y0144426D01*
X0240298Y0144426D01*
X0239478Y0143190D02*
X0188326Y0143190D01*
X0187961Y0141591D02*
X0239478Y0141591D01*
X0239478Y0139993D02*
X0185274Y0139993D01*
X0183675Y0138394D02*
X0239478Y0138394D01*
X0239478Y0136796D02*
X0182077Y0136796D01*
X0180478Y0135197D02*
X0278287Y0135197D01*
X0278287Y0133599D02*
X0277876Y0133599D01*
X0278287Y0136796D02*
X0255664Y0136796D01*
X0255664Y0138394D02*
X0278287Y0138394D01*
X0278287Y0139993D02*
X0255664Y0139993D01*
X0255664Y0141591D02*
X0278287Y0141591D01*
X0278287Y0143190D02*
X0255664Y0143190D01*
X0244542Y0147985D02*
X0243844Y0147985D01*
X0243713Y0152781D02*
X0244673Y0152781D01*
X0236799Y0152781D02*
X0235839Y0152781D01*
X0235970Y0147985D02*
X0236668Y0147985D01*
X0238723Y0146387D02*
X0233914Y0146387D01*
X0230849Y0146387D02*
X0226040Y0146387D01*
X0228096Y0147985D02*
X0228794Y0147985D01*
X0228925Y0152781D02*
X0227965Y0152781D01*
X0221051Y0152781D02*
X0220091Y0152781D01*
X0220222Y0147985D02*
X0220920Y0147985D01*
X0222975Y0146387D02*
X0218166Y0146387D01*
X0215101Y0146387D02*
X0210292Y0146387D01*
X0212348Y0147985D02*
X0213046Y0147985D01*
X0213177Y0152781D02*
X0212217Y0152781D01*
X0205303Y0152781D02*
X0204343Y0152781D01*
X0204474Y0147985D02*
X0205172Y0147985D01*
X0207227Y0146387D02*
X0202418Y0146387D01*
X0199353Y0146387D02*
X0194544Y0146387D01*
X0196600Y0147985D02*
X0197298Y0147985D01*
X0197429Y0152781D02*
X0196469Y0152781D01*
X0189555Y0152781D02*
X0188595Y0152781D01*
X0188726Y0147985D02*
X0189424Y0147985D01*
X0191479Y0146387D02*
X0186670Y0146387D01*
X0187606Y0144788D02*
X0278287Y0144788D01*
X0258210Y0133599D02*
X0241414Y0133599D01*
X0238781Y0131141D02*
X0238531Y0131391D01*
X0222522Y0131391D01*
X0210847Y0119716D01*
X0221251Y0109311D01*
X0223476Y0111536D01*
X0223476Y0118768D01*
X0222416Y0118768D01*
X0221596Y0119588D01*
X0221596Y0122913D01*
X0222416Y0123733D01*
X0225538Y0123733D01*
X0223826Y0125445D01*
X0223826Y0126248D01*
X0222416Y0126248D01*
X0221596Y0127068D01*
X0221596Y0130394D01*
X0222416Y0131214D01*
X0228300Y0131214D01*
X0229120Y0130394D01*
X0229120Y0127068D01*
X0228300Y0126248D01*
X0228114Y0126248D01*
X0231622Y0122741D01*
X0231832Y0122741D01*
X0231832Y0122763D01*
X0231792Y0122803D01*
X0231555Y0123213D01*
X0231432Y0123671D01*
X0231432Y0124991D01*
X0235594Y0124991D01*
X0235594Y0124991D01*
X0231432Y0124991D01*
X0231432Y0126310D01*
X0231555Y0126768D01*
X0231792Y0127179D01*
X0231832Y0127219D01*
X0231832Y0130394D01*
X0232652Y0131214D01*
X0238537Y0131214D01*
X0238609Y0131141D01*
X0238781Y0131141D01*
X0239451Y0127320D02*
X0239926Y0126845D01*
X0239926Y0122736D01*
X0239357Y0122167D01*
X0239357Y0122763D01*
X0239397Y0122803D01*
X0239634Y0123213D01*
X0239757Y0123671D01*
X0239757Y0124991D01*
X0239757Y0126310D01*
X0239634Y0126768D01*
X0239397Y0127179D01*
X0239357Y0127219D01*
X0239357Y0127226D01*
X0239451Y0127320D01*
X0239371Y0127204D02*
X0239567Y0127204D01*
X0239757Y0125606D02*
X0239926Y0125606D01*
X0239757Y0124991D02*
X0235595Y0124991D01*
X0235595Y0124991D01*
X0239757Y0124991D01*
X0239757Y0124007D02*
X0239926Y0124007D01*
X0239599Y0122409D02*
X0239357Y0122409D01*
X0241493Y0119212D02*
X0257816Y0119212D01*
X0257188Y0120810D02*
X0243092Y0120810D01*
X0243526Y0122409D02*
X0267859Y0122409D01*
X0267859Y0122738D02*
X0257188Y0122738D01*
X0257188Y0124759D01*
X0257311Y0125217D01*
X0257548Y0125628D01*
X0257883Y0125963D01*
X0258293Y0126200D01*
X0258751Y0126322D01*
X0267859Y0126322D01*
X0267859Y0122738D01*
X0267859Y0124007D02*
X0268228Y0124007D01*
X0268228Y0125606D02*
X0267859Y0125606D01*
X0267859Y0120810D02*
X0268228Y0120810D01*
X0268228Y0119212D02*
X0267859Y0119212D01*
X0278271Y0119212D02*
X0278287Y0119212D01*
X0278287Y0117613D02*
X0254885Y0117613D01*
X0254844Y0117655D02*
X0240298Y0117655D01*
X0239478Y0116834D01*
X0239478Y0109375D01*
X0240298Y0108555D01*
X0254844Y0108555D01*
X0255664Y0109375D01*
X0255664Y0116834D01*
X0254844Y0117655D01*
X0255664Y0116015D02*
X0278287Y0116015D01*
X0278287Y0114416D02*
X0255664Y0114416D01*
X0255664Y0112818D02*
X0278287Y0112818D01*
X0278287Y0111219D02*
X0255664Y0111219D01*
X0255664Y0109621D02*
X0278287Y0109621D01*
X0278287Y0108022D02*
X0240376Y0108022D01*
X0240376Y0106424D02*
X0278287Y0106424D01*
X0278287Y0104825D02*
X0240376Y0104825D01*
X0240376Y0103227D02*
X0278287Y0103227D01*
X0278287Y0101628D02*
X0240376Y0101628D01*
X0240376Y0100030D02*
X0278287Y0100030D01*
X0263204Y0098431D02*
X0247404Y0098431D01*
X0247404Y0096833D02*
X0261926Y0096833D01*
X0261376Y0095234D02*
X0247404Y0095234D01*
X0245976Y0093636D02*
X0261376Y0093636D01*
X0261972Y0092037D02*
X0246619Y0092037D01*
X0246813Y0090439D02*
X0263316Y0090439D01*
X0263106Y0088840D02*
X0246813Y0088840D01*
X0246813Y0087242D02*
X0261705Y0087242D01*
X0261090Y0085643D02*
X0236274Y0085643D01*
X0234676Y0084045D02*
X0260978Y0084045D01*
X0261358Y0082446D02*
X0233077Y0082446D01*
X0231181Y0085641D02*
X0226372Y0085641D01*
X0225694Y0086319D01*
X0225875Y0086319D01*
X0226200Y0086644D01*
X0226217Y0086614D01*
X0226552Y0086279D01*
X0226963Y0086042D01*
X0227420Y0085919D01*
X0229035Y0085919D01*
X0229035Y0089491D01*
X0229035Y0093062D01*
X0227420Y0093062D01*
X0226963Y0092940D01*
X0226552Y0092703D01*
X0226217Y0092368D01*
X0226200Y0092338D01*
X0225875Y0092662D01*
X0221959Y0092662D01*
X0221139Y0091842D01*
X0221139Y0091591D01*
X0221126Y0091591D01*
X0221126Y0099641D01*
X0221218Y0099421D01*
X0221139Y0099342D01*
X0221139Y0094639D01*
X0221959Y0093819D01*
X0225875Y0093819D01*
X0226200Y0094144D01*
X0226217Y0094114D01*
X0226552Y0093779D01*
X0226963Y0093542D01*
X0227420Y0093419D01*
X0229035Y0093419D01*
X0229035Y0096991D01*
X0229035Y0100562D01*
X0227420Y0100562D01*
X0226963Y0100440D01*
X0226552Y0100203D01*
X0226217Y0099868D01*
X0226200Y0099838D01*
X0226064Y0099973D01*
X0226126Y0100124D01*
X0226126Y0101158D01*
X0225731Y0102114D01*
X0225676Y0102168D01*
X0225676Y0106545D01*
X0235726Y0116595D01*
X0235726Y0107945D01*
X0236776Y0106895D01*
X0236776Y0099966D01*
X0236369Y0099966D01*
X0235549Y0099146D01*
X0235549Y0094836D01*
X0236369Y0094016D01*
X0240678Y0094016D01*
X0241476Y0094814D01*
X0242274Y0094016D01*
X0242376Y0094016D01*
X0242376Y0092662D01*
X0242078Y0092662D01*
X0241476Y0092061D01*
X0240875Y0092662D01*
X0236959Y0092662D01*
X0236139Y0091842D01*
X0236139Y0090541D01*
X0236081Y0090541D01*
X0235026Y0089486D01*
X0231181Y0085641D01*
X0231183Y0085643D02*
X0226370Y0085643D01*
X0229035Y0085919D02*
X0230650Y0085919D01*
X0231108Y0086042D01*
X0231519Y0086279D01*
X0231854Y0086614D01*
X0232091Y0087024D01*
X0232213Y0087482D01*
X0232213Y0089491D01*
X0232213Y0091499D01*
X0232091Y0091957D01*
X0231854Y0092368D01*
X0231519Y0092703D01*
X0231108Y0092940D01*
X0230650Y0093062D01*
X0229035Y0093062D01*
X0229035Y0089491D01*
X0229035Y0089491D01*
X0229035Y0089491D01*
X0229036Y0089491D02*
X0232213Y0089491D01*
X0229036Y0089491D01*
X0229036Y0089491D01*
X0229035Y0089491D02*
X0229035Y0085919D01*
X0229035Y0087242D02*
X0229035Y0087242D01*
X0229035Y0088840D02*
X0229035Y0088840D01*
X0229035Y0090439D02*
X0229035Y0090439D01*
X0229035Y0092037D02*
X0229035Y0092037D01*
X0229035Y0093419D02*
X0230650Y0093419D01*
X0231108Y0093542D01*
X0231519Y0093779D01*
X0231854Y0094114D01*
X0232091Y0094524D01*
X0232213Y0094982D01*
X0232213Y0096991D01*
X0232213Y0098999D01*
X0232091Y0099457D01*
X0231854Y0099868D01*
X0231519Y0100203D01*
X0231108Y0100440D01*
X0230650Y0100562D01*
X0229035Y0100562D01*
X0229035Y0096991D01*
X0229035Y0096991D01*
X0229035Y0096991D01*
X0229036Y0096991D02*
X0232213Y0096991D01*
X0229036Y0096991D01*
X0229036Y0096991D01*
X0229035Y0096991D02*
X0229035Y0093419D01*
X0229035Y0093636D02*
X0229035Y0093636D01*
X0229035Y0095234D02*
X0229035Y0095234D01*
X0229035Y0096833D02*
X0229035Y0096833D01*
X0229035Y0098431D02*
X0229035Y0098431D01*
X0229035Y0100030D02*
X0229035Y0100030D01*
X0226379Y0100030D02*
X0226087Y0100030D01*
X0225932Y0101628D02*
X0236776Y0101628D01*
X0236776Y0100030D02*
X0231692Y0100030D01*
X0232213Y0098431D02*
X0235549Y0098431D01*
X0235549Y0096833D02*
X0232213Y0096833D01*
X0232213Y0095234D02*
X0235549Y0095234D01*
X0231271Y0093636D02*
X0242376Y0093636D01*
X0236334Y0092037D02*
X0232045Y0092037D01*
X0232213Y0090439D02*
X0235979Y0090439D01*
X0234380Y0088840D02*
X0232213Y0088840D01*
X0232149Y0087242D02*
X0232782Y0087242D01*
X0226800Y0093636D02*
X0221126Y0093636D01*
X0221126Y0095234D02*
X0221139Y0095234D01*
X0221126Y0096833D02*
X0221139Y0096833D01*
X0221126Y0098431D02*
X0221139Y0098431D01*
X0217526Y0098431D02*
X0208176Y0098431D01*
X0208176Y0100030D02*
X0217526Y0100030D01*
X0217526Y0101628D02*
X0208176Y0101628D01*
X0208176Y0103227D02*
X0217526Y0103227D01*
X0217526Y0104825D02*
X0208176Y0104825D01*
X0208176Y0106424D02*
X0218364Y0106424D01*
X0217449Y0108022D02*
X0208176Y0108022D01*
X0208176Y0109621D02*
X0215851Y0109621D01*
X0214252Y0111219D02*
X0208176Y0111219D01*
X0208499Y0112818D02*
X0212654Y0112818D01*
X0216146Y0114416D02*
X0223476Y0114416D01*
X0223476Y0112818D02*
X0217745Y0112818D01*
X0219343Y0111219D02*
X0223159Y0111219D01*
X0221561Y0109621D02*
X0220942Y0109621D01*
X0225676Y0106424D02*
X0236776Y0106424D01*
X0236776Y0104825D02*
X0225676Y0104825D01*
X0225676Y0103227D02*
X0236776Y0103227D01*
X0235726Y0108022D02*
X0227153Y0108022D01*
X0228752Y0109621D02*
X0235726Y0109621D01*
X0235726Y0111219D02*
X0230350Y0111219D01*
X0231949Y0112818D02*
X0235726Y0112818D01*
X0235726Y0114416D02*
X0233548Y0114416D01*
X0235146Y0116015D02*
X0235726Y0116015D01*
X0239326Y0116015D02*
X0239478Y0116015D01*
X0239478Y0114416D02*
X0239326Y0114416D01*
X0239326Y0112818D02*
X0239478Y0112818D01*
X0239478Y0111219D02*
X0239326Y0111219D01*
X0239326Y0109621D02*
X0239478Y0109621D01*
X0239895Y0117613D02*
X0240257Y0117613D01*
X0243526Y0124007D02*
X0257188Y0124007D01*
X0257535Y0125606D02*
X0243526Y0125606D01*
X0243526Y0127204D02*
X0258263Y0127204D01*
X0277823Y0127204D02*
X0278287Y0127204D01*
X0231818Y0127204D02*
X0229120Y0127204D01*
X0229120Y0128803D02*
X0231832Y0128803D01*
X0231840Y0130401D02*
X0229113Y0130401D01*
X0228757Y0125606D02*
X0231432Y0125606D01*
X0231432Y0124007D02*
X0230355Y0124007D01*
X0225264Y0124007D02*
X0215139Y0124007D01*
X0213540Y0122409D02*
X0221596Y0122409D01*
X0221596Y0120810D02*
X0211942Y0120810D01*
X0211351Y0119212D02*
X0221972Y0119212D01*
X0223476Y0117613D02*
X0212949Y0117613D01*
X0214548Y0116015D02*
X0223476Y0116015D01*
X0210047Y0124007D02*
X0206555Y0124007D01*
X0205373Y0125606D02*
X0211646Y0125606D01*
X0213244Y0127204D02*
X0162686Y0127204D01*
X0161087Y0125606D02*
X0202480Y0125606D01*
X0201368Y0124007D02*
X0159489Y0124007D01*
X0155428Y0119212D02*
X0154693Y0119212D01*
X0153095Y0117613D02*
X0207072Y0117613D01*
X0206260Y0119212D02*
X0201943Y0119212D01*
X0204491Y0120810D02*
X0204661Y0120810D01*
X0208154Y0122409D02*
X0208449Y0122409D01*
X0206226Y0116015D02*
X0151576Y0116015D01*
X0157721Y0114416D02*
X0205006Y0114416D01*
X0204576Y0112818D02*
X0159234Y0112818D01*
X0159896Y0111219D02*
X0204576Y0111219D01*
X0204576Y0109621D02*
X0160107Y0109621D01*
X0160004Y0108022D02*
X0204576Y0108022D01*
X0204576Y0106424D02*
X0159342Y0106424D01*
X0157981Y0104825D02*
X0204576Y0104825D01*
X0209254Y0096833D02*
X0217526Y0096833D01*
X0217526Y0095234D02*
X0209254Y0095234D01*
X0209215Y0093636D02*
X0217526Y0093636D01*
X0217526Y0092037D02*
X0136453Y0092037D01*
X0137115Y0090439D02*
X0201271Y0090439D01*
X0201139Y0090307D02*
X0201139Y0090191D01*
X0159781Y0090191D01*
X0153633Y0084043D01*
X0153401Y0084139D01*
X0151552Y0084139D01*
X0149843Y0083431D01*
X0148536Y0082124D01*
X0147828Y0080415D01*
X0147828Y0078566D01*
X0148536Y0076858D01*
X0149843Y0075550D01*
X0151552Y0074843D01*
X0153401Y0074843D01*
X0155109Y0075550D01*
X0156417Y0076858D01*
X0157124Y0078566D01*
X0157124Y0080415D01*
X0156530Y0081849D01*
X0161272Y0086591D01*
X0201139Y0086591D01*
X0201139Y0086391D01*
X0201959Y0085571D01*
X0205875Y0085571D01*
X0206200Y0085896D01*
X0206217Y0085866D01*
X0206552Y0085531D01*
X0206963Y0085294D01*
X0207420Y0085171D01*
X0209035Y0085171D01*
X0209035Y0088349D01*
X0209035Y0088349D01*
X0209035Y0091527D01*
X0207420Y0091527D01*
X0206963Y0091404D01*
X0206552Y0091167D01*
X0206217Y0090832D01*
X0206200Y0090802D01*
X0205875Y0091127D01*
X0201959Y0091127D01*
X0201139Y0090307D01*
X0203737Y0093636D02*
X0134616Y0093636D01*
X0137124Y0088840D02*
X0158430Y0088840D01*
X0156832Y0087242D02*
X0136576Y0087242D01*
X0135202Y0085643D02*
X0155233Y0085643D01*
X0153635Y0084045D02*
X0153628Y0084045D01*
X0151324Y0084045D02*
X0143628Y0084045D01*
X0143401Y0084139D02*
X0141552Y0084139D01*
X0139843Y0083431D01*
X0138536Y0082124D01*
X0137828Y0080415D01*
X0137828Y0078566D01*
X0138536Y0076858D01*
X0139843Y0075550D01*
X0141552Y0074843D01*
X0143401Y0074843D01*
X0145109Y0075550D01*
X0146417Y0076858D01*
X0147124Y0078566D01*
X0147124Y0080415D01*
X0146417Y0082124D01*
X0145109Y0083431D01*
X0143401Y0084139D01*
X0141324Y0084045D02*
X0133628Y0084045D01*
X0136094Y0082446D02*
X0138858Y0082446D01*
X0138007Y0080848D02*
X0136945Y0080848D01*
X0137124Y0079249D02*
X0137828Y0079249D01*
X0138208Y0077651D02*
X0136745Y0077651D01*
X0135611Y0076052D02*
X0139342Y0076052D01*
X0145611Y0076052D02*
X0149342Y0076052D01*
X0148208Y0077651D02*
X0146745Y0077651D01*
X0147124Y0079249D02*
X0147828Y0079249D01*
X0148007Y0080848D02*
X0146945Y0080848D01*
X0146094Y0082446D02*
X0148858Y0082446D01*
X0156945Y0080848D02*
X0158007Y0080848D01*
X0157828Y0080415D02*
X0157828Y0078566D01*
X0158536Y0076858D01*
X0159843Y0075550D01*
X0161552Y0074843D01*
X0163401Y0074843D01*
X0165109Y0075550D01*
X0166417Y0076858D01*
X0167124Y0078566D01*
X0167124Y0080415D01*
X0166417Y0082124D01*
X0165109Y0083431D01*
X0163401Y0084139D01*
X0161552Y0084139D01*
X0159843Y0083431D01*
X0158536Y0082124D01*
X0157828Y0080415D01*
X0157828Y0079249D02*
X0157124Y0079249D01*
X0156745Y0077651D02*
X0158208Y0077651D01*
X0159342Y0076052D02*
X0155611Y0076052D01*
X0157127Y0082446D02*
X0158858Y0082446D01*
X0158726Y0084045D02*
X0161324Y0084045D01*
X0160324Y0085643D02*
X0201887Y0085643D01*
X0205947Y0085643D02*
X0206440Y0085643D01*
X0209035Y0085643D02*
X0209035Y0085643D01*
X0209035Y0085171D02*
X0210650Y0085171D01*
X0211108Y0085294D01*
X0211519Y0085531D01*
X0211854Y0085866D01*
X0212091Y0086276D01*
X0212213Y0086734D01*
X0212213Y0088349D01*
X0209036Y0088349D01*
X0209036Y0088349D01*
X0212213Y0088349D01*
X0212213Y0089964D01*
X0212091Y0090422D01*
X0211854Y0090832D01*
X0211519Y0091167D01*
X0211108Y0091404D01*
X0210650Y0091527D01*
X0209035Y0091527D01*
X0209035Y0088349D01*
X0209035Y0088349D01*
X0209035Y0085171D01*
X0209035Y0087242D02*
X0209035Y0087242D01*
X0209035Y0088840D02*
X0209035Y0088840D01*
X0209035Y0090439D02*
X0209035Y0090439D01*
X0212081Y0090439D02*
X0217526Y0090439D01*
X0218781Y0088840D02*
X0212213Y0088840D01*
X0212213Y0087242D02*
X0221139Y0087242D01*
X0222076Y0085643D02*
X0211631Y0085643D01*
X0221126Y0092037D02*
X0221334Y0092037D01*
X0222877Y0084045D02*
X0173628Y0084045D01*
X0171324Y0084045D02*
X0163628Y0084045D01*
X0166094Y0082446D02*
X0168858Y0082446D01*
X0168007Y0080848D02*
X0166945Y0080848D01*
X0167124Y0079249D02*
X0167828Y0079249D01*
X0168208Y0077651D02*
X0166745Y0077651D01*
X0165611Y0076052D02*
X0169342Y0076052D01*
X0177124Y0079249D02*
X0264810Y0079249D01*
X0266476Y0079249D02*
X0266476Y0079249D01*
X0266476Y0080848D02*
X0266476Y0080848D01*
X0266476Y0082446D02*
X0266476Y0082446D01*
X0266476Y0084045D02*
X0266476Y0084045D01*
X0262341Y0080848D02*
X0176945Y0080848D01*
X0176094Y0082446D02*
X0224475Y0082446D01*
X0244667Y0068060D02*
X0178682Y0068060D01*
X0177264Y0068060D02*
X0177264Y0068060D01*
X0177264Y0066461D02*
X0177264Y0066461D01*
X0177264Y0064863D02*
X0177264Y0064863D01*
X0177264Y0063264D02*
X0177264Y0063264D01*
X0177264Y0061666D02*
X0177264Y0061666D01*
X0177264Y0060067D02*
X0177264Y0060067D01*
X0180112Y0060067D02*
X0182894Y0060067D01*
X0181428Y0061666D02*
X0181398Y0061666D01*
X0180932Y0066461D02*
X0181975Y0066461D01*
X0188300Y0066461D02*
X0189849Y0066461D01*
X0189302Y0061666D02*
X0188848Y0061666D01*
X0187381Y0060067D02*
X0190768Y0060067D01*
X0189852Y0056891D02*
X0188101Y0056891D01*
X0186484Y0056221D01*
X0185246Y0054983D01*
X0184576Y0053366D01*
X0184576Y0045616D01*
X0185246Y0043998D01*
X0186484Y0042761D01*
X0188101Y0042091D01*
X0189852Y0042091D01*
X0191469Y0042761D01*
X0192707Y0043998D01*
X0193376Y0045616D01*
X0193376Y0053366D01*
X0192707Y0054983D01*
X0191469Y0056221D01*
X0189852Y0056891D01*
X0189902Y0056870D02*
X0196502Y0056870D01*
X0198100Y0055271D02*
X0192418Y0055271D01*
X0193249Y0053673D02*
X0199699Y0053673D01*
X0201297Y0052074D02*
X0193376Y0052074D01*
X0193376Y0050476D02*
X0202896Y0050476D01*
X0204494Y0048877D02*
X0193376Y0048877D01*
X0193376Y0047279D02*
X0213093Y0047279D01*
X0215760Y0047279D02*
X0251728Y0047279D01*
X0251728Y0048877D02*
X0216966Y0048877D01*
X0216853Y0050476D02*
X0251766Y0050476D01*
X0251936Y0052074D02*
X0215104Y0052074D01*
X0213749Y0052074D02*
X0206388Y0052074D01*
X0204790Y0053673D02*
X0252283Y0053673D01*
X0252913Y0055271D02*
X0203191Y0055271D01*
X0201593Y0056870D02*
X0253808Y0056870D01*
X0244167Y0060067D02*
X0242499Y0060067D01*
X0238012Y0060067D02*
X0234625Y0060067D01*
X0236092Y0061666D02*
X0236546Y0061666D01*
X0237094Y0066461D02*
X0235544Y0066461D01*
X0229220Y0066461D02*
X0227670Y0066461D01*
X0228218Y0061666D02*
X0228672Y0061666D01*
X0230138Y0060067D02*
X0226751Y0060067D01*
X0222264Y0060067D02*
X0218877Y0060067D01*
X0220344Y0061666D02*
X0220798Y0061666D01*
X0221345Y0066461D02*
X0219796Y0066461D01*
X0213471Y0066461D02*
X0211922Y0066461D01*
X0212470Y0061666D02*
X0212924Y0061666D01*
X0214390Y0060067D02*
X0211003Y0060067D01*
X0206516Y0060067D02*
X0203129Y0060067D01*
X0204596Y0061666D02*
X0205050Y0061666D01*
X0205597Y0066461D02*
X0204048Y0066461D01*
X0197723Y0066461D02*
X0196174Y0066461D01*
X0188051Y0056870D02*
X0179902Y0056870D01*
X0179852Y0056891D02*
X0178101Y0056891D01*
X0176484Y0056221D01*
X0175246Y0054983D01*
X0174576Y0053366D01*
X0174576Y0045616D01*
X0175246Y0043998D01*
X0176484Y0042761D01*
X0178101Y0042091D01*
X0179852Y0042091D01*
X0181469Y0042761D01*
X0182707Y0043998D01*
X0183376Y0045616D01*
X0183376Y0053366D01*
X0182707Y0054983D01*
X0181469Y0056221D01*
X0179852Y0056891D01*
X0178051Y0056870D02*
X0169902Y0056870D01*
X0169852Y0056891D02*
X0168101Y0056891D01*
X0166484Y0056221D01*
X0165246Y0054983D01*
X0164576Y0053366D01*
X0164576Y0045616D01*
X0165246Y0043998D01*
X0166484Y0042761D01*
X0168101Y0042091D01*
X0169852Y0042091D01*
X0171469Y0042761D01*
X0172707Y0043998D01*
X0173376Y0045616D01*
X0173376Y0053366D01*
X0172707Y0054983D01*
X0171469Y0056221D01*
X0169852Y0056891D01*
X0168051Y0056870D02*
X0159902Y0056870D01*
X0159852Y0056891D02*
X0158101Y0056891D01*
X0156484Y0056221D01*
X0155246Y0054983D01*
X0154576Y0053366D01*
X0154576Y0045616D01*
X0155246Y0043998D01*
X0156484Y0042761D01*
X0158101Y0042091D01*
X0159852Y0042091D01*
X0161469Y0042761D01*
X0162707Y0043998D01*
X0163376Y0045616D01*
X0163376Y0053366D01*
X0162707Y0054983D01*
X0161469Y0056221D01*
X0159852Y0056891D01*
X0158051Y0056870D02*
X0149902Y0056870D01*
X0149852Y0056891D02*
X0148101Y0056891D01*
X0146484Y0056221D01*
X0145246Y0054983D01*
X0144576Y0053366D01*
X0144576Y0045616D01*
X0145246Y0043998D01*
X0146484Y0042761D01*
X0148101Y0042091D01*
X0149852Y0042091D01*
X0151469Y0042761D01*
X0152707Y0043998D01*
X0153376Y0045616D01*
X0153376Y0053366D01*
X0152707Y0054983D01*
X0151469Y0056221D01*
X0149852Y0056891D01*
X0148051Y0056870D02*
X0139902Y0056870D01*
X0139852Y0056891D02*
X0138101Y0056891D01*
X0136484Y0056221D01*
X0135246Y0054983D01*
X0134576Y0053366D01*
X0134576Y0045616D01*
X0135246Y0043998D01*
X0136484Y0042761D01*
X0138101Y0042091D01*
X0139852Y0042091D01*
X0141469Y0042761D01*
X0142707Y0043998D01*
X0143376Y0045616D01*
X0143376Y0053366D01*
X0142707Y0054983D01*
X0141469Y0056221D01*
X0139852Y0056891D01*
X0138051Y0056870D02*
X0129902Y0056870D01*
X0129852Y0056891D02*
X0128101Y0056891D01*
X0126484Y0056221D01*
X0125246Y0054983D01*
X0124576Y0053366D01*
X0124576Y0045616D01*
X0125246Y0043998D01*
X0126484Y0042761D01*
X0128101Y0042091D01*
X0129852Y0042091D01*
X0131469Y0042761D01*
X0132707Y0043998D01*
X0133376Y0045616D01*
X0133376Y0053366D01*
X0132707Y0054983D01*
X0131469Y0056221D01*
X0129852Y0056891D01*
X0128051Y0056870D02*
X0119902Y0056870D01*
X0122418Y0055271D02*
X0125534Y0055271D01*
X0124704Y0053673D02*
X0123249Y0053673D01*
X0123376Y0052074D02*
X0124576Y0052074D01*
X0124576Y0050476D02*
X0123376Y0050476D01*
X0123376Y0048877D02*
X0124576Y0048877D01*
X0124576Y0047279D02*
X0123376Y0047279D01*
X0123376Y0045680D02*
X0124576Y0045680D01*
X0125212Y0044082D02*
X0122741Y0044082D01*
X0120799Y0042483D02*
X0127153Y0042483D01*
X0130799Y0042483D02*
X0137153Y0042483D01*
X0135212Y0044082D02*
X0132741Y0044082D01*
X0133376Y0045680D02*
X0134576Y0045680D01*
X0134576Y0047279D02*
X0133376Y0047279D01*
X0133376Y0048877D02*
X0134576Y0048877D01*
X0134576Y0050476D02*
X0133376Y0050476D01*
X0133376Y0052074D02*
X0134576Y0052074D01*
X0134704Y0053673D02*
X0133249Y0053673D01*
X0132418Y0055271D02*
X0135534Y0055271D01*
X0142418Y0055271D02*
X0145534Y0055271D01*
X0144704Y0053673D02*
X0143249Y0053673D01*
X0143376Y0052074D02*
X0144576Y0052074D01*
X0144576Y0050476D02*
X0143376Y0050476D01*
X0143376Y0048877D02*
X0144576Y0048877D01*
X0144576Y0047279D02*
X0143376Y0047279D01*
X0143376Y0045680D02*
X0144576Y0045680D01*
X0145212Y0044082D02*
X0142741Y0044082D01*
X0140799Y0042483D02*
X0147153Y0042483D01*
X0150799Y0042483D02*
X0157153Y0042483D01*
X0155212Y0044082D02*
X0152741Y0044082D01*
X0153376Y0045680D02*
X0154576Y0045680D01*
X0154576Y0047279D02*
X0153376Y0047279D01*
X0153376Y0048877D02*
X0154576Y0048877D01*
X0154576Y0050476D02*
X0153376Y0050476D01*
X0153376Y0052074D02*
X0154576Y0052074D01*
X0154704Y0053673D02*
X0153249Y0053673D01*
X0152418Y0055271D02*
X0155534Y0055271D01*
X0162418Y0055271D02*
X0165534Y0055271D01*
X0164704Y0053673D02*
X0163249Y0053673D01*
X0163376Y0052074D02*
X0164576Y0052074D01*
X0164576Y0050476D02*
X0163376Y0050476D01*
X0163376Y0048877D02*
X0164576Y0048877D01*
X0164576Y0047279D02*
X0163376Y0047279D01*
X0163376Y0045680D02*
X0164576Y0045680D01*
X0165212Y0044082D02*
X0162741Y0044082D01*
X0160799Y0042483D02*
X0167153Y0042483D01*
X0170799Y0042483D02*
X0177153Y0042483D01*
X0175212Y0044082D02*
X0172741Y0044082D01*
X0173376Y0045680D02*
X0174576Y0045680D01*
X0174576Y0047279D02*
X0173376Y0047279D01*
X0173376Y0048877D02*
X0174576Y0048877D01*
X0174576Y0050476D02*
X0173376Y0050476D01*
X0173376Y0052074D02*
X0174576Y0052074D01*
X0174704Y0053673D02*
X0173249Y0053673D01*
X0172418Y0055271D02*
X0175534Y0055271D01*
X0182418Y0055271D02*
X0185534Y0055271D01*
X0184704Y0053673D02*
X0183249Y0053673D01*
X0183376Y0052074D02*
X0184576Y0052074D01*
X0184576Y0050476D02*
X0183376Y0050476D01*
X0183376Y0048877D02*
X0184576Y0048877D01*
X0184576Y0047279D02*
X0183376Y0047279D01*
X0183376Y0045680D02*
X0184576Y0045680D01*
X0185212Y0044082D02*
X0182741Y0044082D01*
X0180799Y0042483D02*
X0187153Y0042483D01*
X0190799Y0042483D02*
X0251728Y0042483D01*
X0251728Y0040885D02*
X0072225Y0040885D01*
X0072225Y0042483D02*
X0076326Y0042483D01*
X0074817Y0044082D02*
X0072225Y0044082D01*
X0072225Y0045680D02*
X0074245Y0045680D01*
X0074176Y0047279D02*
X0072225Y0047279D01*
X0072225Y0048877D02*
X0074176Y0048877D01*
X0074176Y0050476D02*
X0072186Y0050476D01*
X0072017Y0052074D02*
X0074176Y0052074D01*
X0074313Y0053673D02*
X0071669Y0053673D01*
X0071040Y0055271D02*
X0075064Y0055271D01*
X0078776Y0055271D02*
X0079176Y0055271D01*
X0079176Y0053673D02*
X0078776Y0053673D01*
X0078776Y0052074D02*
X0079176Y0052074D01*
X0079176Y0050476D02*
X0078776Y0050476D01*
X0078776Y0048877D02*
X0079176Y0048877D01*
X0079176Y0047279D02*
X0078776Y0047279D01*
X0078776Y0045680D02*
X0079176Y0045680D01*
X0079176Y0044082D02*
X0078776Y0044082D01*
X0078776Y0042483D02*
X0079176Y0042483D01*
X0081627Y0042483D02*
X0087153Y0042483D01*
X0085212Y0044082D02*
X0083136Y0044082D01*
X0083708Y0045680D02*
X0084576Y0045680D01*
X0084576Y0047279D02*
X0083776Y0047279D01*
X0083776Y0048877D02*
X0084576Y0048877D01*
X0084576Y0050476D02*
X0083776Y0050476D01*
X0083776Y0052074D02*
X0084576Y0052074D01*
X0084704Y0053673D02*
X0083639Y0053673D01*
X0082889Y0055271D02*
X0085534Y0055271D01*
X0093249Y0053673D02*
X0094704Y0053673D01*
X0094576Y0052074D02*
X0093376Y0052074D01*
X0093376Y0050476D02*
X0094576Y0050476D01*
X0094576Y0048877D02*
X0093376Y0048877D01*
X0093376Y0047279D02*
X0094576Y0047279D01*
X0094576Y0045680D02*
X0093376Y0045680D01*
X0092741Y0044082D02*
X0095212Y0044082D01*
X0097153Y0042483D02*
X0090799Y0042483D01*
X0072225Y0039286D02*
X0251728Y0039286D01*
X0251728Y0037688D02*
X0072225Y0037688D01*
X0072225Y0036089D02*
X0251728Y0036089D01*
X0251728Y0044082D02*
X0192741Y0044082D01*
X0193376Y0045680D02*
X0251728Y0045680D01*
X0243930Y0066461D02*
X0243418Y0066461D01*
X0204576Y0048795D02*
X0204576Y0048795D01*
X0121324Y0084045D02*
X0121013Y0084045D01*
X0119751Y0085643D02*
X0119415Y0085643D01*
X0118377Y0087242D02*
X0117816Y0087242D01*
X0117828Y0088840D02*
X0117526Y0088840D01*
X0117526Y0090439D02*
X0117838Y0090439D01*
X0117526Y0092037D02*
X0118500Y0092037D01*
X0113226Y0092037D02*
X0113102Y0092037D01*
X0112051Y0092037D02*
X0045666Y0092037D01*
X0045666Y0090439D02*
X0110176Y0090439D01*
X0113226Y0093636D02*
X0045666Y0093636D01*
X0045666Y0095234D02*
X0113226Y0095234D01*
X0113226Y0096833D02*
X0045666Y0096833D01*
X0045666Y0098431D02*
X0113226Y0098431D01*
X0113226Y0100030D02*
X0045666Y0100030D01*
X0045666Y0101628D02*
X0113226Y0101628D01*
X0113226Y0103227D02*
X0045666Y0103227D01*
X0045666Y0104825D02*
X0113226Y0104825D01*
X0113226Y0106424D02*
X0045666Y0106424D01*
X0045666Y0108022D02*
X0113226Y0108022D01*
X0113226Y0109621D02*
X0045666Y0109621D01*
X0045666Y0111219D02*
X0113226Y0111219D01*
X0113226Y0112818D02*
X0045666Y0112818D01*
X0045666Y0114416D02*
X0112210Y0114416D01*
X0110612Y0116015D02*
X0103243Y0116015D01*
X0102944Y0115891D02*
X0103899Y0116287D01*
X0104631Y0117018D01*
X0105026Y0117974D01*
X0105026Y0119008D01*
X0104631Y0119964D01*
X0103899Y0120695D01*
X0102944Y0121091D01*
X0102372Y0121091D01*
X0086472Y0136991D01*
X0087124Y0138566D01*
X0087124Y0140415D01*
X0086417Y0142124D01*
X0085811Y0142730D01*
X0087076Y0143995D01*
X0087076Y0155545D01*
X0088622Y0157091D01*
X0089852Y0157091D01*
X0091469Y0157761D01*
X0092707Y0158998D01*
X0093376Y0160616D01*
X0093376Y0168366D01*
X0092707Y0169983D01*
X0091469Y0171221D01*
X0089852Y0171891D01*
X0088101Y0171891D01*
X0086484Y0171221D01*
X0085246Y0169983D01*
X0084576Y0168366D01*
X0084576Y0160616D01*
X0085246Y0158998D01*
X0085342Y0158902D01*
X0084531Y0158091D01*
X0083476Y0157036D01*
X0083476Y0145486D01*
X0082129Y0144139D01*
X0081552Y0144139D01*
X0079843Y0143431D01*
X0078536Y0142124D01*
X0077828Y0140415D01*
X0077828Y0138566D01*
X0078536Y0136858D01*
X0079843Y0135550D01*
X0081552Y0134843D01*
X0083401Y0134843D01*
X0083491Y0134880D01*
X0099826Y0118545D01*
X0099826Y0117974D01*
X0100222Y0117018D01*
X0100954Y0116287D01*
X0101909Y0115891D01*
X0102944Y0115891D01*
X0101610Y0116015D02*
X0045666Y0116015D01*
X0045666Y0117613D02*
X0099976Y0117613D01*
X0099160Y0119212D02*
X0045666Y0119212D01*
X0045666Y0120810D02*
X0097561Y0120810D01*
X0095963Y0122409D02*
X0045666Y0122409D01*
X0045666Y0124007D02*
X0094364Y0124007D01*
X0092766Y0125606D02*
X0045666Y0125606D01*
X0045666Y0127204D02*
X0091167Y0127204D01*
X0089569Y0128803D02*
X0045666Y0128803D01*
X0045666Y0130401D02*
X0087970Y0130401D01*
X0086372Y0132000D02*
X0056156Y0132000D01*
X0055949Y0131793D02*
X0057674Y0133518D01*
X0058607Y0135771D01*
X0058607Y0136787D01*
X0059843Y0135550D01*
X0061552Y0134843D01*
X0063401Y0134843D01*
X0065109Y0135550D01*
X0066417Y0136858D01*
X0067124Y0138566D01*
X0067124Y0140415D01*
X0066417Y0142124D01*
X0065109Y0143431D01*
X0063401Y0144139D01*
X0061552Y0144139D01*
X0059843Y0143431D01*
X0058536Y0142124D01*
X0057828Y0140415D01*
X0057828Y0140090D01*
X0057674Y0140464D01*
X0055949Y0142188D01*
X0053696Y0143122D01*
X0051257Y0143122D01*
X0049004Y0142188D01*
X0047279Y0140464D01*
X0046346Y0138210D01*
X0046346Y0135771D01*
X0047279Y0133518D01*
X0049004Y0131793D01*
X0051257Y0130860D01*
X0053696Y0130860D01*
X0055949Y0131793D01*
X0057707Y0133599D02*
X0084773Y0133599D01*
X0086667Y0136796D02*
X0088598Y0136796D01*
X0088266Y0135197D02*
X0090697Y0135197D01*
X0089864Y0133599D02*
X0093028Y0133599D01*
X0091463Y0132000D02*
X0094627Y0132000D01*
X0093061Y0130401D02*
X0096225Y0130401D01*
X0094660Y0128803D02*
X0097824Y0128803D01*
X0096258Y0127204D02*
X0099422Y0127204D01*
X0097857Y0125606D02*
X0101021Y0125606D01*
X0099455Y0124007D02*
X0102619Y0124007D01*
X0101054Y0122409D02*
X0104218Y0122409D01*
X0103620Y0120810D02*
X0105816Y0120810D01*
X0104942Y0119212D02*
X0107415Y0119212D01*
X0109013Y0117613D02*
X0104877Y0117613D01*
X0103401Y0134843D02*
X0105109Y0135550D01*
X0106417Y0136858D01*
X0107124Y0138566D01*
X0107124Y0140415D01*
X0106417Y0142124D01*
X0106326Y0142214D01*
X0106326Y0142245D01*
X0108076Y0143995D01*
X0108076Y0154145D01*
X0110876Y0156945D01*
X0110876Y0157515D01*
X0111469Y0157761D01*
X0112707Y0158998D01*
X0113376Y0160616D01*
X0113376Y0168366D01*
X0112707Y0169983D01*
X0111469Y0171221D01*
X0109852Y0171891D01*
X0108101Y0171891D01*
X0106484Y0171221D01*
X0105246Y0169983D01*
X0104576Y0168366D01*
X0104576Y0160616D01*
X0105246Y0158998D01*
X0106484Y0157761D01*
X0106566Y0157726D01*
X0105531Y0156691D01*
X0104476Y0155636D01*
X0104476Y0145486D01*
X0103781Y0144791D01*
X0103129Y0144139D01*
X0101552Y0144139D01*
X0099843Y0143431D01*
X0098536Y0142124D01*
X0097828Y0140415D01*
X0097828Y0138566D01*
X0098536Y0136858D01*
X0099843Y0135550D01*
X0101552Y0134843D01*
X0103401Y0134843D01*
X0104256Y0135197D02*
X0110697Y0135197D01*
X0109843Y0135550D02*
X0111552Y0134843D01*
X0113401Y0134843D01*
X0115109Y0135550D01*
X0116417Y0136858D01*
X0117124Y0138566D01*
X0117124Y0140415D01*
X0116417Y0142124D01*
X0115511Y0143030D01*
X0116826Y0144345D01*
X0116826Y0155895D01*
X0118045Y0157114D01*
X0118101Y0157091D01*
X0119852Y0157091D01*
X0121469Y0157761D01*
X0122707Y0158998D01*
X0123376Y0160616D01*
X0123376Y0168366D01*
X0122707Y0169983D01*
X0121469Y0171221D01*
X0119852Y0171891D01*
X0118101Y0171891D01*
X0116484Y0171221D01*
X0115246Y0169983D01*
X0114576Y0168366D01*
X0114576Y0160616D01*
X0115127Y0159287D01*
X0114281Y0158441D01*
X0113226Y0157386D01*
X0113226Y0145836D01*
X0112531Y0145141D01*
X0111513Y0144123D01*
X0109843Y0143431D01*
X0108536Y0142124D01*
X0107828Y0140415D01*
X0107828Y0138566D01*
X0108536Y0136858D01*
X0109843Y0135550D01*
X0108598Y0136796D02*
X0106354Y0136796D01*
X0107053Y0138394D02*
X0107900Y0138394D01*
X0107828Y0139993D02*
X0107124Y0139993D01*
X0106637Y0141591D02*
X0108315Y0141591D01*
X0107271Y0143190D02*
X0109602Y0143190D01*
X0108076Y0144788D02*
X0112178Y0144788D01*
X0113226Y0146387D02*
X0108076Y0146387D01*
X0108076Y0147985D02*
X0113226Y0147985D01*
X0113226Y0149584D02*
X0108076Y0149584D01*
X0108076Y0151182D02*
X0113226Y0151182D01*
X0113226Y0152781D02*
X0108076Y0152781D01*
X0108310Y0154379D02*
X0113226Y0154379D01*
X0113226Y0155978D02*
X0109909Y0155978D01*
X0111023Y0157576D02*
X0113416Y0157576D01*
X0112780Y0159175D02*
X0115015Y0159175D01*
X0114576Y0160773D02*
X0113376Y0160773D01*
X0113376Y0162372D02*
X0114576Y0162372D01*
X0114576Y0163970D02*
X0113376Y0163970D01*
X0113376Y0165569D02*
X0114576Y0165569D01*
X0114576Y0167167D02*
X0113376Y0167167D01*
X0113211Y0168766D02*
X0114742Y0168766D01*
X0115627Y0170364D02*
X0112325Y0170364D01*
X0105627Y0170364D02*
X0102325Y0170364D01*
X0103211Y0168766D02*
X0104742Y0168766D01*
X0104576Y0167167D02*
X0103376Y0167167D01*
X0103376Y0165569D02*
X0104576Y0165569D01*
X0104576Y0163970D02*
X0103376Y0163970D01*
X0103376Y0162372D02*
X0104576Y0162372D01*
X0104576Y0160773D02*
X0103376Y0160773D01*
X0102780Y0159175D02*
X0105173Y0159175D01*
X0106416Y0157576D02*
X0101023Y0157576D01*
X0099204Y0155978D02*
X0104818Y0155978D01*
X0104476Y0154379D02*
X0098276Y0154379D01*
X0098276Y0152781D02*
X0104476Y0152781D01*
X0104476Y0151182D02*
X0098276Y0151182D01*
X0098276Y0149584D02*
X0104476Y0149584D01*
X0104476Y0147985D02*
X0098276Y0147985D01*
X0098276Y0146387D02*
X0104476Y0146387D01*
X0103778Y0144788D02*
X0098276Y0144788D01*
X0099602Y0143190D02*
X0096916Y0143190D01*
X0096637Y0141591D02*
X0098315Y0141591D01*
X0097828Y0139993D02*
X0097124Y0139993D01*
X0097053Y0138394D02*
X0097900Y0138394D01*
X0098598Y0136796D02*
X0096354Y0136796D01*
X0097511Y0135197D02*
X0100697Y0135197D01*
X0087900Y0138394D02*
X0087053Y0138394D01*
X0087124Y0139993D02*
X0087828Y0139993D01*
X0088315Y0141591D02*
X0086637Y0141591D01*
X0086271Y0143190D02*
X0089602Y0143190D01*
X0087076Y0144788D02*
X0092433Y0144788D01*
X0093976Y0146387D02*
X0087076Y0146387D01*
X0087076Y0147985D02*
X0093976Y0147985D01*
X0093976Y0149584D02*
X0087076Y0149584D01*
X0087076Y0151182D02*
X0093976Y0151182D01*
X0093976Y0152781D02*
X0087076Y0152781D01*
X0087076Y0154379D02*
X0093976Y0154379D01*
X0093976Y0155978D02*
X0087509Y0155978D01*
X0084016Y0157576D02*
X0081755Y0157576D01*
X0083183Y0159175D02*
X0085173Y0159175D01*
X0084576Y0160773D02*
X0083723Y0160773D01*
X0083776Y0162372D02*
X0084576Y0162372D01*
X0084576Y0163970D02*
X0083776Y0163970D01*
X0083776Y0165569D02*
X0084576Y0165569D01*
X0084576Y0167167D02*
X0083776Y0167167D01*
X0083609Y0168766D02*
X0084742Y0168766D01*
X0085627Y0170364D02*
X0082822Y0170364D01*
X0079176Y0170364D02*
X0078776Y0170364D01*
X0078776Y0168766D02*
X0079176Y0168766D01*
X0079176Y0167167D02*
X0078776Y0167167D01*
X0078776Y0165569D02*
X0079176Y0165569D01*
X0079176Y0163970D02*
X0078776Y0163970D01*
X0078776Y0162372D02*
X0079176Y0162372D01*
X0079176Y0160773D02*
X0078776Y0160773D01*
X0078776Y0159175D02*
X0079176Y0159175D01*
X0079176Y0157576D02*
X0078776Y0157576D01*
X0076198Y0157576D02*
X0070399Y0157576D01*
X0071213Y0159175D02*
X0074769Y0159175D01*
X0074230Y0160773D02*
X0071809Y0160773D01*
X0072118Y0162372D02*
X0074176Y0162372D01*
X0074176Y0163970D02*
X0072225Y0163970D01*
X0072225Y0165569D02*
X0074176Y0165569D01*
X0074176Y0167167D02*
X0072225Y0167167D01*
X0072225Y0168766D02*
X0074344Y0168766D01*
X0075131Y0170364D02*
X0072225Y0170364D01*
X0091023Y0157576D02*
X0094721Y0157576D01*
X0095236Y0158091D02*
X0095236Y0158091D01*
X0095173Y0159175D02*
X0092780Y0159175D01*
X0093376Y0160773D02*
X0094576Y0160773D01*
X0094576Y0162372D02*
X0093376Y0162372D01*
X0093376Y0163970D02*
X0094576Y0163970D01*
X0094576Y0165569D02*
X0093376Y0165569D01*
X0093376Y0167167D02*
X0094576Y0167167D01*
X0094742Y0168766D02*
X0093211Y0168766D01*
X0092325Y0170364D02*
X0095627Y0170364D01*
X0083476Y0155978D02*
X0069307Y0155978D01*
X0067708Y0154379D02*
X0083476Y0154379D01*
X0083476Y0152781D02*
X0065177Y0152781D01*
X0069831Y0143808D02*
X0069188Y0143341D01*
X0068626Y0142779D01*
X0068159Y0142137D01*
X0067798Y0141429D01*
X0067553Y0140673D01*
X0067428Y0139888D01*
X0067428Y0139773D01*
X0072194Y0139773D01*
X0072194Y0139208D01*
X0072759Y0139208D01*
X0072759Y0134443D01*
X0072874Y0134443D01*
X0073658Y0134567D01*
X0074414Y0134813D01*
X0075122Y0135173D01*
X0075765Y0135640D01*
X0076327Y0136202D01*
X0076794Y0136845D01*
X0077155Y0137553D01*
X0077400Y0138309D01*
X0077524Y0139094D01*
X0077524Y0139208D01*
X0072759Y0139208D01*
X0072759Y0139773D01*
X0077524Y0139773D01*
X0077524Y0139888D01*
X0077400Y0140673D01*
X0077155Y0141429D01*
X0076794Y0142137D01*
X0076327Y0142779D01*
X0075765Y0143341D01*
X0075122Y0143808D01*
X0074414Y0144169D01*
X0073658Y0144415D01*
X0072874Y0144539D01*
X0072759Y0144539D01*
X0072759Y0139774D01*
X0072194Y0139774D01*
X0072194Y0144539D01*
X0072079Y0144539D01*
X0071294Y0144415D01*
X0070539Y0144169D01*
X0069831Y0143808D01*
X0069036Y0143190D02*
X0065351Y0143190D01*
X0066637Y0141591D02*
X0067881Y0141591D01*
X0067445Y0139993D02*
X0067124Y0139993D01*
X0067428Y0139208D02*
X0067428Y0139094D01*
X0067553Y0138309D01*
X0067798Y0137553D01*
X0068159Y0136845D01*
X0068626Y0136202D01*
X0069188Y0135640D01*
X0069831Y0135173D01*
X0070539Y0134813D01*
X0071294Y0134567D01*
X0072079Y0134443D01*
X0072194Y0134443D01*
X0072194Y0139208D01*
X0067428Y0139208D01*
X0067539Y0138394D02*
X0067053Y0138394D01*
X0066354Y0136796D02*
X0068195Y0136796D01*
X0069798Y0135197D02*
X0064256Y0135197D01*
X0060697Y0135197D02*
X0058369Y0135197D01*
X0048797Y0132000D02*
X0045666Y0132000D01*
X0045666Y0133599D02*
X0047246Y0133599D01*
X0046584Y0135197D02*
X0045666Y0135197D01*
X0045666Y0136796D02*
X0046346Y0136796D01*
X0046422Y0138394D02*
X0045666Y0138394D01*
X0045666Y0139993D02*
X0047084Y0139993D01*
X0048407Y0141591D02*
X0045666Y0141591D01*
X0045666Y0143190D02*
X0059602Y0143190D01*
X0058315Y0141591D02*
X0056546Y0141591D01*
X0045666Y0144788D02*
X0082778Y0144788D01*
X0083476Y0146387D02*
X0045666Y0146387D01*
X0045666Y0147985D02*
X0083476Y0147985D01*
X0083476Y0149584D02*
X0045666Y0149584D01*
X0045666Y0151182D02*
X0083476Y0151182D01*
X0079602Y0143190D02*
X0075917Y0143190D01*
X0077072Y0141591D02*
X0078315Y0141591D01*
X0077828Y0139993D02*
X0077508Y0139993D01*
X0077414Y0138394D02*
X0077900Y0138394D01*
X0078598Y0136796D02*
X0076758Y0136796D01*
X0075155Y0135197D02*
X0080697Y0135197D01*
X0072759Y0135197D02*
X0072194Y0135197D01*
X0072194Y0136796D02*
X0072759Y0136796D01*
X0072759Y0138394D02*
X0072194Y0138394D01*
X0072194Y0139993D02*
X0072759Y0139993D01*
X0072759Y0141591D02*
X0072194Y0141591D01*
X0072194Y0143190D02*
X0072759Y0143190D01*
X0114256Y0135197D02*
X0120697Y0135197D01*
X0119843Y0135550D02*
X0121552Y0134843D01*
X0123401Y0134843D01*
X0125109Y0135550D01*
X0126417Y0136858D01*
X0127124Y0138566D01*
X0127124Y0140415D01*
X0126443Y0142061D01*
X0128376Y0143995D01*
X0128376Y0154495D01*
X0130826Y0156945D01*
X0130826Y0157495D01*
X0131469Y0157761D01*
X0132707Y0158998D01*
X0133376Y0160616D01*
X0133376Y0168366D01*
X0132707Y0169983D01*
X0131469Y0171221D01*
X0129852Y0171891D01*
X0128101Y0171891D01*
X0126484Y0171221D01*
X0125246Y0169983D01*
X0124576Y0168366D01*
X0124576Y0160616D01*
X0125246Y0158998D01*
X0126484Y0157761D01*
X0126531Y0157741D01*
X0125831Y0157041D01*
X0124776Y0155986D01*
X0124776Y0145486D01*
X0123421Y0144131D01*
X0123401Y0144139D01*
X0121552Y0144139D01*
X0119843Y0143431D01*
X0118536Y0142124D01*
X0117828Y0140415D01*
X0117828Y0138566D01*
X0118536Y0136858D01*
X0119843Y0135550D01*
X0118598Y0136796D02*
X0116354Y0136796D01*
X0117053Y0138394D02*
X0117900Y0138394D01*
X0117828Y0139993D02*
X0117124Y0139993D01*
X0116637Y0141591D02*
X0118315Y0141591D01*
X0119602Y0143190D02*
X0115671Y0143190D01*
X0116826Y0144788D02*
X0124078Y0144788D01*
X0124776Y0146387D02*
X0116826Y0146387D01*
X0116826Y0147985D02*
X0124776Y0147985D01*
X0124776Y0149584D02*
X0116826Y0149584D01*
X0116826Y0151182D02*
X0124776Y0151182D01*
X0124776Y0152781D02*
X0116826Y0152781D01*
X0116826Y0154379D02*
X0124776Y0154379D01*
X0124776Y0155978D02*
X0116909Y0155978D01*
X0121023Y0157576D02*
X0126366Y0157576D01*
X0125173Y0159175D02*
X0122780Y0159175D01*
X0123376Y0160773D02*
X0124576Y0160773D01*
X0124576Y0162372D02*
X0123376Y0162372D01*
X0123376Y0163970D02*
X0124576Y0163970D01*
X0124576Y0165569D02*
X0123376Y0165569D01*
X0123376Y0167167D02*
X0124576Y0167167D01*
X0124742Y0168766D02*
X0123211Y0168766D01*
X0122325Y0170364D02*
X0125627Y0170364D01*
X0132325Y0170364D02*
X0135627Y0170364D01*
X0135246Y0169983D02*
X0134576Y0168366D01*
X0134576Y0160616D01*
X0135246Y0158998D01*
X0135367Y0158877D01*
X0133176Y0156686D01*
X0133176Y0146186D01*
X0132481Y0145491D01*
X0132481Y0145491D01*
X0131426Y0144436D01*
X0131426Y0144087D01*
X0129843Y0143431D01*
X0128536Y0142124D01*
X0127828Y0140415D01*
X0127828Y0138566D01*
X0128536Y0136858D01*
X0129843Y0135550D01*
X0131552Y0134843D01*
X0133401Y0134843D01*
X0135109Y0135550D01*
X0136417Y0136858D01*
X0137124Y0138566D01*
X0137124Y0140415D01*
X0136417Y0142124D01*
X0135311Y0143230D01*
X0136776Y0144695D01*
X0136776Y0155195D01*
X0138672Y0157091D01*
X0139852Y0157091D01*
X0141469Y0157761D01*
X0142707Y0158998D01*
X0143376Y0160616D01*
X0143376Y0168366D01*
X0142707Y0169983D01*
X0141469Y0171221D01*
X0139852Y0171891D01*
X0138101Y0171891D01*
X0136484Y0171221D01*
X0135246Y0169983D01*
X0134742Y0168766D02*
X0133211Y0168766D01*
X0133376Y0167167D02*
X0134576Y0167167D01*
X0134576Y0165569D02*
X0133376Y0165569D01*
X0133376Y0163970D02*
X0134576Y0163970D01*
X0134576Y0162372D02*
X0133376Y0162372D01*
X0133376Y0160773D02*
X0134576Y0160773D01*
X0135173Y0159175D02*
X0132780Y0159175D01*
X0134066Y0157576D02*
X0131023Y0157576D01*
X0129859Y0155978D02*
X0133176Y0155978D01*
X0133176Y0154379D02*
X0128376Y0154379D01*
X0128376Y0152781D02*
X0133176Y0152781D01*
X0133176Y0151182D02*
X0128376Y0151182D01*
X0128376Y0149584D02*
X0133176Y0149584D01*
X0133176Y0147985D02*
X0128376Y0147985D01*
X0128376Y0146387D02*
X0133176Y0146387D01*
X0131778Y0144788D02*
X0128376Y0144788D01*
X0127571Y0143190D02*
X0129602Y0143190D01*
X0128315Y0141591D02*
X0126637Y0141591D01*
X0127124Y0139993D02*
X0127828Y0139993D01*
X0127900Y0138394D02*
X0127053Y0138394D01*
X0126354Y0136796D02*
X0128598Y0136796D01*
X0130697Y0135197D02*
X0124256Y0135197D01*
X0134256Y0135197D02*
X0140697Y0135197D01*
X0139843Y0135550D02*
X0141552Y0134843D01*
X0143401Y0134843D01*
X0145109Y0135550D01*
X0146417Y0136858D01*
X0147124Y0138566D01*
X0147124Y0140415D01*
X0146417Y0142124D01*
X0145109Y0143431D01*
X0143401Y0144139D01*
X0141552Y0144139D01*
X0139843Y0143431D01*
X0138536Y0142124D01*
X0137828Y0140415D01*
X0137828Y0138566D01*
X0138536Y0136858D01*
X0139843Y0135550D01*
X0138598Y0136796D02*
X0136354Y0136796D01*
X0137053Y0138394D02*
X0137900Y0138394D01*
X0137828Y0139993D02*
X0137124Y0139993D01*
X0136637Y0141591D02*
X0138315Y0141591D01*
X0139602Y0143190D02*
X0135351Y0143190D01*
X0136776Y0144788D02*
X0152778Y0144788D01*
X0152129Y0144139D02*
X0151552Y0144139D01*
X0149843Y0143431D01*
X0148536Y0142124D01*
X0147828Y0140415D01*
X0147828Y0138566D01*
X0148536Y0136858D01*
X0149843Y0135550D01*
X0151552Y0134843D01*
X0153401Y0134843D01*
X0155109Y0135550D01*
X0156417Y0136858D01*
X0157124Y0138566D01*
X0157124Y0140415D01*
X0156417Y0142124D01*
X0155811Y0142730D01*
X0157076Y0143995D01*
X0157076Y0155545D01*
X0158622Y0157091D01*
X0159852Y0157091D01*
X0161469Y0157761D01*
X0162707Y0158998D01*
X0163376Y0160616D01*
X0163376Y0168366D01*
X0162707Y0169983D01*
X0161469Y0171221D01*
X0159852Y0171891D01*
X0158101Y0171891D01*
X0156484Y0171221D01*
X0155246Y0169983D01*
X0154576Y0168366D01*
X0154576Y0160616D01*
X0155246Y0158998D01*
X0155342Y0158902D01*
X0154531Y0158091D01*
X0153476Y0157036D01*
X0153476Y0145486D01*
X0152129Y0144139D01*
X0153476Y0146387D02*
X0136776Y0146387D01*
X0136776Y0147985D02*
X0153476Y0147985D01*
X0153476Y0149584D02*
X0136776Y0149584D01*
X0136776Y0151182D02*
X0153476Y0151182D01*
X0153476Y0152781D02*
X0136776Y0152781D01*
X0136776Y0154379D02*
X0153476Y0154379D01*
X0153476Y0155978D02*
X0137559Y0155978D01*
X0141023Y0157576D02*
X0146929Y0157576D01*
X0146484Y0157761D02*
X0148101Y0157091D01*
X0149852Y0157091D01*
X0151469Y0157761D01*
X0152707Y0158998D01*
X0153376Y0160616D01*
X0153376Y0168366D01*
X0152707Y0169983D01*
X0151469Y0171221D01*
X0149852Y0171891D01*
X0148101Y0171891D01*
X0146484Y0171221D01*
X0145246Y0169983D01*
X0144576Y0168366D01*
X0144576Y0160616D01*
X0145246Y0158998D01*
X0146484Y0157761D01*
X0145173Y0159175D02*
X0142780Y0159175D01*
X0143376Y0160773D02*
X0144576Y0160773D01*
X0144576Y0162372D02*
X0143376Y0162372D01*
X0143376Y0163970D02*
X0144576Y0163970D01*
X0144576Y0165569D02*
X0143376Y0165569D01*
X0143376Y0167167D02*
X0144576Y0167167D01*
X0144742Y0168766D02*
X0143211Y0168766D01*
X0142325Y0170364D02*
X0145627Y0170364D01*
X0152325Y0170364D02*
X0155627Y0170364D01*
X0154742Y0168766D02*
X0153211Y0168766D01*
X0153376Y0167167D02*
X0154576Y0167167D01*
X0154576Y0165569D02*
X0153376Y0165569D01*
X0153376Y0163970D02*
X0154576Y0163970D01*
X0154576Y0162372D02*
X0153376Y0162372D01*
X0153376Y0160773D02*
X0154576Y0160773D01*
X0155173Y0159175D02*
X0152780Y0159175D01*
X0154016Y0157576D02*
X0151023Y0157576D01*
X0157509Y0155978D02*
X0163626Y0155978D01*
X0163626Y0154379D02*
X0157076Y0154379D01*
X0157076Y0152781D02*
X0163626Y0152781D01*
X0163626Y0151182D02*
X0157076Y0151182D01*
X0157076Y0149584D02*
X0163626Y0149584D01*
X0163626Y0147985D02*
X0157076Y0147985D01*
X0157076Y0146387D02*
X0163626Y0146387D01*
X0162928Y0144788D02*
X0157076Y0144788D01*
X0156271Y0143190D02*
X0159602Y0143190D01*
X0158315Y0141591D02*
X0156637Y0141591D01*
X0157124Y0139993D02*
X0157828Y0139993D01*
X0157900Y0138394D02*
X0157053Y0138394D01*
X0156354Y0136796D02*
X0158598Y0136796D01*
X0160697Y0135197D02*
X0154256Y0135197D01*
X0150697Y0135197D02*
X0144256Y0135197D01*
X0146354Y0136796D02*
X0148598Y0136796D01*
X0147900Y0138394D02*
X0147053Y0138394D01*
X0147124Y0139993D02*
X0147828Y0139993D01*
X0148315Y0141591D02*
X0146637Y0141591D01*
X0145351Y0143190D02*
X0149602Y0143190D01*
X0165883Y0130401D02*
X0216441Y0130401D01*
X0214843Y0128803D02*
X0164284Y0128803D01*
X0174256Y0135197D02*
X0175387Y0135197D01*
X0176354Y0136796D02*
X0176986Y0136796D01*
X0177053Y0138394D02*
X0178584Y0138394D01*
X0177124Y0139993D02*
X0180183Y0139993D01*
X0181781Y0141591D02*
X0176637Y0141591D01*
X0175351Y0143190D02*
X0183126Y0143190D01*
X0178880Y0133599D02*
X0219639Y0133599D01*
X0218040Y0132000D02*
X0177281Y0132000D01*
X0216737Y0125606D02*
X0223826Y0125606D01*
X0221596Y0127204D02*
X0218336Y0127204D01*
X0219934Y0128803D02*
X0221596Y0128803D01*
X0221604Y0130401D02*
X0221533Y0130401D01*
X0165173Y0159175D02*
X0162780Y0159175D01*
X0163376Y0160773D02*
X0164576Y0160773D01*
X0164576Y0162372D02*
X0163376Y0162372D01*
X0163376Y0163970D02*
X0164576Y0163970D01*
X0164576Y0165569D02*
X0163376Y0165569D01*
X0163376Y0167167D02*
X0164576Y0167167D01*
X0164742Y0168766D02*
X0163211Y0168766D01*
X0162325Y0170364D02*
X0165627Y0170364D01*
X0164166Y0157576D02*
X0161023Y0157576D01*
X0098858Y0082446D02*
X0096094Y0082446D01*
X0096945Y0080848D02*
X0098007Y0080848D01*
X0097828Y0079249D02*
X0097124Y0079249D01*
X0096745Y0077651D02*
X0098208Y0077651D01*
X0099342Y0076052D02*
X0095611Y0076052D01*
X0089342Y0076052D02*
X0085611Y0076052D01*
X0086745Y0077651D02*
X0088208Y0077651D01*
X0087828Y0079249D02*
X0087124Y0079249D01*
X0086945Y0080848D02*
X0088007Y0080848D01*
X0088858Y0082446D02*
X0086094Y0082446D01*
X0078858Y0082446D02*
X0076094Y0082446D01*
X0076945Y0080848D02*
X0078007Y0080848D01*
X0077828Y0079249D02*
X0077124Y0079249D01*
X0076745Y0077651D02*
X0078208Y0077651D01*
X0079342Y0076052D02*
X0075611Y0076052D01*
X0069342Y0076052D02*
X0065611Y0076052D01*
X0066745Y0077651D02*
X0068208Y0077651D01*
X0067828Y0079249D02*
X0067124Y0079249D01*
X0066945Y0080848D02*
X0068007Y0080848D01*
X0068858Y0082446D02*
X0066094Y0082446D01*
X0099902Y0056870D02*
X0100415Y0056870D01*
D23*
X0129476Y0105991D03*
X0079476Y0110991D03*
X0071476Y0149491D03*
X0249476Y0075991D03*
D24*
X0234476Y0093491D03*
D25*
X0230476Y0127991D03*
D26*
X0245226Y0070541D02*
X0117826Y0070541D01*
X0117826Y0074741D01*
X0118876Y0075791D01*
X0118876Y0076491D01*
X0117826Y0077541D01*
X0117826Y0081391D01*
X0118876Y0082441D01*
X0118876Y0083141D01*
X0115376Y0086641D01*
X0115376Y0114291D01*
X0092976Y0136691D01*
X0092976Y0138791D01*
X0092476Y0139491D01*
X0092626Y0139491D01*
X0092626Y0141941D01*
X0096126Y0145441D01*
X0096126Y0155941D01*
X0097526Y0157341D01*
X0097526Y0157691D01*
X0098926Y0159091D01*
X0098926Y0164341D01*
X0098976Y0164491D01*
X0117126Y0070541D02*
X0099276Y0052691D01*
X0099276Y0049541D01*
X0098976Y0049491D01*
X0117126Y0070541D02*
X0117826Y0070541D01*
X0245226Y0070541D02*
X0248026Y0067741D01*
X0248026Y0063891D01*
X0248130Y0063684D01*
D27*
X0231926Y0083841D02*
X0225626Y0083841D01*
X0223876Y0085591D01*
X0223876Y0089441D01*
X0223917Y0089491D01*
X0223876Y0089791D01*
X0220376Y0089791D01*
X0219326Y0090841D01*
X0219326Y0104841D01*
X0221251Y0106766D01*
X0208301Y0119716D01*
X0221776Y0133191D01*
X0239276Y0133191D01*
X0242076Y0130391D01*
X0267976Y0130391D01*
X0268043Y0130428D01*
X0241726Y0127591D02*
X0241726Y0121991D01*
X0237526Y0117791D01*
X0237526Y0108691D01*
X0238576Y0107641D01*
X0238576Y0097141D01*
X0238524Y0096991D01*
X0244176Y0096791D02*
X0244429Y0096991D01*
X0244176Y0096791D02*
X0244176Y0089791D01*
X0244035Y0089491D01*
X0238917Y0089491D02*
X0238576Y0089441D01*
X0237876Y0088741D01*
X0236826Y0088741D01*
X0231926Y0083841D01*
X0223917Y0096991D02*
X0223876Y0097141D01*
X0223876Y0100641D01*
X0223526Y0100641D01*
X0223876Y0100641D02*
X0223876Y0107291D01*
X0235076Y0118491D01*
X0235076Y0120591D01*
X0235426Y0120941D01*
X0235594Y0121251D01*
X0234726Y0120591D01*
X0234026Y0121291D01*
X0232976Y0121291D01*
X0232626Y0120941D01*
X0230876Y0120941D01*
X0225626Y0126191D01*
X0225626Y0128641D01*
X0225358Y0128731D01*
X0225358Y0121251D02*
X0225276Y0120941D01*
X0225276Y0110791D01*
X0221251Y0106766D01*
X0208826Y0115691D02*
X0206376Y0113241D01*
X0206376Y0095741D01*
X0206476Y0095633D01*
X0203917Y0088349D02*
X0203576Y0088391D01*
X0160526Y0088391D01*
X0152476Y0080341D01*
X0152476Y0079491D01*
X0112576Y0089441D02*
X0105926Y0082791D01*
X0105926Y0082091D01*
X0106976Y0081041D01*
X0106976Y0077891D01*
X0106276Y0077191D01*
X0106276Y0076491D01*
X0106976Y0075791D01*
X0106976Y0070191D01*
X0089126Y0052341D01*
X0089126Y0049541D01*
X0088976Y0049491D01*
X0148976Y0116041D02*
X0165776Y0132841D01*
X0175576Y0132841D01*
X0185726Y0142991D01*
X0172426Y0141941D02*
X0172426Y0139491D01*
X0172476Y0139491D01*
X0172426Y0141941D02*
X0171726Y0142641D01*
X0171726Y0143341D01*
X0171376Y0143691D01*
X0171376Y0144741D01*
X0171026Y0145091D01*
X0171026Y0154191D01*
X0178726Y0161891D01*
X0178726Y0164341D01*
X0178976Y0164491D01*
X0168976Y0164491D02*
X0168926Y0164341D01*
X0168926Y0159791D01*
X0165426Y0156291D01*
X0165426Y0144741D01*
X0162626Y0141941D01*
X0162626Y0139491D01*
X0162476Y0139491D01*
X0155276Y0144741D02*
X0152476Y0141941D01*
X0152476Y0139491D01*
X0155276Y0144741D02*
X0155276Y0156291D01*
X0158776Y0159791D01*
X0158776Y0164341D01*
X0158976Y0164491D01*
X0138976Y0164491D02*
X0138826Y0164341D01*
X0138826Y0159791D01*
X0134976Y0155941D01*
X0134976Y0145441D01*
X0133226Y0143691D01*
X0133226Y0142641D01*
X0132526Y0141941D01*
X0132526Y0139491D01*
X0132476Y0139491D01*
X0126576Y0144741D02*
X0122726Y0140891D01*
X0122726Y0139491D01*
X0122476Y0139491D01*
X0126576Y0144741D02*
X0126576Y0155241D01*
X0129026Y0157691D01*
X0129026Y0164341D01*
X0128976Y0164491D01*
X0118976Y0164491D02*
X0118876Y0164341D01*
X0118876Y0160491D01*
X0115026Y0156641D01*
X0115026Y0145091D01*
X0113276Y0143341D01*
X0113276Y0142641D01*
X0112576Y0141941D01*
X0112576Y0139491D01*
X0112476Y0139491D01*
X0106276Y0144741D02*
X0104526Y0142991D01*
X0104526Y0142641D01*
X0102776Y0140891D01*
X0102776Y0139491D01*
X0102476Y0139491D01*
X0106276Y0144741D02*
X0106276Y0154891D01*
X0109076Y0157691D01*
X0109076Y0164341D01*
X0108976Y0164491D01*
X0088976Y0164491D02*
X0088776Y0164341D01*
X0088776Y0159791D01*
X0085276Y0156291D01*
X0085276Y0144741D01*
X0082476Y0141941D01*
X0082476Y0139491D01*
X0082476Y0138441D01*
X0102426Y0118491D01*
X0157376Y0120941D02*
X0201126Y0120941D01*
X0203576Y0123391D01*
X0203926Y0123391D01*
X0204626Y0123391D01*
X0208301Y0119716D01*
X0235594Y0128731D02*
X0235776Y0128641D01*
X0238226Y0128641D01*
X0238926Y0129341D01*
X0239976Y0129341D01*
X0241726Y0127591D01*
X0193012Y0063684D02*
X0193076Y0063541D01*
X0193076Y0062841D01*
X0206376Y0049541D01*
X0214426Y0049541D01*
D28*
X0214426Y0049541D03*
X0223526Y0100641D03*
X0208826Y0115691D03*
X0203926Y0123391D03*
X0185726Y0142991D03*
X0157376Y0120941D03*
X0148976Y0116041D03*
X0112576Y0089441D03*
X0102426Y0118491D03*
M02*
