G75*
%MOIN*%
%OFA0B0*%
%FSLAX25Y25*%
%IPPOS*%
%LPD*%
%AMOC8*
5,1,8,0,0,1.08239X$1,22.5*
%
%ADD10C,0.00200*%
%ADD11C,0.00000*%
%ADD12R,0.01600X0.02800*%
%ADD13C,0.00100*%
%ADD14C,0.00800*%
%ADD15C,0.00500*%
%ADD16R,0.02800X0.01600*%
D10*
X0230076Y0067091D02*
X0230076Y0068559D01*
X0230810Y0069293D01*
X0231544Y0068559D01*
X0231544Y0067091D01*
X0232286Y0067458D02*
X0232653Y0067091D01*
X0233387Y0067091D01*
X0233754Y0067458D01*
X0233754Y0067825D01*
X0233387Y0068192D01*
X0232286Y0068192D01*
X0232286Y0067458D01*
X0232286Y0068192D02*
X0233020Y0068926D01*
X0233754Y0069293D01*
X0231544Y0068192D02*
X0230076Y0068192D01*
D11*
X0264339Y0034156D02*
X0059614Y0034156D01*
X0053315Y0049904D02*
X0053317Y0050062D01*
X0053323Y0050220D01*
X0053333Y0050378D01*
X0053347Y0050536D01*
X0053365Y0050693D01*
X0053386Y0050850D01*
X0053412Y0051006D01*
X0053442Y0051162D01*
X0053475Y0051317D01*
X0053513Y0051470D01*
X0053554Y0051623D01*
X0053599Y0051775D01*
X0053648Y0051926D01*
X0053701Y0052075D01*
X0053757Y0052223D01*
X0053817Y0052369D01*
X0053881Y0052514D01*
X0053949Y0052657D01*
X0054020Y0052799D01*
X0054094Y0052939D01*
X0054172Y0053076D01*
X0054254Y0053212D01*
X0054338Y0053346D01*
X0054427Y0053477D01*
X0054518Y0053606D01*
X0054613Y0053733D01*
X0054710Y0053858D01*
X0054811Y0053980D01*
X0054915Y0054099D01*
X0055022Y0054216D01*
X0055132Y0054330D01*
X0055245Y0054441D01*
X0055360Y0054550D01*
X0055478Y0054655D01*
X0055599Y0054757D01*
X0055722Y0054857D01*
X0055848Y0054953D01*
X0055976Y0055046D01*
X0056106Y0055136D01*
X0056239Y0055222D01*
X0056374Y0055306D01*
X0056510Y0055385D01*
X0056649Y0055462D01*
X0056790Y0055534D01*
X0056932Y0055604D01*
X0057076Y0055669D01*
X0057222Y0055731D01*
X0057369Y0055789D01*
X0057518Y0055844D01*
X0057668Y0055895D01*
X0057819Y0055942D01*
X0057971Y0055985D01*
X0058124Y0056024D01*
X0058279Y0056060D01*
X0058434Y0056091D01*
X0058590Y0056119D01*
X0058746Y0056143D01*
X0058903Y0056163D01*
X0059061Y0056179D01*
X0059218Y0056191D01*
X0059377Y0056199D01*
X0059535Y0056203D01*
X0059693Y0056203D01*
X0059851Y0056199D01*
X0060010Y0056191D01*
X0060167Y0056179D01*
X0060325Y0056163D01*
X0060482Y0056143D01*
X0060638Y0056119D01*
X0060794Y0056091D01*
X0060949Y0056060D01*
X0061104Y0056024D01*
X0061257Y0055985D01*
X0061409Y0055942D01*
X0061560Y0055895D01*
X0061710Y0055844D01*
X0061859Y0055789D01*
X0062006Y0055731D01*
X0062152Y0055669D01*
X0062296Y0055604D01*
X0062438Y0055534D01*
X0062579Y0055462D01*
X0062718Y0055385D01*
X0062854Y0055306D01*
X0062989Y0055222D01*
X0063122Y0055136D01*
X0063252Y0055046D01*
X0063380Y0054953D01*
X0063506Y0054857D01*
X0063629Y0054757D01*
X0063750Y0054655D01*
X0063868Y0054550D01*
X0063983Y0054441D01*
X0064096Y0054330D01*
X0064206Y0054216D01*
X0064313Y0054099D01*
X0064417Y0053980D01*
X0064518Y0053858D01*
X0064615Y0053733D01*
X0064710Y0053606D01*
X0064801Y0053477D01*
X0064890Y0053346D01*
X0064974Y0053212D01*
X0065056Y0053076D01*
X0065134Y0052939D01*
X0065208Y0052799D01*
X0065279Y0052657D01*
X0065347Y0052514D01*
X0065411Y0052369D01*
X0065471Y0052223D01*
X0065527Y0052075D01*
X0065580Y0051926D01*
X0065629Y0051775D01*
X0065674Y0051623D01*
X0065715Y0051470D01*
X0065753Y0051317D01*
X0065786Y0051162D01*
X0065816Y0051006D01*
X0065842Y0050850D01*
X0065863Y0050693D01*
X0065881Y0050536D01*
X0065895Y0050378D01*
X0065905Y0050220D01*
X0065911Y0050062D01*
X0065913Y0049904D01*
X0065911Y0049746D01*
X0065905Y0049588D01*
X0065895Y0049430D01*
X0065881Y0049272D01*
X0065863Y0049115D01*
X0065842Y0048958D01*
X0065816Y0048802D01*
X0065786Y0048646D01*
X0065753Y0048491D01*
X0065715Y0048338D01*
X0065674Y0048185D01*
X0065629Y0048033D01*
X0065580Y0047882D01*
X0065527Y0047733D01*
X0065471Y0047585D01*
X0065411Y0047439D01*
X0065347Y0047294D01*
X0065279Y0047151D01*
X0065208Y0047009D01*
X0065134Y0046869D01*
X0065056Y0046732D01*
X0064974Y0046596D01*
X0064890Y0046462D01*
X0064801Y0046331D01*
X0064710Y0046202D01*
X0064615Y0046075D01*
X0064518Y0045950D01*
X0064417Y0045828D01*
X0064313Y0045709D01*
X0064206Y0045592D01*
X0064096Y0045478D01*
X0063983Y0045367D01*
X0063868Y0045258D01*
X0063750Y0045153D01*
X0063629Y0045051D01*
X0063506Y0044951D01*
X0063380Y0044855D01*
X0063252Y0044762D01*
X0063122Y0044672D01*
X0062989Y0044586D01*
X0062854Y0044502D01*
X0062718Y0044423D01*
X0062579Y0044346D01*
X0062438Y0044274D01*
X0062296Y0044204D01*
X0062152Y0044139D01*
X0062006Y0044077D01*
X0061859Y0044019D01*
X0061710Y0043964D01*
X0061560Y0043913D01*
X0061409Y0043866D01*
X0061257Y0043823D01*
X0061104Y0043784D01*
X0060949Y0043748D01*
X0060794Y0043717D01*
X0060638Y0043689D01*
X0060482Y0043665D01*
X0060325Y0043645D01*
X0060167Y0043629D01*
X0060010Y0043617D01*
X0059851Y0043609D01*
X0059693Y0043605D01*
X0059535Y0043605D01*
X0059377Y0043609D01*
X0059218Y0043617D01*
X0059061Y0043629D01*
X0058903Y0043645D01*
X0058746Y0043665D01*
X0058590Y0043689D01*
X0058434Y0043717D01*
X0058279Y0043748D01*
X0058124Y0043784D01*
X0057971Y0043823D01*
X0057819Y0043866D01*
X0057668Y0043913D01*
X0057518Y0043964D01*
X0057369Y0044019D01*
X0057222Y0044077D01*
X0057076Y0044139D01*
X0056932Y0044204D01*
X0056790Y0044274D01*
X0056649Y0044346D01*
X0056510Y0044423D01*
X0056374Y0044502D01*
X0056239Y0044586D01*
X0056106Y0044672D01*
X0055976Y0044762D01*
X0055848Y0044855D01*
X0055722Y0044951D01*
X0055599Y0045051D01*
X0055478Y0045153D01*
X0055360Y0045258D01*
X0055245Y0045367D01*
X0055132Y0045478D01*
X0055022Y0045592D01*
X0054915Y0045709D01*
X0054811Y0045828D01*
X0054710Y0045950D01*
X0054613Y0046075D01*
X0054518Y0046202D01*
X0054427Y0046331D01*
X0054338Y0046462D01*
X0054254Y0046596D01*
X0054172Y0046732D01*
X0054094Y0046869D01*
X0054020Y0047009D01*
X0053949Y0047151D01*
X0053881Y0047294D01*
X0053817Y0047439D01*
X0053757Y0047585D01*
X0053701Y0047733D01*
X0053648Y0047882D01*
X0053599Y0048033D01*
X0053554Y0048185D01*
X0053513Y0048338D01*
X0053475Y0048491D01*
X0053442Y0048646D01*
X0053412Y0048802D01*
X0053386Y0048958D01*
X0053365Y0049115D01*
X0053347Y0049272D01*
X0053333Y0049430D01*
X0053323Y0049588D01*
X0053317Y0049746D01*
X0053315Y0049904D01*
X0043866Y0049904D02*
X0043871Y0049523D01*
X0043884Y0049143D01*
X0043907Y0048763D01*
X0043940Y0048384D01*
X0043981Y0048006D01*
X0044031Y0047629D01*
X0044091Y0047253D01*
X0044159Y0046878D01*
X0044237Y0046506D01*
X0044324Y0046135D01*
X0044419Y0045767D01*
X0044524Y0045401D01*
X0044637Y0045038D01*
X0044759Y0044677D01*
X0044889Y0044320D01*
X0045029Y0043966D01*
X0045176Y0043615D01*
X0045333Y0043268D01*
X0045497Y0042925D01*
X0045670Y0042586D01*
X0045851Y0042251D01*
X0046040Y0041920D01*
X0046237Y0041595D01*
X0046441Y0041274D01*
X0046654Y0040958D01*
X0046874Y0040648D01*
X0047101Y0040342D01*
X0047336Y0040043D01*
X0047578Y0039749D01*
X0047826Y0039461D01*
X0048082Y0039179D01*
X0048345Y0038904D01*
X0048614Y0038635D01*
X0048889Y0038372D01*
X0049171Y0038116D01*
X0049459Y0037868D01*
X0049753Y0037626D01*
X0050052Y0037391D01*
X0050358Y0037164D01*
X0050668Y0036944D01*
X0050984Y0036731D01*
X0051305Y0036527D01*
X0051630Y0036330D01*
X0051961Y0036141D01*
X0052296Y0035960D01*
X0052635Y0035787D01*
X0052978Y0035623D01*
X0053325Y0035466D01*
X0053676Y0035319D01*
X0054030Y0035179D01*
X0054387Y0035049D01*
X0054748Y0034927D01*
X0055111Y0034814D01*
X0055477Y0034709D01*
X0055845Y0034614D01*
X0056216Y0034527D01*
X0056588Y0034449D01*
X0056963Y0034381D01*
X0057339Y0034321D01*
X0057716Y0034271D01*
X0058094Y0034230D01*
X0058473Y0034197D01*
X0058853Y0034174D01*
X0059233Y0034161D01*
X0059614Y0034156D01*
X0059233Y0034161D01*
X0058853Y0034174D01*
X0058473Y0034197D01*
X0058094Y0034230D01*
X0057716Y0034271D01*
X0057339Y0034321D01*
X0056963Y0034381D01*
X0056588Y0034449D01*
X0056216Y0034527D01*
X0055845Y0034614D01*
X0055477Y0034709D01*
X0055111Y0034814D01*
X0054748Y0034927D01*
X0054387Y0035049D01*
X0054030Y0035179D01*
X0053676Y0035319D01*
X0053325Y0035466D01*
X0052978Y0035623D01*
X0052635Y0035787D01*
X0052296Y0035960D01*
X0051961Y0036141D01*
X0051630Y0036330D01*
X0051305Y0036527D01*
X0050984Y0036731D01*
X0050668Y0036944D01*
X0050358Y0037164D01*
X0050052Y0037391D01*
X0049753Y0037626D01*
X0049459Y0037868D01*
X0049171Y0038116D01*
X0048889Y0038372D01*
X0048614Y0038635D01*
X0048345Y0038904D01*
X0048082Y0039179D01*
X0047826Y0039461D01*
X0047578Y0039749D01*
X0047336Y0040043D01*
X0047101Y0040342D01*
X0046874Y0040648D01*
X0046654Y0040958D01*
X0046441Y0041274D01*
X0046237Y0041595D01*
X0046040Y0041920D01*
X0045851Y0042251D01*
X0045670Y0042586D01*
X0045497Y0042925D01*
X0045333Y0043268D01*
X0045176Y0043615D01*
X0045029Y0043966D01*
X0044889Y0044320D01*
X0044759Y0044677D01*
X0044637Y0045038D01*
X0044524Y0045401D01*
X0044419Y0045767D01*
X0044324Y0046135D01*
X0044237Y0046506D01*
X0044159Y0046878D01*
X0044091Y0047253D01*
X0044031Y0047629D01*
X0043981Y0048006D01*
X0043940Y0048384D01*
X0043907Y0048763D01*
X0043884Y0049143D01*
X0043871Y0049523D01*
X0043866Y0049904D01*
X0043866Y0164077D01*
X0053315Y0164077D02*
X0053317Y0164235D01*
X0053323Y0164393D01*
X0053333Y0164551D01*
X0053347Y0164709D01*
X0053365Y0164866D01*
X0053386Y0165023D01*
X0053412Y0165179D01*
X0053442Y0165335D01*
X0053475Y0165490D01*
X0053513Y0165643D01*
X0053554Y0165796D01*
X0053599Y0165948D01*
X0053648Y0166099D01*
X0053701Y0166248D01*
X0053757Y0166396D01*
X0053817Y0166542D01*
X0053881Y0166687D01*
X0053949Y0166830D01*
X0054020Y0166972D01*
X0054094Y0167112D01*
X0054172Y0167249D01*
X0054254Y0167385D01*
X0054338Y0167519D01*
X0054427Y0167650D01*
X0054518Y0167779D01*
X0054613Y0167906D01*
X0054710Y0168031D01*
X0054811Y0168153D01*
X0054915Y0168272D01*
X0055022Y0168389D01*
X0055132Y0168503D01*
X0055245Y0168614D01*
X0055360Y0168723D01*
X0055478Y0168828D01*
X0055599Y0168930D01*
X0055722Y0169030D01*
X0055848Y0169126D01*
X0055976Y0169219D01*
X0056106Y0169309D01*
X0056239Y0169395D01*
X0056374Y0169479D01*
X0056510Y0169558D01*
X0056649Y0169635D01*
X0056790Y0169707D01*
X0056932Y0169777D01*
X0057076Y0169842D01*
X0057222Y0169904D01*
X0057369Y0169962D01*
X0057518Y0170017D01*
X0057668Y0170068D01*
X0057819Y0170115D01*
X0057971Y0170158D01*
X0058124Y0170197D01*
X0058279Y0170233D01*
X0058434Y0170264D01*
X0058590Y0170292D01*
X0058746Y0170316D01*
X0058903Y0170336D01*
X0059061Y0170352D01*
X0059218Y0170364D01*
X0059377Y0170372D01*
X0059535Y0170376D01*
X0059693Y0170376D01*
X0059851Y0170372D01*
X0060010Y0170364D01*
X0060167Y0170352D01*
X0060325Y0170336D01*
X0060482Y0170316D01*
X0060638Y0170292D01*
X0060794Y0170264D01*
X0060949Y0170233D01*
X0061104Y0170197D01*
X0061257Y0170158D01*
X0061409Y0170115D01*
X0061560Y0170068D01*
X0061710Y0170017D01*
X0061859Y0169962D01*
X0062006Y0169904D01*
X0062152Y0169842D01*
X0062296Y0169777D01*
X0062438Y0169707D01*
X0062579Y0169635D01*
X0062718Y0169558D01*
X0062854Y0169479D01*
X0062989Y0169395D01*
X0063122Y0169309D01*
X0063252Y0169219D01*
X0063380Y0169126D01*
X0063506Y0169030D01*
X0063629Y0168930D01*
X0063750Y0168828D01*
X0063868Y0168723D01*
X0063983Y0168614D01*
X0064096Y0168503D01*
X0064206Y0168389D01*
X0064313Y0168272D01*
X0064417Y0168153D01*
X0064518Y0168031D01*
X0064615Y0167906D01*
X0064710Y0167779D01*
X0064801Y0167650D01*
X0064890Y0167519D01*
X0064974Y0167385D01*
X0065056Y0167249D01*
X0065134Y0167112D01*
X0065208Y0166972D01*
X0065279Y0166830D01*
X0065347Y0166687D01*
X0065411Y0166542D01*
X0065471Y0166396D01*
X0065527Y0166248D01*
X0065580Y0166099D01*
X0065629Y0165948D01*
X0065674Y0165796D01*
X0065715Y0165643D01*
X0065753Y0165490D01*
X0065786Y0165335D01*
X0065816Y0165179D01*
X0065842Y0165023D01*
X0065863Y0164866D01*
X0065881Y0164709D01*
X0065895Y0164551D01*
X0065905Y0164393D01*
X0065911Y0164235D01*
X0065913Y0164077D01*
X0065911Y0163919D01*
X0065905Y0163761D01*
X0065895Y0163603D01*
X0065881Y0163445D01*
X0065863Y0163288D01*
X0065842Y0163131D01*
X0065816Y0162975D01*
X0065786Y0162819D01*
X0065753Y0162664D01*
X0065715Y0162511D01*
X0065674Y0162358D01*
X0065629Y0162206D01*
X0065580Y0162055D01*
X0065527Y0161906D01*
X0065471Y0161758D01*
X0065411Y0161612D01*
X0065347Y0161467D01*
X0065279Y0161324D01*
X0065208Y0161182D01*
X0065134Y0161042D01*
X0065056Y0160905D01*
X0064974Y0160769D01*
X0064890Y0160635D01*
X0064801Y0160504D01*
X0064710Y0160375D01*
X0064615Y0160248D01*
X0064518Y0160123D01*
X0064417Y0160001D01*
X0064313Y0159882D01*
X0064206Y0159765D01*
X0064096Y0159651D01*
X0063983Y0159540D01*
X0063868Y0159431D01*
X0063750Y0159326D01*
X0063629Y0159224D01*
X0063506Y0159124D01*
X0063380Y0159028D01*
X0063252Y0158935D01*
X0063122Y0158845D01*
X0062989Y0158759D01*
X0062854Y0158675D01*
X0062718Y0158596D01*
X0062579Y0158519D01*
X0062438Y0158447D01*
X0062296Y0158377D01*
X0062152Y0158312D01*
X0062006Y0158250D01*
X0061859Y0158192D01*
X0061710Y0158137D01*
X0061560Y0158086D01*
X0061409Y0158039D01*
X0061257Y0157996D01*
X0061104Y0157957D01*
X0060949Y0157921D01*
X0060794Y0157890D01*
X0060638Y0157862D01*
X0060482Y0157838D01*
X0060325Y0157818D01*
X0060167Y0157802D01*
X0060010Y0157790D01*
X0059851Y0157782D01*
X0059693Y0157778D01*
X0059535Y0157778D01*
X0059377Y0157782D01*
X0059218Y0157790D01*
X0059061Y0157802D01*
X0058903Y0157818D01*
X0058746Y0157838D01*
X0058590Y0157862D01*
X0058434Y0157890D01*
X0058279Y0157921D01*
X0058124Y0157957D01*
X0057971Y0157996D01*
X0057819Y0158039D01*
X0057668Y0158086D01*
X0057518Y0158137D01*
X0057369Y0158192D01*
X0057222Y0158250D01*
X0057076Y0158312D01*
X0056932Y0158377D01*
X0056790Y0158447D01*
X0056649Y0158519D01*
X0056510Y0158596D01*
X0056374Y0158675D01*
X0056239Y0158759D01*
X0056106Y0158845D01*
X0055976Y0158935D01*
X0055848Y0159028D01*
X0055722Y0159124D01*
X0055599Y0159224D01*
X0055478Y0159326D01*
X0055360Y0159431D01*
X0055245Y0159540D01*
X0055132Y0159651D01*
X0055022Y0159765D01*
X0054915Y0159882D01*
X0054811Y0160001D01*
X0054710Y0160123D01*
X0054613Y0160248D01*
X0054518Y0160375D01*
X0054427Y0160504D01*
X0054338Y0160635D01*
X0054254Y0160769D01*
X0054172Y0160905D01*
X0054094Y0161042D01*
X0054020Y0161182D01*
X0053949Y0161324D01*
X0053881Y0161467D01*
X0053817Y0161612D01*
X0053757Y0161758D01*
X0053701Y0161906D01*
X0053648Y0162055D01*
X0053599Y0162206D01*
X0053554Y0162358D01*
X0053513Y0162511D01*
X0053475Y0162664D01*
X0053442Y0162819D01*
X0053412Y0162975D01*
X0053386Y0163131D01*
X0053365Y0163288D01*
X0053347Y0163445D01*
X0053333Y0163603D01*
X0053323Y0163761D01*
X0053317Y0163919D01*
X0053315Y0164077D01*
X0043866Y0164077D02*
X0043871Y0164458D01*
X0043884Y0164838D01*
X0043907Y0165218D01*
X0043940Y0165597D01*
X0043981Y0165975D01*
X0044031Y0166352D01*
X0044091Y0166728D01*
X0044159Y0167103D01*
X0044237Y0167475D01*
X0044324Y0167846D01*
X0044419Y0168214D01*
X0044524Y0168580D01*
X0044637Y0168943D01*
X0044759Y0169304D01*
X0044889Y0169661D01*
X0045029Y0170015D01*
X0045176Y0170366D01*
X0045333Y0170713D01*
X0045497Y0171056D01*
X0045670Y0171395D01*
X0045851Y0171730D01*
X0046040Y0172061D01*
X0046237Y0172386D01*
X0046441Y0172707D01*
X0046654Y0173023D01*
X0046874Y0173333D01*
X0047101Y0173639D01*
X0047336Y0173938D01*
X0047578Y0174232D01*
X0047826Y0174520D01*
X0048082Y0174802D01*
X0048345Y0175077D01*
X0048614Y0175346D01*
X0048889Y0175609D01*
X0049171Y0175865D01*
X0049459Y0176113D01*
X0049753Y0176355D01*
X0050052Y0176590D01*
X0050358Y0176817D01*
X0050668Y0177037D01*
X0050984Y0177250D01*
X0051305Y0177454D01*
X0051630Y0177651D01*
X0051961Y0177840D01*
X0052296Y0178021D01*
X0052635Y0178194D01*
X0052978Y0178358D01*
X0053325Y0178515D01*
X0053676Y0178662D01*
X0054030Y0178802D01*
X0054387Y0178932D01*
X0054748Y0179054D01*
X0055111Y0179167D01*
X0055477Y0179272D01*
X0055845Y0179367D01*
X0056216Y0179454D01*
X0056588Y0179532D01*
X0056963Y0179600D01*
X0057339Y0179660D01*
X0057716Y0179710D01*
X0058094Y0179751D01*
X0058473Y0179784D01*
X0058853Y0179807D01*
X0059233Y0179820D01*
X0059614Y0179825D01*
X0264339Y0179825D01*
X0258040Y0164077D02*
X0258042Y0164235D01*
X0258048Y0164393D01*
X0258058Y0164551D01*
X0258072Y0164709D01*
X0258090Y0164866D01*
X0258111Y0165023D01*
X0258137Y0165179D01*
X0258167Y0165335D01*
X0258200Y0165490D01*
X0258238Y0165643D01*
X0258279Y0165796D01*
X0258324Y0165948D01*
X0258373Y0166099D01*
X0258426Y0166248D01*
X0258482Y0166396D01*
X0258542Y0166542D01*
X0258606Y0166687D01*
X0258674Y0166830D01*
X0258745Y0166972D01*
X0258819Y0167112D01*
X0258897Y0167249D01*
X0258979Y0167385D01*
X0259063Y0167519D01*
X0259152Y0167650D01*
X0259243Y0167779D01*
X0259338Y0167906D01*
X0259435Y0168031D01*
X0259536Y0168153D01*
X0259640Y0168272D01*
X0259747Y0168389D01*
X0259857Y0168503D01*
X0259970Y0168614D01*
X0260085Y0168723D01*
X0260203Y0168828D01*
X0260324Y0168930D01*
X0260447Y0169030D01*
X0260573Y0169126D01*
X0260701Y0169219D01*
X0260831Y0169309D01*
X0260964Y0169395D01*
X0261099Y0169479D01*
X0261235Y0169558D01*
X0261374Y0169635D01*
X0261515Y0169707D01*
X0261657Y0169777D01*
X0261801Y0169842D01*
X0261947Y0169904D01*
X0262094Y0169962D01*
X0262243Y0170017D01*
X0262393Y0170068D01*
X0262544Y0170115D01*
X0262696Y0170158D01*
X0262849Y0170197D01*
X0263004Y0170233D01*
X0263159Y0170264D01*
X0263315Y0170292D01*
X0263471Y0170316D01*
X0263628Y0170336D01*
X0263786Y0170352D01*
X0263943Y0170364D01*
X0264102Y0170372D01*
X0264260Y0170376D01*
X0264418Y0170376D01*
X0264576Y0170372D01*
X0264735Y0170364D01*
X0264892Y0170352D01*
X0265050Y0170336D01*
X0265207Y0170316D01*
X0265363Y0170292D01*
X0265519Y0170264D01*
X0265674Y0170233D01*
X0265829Y0170197D01*
X0265982Y0170158D01*
X0266134Y0170115D01*
X0266285Y0170068D01*
X0266435Y0170017D01*
X0266584Y0169962D01*
X0266731Y0169904D01*
X0266877Y0169842D01*
X0267021Y0169777D01*
X0267163Y0169707D01*
X0267304Y0169635D01*
X0267443Y0169558D01*
X0267579Y0169479D01*
X0267714Y0169395D01*
X0267847Y0169309D01*
X0267977Y0169219D01*
X0268105Y0169126D01*
X0268231Y0169030D01*
X0268354Y0168930D01*
X0268475Y0168828D01*
X0268593Y0168723D01*
X0268708Y0168614D01*
X0268821Y0168503D01*
X0268931Y0168389D01*
X0269038Y0168272D01*
X0269142Y0168153D01*
X0269243Y0168031D01*
X0269340Y0167906D01*
X0269435Y0167779D01*
X0269526Y0167650D01*
X0269615Y0167519D01*
X0269699Y0167385D01*
X0269781Y0167249D01*
X0269859Y0167112D01*
X0269933Y0166972D01*
X0270004Y0166830D01*
X0270072Y0166687D01*
X0270136Y0166542D01*
X0270196Y0166396D01*
X0270252Y0166248D01*
X0270305Y0166099D01*
X0270354Y0165948D01*
X0270399Y0165796D01*
X0270440Y0165643D01*
X0270478Y0165490D01*
X0270511Y0165335D01*
X0270541Y0165179D01*
X0270567Y0165023D01*
X0270588Y0164866D01*
X0270606Y0164709D01*
X0270620Y0164551D01*
X0270630Y0164393D01*
X0270636Y0164235D01*
X0270638Y0164077D01*
X0270636Y0163919D01*
X0270630Y0163761D01*
X0270620Y0163603D01*
X0270606Y0163445D01*
X0270588Y0163288D01*
X0270567Y0163131D01*
X0270541Y0162975D01*
X0270511Y0162819D01*
X0270478Y0162664D01*
X0270440Y0162511D01*
X0270399Y0162358D01*
X0270354Y0162206D01*
X0270305Y0162055D01*
X0270252Y0161906D01*
X0270196Y0161758D01*
X0270136Y0161612D01*
X0270072Y0161467D01*
X0270004Y0161324D01*
X0269933Y0161182D01*
X0269859Y0161042D01*
X0269781Y0160905D01*
X0269699Y0160769D01*
X0269615Y0160635D01*
X0269526Y0160504D01*
X0269435Y0160375D01*
X0269340Y0160248D01*
X0269243Y0160123D01*
X0269142Y0160001D01*
X0269038Y0159882D01*
X0268931Y0159765D01*
X0268821Y0159651D01*
X0268708Y0159540D01*
X0268593Y0159431D01*
X0268475Y0159326D01*
X0268354Y0159224D01*
X0268231Y0159124D01*
X0268105Y0159028D01*
X0267977Y0158935D01*
X0267847Y0158845D01*
X0267714Y0158759D01*
X0267579Y0158675D01*
X0267443Y0158596D01*
X0267304Y0158519D01*
X0267163Y0158447D01*
X0267021Y0158377D01*
X0266877Y0158312D01*
X0266731Y0158250D01*
X0266584Y0158192D01*
X0266435Y0158137D01*
X0266285Y0158086D01*
X0266134Y0158039D01*
X0265982Y0157996D01*
X0265829Y0157957D01*
X0265674Y0157921D01*
X0265519Y0157890D01*
X0265363Y0157862D01*
X0265207Y0157838D01*
X0265050Y0157818D01*
X0264892Y0157802D01*
X0264735Y0157790D01*
X0264576Y0157782D01*
X0264418Y0157778D01*
X0264260Y0157778D01*
X0264102Y0157782D01*
X0263943Y0157790D01*
X0263786Y0157802D01*
X0263628Y0157818D01*
X0263471Y0157838D01*
X0263315Y0157862D01*
X0263159Y0157890D01*
X0263004Y0157921D01*
X0262849Y0157957D01*
X0262696Y0157996D01*
X0262544Y0158039D01*
X0262393Y0158086D01*
X0262243Y0158137D01*
X0262094Y0158192D01*
X0261947Y0158250D01*
X0261801Y0158312D01*
X0261657Y0158377D01*
X0261515Y0158447D01*
X0261374Y0158519D01*
X0261235Y0158596D01*
X0261099Y0158675D01*
X0260964Y0158759D01*
X0260831Y0158845D01*
X0260701Y0158935D01*
X0260573Y0159028D01*
X0260447Y0159124D01*
X0260324Y0159224D01*
X0260203Y0159326D01*
X0260085Y0159431D01*
X0259970Y0159540D01*
X0259857Y0159651D01*
X0259747Y0159765D01*
X0259640Y0159882D01*
X0259536Y0160001D01*
X0259435Y0160123D01*
X0259338Y0160248D01*
X0259243Y0160375D01*
X0259152Y0160504D01*
X0259063Y0160635D01*
X0258979Y0160769D01*
X0258897Y0160905D01*
X0258819Y0161042D01*
X0258745Y0161182D01*
X0258674Y0161324D01*
X0258606Y0161467D01*
X0258542Y0161612D01*
X0258482Y0161758D01*
X0258426Y0161906D01*
X0258373Y0162055D01*
X0258324Y0162206D01*
X0258279Y0162358D01*
X0258238Y0162511D01*
X0258200Y0162664D01*
X0258167Y0162819D01*
X0258137Y0162975D01*
X0258111Y0163131D01*
X0258090Y0163288D01*
X0258072Y0163445D01*
X0258058Y0163603D01*
X0258048Y0163761D01*
X0258042Y0163919D01*
X0258040Y0164077D01*
X0264339Y0179825D02*
X0264720Y0179820D01*
X0265100Y0179807D01*
X0265480Y0179784D01*
X0265859Y0179751D01*
X0266237Y0179710D01*
X0266614Y0179660D01*
X0266990Y0179600D01*
X0267365Y0179532D01*
X0267737Y0179454D01*
X0268108Y0179367D01*
X0268476Y0179272D01*
X0268842Y0179167D01*
X0269205Y0179054D01*
X0269566Y0178932D01*
X0269923Y0178802D01*
X0270277Y0178662D01*
X0270628Y0178515D01*
X0270975Y0178358D01*
X0271318Y0178194D01*
X0271657Y0178021D01*
X0271992Y0177840D01*
X0272323Y0177651D01*
X0272648Y0177454D01*
X0272969Y0177250D01*
X0273285Y0177037D01*
X0273595Y0176817D01*
X0273901Y0176590D01*
X0274200Y0176355D01*
X0274494Y0176113D01*
X0274782Y0175865D01*
X0275064Y0175609D01*
X0275339Y0175346D01*
X0275608Y0175077D01*
X0275871Y0174802D01*
X0276127Y0174520D01*
X0276375Y0174232D01*
X0276617Y0173938D01*
X0276852Y0173639D01*
X0277079Y0173333D01*
X0277299Y0173023D01*
X0277512Y0172707D01*
X0277716Y0172386D01*
X0277913Y0172061D01*
X0278102Y0171730D01*
X0278283Y0171395D01*
X0278456Y0171056D01*
X0278620Y0170713D01*
X0278777Y0170366D01*
X0278924Y0170015D01*
X0279064Y0169661D01*
X0279194Y0169304D01*
X0279316Y0168943D01*
X0279429Y0168580D01*
X0279534Y0168214D01*
X0279629Y0167846D01*
X0279716Y0167475D01*
X0279794Y0167103D01*
X0279862Y0166728D01*
X0279922Y0166352D01*
X0279972Y0165975D01*
X0280013Y0165597D01*
X0280046Y0165218D01*
X0280069Y0164838D01*
X0280082Y0164458D01*
X0280087Y0164077D01*
X0280087Y0049904D01*
X0258040Y0049904D02*
X0258042Y0050062D01*
X0258048Y0050220D01*
X0258058Y0050378D01*
X0258072Y0050536D01*
X0258090Y0050693D01*
X0258111Y0050850D01*
X0258137Y0051006D01*
X0258167Y0051162D01*
X0258200Y0051317D01*
X0258238Y0051470D01*
X0258279Y0051623D01*
X0258324Y0051775D01*
X0258373Y0051926D01*
X0258426Y0052075D01*
X0258482Y0052223D01*
X0258542Y0052369D01*
X0258606Y0052514D01*
X0258674Y0052657D01*
X0258745Y0052799D01*
X0258819Y0052939D01*
X0258897Y0053076D01*
X0258979Y0053212D01*
X0259063Y0053346D01*
X0259152Y0053477D01*
X0259243Y0053606D01*
X0259338Y0053733D01*
X0259435Y0053858D01*
X0259536Y0053980D01*
X0259640Y0054099D01*
X0259747Y0054216D01*
X0259857Y0054330D01*
X0259970Y0054441D01*
X0260085Y0054550D01*
X0260203Y0054655D01*
X0260324Y0054757D01*
X0260447Y0054857D01*
X0260573Y0054953D01*
X0260701Y0055046D01*
X0260831Y0055136D01*
X0260964Y0055222D01*
X0261099Y0055306D01*
X0261235Y0055385D01*
X0261374Y0055462D01*
X0261515Y0055534D01*
X0261657Y0055604D01*
X0261801Y0055669D01*
X0261947Y0055731D01*
X0262094Y0055789D01*
X0262243Y0055844D01*
X0262393Y0055895D01*
X0262544Y0055942D01*
X0262696Y0055985D01*
X0262849Y0056024D01*
X0263004Y0056060D01*
X0263159Y0056091D01*
X0263315Y0056119D01*
X0263471Y0056143D01*
X0263628Y0056163D01*
X0263786Y0056179D01*
X0263943Y0056191D01*
X0264102Y0056199D01*
X0264260Y0056203D01*
X0264418Y0056203D01*
X0264576Y0056199D01*
X0264735Y0056191D01*
X0264892Y0056179D01*
X0265050Y0056163D01*
X0265207Y0056143D01*
X0265363Y0056119D01*
X0265519Y0056091D01*
X0265674Y0056060D01*
X0265829Y0056024D01*
X0265982Y0055985D01*
X0266134Y0055942D01*
X0266285Y0055895D01*
X0266435Y0055844D01*
X0266584Y0055789D01*
X0266731Y0055731D01*
X0266877Y0055669D01*
X0267021Y0055604D01*
X0267163Y0055534D01*
X0267304Y0055462D01*
X0267443Y0055385D01*
X0267579Y0055306D01*
X0267714Y0055222D01*
X0267847Y0055136D01*
X0267977Y0055046D01*
X0268105Y0054953D01*
X0268231Y0054857D01*
X0268354Y0054757D01*
X0268475Y0054655D01*
X0268593Y0054550D01*
X0268708Y0054441D01*
X0268821Y0054330D01*
X0268931Y0054216D01*
X0269038Y0054099D01*
X0269142Y0053980D01*
X0269243Y0053858D01*
X0269340Y0053733D01*
X0269435Y0053606D01*
X0269526Y0053477D01*
X0269615Y0053346D01*
X0269699Y0053212D01*
X0269781Y0053076D01*
X0269859Y0052939D01*
X0269933Y0052799D01*
X0270004Y0052657D01*
X0270072Y0052514D01*
X0270136Y0052369D01*
X0270196Y0052223D01*
X0270252Y0052075D01*
X0270305Y0051926D01*
X0270354Y0051775D01*
X0270399Y0051623D01*
X0270440Y0051470D01*
X0270478Y0051317D01*
X0270511Y0051162D01*
X0270541Y0051006D01*
X0270567Y0050850D01*
X0270588Y0050693D01*
X0270606Y0050536D01*
X0270620Y0050378D01*
X0270630Y0050220D01*
X0270636Y0050062D01*
X0270638Y0049904D01*
X0270636Y0049746D01*
X0270630Y0049588D01*
X0270620Y0049430D01*
X0270606Y0049272D01*
X0270588Y0049115D01*
X0270567Y0048958D01*
X0270541Y0048802D01*
X0270511Y0048646D01*
X0270478Y0048491D01*
X0270440Y0048338D01*
X0270399Y0048185D01*
X0270354Y0048033D01*
X0270305Y0047882D01*
X0270252Y0047733D01*
X0270196Y0047585D01*
X0270136Y0047439D01*
X0270072Y0047294D01*
X0270004Y0047151D01*
X0269933Y0047009D01*
X0269859Y0046869D01*
X0269781Y0046732D01*
X0269699Y0046596D01*
X0269615Y0046462D01*
X0269526Y0046331D01*
X0269435Y0046202D01*
X0269340Y0046075D01*
X0269243Y0045950D01*
X0269142Y0045828D01*
X0269038Y0045709D01*
X0268931Y0045592D01*
X0268821Y0045478D01*
X0268708Y0045367D01*
X0268593Y0045258D01*
X0268475Y0045153D01*
X0268354Y0045051D01*
X0268231Y0044951D01*
X0268105Y0044855D01*
X0267977Y0044762D01*
X0267847Y0044672D01*
X0267714Y0044586D01*
X0267579Y0044502D01*
X0267443Y0044423D01*
X0267304Y0044346D01*
X0267163Y0044274D01*
X0267021Y0044204D01*
X0266877Y0044139D01*
X0266731Y0044077D01*
X0266584Y0044019D01*
X0266435Y0043964D01*
X0266285Y0043913D01*
X0266134Y0043866D01*
X0265982Y0043823D01*
X0265829Y0043784D01*
X0265674Y0043748D01*
X0265519Y0043717D01*
X0265363Y0043689D01*
X0265207Y0043665D01*
X0265050Y0043645D01*
X0264892Y0043629D01*
X0264735Y0043617D01*
X0264576Y0043609D01*
X0264418Y0043605D01*
X0264260Y0043605D01*
X0264102Y0043609D01*
X0263943Y0043617D01*
X0263786Y0043629D01*
X0263628Y0043645D01*
X0263471Y0043665D01*
X0263315Y0043689D01*
X0263159Y0043717D01*
X0263004Y0043748D01*
X0262849Y0043784D01*
X0262696Y0043823D01*
X0262544Y0043866D01*
X0262393Y0043913D01*
X0262243Y0043964D01*
X0262094Y0044019D01*
X0261947Y0044077D01*
X0261801Y0044139D01*
X0261657Y0044204D01*
X0261515Y0044274D01*
X0261374Y0044346D01*
X0261235Y0044423D01*
X0261099Y0044502D01*
X0260964Y0044586D01*
X0260831Y0044672D01*
X0260701Y0044762D01*
X0260573Y0044855D01*
X0260447Y0044951D01*
X0260324Y0045051D01*
X0260203Y0045153D01*
X0260085Y0045258D01*
X0259970Y0045367D01*
X0259857Y0045478D01*
X0259747Y0045592D01*
X0259640Y0045709D01*
X0259536Y0045828D01*
X0259435Y0045950D01*
X0259338Y0046075D01*
X0259243Y0046202D01*
X0259152Y0046331D01*
X0259063Y0046462D01*
X0258979Y0046596D01*
X0258897Y0046732D01*
X0258819Y0046869D01*
X0258745Y0047009D01*
X0258674Y0047151D01*
X0258606Y0047294D01*
X0258542Y0047439D01*
X0258482Y0047585D01*
X0258426Y0047733D01*
X0258373Y0047882D01*
X0258324Y0048033D01*
X0258279Y0048185D01*
X0258238Y0048338D01*
X0258200Y0048491D01*
X0258167Y0048646D01*
X0258137Y0048802D01*
X0258111Y0048958D01*
X0258090Y0049115D01*
X0258072Y0049272D01*
X0258058Y0049430D01*
X0258048Y0049588D01*
X0258042Y0049746D01*
X0258040Y0049904D01*
X0264339Y0034156D02*
X0264720Y0034161D01*
X0265100Y0034174D01*
X0265480Y0034197D01*
X0265859Y0034230D01*
X0266237Y0034271D01*
X0266614Y0034321D01*
X0266990Y0034381D01*
X0267365Y0034449D01*
X0267737Y0034527D01*
X0268108Y0034614D01*
X0268476Y0034709D01*
X0268842Y0034814D01*
X0269205Y0034927D01*
X0269566Y0035049D01*
X0269923Y0035179D01*
X0270277Y0035319D01*
X0270628Y0035466D01*
X0270975Y0035623D01*
X0271318Y0035787D01*
X0271657Y0035960D01*
X0271992Y0036141D01*
X0272323Y0036330D01*
X0272648Y0036527D01*
X0272969Y0036731D01*
X0273285Y0036944D01*
X0273595Y0037164D01*
X0273901Y0037391D01*
X0274200Y0037626D01*
X0274494Y0037868D01*
X0274782Y0038116D01*
X0275064Y0038372D01*
X0275339Y0038635D01*
X0275608Y0038904D01*
X0275871Y0039179D01*
X0276127Y0039461D01*
X0276375Y0039749D01*
X0276617Y0040043D01*
X0276852Y0040342D01*
X0277079Y0040648D01*
X0277299Y0040958D01*
X0277512Y0041274D01*
X0277716Y0041595D01*
X0277913Y0041920D01*
X0278102Y0042251D01*
X0278283Y0042586D01*
X0278456Y0042925D01*
X0278620Y0043268D01*
X0278777Y0043615D01*
X0278924Y0043966D01*
X0279064Y0044320D01*
X0279194Y0044677D01*
X0279316Y0045038D01*
X0279429Y0045401D01*
X0279534Y0045767D01*
X0279629Y0046135D01*
X0279716Y0046506D01*
X0279794Y0046878D01*
X0279862Y0047253D01*
X0279922Y0047629D01*
X0279972Y0048006D01*
X0280013Y0048384D01*
X0280046Y0048763D01*
X0280069Y0049143D01*
X0280082Y0049523D01*
X0280087Y0049904D01*
X0280082Y0049523D01*
X0280069Y0049143D01*
X0280046Y0048763D01*
X0280013Y0048384D01*
X0279972Y0048006D01*
X0279922Y0047629D01*
X0279862Y0047253D01*
X0279794Y0046878D01*
X0279716Y0046506D01*
X0279629Y0046135D01*
X0279534Y0045767D01*
X0279429Y0045401D01*
X0279316Y0045038D01*
X0279194Y0044677D01*
X0279064Y0044320D01*
X0278924Y0043966D01*
X0278777Y0043615D01*
X0278620Y0043268D01*
X0278456Y0042925D01*
X0278283Y0042586D01*
X0278102Y0042251D01*
X0277913Y0041920D01*
X0277716Y0041595D01*
X0277512Y0041274D01*
X0277299Y0040958D01*
X0277079Y0040648D01*
X0276852Y0040342D01*
X0276617Y0040043D01*
X0276375Y0039749D01*
X0276127Y0039461D01*
X0275871Y0039179D01*
X0275608Y0038904D01*
X0275339Y0038635D01*
X0275064Y0038372D01*
X0274782Y0038116D01*
X0274494Y0037868D01*
X0274200Y0037626D01*
X0273901Y0037391D01*
X0273595Y0037164D01*
X0273285Y0036944D01*
X0272969Y0036731D01*
X0272648Y0036527D01*
X0272323Y0036330D01*
X0271992Y0036141D01*
X0271657Y0035960D01*
X0271318Y0035787D01*
X0270975Y0035623D01*
X0270628Y0035466D01*
X0270277Y0035319D01*
X0269923Y0035179D01*
X0269566Y0035049D01*
X0269205Y0034927D01*
X0268842Y0034814D01*
X0268476Y0034709D01*
X0268108Y0034614D01*
X0267737Y0034527D01*
X0267365Y0034449D01*
X0266990Y0034381D01*
X0266614Y0034321D01*
X0266237Y0034271D01*
X0265859Y0034230D01*
X0265480Y0034197D01*
X0265100Y0034174D01*
X0264720Y0034161D01*
X0264339Y0034156D01*
X0149645Y0109491D02*
X0149647Y0109622D01*
X0149653Y0109754D01*
X0149663Y0109885D01*
X0149677Y0110016D01*
X0149695Y0110146D01*
X0149717Y0110275D01*
X0149742Y0110404D01*
X0149772Y0110532D01*
X0149806Y0110659D01*
X0149843Y0110786D01*
X0149884Y0110910D01*
X0149929Y0111034D01*
X0149978Y0111156D01*
X0150030Y0111277D01*
X0150086Y0111395D01*
X0150146Y0111513D01*
X0150209Y0111628D01*
X0150276Y0111741D01*
X0150346Y0111853D01*
X0150419Y0111962D01*
X0150495Y0112068D01*
X0150575Y0112173D01*
X0150658Y0112275D01*
X0150744Y0112374D01*
X0150833Y0112471D01*
X0150925Y0112565D01*
X0151020Y0112656D01*
X0151117Y0112745D01*
X0151217Y0112830D01*
X0151320Y0112912D01*
X0151425Y0112991D01*
X0151532Y0113067D01*
X0151642Y0113139D01*
X0151754Y0113208D01*
X0151868Y0113274D01*
X0151983Y0113336D01*
X0152101Y0113395D01*
X0152220Y0113450D01*
X0152341Y0113502D01*
X0152464Y0113549D01*
X0152588Y0113593D01*
X0152713Y0113634D01*
X0152839Y0113670D01*
X0152967Y0113703D01*
X0153095Y0113731D01*
X0153224Y0113756D01*
X0153354Y0113777D01*
X0153484Y0113794D01*
X0153615Y0113807D01*
X0153746Y0113816D01*
X0153877Y0113821D01*
X0154009Y0113822D01*
X0154140Y0113819D01*
X0154272Y0113812D01*
X0154403Y0113801D01*
X0154533Y0113786D01*
X0154663Y0113767D01*
X0154793Y0113744D01*
X0154921Y0113718D01*
X0155049Y0113687D01*
X0155176Y0113652D01*
X0155302Y0113614D01*
X0155426Y0113572D01*
X0155550Y0113526D01*
X0155671Y0113476D01*
X0155791Y0113423D01*
X0155910Y0113366D01*
X0156027Y0113306D01*
X0156141Y0113242D01*
X0156254Y0113174D01*
X0156365Y0113103D01*
X0156474Y0113029D01*
X0156580Y0112952D01*
X0156684Y0112871D01*
X0156785Y0112788D01*
X0156884Y0112701D01*
X0156980Y0112611D01*
X0157073Y0112518D01*
X0157164Y0112423D01*
X0157251Y0112325D01*
X0157336Y0112224D01*
X0157417Y0112121D01*
X0157495Y0112015D01*
X0157570Y0111907D01*
X0157642Y0111797D01*
X0157710Y0111685D01*
X0157775Y0111571D01*
X0157836Y0111454D01*
X0157894Y0111336D01*
X0157948Y0111216D01*
X0157999Y0111095D01*
X0158046Y0110972D01*
X0158089Y0110848D01*
X0158128Y0110723D01*
X0158164Y0110596D01*
X0158195Y0110468D01*
X0158223Y0110340D01*
X0158247Y0110211D01*
X0158267Y0110081D01*
X0158283Y0109950D01*
X0158295Y0109819D01*
X0158303Y0109688D01*
X0158307Y0109557D01*
X0158307Y0109425D01*
X0158303Y0109294D01*
X0158295Y0109163D01*
X0158283Y0109032D01*
X0158267Y0108901D01*
X0158247Y0108771D01*
X0158223Y0108642D01*
X0158195Y0108514D01*
X0158164Y0108386D01*
X0158128Y0108259D01*
X0158089Y0108134D01*
X0158046Y0108010D01*
X0157999Y0107887D01*
X0157948Y0107766D01*
X0157894Y0107646D01*
X0157836Y0107528D01*
X0157775Y0107411D01*
X0157710Y0107297D01*
X0157642Y0107185D01*
X0157570Y0107075D01*
X0157495Y0106967D01*
X0157417Y0106861D01*
X0157336Y0106758D01*
X0157251Y0106657D01*
X0157164Y0106559D01*
X0157073Y0106464D01*
X0156980Y0106371D01*
X0156884Y0106281D01*
X0156785Y0106194D01*
X0156684Y0106111D01*
X0156580Y0106030D01*
X0156474Y0105953D01*
X0156365Y0105879D01*
X0156254Y0105808D01*
X0156142Y0105740D01*
X0156027Y0105676D01*
X0155910Y0105616D01*
X0155791Y0105559D01*
X0155671Y0105506D01*
X0155550Y0105456D01*
X0155426Y0105410D01*
X0155302Y0105368D01*
X0155176Y0105330D01*
X0155049Y0105295D01*
X0154921Y0105264D01*
X0154793Y0105238D01*
X0154663Y0105215D01*
X0154533Y0105196D01*
X0154403Y0105181D01*
X0154272Y0105170D01*
X0154140Y0105163D01*
X0154009Y0105160D01*
X0153877Y0105161D01*
X0153746Y0105166D01*
X0153615Y0105175D01*
X0153484Y0105188D01*
X0153354Y0105205D01*
X0153224Y0105226D01*
X0153095Y0105251D01*
X0152967Y0105279D01*
X0152839Y0105312D01*
X0152713Y0105348D01*
X0152588Y0105389D01*
X0152464Y0105433D01*
X0152341Y0105480D01*
X0152220Y0105532D01*
X0152101Y0105587D01*
X0151983Y0105646D01*
X0151868Y0105708D01*
X0151754Y0105774D01*
X0151642Y0105843D01*
X0151532Y0105915D01*
X0151425Y0105991D01*
X0151320Y0106070D01*
X0151217Y0106152D01*
X0151117Y0106237D01*
X0151020Y0106326D01*
X0150925Y0106417D01*
X0150833Y0106511D01*
X0150744Y0106608D01*
X0150658Y0106707D01*
X0150575Y0106809D01*
X0150495Y0106914D01*
X0150419Y0107020D01*
X0150346Y0107129D01*
X0150276Y0107241D01*
X0150209Y0107354D01*
X0150146Y0107469D01*
X0150086Y0107587D01*
X0150030Y0107705D01*
X0149978Y0107826D01*
X0149929Y0107948D01*
X0149884Y0108072D01*
X0149843Y0108196D01*
X0149806Y0108323D01*
X0149772Y0108450D01*
X0149742Y0108578D01*
X0149717Y0108707D01*
X0149695Y0108836D01*
X0149677Y0108966D01*
X0149663Y0109097D01*
X0149653Y0109228D01*
X0149647Y0109360D01*
X0149645Y0109491D01*
X0059614Y0179825D02*
X0059233Y0179820D01*
X0058853Y0179807D01*
X0058473Y0179784D01*
X0058094Y0179751D01*
X0057716Y0179710D01*
X0057339Y0179660D01*
X0056963Y0179600D01*
X0056588Y0179532D01*
X0056216Y0179454D01*
X0055845Y0179367D01*
X0055477Y0179272D01*
X0055111Y0179167D01*
X0054748Y0179054D01*
X0054387Y0178932D01*
X0054030Y0178802D01*
X0053676Y0178662D01*
X0053325Y0178515D01*
X0052978Y0178358D01*
X0052635Y0178194D01*
X0052296Y0178021D01*
X0051961Y0177840D01*
X0051630Y0177651D01*
X0051305Y0177454D01*
X0050984Y0177250D01*
X0050668Y0177037D01*
X0050358Y0176817D01*
X0050052Y0176590D01*
X0049753Y0176355D01*
X0049459Y0176113D01*
X0049171Y0175865D01*
X0048889Y0175609D01*
X0048614Y0175346D01*
X0048345Y0175077D01*
X0048082Y0174802D01*
X0047826Y0174520D01*
X0047578Y0174232D01*
X0047336Y0173938D01*
X0047101Y0173639D01*
X0046874Y0173333D01*
X0046654Y0173023D01*
X0046441Y0172707D01*
X0046237Y0172386D01*
X0046040Y0172061D01*
X0045851Y0171730D01*
X0045670Y0171395D01*
X0045497Y0171056D01*
X0045333Y0170713D01*
X0045176Y0170366D01*
X0045029Y0170015D01*
X0044889Y0169661D01*
X0044759Y0169304D01*
X0044637Y0168943D01*
X0044524Y0168580D01*
X0044419Y0168214D01*
X0044324Y0167846D01*
X0044237Y0167475D01*
X0044159Y0167103D01*
X0044091Y0166728D01*
X0044031Y0166352D01*
X0043981Y0165975D01*
X0043940Y0165597D01*
X0043907Y0165218D01*
X0043884Y0164838D01*
X0043871Y0164458D01*
X0043866Y0164077D01*
X0048145Y0136991D02*
X0048147Y0137122D01*
X0048153Y0137254D01*
X0048163Y0137385D01*
X0048177Y0137516D01*
X0048195Y0137646D01*
X0048217Y0137775D01*
X0048242Y0137904D01*
X0048272Y0138032D01*
X0048306Y0138159D01*
X0048343Y0138286D01*
X0048384Y0138410D01*
X0048429Y0138534D01*
X0048478Y0138656D01*
X0048530Y0138777D01*
X0048586Y0138895D01*
X0048646Y0139013D01*
X0048709Y0139128D01*
X0048776Y0139241D01*
X0048846Y0139353D01*
X0048919Y0139462D01*
X0048995Y0139568D01*
X0049075Y0139673D01*
X0049158Y0139775D01*
X0049244Y0139874D01*
X0049333Y0139971D01*
X0049425Y0140065D01*
X0049520Y0140156D01*
X0049617Y0140245D01*
X0049717Y0140330D01*
X0049820Y0140412D01*
X0049925Y0140491D01*
X0050032Y0140567D01*
X0050142Y0140639D01*
X0050254Y0140708D01*
X0050368Y0140774D01*
X0050483Y0140836D01*
X0050601Y0140895D01*
X0050720Y0140950D01*
X0050841Y0141002D01*
X0050964Y0141049D01*
X0051088Y0141093D01*
X0051213Y0141134D01*
X0051339Y0141170D01*
X0051467Y0141203D01*
X0051595Y0141231D01*
X0051724Y0141256D01*
X0051854Y0141277D01*
X0051984Y0141294D01*
X0052115Y0141307D01*
X0052246Y0141316D01*
X0052377Y0141321D01*
X0052509Y0141322D01*
X0052640Y0141319D01*
X0052772Y0141312D01*
X0052903Y0141301D01*
X0053033Y0141286D01*
X0053163Y0141267D01*
X0053293Y0141244D01*
X0053421Y0141218D01*
X0053549Y0141187D01*
X0053676Y0141152D01*
X0053802Y0141114D01*
X0053926Y0141072D01*
X0054050Y0141026D01*
X0054171Y0140976D01*
X0054291Y0140923D01*
X0054410Y0140866D01*
X0054527Y0140806D01*
X0054641Y0140742D01*
X0054754Y0140674D01*
X0054865Y0140603D01*
X0054974Y0140529D01*
X0055080Y0140452D01*
X0055184Y0140371D01*
X0055285Y0140288D01*
X0055384Y0140201D01*
X0055480Y0140111D01*
X0055573Y0140018D01*
X0055664Y0139923D01*
X0055751Y0139825D01*
X0055836Y0139724D01*
X0055917Y0139621D01*
X0055995Y0139515D01*
X0056070Y0139407D01*
X0056142Y0139297D01*
X0056210Y0139185D01*
X0056275Y0139071D01*
X0056336Y0138954D01*
X0056394Y0138836D01*
X0056448Y0138716D01*
X0056499Y0138595D01*
X0056546Y0138472D01*
X0056589Y0138348D01*
X0056628Y0138223D01*
X0056664Y0138096D01*
X0056695Y0137968D01*
X0056723Y0137840D01*
X0056747Y0137711D01*
X0056767Y0137581D01*
X0056783Y0137450D01*
X0056795Y0137319D01*
X0056803Y0137188D01*
X0056807Y0137057D01*
X0056807Y0136925D01*
X0056803Y0136794D01*
X0056795Y0136663D01*
X0056783Y0136532D01*
X0056767Y0136401D01*
X0056747Y0136271D01*
X0056723Y0136142D01*
X0056695Y0136014D01*
X0056664Y0135886D01*
X0056628Y0135759D01*
X0056589Y0135634D01*
X0056546Y0135510D01*
X0056499Y0135387D01*
X0056448Y0135266D01*
X0056394Y0135146D01*
X0056336Y0135028D01*
X0056275Y0134911D01*
X0056210Y0134797D01*
X0056142Y0134685D01*
X0056070Y0134575D01*
X0055995Y0134467D01*
X0055917Y0134361D01*
X0055836Y0134258D01*
X0055751Y0134157D01*
X0055664Y0134059D01*
X0055573Y0133964D01*
X0055480Y0133871D01*
X0055384Y0133781D01*
X0055285Y0133694D01*
X0055184Y0133611D01*
X0055080Y0133530D01*
X0054974Y0133453D01*
X0054865Y0133379D01*
X0054754Y0133308D01*
X0054642Y0133240D01*
X0054527Y0133176D01*
X0054410Y0133116D01*
X0054291Y0133059D01*
X0054171Y0133006D01*
X0054050Y0132956D01*
X0053926Y0132910D01*
X0053802Y0132868D01*
X0053676Y0132830D01*
X0053549Y0132795D01*
X0053421Y0132764D01*
X0053293Y0132738D01*
X0053163Y0132715D01*
X0053033Y0132696D01*
X0052903Y0132681D01*
X0052772Y0132670D01*
X0052640Y0132663D01*
X0052509Y0132660D01*
X0052377Y0132661D01*
X0052246Y0132666D01*
X0052115Y0132675D01*
X0051984Y0132688D01*
X0051854Y0132705D01*
X0051724Y0132726D01*
X0051595Y0132751D01*
X0051467Y0132779D01*
X0051339Y0132812D01*
X0051213Y0132848D01*
X0051088Y0132889D01*
X0050964Y0132933D01*
X0050841Y0132980D01*
X0050720Y0133032D01*
X0050601Y0133087D01*
X0050483Y0133146D01*
X0050368Y0133208D01*
X0050254Y0133274D01*
X0050142Y0133343D01*
X0050032Y0133415D01*
X0049925Y0133491D01*
X0049820Y0133570D01*
X0049717Y0133652D01*
X0049617Y0133737D01*
X0049520Y0133826D01*
X0049425Y0133917D01*
X0049333Y0134011D01*
X0049244Y0134108D01*
X0049158Y0134207D01*
X0049075Y0134309D01*
X0048995Y0134414D01*
X0048919Y0134520D01*
X0048846Y0134629D01*
X0048776Y0134741D01*
X0048709Y0134854D01*
X0048646Y0134969D01*
X0048586Y0135087D01*
X0048530Y0135205D01*
X0048478Y0135326D01*
X0048429Y0135448D01*
X0048384Y0135572D01*
X0048343Y0135696D01*
X0048306Y0135823D01*
X0048272Y0135950D01*
X0048242Y0136078D01*
X0048217Y0136207D01*
X0048195Y0136336D01*
X0048177Y0136466D01*
X0048163Y0136597D01*
X0048153Y0136728D01*
X0048147Y0136860D01*
X0048145Y0136991D01*
X0048145Y0081991D02*
X0048147Y0082122D01*
X0048153Y0082254D01*
X0048163Y0082385D01*
X0048177Y0082516D01*
X0048195Y0082646D01*
X0048217Y0082775D01*
X0048242Y0082904D01*
X0048272Y0083032D01*
X0048306Y0083159D01*
X0048343Y0083286D01*
X0048384Y0083410D01*
X0048429Y0083534D01*
X0048478Y0083656D01*
X0048530Y0083777D01*
X0048586Y0083895D01*
X0048646Y0084013D01*
X0048709Y0084128D01*
X0048776Y0084241D01*
X0048846Y0084353D01*
X0048919Y0084462D01*
X0048995Y0084568D01*
X0049075Y0084673D01*
X0049158Y0084775D01*
X0049244Y0084874D01*
X0049333Y0084971D01*
X0049425Y0085065D01*
X0049520Y0085156D01*
X0049617Y0085245D01*
X0049717Y0085330D01*
X0049820Y0085412D01*
X0049925Y0085491D01*
X0050032Y0085567D01*
X0050142Y0085639D01*
X0050254Y0085708D01*
X0050368Y0085774D01*
X0050483Y0085836D01*
X0050601Y0085895D01*
X0050720Y0085950D01*
X0050841Y0086002D01*
X0050964Y0086049D01*
X0051088Y0086093D01*
X0051213Y0086134D01*
X0051339Y0086170D01*
X0051467Y0086203D01*
X0051595Y0086231D01*
X0051724Y0086256D01*
X0051854Y0086277D01*
X0051984Y0086294D01*
X0052115Y0086307D01*
X0052246Y0086316D01*
X0052377Y0086321D01*
X0052509Y0086322D01*
X0052640Y0086319D01*
X0052772Y0086312D01*
X0052903Y0086301D01*
X0053033Y0086286D01*
X0053163Y0086267D01*
X0053293Y0086244D01*
X0053421Y0086218D01*
X0053549Y0086187D01*
X0053676Y0086152D01*
X0053802Y0086114D01*
X0053926Y0086072D01*
X0054050Y0086026D01*
X0054171Y0085976D01*
X0054291Y0085923D01*
X0054410Y0085866D01*
X0054527Y0085806D01*
X0054641Y0085742D01*
X0054754Y0085674D01*
X0054865Y0085603D01*
X0054974Y0085529D01*
X0055080Y0085452D01*
X0055184Y0085371D01*
X0055285Y0085288D01*
X0055384Y0085201D01*
X0055480Y0085111D01*
X0055573Y0085018D01*
X0055664Y0084923D01*
X0055751Y0084825D01*
X0055836Y0084724D01*
X0055917Y0084621D01*
X0055995Y0084515D01*
X0056070Y0084407D01*
X0056142Y0084297D01*
X0056210Y0084185D01*
X0056275Y0084071D01*
X0056336Y0083954D01*
X0056394Y0083836D01*
X0056448Y0083716D01*
X0056499Y0083595D01*
X0056546Y0083472D01*
X0056589Y0083348D01*
X0056628Y0083223D01*
X0056664Y0083096D01*
X0056695Y0082968D01*
X0056723Y0082840D01*
X0056747Y0082711D01*
X0056767Y0082581D01*
X0056783Y0082450D01*
X0056795Y0082319D01*
X0056803Y0082188D01*
X0056807Y0082057D01*
X0056807Y0081925D01*
X0056803Y0081794D01*
X0056795Y0081663D01*
X0056783Y0081532D01*
X0056767Y0081401D01*
X0056747Y0081271D01*
X0056723Y0081142D01*
X0056695Y0081014D01*
X0056664Y0080886D01*
X0056628Y0080759D01*
X0056589Y0080634D01*
X0056546Y0080510D01*
X0056499Y0080387D01*
X0056448Y0080266D01*
X0056394Y0080146D01*
X0056336Y0080028D01*
X0056275Y0079911D01*
X0056210Y0079797D01*
X0056142Y0079685D01*
X0056070Y0079575D01*
X0055995Y0079467D01*
X0055917Y0079361D01*
X0055836Y0079258D01*
X0055751Y0079157D01*
X0055664Y0079059D01*
X0055573Y0078964D01*
X0055480Y0078871D01*
X0055384Y0078781D01*
X0055285Y0078694D01*
X0055184Y0078611D01*
X0055080Y0078530D01*
X0054974Y0078453D01*
X0054865Y0078379D01*
X0054754Y0078308D01*
X0054642Y0078240D01*
X0054527Y0078176D01*
X0054410Y0078116D01*
X0054291Y0078059D01*
X0054171Y0078006D01*
X0054050Y0077956D01*
X0053926Y0077910D01*
X0053802Y0077868D01*
X0053676Y0077830D01*
X0053549Y0077795D01*
X0053421Y0077764D01*
X0053293Y0077738D01*
X0053163Y0077715D01*
X0053033Y0077696D01*
X0052903Y0077681D01*
X0052772Y0077670D01*
X0052640Y0077663D01*
X0052509Y0077660D01*
X0052377Y0077661D01*
X0052246Y0077666D01*
X0052115Y0077675D01*
X0051984Y0077688D01*
X0051854Y0077705D01*
X0051724Y0077726D01*
X0051595Y0077751D01*
X0051467Y0077779D01*
X0051339Y0077812D01*
X0051213Y0077848D01*
X0051088Y0077889D01*
X0050964Y0077933D01*
X0050841Y0077980D01*
X0050720Y0078032D01*
X0050601Y0078087D01*
X0050483Y0078146D01*
X0050368Y0078208D01*
X0050254Y0078274D01*
X0050142Y0078343D01*
X0050032Y0078415D01*
X0049925Y0078491D01*
X0049820Y0078570D01*
X0049717Y0078652D01*
X0049617Y0078737D01*
X0049520Y0078826D01*
X0049425Y0078917D01*
X0049333Y0079011D01*
X0049244Y0079108D01*
X0049158Y0079207D01*
X0049075Y0079309D01*
X0048995Y0079414D01*
X0048919Y0079520D01*
X0048846Y0079629D01*
X0048776Y0079741D01*
X0048709Y0079854D01*
X0048646Y0079969D01*
X0048586Y0080087D01*
X0048530Y0080205D01*
X0048478Y0080326D01*
X0048429Y0080448D01*
X0048384Y0080572D01*
X0048343Y0080696D01*
X0048306Y0080823D01*
X0048272Y0080950D01*
X0048242Y0081078D01*
X0048217Y0081207D01*
X0048195Y0081336D01*
X0048177Y0081466D01*
X0048163Y0081597D01*
X0048153Y0081728D01*
X0048147Y0081860D01*
X0048145Y0081991D01*
X0264339Y0179825D02*
X0264720Y0179820D01*
X0265100Y0179807D01*
X0265480Y0179784D01*
X0265859Y0179751D01*
X0266237Y0179710D01*
X0266614Y0179660D01*
X0266990Y0179600D01*
X0267365Y0179532D01*
X0267737Y0179454D01*
X0268108Y0179367D01*
X0268476Y0179272D01*
X0268842Y0179167D01*
X0269205Y0179054D01*
X0269566Y0178932D01*
X0269923Y0178802D01*
X0270277Y0178662D01*
X0270628Y0178515D01*
X0270975Y0178358D01*
X0271318Y0178194D01*
X0271657Y0178021D01*
X0271992Y0177840D01*
X0272323Y0177651D01*
X0272648Y0177454D01*
X0272969Y0177250D01*
X0273285Y0177037D01*
X0273595Y0176817D01*
X0273901Y0176590D01*
X0274200Y0176355D01*
X0274494Y0176113D01*
X0274782Y0175865D01*
X0275064Y0175609D01*
X0275339Y0175346D01*
X0275608Y0175077D01*
X0275871Y0174802D01*
X0276127Y0174520D01*
X0276375Y0174232D01*
X0276617Y0173938D01*
X0276852Y0173639D01*
X0277079Y0173333D01*
X0277299Y0173023D01*
X0277512Y0172707D01*
X0277716Y0172386D01*
X0277913Y0172061D01*
X0278102Y0171730D01*
X0278283Y0171395D01*
X0278456Y0171056D01*
X0278620Y0170713D01*
X0278777Y0170366D01*
X0278924Y0170015D01*
X0279064Y0169661D01*
X0279194Y0169304D01*
X0279316Y0168943D01*
X0279429Y0168580D01*
X0279534Y0168214D01*
X0279629Y0167846D01*
X0279716Y0167475D01*
X0279794Y0167103D01*
X0279862Y0166728D01*
X0279922Y0166352D01*
X0279972Y0165975D01*
X0280013Y0165597D01*
X0280046Y0165218D01*
X0280069Y0164838D01*
X0280082Y0164458D01*
X0280087Y0164077D01*
D12*
X0206476Y0119491D03*
D13*
X0200873Y0119192D02*
X0200873Y0117691D01*
X0200873Y0118191D02*
X0200122Y0118191D01*
X0199872Y0118441D01*
X0199872Y0118942D01*
X0200122Y0119192D01*
X0200873Y0119192D01*
X0200372Y0118191D02*
X0199872Y0117691D01*
X0199400Y0117691D02*
X0198399Y0117691D01*
X0198899Y0117691D02*
X0198899Y0119192D01*
X0199400Y0118692D01*
X0269176Y0105318D02*
X0269176Y0104818D01*
X0269427Y0104568D01*
X0269176Y0104095D02*
X0269677Y0103595D01*
X0269677Y0103845D02*
X0269677Y0103094D01*
X0269176Y0103094D02*
X0270678Y0103094D01*
X0270678Y0103845D01*
X0270427Y0104095D01*
X0269927Y0104095D01*
X0269677Y0103845D01*
X0270427Y0104568D02*
X0270678Y0104818D01*
X0270678Y0105318D01*
X0270427Y0105568D01*
X0270177Y0105568D01*
X0269927Y0105318D01*
X0269677Y0105568D01*
X0269427Y0105568D01*
X0269176Y0105318D01*
X0269927Y0105318D02*
X0269927Y0105068D01*
D14*
X0211988Y0131597D02*
X0211988Y0134747D01*
X0209626Y0134747D01*
X0203327Y0134747D02*
X0200965Y0134747D01*
X0200965Y0131597D01*
D15*
X0171358Y0156203D02*
X0254035Y0156203D01*
X0279626Y0124707D01*
X0279626Y0087306D01*
X0254035Y0057778D01*
X0171358Y0057778D01*
X0171358Y0156203D01*
D16*
X0266476Y0104491D03*
M02*
