G75*
%MOIN*%
%OFA0B0*%
%FSLAX25Y25*%
%IPPOS*%
%LPD*%
%AMOC8*
5,1,8,0,0,1.08239X$1,22.5*
%
%ADD10C,0.00000*%
%ADD11R,0.02756X0.03543*%
%ADD12R,0.03150X0.03543*%
%ADD13C,0.06496*%
%ADD14C,0.06000*%
%ADD15C,0.05600*%
%ADD16R,0.05600X0.05600*%
%ADD17C,0.07400*%
%ADD18R,0.03543X0.02756*%
%ADD19R,0.05000X0.10000*%
%ADD20C,0.01600*%
%ADD21C,0.03562*%
%ADD22OC8,0.03169*%
%ADD23C,0.03169*%
%ADD24C,0.00800*%
%ADD25C,0.02400*%
D10*
X0059614Y0034156D02*
X0264339Y0034156D01*
X0258040Y0049904D02*
X0258042Y0050062D01*
X0258048Y0050220D01*
X0258058Y0050378D01*
X0258072Y0050536D01*
X0258090Y0050693D01*
X0258111Y0050850D01*
X0258137Y0051006D01*
X0258167Y0051162D01*
X0258200Y0051317D01*
X0258238Y0051470D01*
X0258279Y0051623D01*
X0258324Y0051775D01*
X0258373Y0051926D01*
X0258426Y0052075D01*
X0258482Y0052223D01*
X0258542Y0052369D01*
X0258606Y0052514D01*
X0258674Y0052657D01*
X0258745Y0052799D01*
X0258819Y0052939D01*
X0258897Y0053076D01*
X0258979Y0053212D01*
X0259063Y0053346D01*
X0259152Y0053477D01*
X0259243Y0053606D01*
X0259338Y0053733D01*
X0259435Y0053858D01*
X0259536Y0053980D01*
X0259640Y0054099D01*
X0259747Y0054216D01*
X0259857Y0054330D01*
X0259970Y0054441D01*
X0260085Y0054550D01*
X0260203Y0054655D01*
X0260324Y0054757D01*
X0260447Y0054857D01*
X0260573Y0054953D01*
X0260701Y0055046D01*
X0260831Y0055136D01*
X0260964Y0055222D01*
X0261099Y0055306D01*
X0261235Y0055385D01*
X0261374Y0055462D01*
X0261515Y0055534D01*
X0261657Y0055604D01*
X0261801Y0055669D01*
X0261947Y0055731D01*
X0262094Y0055789D01*
X0262243Y0055844D01*
X0262393Y0055895D01*
X0262544Y0055942D01*
X0262696Y0055985D01*
X0262849Y0056024D01*
X0263004Y0056060D01*
X0263159Y0056091D01*
X0263315Y0056119D01*
X0263471Y0056143D01*
X0263628Y0056163D01*
X0263786Y0056179D01*
X0263943Y0056191D01*
X0264102Y0056199D01*
X0264260Y0056203D01*
X0264418Y0056203D01*
X0264576Y0056199D01*
X0264735Y0056191D01*
X0264892Y0056179D01*
X0265050Y0056163D01*
X0265207Y0056143D01*
X0265363Y0056119D01*
X0265519Y0056091D01*
X0265674Y0056060D01*
X0265829Y0056024D01*
X0265982Y0055985D01*
X0266134Y0055942D01*
X0266285Y0055895D01*
X0266435Y0055844D01*
X0266584Y0055789D01*
X0266731Y0055731D01*
X0266877Y0055669D01*
X0267021Y0055604D01*
X0267163Y0055534D01*
X0267304Y0055462D01*
X0267443Y0055385D01*
X0267579Y0055306D01*
X0267714Y0055222D01*
X0267847Y0055136D01*
X0267977Y0055046D01*
X0268105Y0054953D01*
X0268231Y0054857D01*
X0268354Y0054757D01*
X0268475Y0054655D01*
X0268593Y0054550D01*
X0268708Y0054441D01*
X0268821Y0054330D01*
X0268931Y0054216D01*
X0269038Y0054099D01*
X0269142Y0053980D01*
X0269243Y0053858D01*
X0269340Y0053733D01*
X0269435Y0053606D01*
X0269526Y0053477D01*
X0269615Y0053346D01*
X0269699Y0053212D01*
X0269781Y0053076D01*
X0269859Y0052939D01*
X0269933Y0052799D01*
X0270004Y0052657D01*
X0270072Y0052514D01*
X0270136Y0052369D01*
X0270196Y0052223D01*
X0270252Y0052075D01*
X0270305Y0051926D01*
X0270354Y0051775D01*
X0270399Y0051623D01*
X0270440Y0051470D01*
X0270478Y0051317D01*
X0270511Y0051162D01*
X0270541Y0051006D01*
X0270567Y0050850D01*
X0270588Y0050693D01*
X0270606Y0050536D01*
X0270620Y0050378D01*
X0270630Y0050220D01*
X0270636Y0050062D01*
X0270638Y0049904D01*
X0270636Y0049746D01*
X0270630Y0049588D01*
X0270620Y0049430D01*
X0270606Y0049272D01*
X0270588Y0049115D01*
X0270567Y0048958D01*
X0270541Y0048802D01*
X0270511Y0048646D01*
X0270478Y0048491D01*
X0270440Y0048338D01*
X0270399Y0048185D01*
X0270354Y0048033D01*
X0270305Y0047882D01*
X0270252Y0047733D01*
X0270196Y0047585D01*
X0270136Y0047439D01*
X0270072Y0047294D01*
X0270004Y0047151D01*
X0269933Y0047009D01*
X0269859Y0046869D01*
X0269781Y0046732D01*
X0269699Y0046596D01*
X0269615Y0046462D01*
X0269526Y0046331D01*
X0269435Y0046202D01*
X0269340Y0046075D01*
X0269243Y0045950D01*
X0269142Y0045828D01*
X0269038Y0045709D01*
X0268931Y0045592D01*
X0268821Y0045478D01*
X0268708Y0045367D01*
X0268593Y0045258D01*
X0268475Y0045153D01*
X0268354Y0045051D01*
X0268231Y0044951D01*
X0268105Y0044855D01*
X0267977Y0044762D01*
X0267847Y0044672D01*
X0267714Y0044586D01*
X0267579Y0044502D01*
X0267443Y0044423D01*
X0267304Y0044346D01*
X0267163Y0044274D01*
X0267021Y0044204D01*
X0266877Y0044139D01*
X0266731Y0044077D01*
X0266584Y0044019D01*
X0266435Y0043964D01*
X0266285Y0043913D01*
X0266134Y0043866D01*
X0265982Y0043823D01*
X0265829Y0043784D01*
X0265674Y0043748D01*
X0265519Y0043717D01*
X0265363Y0043689D01*
X0265207Y0043665D01*
X0265050Y0043645D01*
X0264892Y0043629D01*
X0264735Y0043617D01*
X0264576Y0043609D01*
X0264418Y0043605D01*
X0264260Y0043605D01*
X0264102Y0043609D01*
X0263943Y0043617D01*
X0263786Y0043629D01*
X0263628Y0043645D01*
X0263471Y0043665D01*
X0263315Y0043689D01*
X0263159Y0043717D01*
X0263004Y0043748D01*
X0262849Y0043784D01*
X0262696Y0043823D01*
X0262544Y0043866D01*
X0262393Y0043913D01*
X0262243Y0043964D01*
X0262094Y0044019D01*
X0261947Y0044077D01*
X0261801Y0044139D01*
X0261657Y0044204D01*
X0261515Y0044274D01*
X0261374Y0044346D01*
X0261235Y0044423D01*
X0261099Y0044502D01*
X0260964Y0044586D01*
X0260831Y0044672D01*
X0260701Y0044762D01*
X0260573Y0044855D01*
X0260447Y0044951D01*
X0260324Y0045051D01*
X0260203Y0045153D01*
X0260085Y0045258D01*
X0259970Y0045367D01*
X0259857Y0045478D01*
X0259747Y0045592D01*
X0259640Y0045709D01*
X0259536Y0045828D01*
X0259435Y0045950D01*
X0259338Y0046075D01*
X0259243Y0046202D01*
X0259152Y0046331D01*
X0259063Y0046462D01*
X0258979Y0046596D01*
X0258897Y0046732D01*
X0258819Y0046869D01*
X0258745Y0047009D01*
X0258674Y0047151D01*
X0258606Y0047294D01*
X0258542Y0047439D01*
X0258482Y0047585D01*
X0258426Y0047733D01*
X0258373Y0047882D01*
X0258324Y0048033D01*
X0258279Y0048185D01*
X0258238Y0048338D01*
X0258200Y0048491D01*
X0258167Y0048646D01*
X0258137Y0048802D01*
X0258111Y0048958D01*
X0258090Y0049115D01*
X0258072Y0049272D01*
X0258058Y0049430D01*
X0258048Y0049588D01*
X0258042Y0049746D01*
X0258040Y0049904D01*
X0264339Y0034156D02*
X0264720Y0034161D01*
X0265100Y0034174D01*
X0265480Y0034197D01*
X0265859Y0034230D01*
X0266237Y0034271D01*
X0266614Y0034321D01*
X0266990Y0034381D01*
X0267365Y0034449D01*
X0267737Y0034527D01*
X0268108Y0034614D01*
X0268476Y0034709D01*
X0268842Y0034814D01*
X0269205Y0034927D01*
X0269566Y0035049D01*
X0269923Y0035179D01*
X0270277Y0035319D01*
X0270628Y0035466D01*
X0270975Y0035623D01*
X0271318Y0035787D01*
X0271657Y0035960D01*
X0271992Y0036141D01*
X0272323Y0036330D01*
X0272648Y0036527D01*
X0272969Y0036731D01*
X0273285Y0036944D01*
X0273595Y0037164D01*
X0273901Y0037391D01*
X0274200Y0037626D01*
X0274494Y0037868D01*
X0274782Y0038116D01*
X0275064Y0038372D01*
X0275339Y0038635D01*
X0275608Y0038904D01*
X0275871Y0039179D01*
X0276127Y0039461D01*
X0276375Y0039749D01*
X0276617Y0040043D01*
X0276852Y0040342D01*
X0277079Y0040648D01*
X0277299Y0040958D01*
X0277512Y0041274D01*
X0277716Y0041595D01*
X0277913Y0041920D01*
X0278102Y0042251D01*
X0278283Y0042586D01*
X0278456Y0042925D01*
X0278620Y0043268D01*
X0278777Y0043615D01*
X0278924Y0043966D01*
X0279064Y0044320D01*
X0279194Y0044677D01*
X0279316Y0045038D01*
X0279429Y0045401D01*
X0279534Y0045767D01*
X0279629Y0046135D01*
X0279716Y0046506D01*
X0279794Y0046878D01*
X0279862Y0047253D01*
X0279922Y0047629D01*
X0279972Y0048006D01*
X0280013Y0048384D01*
X0280046Y0048763D01*
X0280069Y0049143D01*
X0280082Y0049523D01*
X0280087Y0049904D01*
X0280087Y0164077D01*
X0258040Y0164077D02*
X0258042Y0164235D01*
X0258048Y0164393D01*
X0258058Y0164551D01*
X0258072Y0164709D01*
X0258090Y0164866D01*
X0258111Y0165023D01*
X0258137Y0165179D01*
X0258167Y0165335D01*
X0258200Y0165490D01*
X0258238Y0165643D01*
X0258279Y0165796D01*
X0258324Y0165948D01*
X0258373Y0166099D01*
X0258426Y0166248D01*
X0258482Y0166396D01*
X0258542Y0166542D01*
X0258606Y0166687D01*
X0258674Y0166830D01*
X0258745Y0166972D01*
X0258819Y0167112D01*
X0258897Y0167249D01*
X0258979Y0167385D01*
X0259063Y0167519D01*
X0259152Y0167650D01*
X0259243Y0167779D01*
X0259338Y0167906D01*
X0259435Y0168031D01*
X0259536Y0168153D01*
X0259640Y0168272D01*
X0259747Y0168389D01*
X0259857Y0168503D01*
X0259970Y0168614D01*
X0260085Y0168723D01*
X0260203Y0168828D01*
X0260324Y0168930D01*
X0260447Y0169030D01*
X0260573Y0169126D01*
X0260701Y0169219D01*
X0260831Y0169309D01*
X0260964Y0169395D01*
X0261099Y0169479D01*
X0261235Y0169558D01*
X0261374Y0169635D01*
X0261515Y0169707D01*
X0261657Y0169777D01*
X0261801Y0169842D01*
X0261947Y0169904D01*
X0262094Y0169962D01*
X0262243Y0170017D01*
X0262393Y0170068D01*
X0262544Y0170115D01*
X0262696Y0170158D01*
X0262849Y0170197D01*
X0263004Y0170233D01*
X0263159Y0170264D01*
X0263315Y0170292D01*
X0263471Y0170316D01*
X0263628Y0170336D01*
X0263786Y0170352D01*
X0263943Y0170364D01*
X0264102Y0170372D01*
X0264260Y0170376D01*
X0264418Y0170376D01*
X0264576Y0170372D01*
X0264735Y0170364D01*
X0264892Y0170352D01*
X0265050Y0170336D01*
X0265207Y0170316D01*
X0265363Y0170292D01*
X0265519Y0170264D01*
X0265674Y0170233D01*
X0265829Y0170197D01*
X0265982Y0170158D01*
X0266134Y0170115D01*
X0266285Y0170068D01*
X0266435Y0170017D01*
X0266584Y0169962D01*
X0266731Y0169904D01*
X0266877Y0169842D01*
X0267021Y0169777D01*
X0267163Y0169707D01*
X0267304Y0169635D01*
X0267443Y0169558D01*
X0267579Y0169479D01*
X0267714Y0169395D01*
X0267847Y0169309D01*
X0267977Y0169219D01*
X0268105Y0169126D01*
X0268231Y0169030D01*
X0268354Y0168930D01*
X0268475Y0168828D01*
X0268593Y0168723D01*
X0268708Y0168614D01*
X0268821Y0168503D01*
X0268931Y0168389D01*
X0269038Y0168272D01*
X0269142Y0168153D01*
X0269243Y0168031D01*
X0269340Y0167906D01*
X0269435Y0167779D01*
X0269526Y0167650D01*
X0269615Y0167519D01*
X0269699Y0167385D01*
X0269781Y0167249D01*
X0269859Y0167112D01*
X0269933Y0166972D01*
X0270004Y0166830D01*
X0270072Y0166687D01*
X0270136Y0166542D01*
X0270196Y0166396D01*
X0270252Y0166248D01*
X0270305Y0166099D01*
X0270354Y0165948D01*
X0270399Y0165796D01*
X0270440Y0165643D01*
X0270478Y0165490D01*
X0270511Y0165335D01*
X0270541Y0165179D01*
X0270567Y0165023D01*
X0270588Y0164866D01*
X0270606Y0164709D01*
X0270620Y0164551D01*
X0270630Y0164393D01*
X0270636Y0164235D01*
X0270638Y0164077D01*
X0270636Y0163919D01*
X0270630Y0163761D01*
X0270620Y0163603D01*
X0270606Y0163445D01*
X0270588Y0163288D01*
X0270567Y0163131D01*
X0270541Y0162975D01*
X0270511Y0162819D01*
X0270478Y0162664D01*
X0270440Y0162511D01*
X0270399Y0162358D01*
X0270354Y0162206D01*
X0270305Y0162055D01*
X0270252Y0161906D01*
X0270196Y0161758D01*
X0270136Y0161612D01*
X0270072Y0161467D01*
X0270004Y0161324D01*
X0269933Y0161182D01*
X0269859Y0161042D01*
X0269781Y0160905D01*
X0269699Y0160769D01*
X0269615Y0160635D01*
X0269526Y0160504D01*
X0269435Y0160375D01*
X0269340Y0160248D01*
X0269243Y0160123D01*
X0269142Y0160001D01*
X0269038Y0159882D01*
X0268931Y0159765D01*
X0268821Y0159651D01*
X0268708Y0159540D01*
X0268593Y0159431D01*
X0268475Y0159326D01*
X0268354Y0159224D01*
X0268231Y0159124D01*
X0268105Y0159028D01*
X0267977Y0158935D01*
X0267847Y0158845D01*
X0267714Y0158759D01*
X0267579Y0158675D01*
X0267443Y0158596D01*
X0267304Y0158519D01*
X0267163Y0158447D01*
X0267021Y0158377D01*
X0266877Y0158312D01*
X0266731Y0158250D01*
X0266584Y0158192D01*
X0266435Y0158137D01*
X0266285Y0158086D01*
X0266134Y0158039D01*
X0265982Y0157996D01*
X0265829Y0157957D01*
X0265674Y0157921D01*
X0265519Y0157890D01*
X0265363Y0157862D01*
X0265207Y0157838D01*
X0265050Y0157818D01*
X0264892Y0157802D01*
X0264735Y0157790D01*
X0264576Y0157782D01*
X0264418Y0157778D01*
X0264260Y0157778D01*
X0264102Y0157782D01*
X0263943Y0157790D01*
X0263786Y0157802D01*
X0263628Y0157818D01*
X0263471Y0157838D01*
X0263315Y0157862D01*
X0263159Y0157890D01*
X0263004Y0157921D01*
X0262849Y0157957D01*
X0262696Y0157996D01*
X0262544Y0158039D01*
X0262393Y0158086D01*
X0262243Y0158137D01*
X0262094Y0158192D01*
X0261947Y0158250D01*
X0261801Y0158312D01*
X0261657Y0158377D01*
X0261515Y0158447D01*
X0261374Y0158519D01*
X0261235Y0158596D01*
X0261099Y0158675D01*
X0260964Y0158759D01*
X0260831Y0158845D01*
X0260701Y0158935D01*
X0260573Y0159028D01*
X0260447Y0159124D01*
X0260324Y0159224D01*
X0260203Y0159326D01*
X0260085Y0159431D01*
X0259970Y0159540D01*
X0259857Y0159651D01*
X0259747Y0159765D01*
X0259640Y0159882D01*
X0259536Y0160001D01*
X0259435Y0160123D01*
X0259338Y0160248D01*
X0259243Y0160375D01*
X0259152Y0160504D01*
X0259063Y0160635D01*
X0258979Y0160769D01*
X0258897Y0160905D01*
X0258819Y0161042D01*
X0258745Y0161182D01*
X0258674Y0161324D01*
X0258606Y0161467D01*
X0258542Y0161612D01*
X0258482Y0161758D01*
X0258426Y0161906D01*
X0258373Y0162055D01*
X0258324Y0162206D01*
X0258279Y0162358D01*
X0258238Y0162511D01*
X0258200Y0162664D01*
X0258167Y0162819D01*
X0258137Y0162975D01*
X0258111Y0163131D01*
X0258090Y0163288D01*
X0258072Y0163445D01*
X0258058Y0163603D01*
X0258048Y0163761D01*
X0258042Y0163919D01*
X0258040Y0164077D01*
X0264339Y0179825D02*
X0264720Y0179820D01*
X0265100Y0179807D01*
X0265480Y0179784D01*
X0265859Y0179751D01*
X0266237Y0179710D01*
X0266614Y0179660D01*
X0266990Y0179600D01*
X0267365Y0179532D01*
X0267737Y0179454D01*
X0268108Y0179367D01*
X0268476Y0179272D01*
X0268842Y0179167D01*
X0269205Y0179054D01*
X0269566Y0178932D01*
X0269923Y0178802D01*
X0270277Y0178662D01*
X0270628Y0178515D01*
X0270975Y0178358D01*
X0271318Y0178194D01*
X0271657Y0178021D01*
X0271992Y0177840D01*
X0272323Y0177651D01*
X0272648Y0177454D01*
X0272969Y0177250D01*
X0273285Y0177037D01*
X0273595Y0176817D01*
X0273901Y0176590D01*
X0274200Y0176355D01*
X0274494Y0176113D01*
X0274782Y0175865D01*
X0275064Y0175609D01*
X0275339Y0175346D01*
X0275608Y0175077D01*
X0275871Y0174802D01*
X0276127Y0174520D01*
X0276375Y0174232D01*
X0276617Y0173938D01*
X0276852Y0173639D01*
X0277079Y0173333D01*
X0277299Y0173023D01*
X0277512Y0172707D01*
X0277716Y0172386D01*
X0277913Y0172061D01*
X0278102Y0171730D01*
X0278283Y0171395D01*
X0278456Y0171056D01*
X0278620Y0170713D01*
X0278777Y0170366D01*
X0278924Y0170015D01*
X0279064Y0169661D01*
X0279194Y0169304D01*
X0279316Y0168943D01*
X0279429Y0168580D01*
X0279534Y0168214D01*
X0279629Y0167846D01*
X0279716Y0167475D01*
X0279794Y0167103D01*
X0279862Y0166728D01*
X0279922Y0166352D01*
X0279972Y0165975D01*
X0280013Y0165597D01*
X0280046Y0165218D01*
X0280069Y0164838D01*
X0280082Y0164458D01*
X0280087Y0164077D01*
X0280082Y0164458D01*
X0280069Y0164838D01*
X0280046Y0165218D01*
X0280013Y0165597D01*
X0279972Y0165975D01*
X0279922Y0166352D01*
X0279862Y0166728D01*
X0279794Y0167103D01*
X0279716Y0167475D01*
X0279629Y0167846D01*
X0279534Y0168214D01*
X0279429Y0168580D01*
X0279316Y0168943D01*
X0279194Y0169304D01*
X0279064Y0169661D01*
X0278924Y0170015D01*
X0278777Y0170366D01*
X0278620Y0170713D01*
X0278456Y0171056D01*
X0278283Y0171395D01*
X0278102Y0171730D01*
X0277913Y0172061D01*
X0277716Y0172386D01*
X0277512Y0172707D01*
X0277299Y0173023D01*
X0277079Y0173333D01*
X0276852Y0173639D01*
X0276617Y0173938D01*
X0276375Y0174232D01*
X0276127Y0174520D01*
X0275871Y0174802D01*
X0275608Y0175077D01*
X0275339Y0175346D01*
X0275064Y0175609D01*
X0274782Y0175865D01*
X0274494Y0176113D01*
X0274200Y0176355D01*
X0273901Y0176590D01*
X0273595Y0176817D01*
X0273285Y0177037D01*
X0272969Y0177250D01*
X0272648Y0177454D01*
X0272323Y0177651D01*
X0271992Y0177840D01*
X0271657Y0178021D01*
X0271318Y0178194D01*
X0270975Y0178358D01*
X0270628Y0178515D01*
X0270277Y0178662D01*
X0269923Y0178802D01*
X0269566Y0178932D01*
X0269205Y0179054D01*
X0268842Y0179167D01*
X0268476Y0179272D01*
X0268108Y0179367D01*
X0267737Y0179454D01*
X0267365Y0179532D01*
X0266990Y0179600D01*
X0266614Y0179660D01*
X0266237Y0179710D01*
X0265859Y0179751D01*
X0265480Y0179784D01*
X0265100Y0179807D01*
X0264720Y0179820D01*
X0264339Y0179825D01*
X0059614Y0179825D01*
X0053315Y0164077D02*
X0053317Y0164235D01*
X0053323Y0164393D01*
X0053333Y0164551D01*
X0053347Y0164709D01*
X0053365Y0164866D01*
X0053386Y0165023D01*
X0053412Y0165179D01*
X0053442Y0165335D01*
X0053475Y0165490D01*
X0053513Y0165643D01*
X0053554Y0165796D01*
X0053599Y0165948D01*
X0053648Y0166099D01*
X0053701Y0166248D01*
X0053757Y0166396D01*
X0053817Y0166542D01*
X0053881Y0166687D01*
X0053949Y0166830D01*
X0054020Y0166972D01*
X0054094Y0167112D01*
X0054172Y0167249D01*
X0054254Y0167385D01*
X0054338Y0167519D01*
X0054427Y0167650D01*
X0054518Y0167779D01*
X0054613Y0167906D01*
X0054710Y0168031D01*
X0054811Y0168153D01*
X0054915Y0168272D01*
X0055022Y0168389D01*
X0055132Y0168503D01*
X0055245Y0168614D01*
X0055360Y0168723D01*
X0055478Y0168828D01*
X0055599Y0168930D01*
X0055722Y0169030D01*
X0055848Y0169126D01*
X0055976Y0169219D01*
X0056106Y0169309D01*
X0056239Y0169395D01*
X0056374Y0169479D01*
X0056510Y0169558D01*
X0056649Y0169635D01*
X0056790Y0169707D01*
X0056932Y0169777D01*
X0057076Y0169842D01*
X0057222Y0169904D01*
X0057369Y0169962D01*
X0057518Y0170017D01*
X0057668Y0170068D01*
X0057819Y0170115D01*
X0057971Y0170158D01*
X0058124Y0170197D01*
X0058279Y0170233D01*
X0058434Y0170264D01*
X0058590Y0170292D01*
X0058746Y0170316D01*
X0058903Y0170336D01*
X0059061Y0170352D01*
X0059218Y0170364D01*
X0059377Y0170372D01*
X0059535Y0170376D01*
X0059693Y0170376D01*
X0059851Y0170372D01*
X0060010Y0170364D01*
X0060167Y0170352D01*
X0060325Y0170336D01*
X0060482Y0170316D01*
X0060638Y0170292D01*
X0060794Y0170264D01*
X0060949Y0170233D01*
X0061104Y0170197D01*
X0061257Y0170158D01*
X0061409Y0170115D01*
X0061560Y0170068D01*
X0061710Y0170017D01*
X0061859Y0169962D01*
X0062006Y0169904D01*
X0062152Y0169842D01*
X0062296Y0169777D01*
X0062438Y0169707D01*
X0062579Y0169635D01*
X0062718Y0169558D01*
X0062854Y0169479D01*
X0062989Y0169395D01*
X0063122Y0169309D01*
X0063252Y0169219D01*
X0063380Y0169126D01*
X0063506Y0169030D01*
X0063629Y0168930D01*
X0063750Y0168828D01*
X0063868Y0168723D01*
X0063983Y0168614D01*
X0064096Y0168503D01*
X0064206Y0168389D01*
X0064313Y0168272D01*
X0064417Y0168153D01*
X0064518Y0168031D01*
X0064615Y0167906D01*
X0064710Y0167779D01*
X0064801Y0167650D01*
X0064890Y0167519D01*
X0064974Y0167385D01*
X0065056Y0167249D01*
X0065134Y0167112D01*
X0065208Y0166972D01*
X0065279Y0166830D01*
X0065347Y0166687D01*
X0065411Y0166542D01*
X0065471Y0166396D01*
X0065527Y0166248D01*
X0065580Y0166099D01*
X0065629Y0165948D01*
X0065674Y0165796D01*
X0065715Y0165643D01*
X0065753Y0165490D01*
X0065786Y0165335D01*
X0065816Y0165179D01*
X0065842Y0165023D01*
X0065863Y0164866D01*
X0065881Y0164709D01*
X0065895Y0164551D01*
X0065905Y0164393D01*
X0065911Y0164235D01*
X0065913Y0164077D01*
X0065911Y0163919D01*
X0065905Y0163761D01*
X0065895Y0163603D01*
X0065881Y0163445D01*
X0065863Y0163288D01*
X0065842Y0163131D01*
X0065816Y0162975D01*
X0065786Y0162819D01*
X0065753Y0162664D01*
X0065715Y0162511D01*
X0065674Y0162358D01*
X0065629Y0162206D01*
X0065580Y0162055D01*
X0065527Y0161906D01*
X0065471Y0161758D01*
X0065411Y0161612D01*
X0065347Y0161467D01*
X0065279Y0161324D01*
X0065208Y0161182D01*
X0065134Y0161042D01*
X0065056Y0160905D01*
X0064974Y0160769D01*
X0064890Y0160635D01*
X0064801Y0160504D01*
X0064710Y0160375D01*
X0064615Y0160248D01*
X0064518Y0160123D01*
X0064417Y0160001D01*
X0064313Y0159882D01*
X0064206Y0159765D01*
X0064096Y0159651D01*
X0063983Y0159540D01*
X0063868Y0159431D01*
X0063750Y0159326D01*
X0063629Y0159224D01*
X0063506Y0159124D01*
X0063380Y0159028D01*
X0063252Y0158935D01*
X0063122Y0158845D01*
X0062989Y0158759D01*
X0062854Y0158675D01*
X0062718Y0158596D01*
X0062579Y0158519D01*
X0062438Y0158447D01*
X0062296Y0158377D01*
X0062152Y0158312D01*
X0062006Y0158250D01*
X0061859Y0158192D01*
X0061710Y0158137D01*
X0061560Y0158086D01*
X0061409Y0158039D01*
X0061257Y0157996D01*
X0061104Y0157957D01*
X0060949Y0157921D01*
X0060794Y0157890D01*
X0060638Y0157862D01*
X0060482Y0157838D01*
X0060325Y0157818D01*
X0060167Y0157802D01*
X0060010Y0157790D01*
X0059851Y0157782D01*
X0059693Y0157778D01*
X0059535Y0157778D01*
X0059377Y0157782D01*
X0059218Y0157790D01*
X0059061Y0157802D01*
X0058903Y0157818D01*
X0058746Y0157838D01*
X0058590Y0157862D01*
X0058434Y0157890D01*
X0058279Y0157921D01*
X0058124Y0157957D01*
X0057971Y0157996D01*
X0057819Y0158039D01*
X0057668Y0158086D01*
X0057518Y0158137D01*
X0057369Y0158192D01*
X0057222Y0158250D01*
X0057076Y0158312D01*
X0056932Y0158377D01*
X0056790Y0158447D01*
X0056649Y0158519D01*
X0056510Y0158596D01*
X0056374Y0158675D01*
X0056239Y0158759D01*
X0056106Y0158845D01*
X0055976Y0158935D01*
X0055848Y0159028D01*
X0055722Y0159124D01*
X0055599Y0159224D01*
X0055478Y0159326D01*
X0055360Y0159431D01*
X0055245Y0159540D01*
X0055132Y0159651D01*
X0055022Y0159765D01*
X0054915Y0159882D01*
X0054811Y0160001D01*
X0054710Y0160123D01*
X0054613Y0160248D01*
X0054518Y0160375D01*
X0054427Y0160504D01*
X0054338Y0160635D01*
X0054254Y0160769D01*
X0054172Y0160905D01*
X0054094Y0161042D01*
X0054020Y0161182D01*
X0053949Y0161324D01*
X0053881Y0161467D01*
X0053817Y0161612D01*
X0053757Y0161758D01*
X0053701Y0161906D01*
X0053648Y0162055D01*
X0053599Y0162206D01*
X0053554Y0162358D01*
X0053513Y0162511D01*
X0053475Y0162664D01*
X0053442Y0162819D01*
X0053412Y0162975D01*
X0053386Y0163131D01*
X0053365Y0163288D01*
X0053347Y0163445D01*
X0053333Y0163603D01*
X0053323Y0163761D01*
X0053317Y0163919D01*
X0053315Y0164077D01*
X0043866Y0164077D02*
X0043871Y0164458D01*
X0043884Y0164838D01*
X0043907Y0165218D01*
X0043940Y0165597D01*
X0043981Y0165975D01*
X0044031Y0166352D01*
X0044091Y0166728D01*
X0044159Y0167103D01*
X0044237Y0167475D01*
X0044324Y0167846D01*
X0044419Y0168214D01*
X0044524Y0168580D01*
X0044637Y0168943D01*
X0044759Y0169304D01*
X0044889Y0169661D01*
X0045029Y0170015D01*
X0045176Y0170366D01*
X0045333Y0170713D01*
X0045497Y0171056D01*
X0045670Y0171395D01*
X0045851Y0171730D01*
X0046040Y0172061D01*
X0046237Y0172386D01*
X0046441Y0172707D01*
X0046654Y0173023D01*
X0046874Y0173333D01*
X0047101Y0173639D01*
X0047336Y0173938D01*
X0047578Y0174232D01*
X0047826Y0174520D01*
X0048082Y0174802D01*
X0048345Y0175077D01*
X0048614Y0175346D01*
X0048889Y0175609D01*
X0049171Y0175865D01*
X0049459Y0176113D01*
X0049753Y0176355D01*
X0050052Y0176590D01*
X0050358Y0176817D01*
X0050668Y0177037D01*
X0050984Y0177250D01*
X0051305Y0177454D01*
X0051630Y0177651D01*
X0051961Y0177840D01*
X0052296Y0178021D01*
X0052635Y0178194D01*
X0052978Y0178358D01*
X0053325Y0178515D01*
X0053676Y0178662D01*
X0054030Y0178802D01*
X0054387Y0178932D01*
X0054748Y0179054D01*
X0055111Y0179167D01*
X0055477Y0179272D01*
X0055845Y0179367D01*
X0056216Y0179454D01*
X0056588Y0179532D01*
X0056963Y0179600D01*
X0057339Y0179660D01*
X0057716Y0179710D01*
X0058094Y0179751D01*
X0058473Y0179784D01*
X0058853Y0179807D01*
X0059233Y0179820D01*
X0059614Y0179825D01*
X0059233Y0179820D01*
X0058853Y0179807D01*
X0058473Y0179784D01*
X0058094Y0179751D01*
X0057716Y0179710D01*
X0057339Y0179660D01*
X0056963Y0179600D01*
X0056588Y0179532D01*
X0056216Y0179454D01*
X0055845Y0179367D01*
X0055477Y0179272D01*
X0055111Y0179167D01*
X0054748Y0179054D01*
X0054387Y0178932D01*
X0054030Y0178802D01*
X0053676Y0178662D01*
X0053325Y0178515D01*
X0052978Y0178358D01*
X0052635Y0178194D01*
X0052296Y0178021D01*
X0051961Y0177840D01*
X0051630Y0177651D01*
X0051305Y0177454D01*
X0050984Y0177250D01*
X0050668Y0177037D01*
X0050358Y0176817D01*
X0050052Y0176590D01*
X0049753Y0176355D01*
X0049459Y0176113D01*
X0049171Y0175865D01*
X0048889Y0175609D01*
X0048614Y0175346D01*
X0048345Y0175077D01*
X0048082Y0174802D01*
X0047826Y0174520D01*
X0047578Y0174232D01*
X0047336Y0173938D01*
X0047101Y0173639D01*
X0046874Y0173333D01*
X0046654Y0173023D01*
X0046441Y0172707D01*
X0046237Y0172386D01*
X0046040Y0172061D01*
X0045851Y0171730D01*
X0045670Y0171395D01*
X0045497Y0171056D01*
X0045333Y0170713D01*
X0045176Y0170366D01*
X0045029Y0170015D01*
X0044889Y0169661D01*
X0044759Y0169304D01*
X0044637Y0168943D01*
X0044524Y0168580D01*
X0044419Y0168214D01*
X0044324Y0167846D01*
X0044237Y0167475D01*
X0044159Y0167103D01*
X0044091Y0166728D01*
X0044031Y0166352D01*
X0043981Y0165975D01*
X0043940Y0165597D01*
X0043907Y0165218D01*
X0043884Y0164838D01*
X0043871Y0164458D01*
X0043866Y0164077D01*
X0043866Y0049904D01*
X0053315Y0049904D02*
X0053317Y0050062D01*
X0053323Y0050220D01*
X0053333Y0050378D01*
X0053347Y0050536D01*
X0053365Y0050693D01*
X0053386Y0050850D01*
X0053412Y0051006D01*
X0053442Y0051162D01*
X0053475Y0051317D01*
X0053513Y0051470D01*
X0053554Y0051623D01*
X0053599Y0051775D01*
X0053648Y0051926D01*
X0053701Y0052075D01*
X0053757Y0052223D01*
X0053817Y0052369D01*
X0053881Y0052514D01*
X0053949Y0052657D01*
X0054020Y0052799D01*
X0054094Y0052939D01*
X0054172Y0053076D01*
X0054254Y0053212D01*
X0054338Y0053346D01*
X0054427Y0053477D01*
X0054518Y0053606D01*
X0054613Y0053733D01*
X0054710Y0053858D01*
X0054811Y0053980D01*
X0054915Y0054099D01*
X0055022Y0054216D01*
X0055132Y0054330D01*
X0055245Y0054441D01*
X0055360Y0054550D01*
X0055478Y0054655D01*
X0055599Y0054757D01*
X0055722Y0054857D01*
X0055848Y0054953D01*
X0055976Y0055046D01*
X0056106Y0055136D01*
X0056239Y0055222D01*
X0056374Y0055306D01*
X0056510Y0055385D01*
X0056649Y0055462D01*
X0056790Y0055534D01*
X0056932Y0055604D01*
X0057076Y0055669D01*
X0057222Y0055731D01*
X0057369Y0055789D01*
X0057518Y0055844D01*
X0057668Y0055895D01*
X0057819Y0055942D01*
X0057971Y0055985D01*
X0058124Y0056024D01*
X0058279Y0056060D01*
X0058434Y0056091D01*
X0058590Y0056119D01*
X0058746Y0056143D01*
X0058903Y0056163D01*
X0059061Y0056179D01*
X0059218Y0056191D01*
X0059377Y0056199D01*
X0059535Y0056203D01*
X0059693Y0056203D01*
X0059851Y0056199D01*
X0060010Y0056191D01*
X0060167Y0056179D01*
X0060325Y0056163D01*
X0060482Y0056143D01*
X0060638Y0056119D01*
X0060794Y0056091D01*
X0060949Y0056060D01*
X0061104Y0056024D01*
X0061257Y0055985D01*
X0061409Y0055942D01*
X0061560Y0055895D01*
X0061710Y0055844D01*
X0061859Y0055789D01*
X0062006Y0055731D01*
X0062152Y0055669D01*
X0062296Y0055604D01*
X0062438Y0055534D01*
X0062579Y0055462D01*
X0062718Y0055385D01*
X0062854Y0055306D01*
X0062989Y0055222D01*
X0063122Y0055136D01*
X0063252Y0055046D01*
X0063380Y0054953D01*
X0063506Y0054857D01*
X0063629Y0054757D01*
X0063750Y0054655D01*
X0063868Y0054550D01*
X0063983Y0054441D01*
X0064096Y0054330D01*
X0064206Y0054216D01*
X0064313Y0054099D01*
X0064417Y0053980D01*
X0064518Y0053858D01*
X0064615Y0053733D01*
X0064710Y0053606D01*
X0064801Y0053477D01*
X0064890Y0053346D01*
X0064974Y0053212D01*
X0065056Y0053076D01*
X0065134Y0052939D01*
X0065208Y0052799D01*
X0065279Y0052657D01*
X0065347Y0052514D01*
X0065411Y0052369D01*
X0065471Y0052223D01*
X0065527Y0052075D01*
X0065580Y0051926D01*
X0065629Y0051775D01*
X0065674Y0051623D01*
X0065715Y0051470D01*
X0065753Y0051317D01*
X0065786Y0051162D01*
X0065816Y0051006D01*
X0065842Y0050850D01*
X0065863Y0050693D01*
X0065881Y0050536D01*
X0065895Y0050378D01*
X0065905Y0050220D01*
X0065911Y0050062D01*
X0065913Y0049904D01*
X0065911Y0049746D01*
X0065905Y0049588D01*
X0065895Y0049430D01*
X0065881Y0049272D01*
X0065863Y0049115D01*
X0065842Y0048958D01*
X0065816Y0048802D01*
X0065786Y0048646D01*
X0065753Y0048491D01*
X0065715Y0048338D01*
X0065674Y0048185D01*
X0065629Y0048033D01*
X0065580Y0047882D01*
X0065527Y0047733D01*
X0065471Y0047585D01*
X0065411Y0047439D01*
X0065347Y0047294D01*
X0065279Y0047151D01*
X0065208Y0047009D01*
X0065134Y0046869D01*
X0065056Y0046732D01*
X0064974Y0046596D01*
X0064890Y0046462D01*
X0064801Y0046331D01*
X0064710Y0046202D01*
X0064615Y0046075D01*
X0064518Y0045950D01*
X0064417Y0045828D01*
X0064313Y0045709D01*
X0064206Y0045592D01*
X0064096Y0045478D01*
X0063983Y0045367D01*
X0063868Y0045258D01*
X0063750Y0045153D01*
X0063629Y0045051D01*
X0063506Y0044951D01*
X0063380Y0044855D01*
X0063252Y0044762D01*
X0063122Y0044672D01*
X0062989Y0044586D01*
X0062854Y0044502D01*
X0062718Y0044423D01*
X0062579Y0044346D01*
X0062438Y0044274D01*
X0062296Y0044204D01*
X0062152Y0044139D01*
X0062006Y0044077D01*
X0061859Y0044019D01*
X0061710Y0043964D01*
X0061560Y0043913D01*
X0061409Y0043866D01*
X0061257Y0043823D01*
X0061104Y0043784D01*
X0060949Y0043748D01*
X0060794Y0043717D01*
X0060638Y0043689D01*
X0060482Y0043665D01*
X0060325Y0043645D01*
X0060167Y0043629D01*
X0060010Y0043617D01*
X0059851Y0043609D01*
X0059693Y0043605D01*
X0059535Y0043605D01*
X0059377Y0043609D01*
X0059218Y0043617D01*
X0059061Y0043629D01*
X0058903Y0043645D01*
X0058746Y0043665D01*
X0058590Y0043689D01*
X0058434Y0043717D01*
X0058279Y0043748D01*
X0058124Y0043784D01*
X0057971Y0043823D01*
X0057819Y0043866D01*
X0057668Y0043913D01*
X0057518Y0043964D01*
X0057369Y0044019D01*
X0057222Y0044077D01*
X0057076Y0044139D01*
X0056932Y0044204D01*
X0056790Y0044274D01*
X0056649Y0044346D01*
X0056510Y0044423D01*
X0056374Y0044502D01*
X0056239Y0044586D01*
X0056106Y0044672D01*
X0055976Y0044762D01*
X0055848Y0044855D01*
X0055722Y0044951D01*
X0055599Y0045051D01*
X0055478Y0045153D01*
X0055360Y0045258D01*
X0055245Y0045367D01*
X0055132Y0045478D01*
X0055022Y0045592D01*
X0054915Y0045709D01*
X0054811Y0045828D01*
X0054710Y0045950D01*
X0054613Y0046075D01*
X0054518Y0046202D01*
X0054427Y0046331D01*
X0054338Y0046462D01*
X0054254Y0046596D01*
X0054172Y0046732D01*
X0054094Y0046869D01*
X0054020Y0047009D01*
X0053949Y0047151D01*
X0053881Y0047294D01*
X0053817Y0047439D01*
X0053757Y0047585D01*
X0053701Y0047733D01*
X0053648Y0047882D01*
X0053599Y0048033D01*
X0053554Y0048185D01*
X0053513Y0048338D01*
X0053475Y0048491D01*
X0053442Y0048646D01*
X0053412Y0048802D01*
X0053386Y0048958D01*
X0053365Y0049115D01*
X0053347Y0049272D01*
X0053333Y0049430D01*
X0053323Y0049588D01*
X0053317Y0049746D01*
X0053315Y0049904D01*
X0043866Y0049904D02*
X0043871Y0049523D01*
X0043884Y0049143D01*
X0043907Y0048763D01*
X0043940Y0048384D01*
X0043981Y0048006D01*
X0044031Y0047629D01*
X0044091Y0047253D01*
X0044159Y0046878D01*
X0044237Y0046506D01*
X0044324Y0046135D01*
X0044419Y0045767D01*
X0044524Y0045401D01*
X0044637Y0045038D01*
X0044759Y0044677D01*
X0044889Y0044320D01*
X0045029Y0043966D01*
X0045176Y0043615D01*
X0045333Y0043268D01*
X0045497Y0042925D01*
X0045670Y0042586D01*
X0045851Y0042251D01*
X0046040Y0041920D01*
X0046237Y0041595D01*
X0046441Y0041274D01*
X0046654Y0040958D01*
X0046874Y0040648D01*
X0047101Y0040342D01*
X0047336Y0040043D01*
X0047578Y0039749D01*
X0047826Y0039461D01*
X0048082Y0039179D01*
X0048345Y0038904D01*
X0048614Y0038635D01*
X0048889Y0038372D01*
X0049171Y0038116D01*
X0049459Y0037868D01*
X0049753Y0037626D01*
X0050052Y0037391D01*
X0050358Y0037164D01*
X0050668Y0036944D01*
X0050984Y0036731D01*
X0051305Y0036527D01*
X0051630Y0036330D01*
X0051961Y0036141D01*
X0052296Y0035960D01*
X0052635Y0035787D01*
X0052978Y0035623D01*
X0053325Y0035466D01*
X0053676Y0035319D01*
X0054030Y0035179D01*
X0054387Y0035049D01*
X0054748Y0034927D01*
X0055111Y0034814D01*
X0055477Y0034709D01*
X0055845Y0034614D01*
X0056216Y0034527D01*
X0056588Y0034449D01*
X0056963Y0034381D01*
X0057339Y0034321D01*
X0057716Y0034271D01*
X0058094Y0034230D01*
X0058473Y0034197D01*
X0058853Y0034174D01*
X0059233Y0034161D01*
X0059614Y0034156D01*
X0059233Y0034161D01*
X0058853Y0034174D01*
X0058473Y0034197D01*
X0058094Y0034230D01*
X0057716Y0034271D01*
X0057339Y0034321D01*
X0056963Y0034381D01*
X0056588Y0034449D01*
X0056216Y0034527D01*
X0055845Y0034614D01*
X0055477Y0034709D01*
X0055111Y0034814D01*
X0054748Y0034927D01*
X0054387Y0035049D01*
X0054030Y0035179D01*
X0053676Y0035319D01*
X0053325Y0035466D01*
X0052978Y0035623D01*
X0052635Y0035787D01*
X0052296Y0035960D01*
X0051961Y0036141D01*
X0051630Y0036330D01*
X0051305Y0036527D01*
X0050984Y0036731D01*
X0050668Y0036944D01*
X0050358Y0037164D01*
X0050052Y0037391D01*
X0049753Y0037626D01*
X0049459Y0037868D01*
X0049171Y0038116D01*
X0048889Y0038372D01*
X0048614Y0038635D01*
X0048345Y0038904D01*
X0048082Y0039179D01*
X0047826Y0039461D01*
X0047578Y0039749D01*
X0047336Y0040043D01*
X0047101Y0040342D01*
X0046874Y0040648D01*
X0046654Y0040958D01*
X0046441Y0041274D01*
X0046237Y0041595D01*
X0046040Y0041920D01*
X0045851Y0042251D01*
X0045670Y0042586D01*
X0045497Y0042925D01*
X0045333Y0043268D01*
X0045176Y0043615D01*
X0045029Y0043966D01*
X0044889Y0044320D01*
X0044759Y0044677D01*
X0044637Y0045038D01*
X0044524Y0045401D01*
X0044419Y0045767D01*
X0044324Y0046135D01*
X0044237Y0046506D01*
X0044159Y0046878D01*
X0044091Y0047253D01*
X0044031Y0047629D01*
X0043981Y0048006D01*
X0043940Y0048384D01*
X0043907Y0048763D01*
X0043884Y0049143D01*
X0043871Y0049523D01*
X0043866Y0049904D01*
X0048145Y0081991D02*
X0048147Y0082122D01*
X0048153Y0082254D01*
X0048163Y0082385D01*
X0048177Y0082516D01*
X0048195Y0082646D01*
X0048217Y0082775D01*
X0048242Y0082904D01*
X0048272Y0083032D01*
X0048306Y0083159D01*
X0048343Y0083286D01*
X0048384Y0083410D01*
X0048429Y0083534D01*
X0048478Y0083656D01*
X0048530Y0083777D01*
X0048586Y0083895D01*
X0048646Y0084013D01*
X0048709Y0084128D01*
X0048776Y0084241D01*
X0048846Y0084353D01*
X0048919Y0084462D01*
X0048995Y0084568D01*
X0049075Y0084673D01*
X0049158Y0084775D01*
X0049244Y0084874D01*
X0049333Y0084971D01*
X0049425Y0085065D01*
X0049520Y0085156D01*
X0049617Y0085245D01*
X0049717Y0085330D01*
X0049820Y0085412D01*
X0049925Y0085491D01*
X0050032Y0085567D01*
X0050142Y0085639D01*
X0050254Y0085708D01*
X0050368Y0085774D01*
X0050483Y0085836D01*
X0050601Y0085895D01*
X0050720Y0085950D01*
X0050841Y0086002D01*
X0050964Y0086049D01*
X0051088Y0086093D01*
X0051213Y0086134D01*
X0051339Y0086170D01*
X0051467Y0086203D01*
X0051595Y0086231D01*
X0051724Y0086256D01*
X0051854Y0086277D01*
X0051984Y0086294D01*
X0052115Y0086307D01*
X0052246Y0086316D01*
X0052377Y0086321D01*
X0052509Y0086322D01*
X0052640Y0086319D01*
X0052772Y0086312D01*
X0052903Y0086301D01*
X0053033Y0086286D01*
X0053163Y0086267D01*
X0053293Y0086244D01*
X0053421Y0086218D01*
X0053549Y0086187D01*
X0053676Y0086152D01*
X0053802Y0086114D01*
X0053926Y0086072D01*
X0054050Y0086026D01*
X0054171Y0085976D01*
X0054291Y0085923D01*
X0054410Y0085866D01*
X0054527Y0085806D01*
X0054641Y0085742D01*
X0054754Y0085674D01*
X0054865Y0085603D01*
X0054974Y0085529D01*
X0055080Y0085452D01*
X0055184Y0085371D01*
X0055285Y0085288D01*
X0055384Y0085201D01*
X0055480Y0085111D01*
X0055573Y0085018D01*
X0055664Y0084923D01*
X0055751Y0084825D01*
X0055836Y0084724D01*
X0055917Y0084621D01*
X0055995Y0084515D01*
X0056070Y0084407D01*
X0056142Y0084297D01*
X0056210Y0084185D01*
X0056275Y0084071D01*
X0056336Y0083954D01*
X0056394Y0083836D01*
X0056448Y0083716D01*
X0056499Y0083595D01*
X0056546Y0083472D01*
X0056589Y0083348D01*
X0056628Y0083223D01*
X0056664Y0083096D01*
X0056695Y0082968D01*
X0056723Y0082840D01*
X0056747Y0082711D01*
X0056767Y0082581D01*
X0056783Y0082450D01*
X0056795Y0082319D01*
X0056803Y0082188D01*
X0056807Y0082057D01*
X0056807Y0081925D01*
X0056803Y0081794D01*
X0056795Y0081663D01*
X0056783Y0081532D01*
X0056767Y0081401D01*
X0056747Y0081271D01*
X0056723Y0081142D01*
X0056695Y0081014D01*
X0056664Y0080886D01*
X0056628Y0080759D01*
X0056589Y0080634D01*
X0056546Y0080510D01*
X0056499Y0080387D01*
X0056448Y0080266D01*
X0056394Y0080146D01*
X0056336Y0080028D01*
X0056275Y0079911D01*
X0056210Y0079797D01*
X0056142Y0079685D01*
X0056070Y0079575D01*
X0055995Y0079467D01*
X0055917Y0079361D01*
X0055836Y0079258D01*
X0055751Y0079157D01*
X0055664Y0079059D01*
X0055573Y0078964D01*
X0055480Y0078871D01*
X0055384Y0078781D01*
X0055285Y0078694D01*
X0055184Y0078611D01*
X0055080Y0078530D01*
X0054974Y0078453D01*
X0054865Y0078379D01*
X0054754Y0078308D01*
X0054642Y0078240D01*
X0054527Y0078176D01*
X0054410Y0078116D01*
X0054291Y0078059D01*
X0054171Y0078006D01*
X0054050Y0077956D01*
X0053926Y0077910D01*
X0053802Y0077868D01*
X0053676Y0077830D01*
X0053549Y0077795D01*
X0053421Y0077764D01*
X0053293Y0077738D01*
X0053163Y0077715D01*
X0053033Y0077696D01*
X0052903Y0077681D01*
X0052772Y0077670D01*
X0052640Y0077663D01*
X0052509Y0077660D01*
X0052377Y0077661D01*
X0052246Y0077666D01*
X0052115Y0077675D01*
X0051984Y0077688D01*
X0051854Y0077705D01*
X0051724Y0077726D01*
X0051595Y0077751D01*
X0051467Y0077779D01*
X0051339Y0077812D01*
X0051213Y0077848D01*
X0051088Y0077889D01*
X0050964Y0077933D01*
X0050841Y0077980D01*
X0050720Y0078032D01*
X0050601Y0078087D01*
X0050483Y0078146D01*
X0050368Y0078208D01*
X0050254Y0078274D01*
X0050142Y0078343D01*
X0050032Y0078415D01*
X0049925Y0078491D01*
X0049820Y0078570D01*
X0049717Y0078652D01*
X0049617Y0078737D01*
X0049520Y0078826D01*
X0049425Y0078917D01*
X0049333Y0079011D01*
X0049244Y0079108D01*
X0049158Y0079207D01*
X0049075Y0079309D01*
X0048995Y0079414D01*
X0048919Y0079520D01*
X0048846Y0079629D01*
X0048776Y0079741D01*
X0048709Y0079854D01*
X0048646Y0079969D01*
X0048586Y0080087D01*
X0048530Y0080205D01*
X0048478Y0080326D01*
X0048429Y0080448D01*
X0048384Y0080572D01*
X0048343Y0080696D01*
X0048306Y0080823D01*
X0048272Y0080950D01*
X0048242Y0081078D01*
X0048217Y0081207D01*
X0048195Y0081336D01*
X0048177Y0081466D01*
X0048163Y0081597D01*
X0048153Y0081728D01*
X0048147Y0081860D01*
X0048145Y0081991D01*
X0048145Y0136991D02*
X0048147Y0137122D01*
X0048153Y0137254D01*
X0048163Y0137385D01*
X0048177Y0137516D01*
X0048195Y0137646D01*
X0048217Y0137775D01*
X0048242Y0137904D01*
X0048272Y0138032D01*
X0048306Y0138159D01*
X0048343Y0138286D01*
X0048384Y0138410D01*
X0048429Y0138534D01*
X0048478Y0138656D01*
X0048530Y0138777D01*
X0048586Y0138895D01*
X0048646Y0139013D01*
X0048709Y0139128D01*
X0048776Y0139241D01*
X0048846Y0139353D01*
X0048919Y0139462D01*
X0048995Y0139568D01*
X0049075Y0139673D01*
X0049158Y0139775D01*
X0049244Y0139874D01*
X0049333Y0139971D01*
X0049425Y0140065D01*
X0049520Y0140156D01*
X0049617Y0140245D01*
X0049717Y0140330D01*
X0049820Y0140412D01*
X0049925Y0140491D01*
X0050032Y0140567D01*
X0050142Y0140639D01*
X0050254Y0140708D01*
X0050368Y0140774D01*
X0050483Y0140836D01*
X0050601Y0140895D01*
X0050720Y0140950D01*
X0050841Y0141002D01*
X0050964Y0141049D01*
X0051088Y0141093D01*
X0051213Y0141134D01*
X0051339Y0141170D01*
X0051467Y0141203D01*
X0051595Y0141231D01*
X0051724Y0141256D01*
X0051854Y0141277D01*
X0051984Y0141294D01*
X0052115Y0141307D01*
X0052246Y0141316D01*
X0052377Y0141321D01*
X0052509Y0141322D01*
X0052640Y0141319D01*
X0052772Y0141312D01*
X0052903Y0141301D01*
X0053033Y0141286D01*
X0053163Y0141267D01*
X0053293Y0141244D01*
X0053421Y0141218D01*
X0053549Y0141187D01*
X0053676Y0141152D01*
X0053802Y0141114D01*
X0053926Y0141072D01*
X0054050Y0141026D01*
X0054171Y0140976D01*
X0054291Y0140923D01*
X0054410Y0140866D01*
X0054527Y0140806D01*
X0054641Y0140742D01*
X0054754Y0140674D01*
X0054865Y0140603D01*
X0054974Y0140529D01*
X0055080Y0140452D01*
X0055184Y0140371D01*
X0055285Y0140288D01*
X0055384Y0140201D01*
X0055480Y0140111D01*
X0055573Y0140018D01*
X0055664Y0139923D01*
X0055751Y0139825D01*
X0055836Y0139724D01*
X0055917Y0139621D01*
X0055995Y0139515D01*
X0056070Y0139407D01*
X0056142Y0139297D01*
X0056210Y0139185D01*
X0056275Y0139071D01*
X0056336Y0138954D01*
X0056394Y0138836D01*
X0056448Y0138716D01*
X0056499Y0138595D01*
X0056546Y0138472D01*
X0056589Y0138348D01*
X0056628Y0138223D01*
X0056664Y0138096D01*
X0056695Y0137968D01*
X0056723Y0137840D01*
X0056747Y0137711D01*
X0056767Y0137581D01*
X0056783Y0137450D01*
X0056795Y0137319D01*
X0056803Y0137188D01*
X0056807Y0137057D01*
X0056807Y0136925D01*
X0056803Y0136794D01*
X0056795Y0136663D01*
X0056783Y0136532D01*
X0056767Y0136401D01*
X0056747Y0136271D01*
X0056723Y0136142D01*
X0056695Y0136014D01*
X0056664Y0135886D01*
X0056628Y0135759D01*
X0056589Y0135634D01*
X0056546Y0135510D01*
X0056499Y0135387D01*
X0056448Y0135266D01*
X0056394Y0135146D01*
X0056336Y0135028D01*
X0056275Y0134911D01*
X0056210Y0134797D01*
X0056142Y0134685D01*
X0056070Y0134575D01*
X0055995Y0134467D01*
X0055917Y0134361D01*
X0055836Y0134258D01*
X0055751Y0134157D01*
X0055664Y0134059D01*
X0055573Y0133964D01*
X0055480Y0133871D01*
X0055384Y0133781D01*
X0055285Y0133694D01*
X0055184Y0133611D01*
X0055080Y0133530D01*
X0054974Y0133453D01*
X0054865Y0133379D01*
X0054754Y0133308D01*
X0054642Y0133240D01*
X0054527Y0133176D01*
X0054410Y0133116D01*
X0054291Y0133059D01*
X0054171Y0133006D01*
X0054050Y0132956D01*
X0053926Y0132910D01*
X0053802Y0132868D01*
X0053676Y0132830D01*
X0053549Y0132795D01*
X0053421Y0132764D01*
X0053293Y0132738D01*
X0053163Y0132715D01*
X0053033Y0132696D01*
X0052903Y0132681D01*
X0052772Y0132670D01*
X0052640Y0132663D01*
X0052509Y0132660D01*
X0052377Y0132661D01*
X0052246Y0132666D01*
X0052115Y0132675D01*
X0051984Y0132688D01*
X0051854Y0132705D01*
X0051724Y0132726D01*
X0051595Y0132751D01*
X0051467Y0132779D01*
X0051339Y0132812D01*
X0051213Y0132848D01*
X0051088Y0132889D01*
X0050964Y0132933D01*
X0050841Y0132980D01*
X0050720Y0133032D01*
X0050601Y0133087D01*
X0050483Y0133146D01*
X0050368Y0133208D01*
X0050254Y0133274D01*
X0050142Y0133343D01*
X0050032Y0133415D01*
X0049925Y0133491D01*
X0049820Y0133570D01*
X0049717Y0133652D01*
X0049617Y0133737D01*
X0049520Y0133826D01*
X0049425Y0133917D01*
X0049333Y0134011D01*
X0049244Y0134108D01*
X0049158Y0134207D01*
X0049075Y0134309D01*
X0048995Y0134414D01*
X0048919Y0134520D01*
X0048846Y0134629D01*
X0048776Y0134741D01*
X0048709Y0134854D01*
X0048646Y0134969D01*
X0048586Y0135087D01*
X0048530Y0135205D01*
X0048478Y0135326D01*
X0048429Y0135448D01*
X0048384Y0135572D01*
X0048343Y0135696D01*
X0048306Y0135823D01*
X0048272Y0135950D01*
X0048242Y0136078D01*
X0048217Y0136207D01*
X0048195Y0136336D01*
X0048177Y0136466D01*
X0048163Y0136597D01*
X0048153Y0136728D01*
X0048147Y0136860D01*
X0048145Y0136991D01*
X0149645Y0109491D02*
X0149647Y0109622D01*
X0149653Y0109754D01*
X0149663Y0109885D01*
X0149677Y0110016D01*
X0149695Y0110146D01*
X0149717Y0110275D01*
X0149742Y0110404D01*
X0149772Y0110532D01*
X0149806Y0110659D01*
X0149843Y0110786D01*
X0149884Y0110910D01*
X0149929Y0111034D01*
X0149978Y0111156D01*
X0150030Y0111277D01*
X0150086Y0111395D01*
X0150146Y0111513D01*
X0150209Y0111628D01*
X0150276Y0111741D01*
X0150346Y0111853D01*
X0150419Y0111962D01*
X0150495Y0112068D01*
X0150575Y0112173D01*
X0150658Y0112275D01*
X0150744Y0112374D01*
X0150833Y0112471D01*
X0150925Y0112565D01*
X0151020Y0112656D01*
X0151117Y0112745D01*
X0151217Y0112830D01*
X0151320Y0112912D01*
X0151425Y0112991D01*
X0151532Y0113067D01*
X0151642Y0113139D01*
X0151754Y0113208D01*
X0151868Y0113274D01*
X0151983Y0113336D01*
X0152101Y0113395D01*
X0152220Y0113450D01*
X0152341Y0113502D01*
X0152464Y0113549D01*
X0152588Y0113593D01*
X0152713Y0113634D01*
X0152839Y0113670D01*
X0152967Y0113703D01*
X0153095Y0113731D01*
X0153224Y0113756D01*
X0153354Y0113777D01*
X0153484Y0113794D01*
X0153615Y0113807D01*
X0153746Y0113816D01*
X0153877Y0113821D01*
X0154009Y0113822D01*
X0154140Y0113819D01*
X0154272Y0113812D01*
X0154403Y0113801D01*
X0154533Y0113786D01*
X0154663Y0113767D01*
X0154793Y0113744D01*
X0154921Y0113718D01*
X0155049Y0113687D01*
X0155176Y0113652D01*
X0155302Y0113614D01*
X0155426Y0113572D01*
X0155550Y0113526D01*
X0155671Y0113476D01*
X0155791Y0113423D01*
X0155910Y0113366D01*
X0156027Y0113306D01*
X0156141Y0113242D01*
X0156254Y0113174D01*
X0156365Y0113103D01*
X0156474Y0113029D01*
X0156580Y0112952D01*
X0156684Y0112871D01*
X0156785Y0112788D01*
X0156884Y0112701D01*
X0156980Y0112611D01*
X0157073Y0112518D01*
X0157164Y0112423D01*
X0157251Y0112325D01*
X0157336Y0112224D01*
X0157417Y0112121D01*
X0157495Y0112015D01*
X0157570Y0111907D01*
X0157642Y0111797D01*
X0157710Y0111685D01*
X0157775Y0111571D01*
X0157836Y0111454D01*
X0157894Y0111336D01*
X0157948Y0111216D01*
X0157999Y0111095D01*
X0158046Y0110972D01*
X0158089Y0110848D01*
X0158128Y0110723D01*
X0158164Y0110596D01*
X0158195Y0110468D01*
X0158223Y0110340D01*
X0158247Y0110211D01*
X0158267Y0110081D01*
X0158283Y0109950D01*
X0158295Y0109819D01*
X0158303Y0109688D01*
X0158307Y0109557D01*
X0158307Y0109425D01*
X0158303Y0109294D01*
X0158295Y0109163D01*
X0158283Y0109032D01*
X0158267Y0108901D01*
X0158247Y0108771D01*
X0158223Y0108642D01*
X0158195Y0108514D01*
X0158164Y0108386D01*
X0158128Y0108259D01*
X0158089Y0108134D01*
X0158046Y0108010D01*
X0157999Y0107887D01*
X0157948Y0107766D01*
X0157894Y0107646D01*
X0157836Y0107528D01*
X0157775Y0107411D01*
X0157710Y0107297D01*
X0157642Y0107185D01*
X0157570Y0107075D01*
X0157495Y0106967D01*
X0157417Y0106861D01*
X0157336Y0106758D01*
X0157251Y0106657D01*
X0157164Y0106559D01*
X0157073Y0106464D01*
X0156980Y0106371D01*
X0156884Y0106281D01*
X0156785Y0106194D01*
X0156684Y0106111D01*
X0156580Y0106030D01*
X0156474Y0105953D01*
X0156365Y0105879D01*
X0156254Y0105808D01*
X0156142Y0105740D01*
X0156027Y0105676D01*
X0155910Y0105616D01*
X0155791Y0105559D01*
X0155671Y0105506D01*
X0155550Y0105456D01*
X0155426Y0105410D01*
X0155302Y0105368D01*
X0155176Y0105330D01*
X0155049Y0105295D01*
X0154921Y0105264D01*
X0154793Y0105238D01*
X0154663Y0105215D01*
X0154533Y0105196D01*
X0154403Y0105181D01*
X0154272Y0105170D01*
X0154140Y0105163D01*
X0154009Y0105160D01*
X0153877Y0105161D01*
X0153746Y0105166D01*
X0153615Y0105175D01*
X0153484Y0105188D01*
X0153354Y0105205D01*
X0153224Y0105226D01*
X0153095Y0105251D01*
X0152967Y0105279D01*
X0152839Y0105312D01*
X0152713Y0105348D01*
X0152588Y0105389D01*
X0152464Y0105433D01*
X0152341Y0105480D01*
X0152220Y0105532D01*
X0152101Y0105587D01*
X0151983Y0105646D01*
X0151868Y0105708D01*
X0151754Y0105774D01*
X0151642Y0105843D01*
X0151532Y0105915D01*
X0151425Y0105991D01*
X0151320Y0106070D01*
X0151217Y0106152D01*
X0151117Y0106237D01*
X0151020Y0106326D01*
X0150925Y0106417D01*
X0150833Y0106511D01*
X0150744Y0106608D01*
X0150658Y0106707D01*
X0150575Y0106809D01*
X0150495Y0106914D01*
X0150419Y0107020D01*
X0150346Y0107129D01*
X0150276Y0107241D01*
X0150209Y0107354D01*
X0150146Y0107469D01*
X0150086Y0107587D01*
X0150030Y0107705D01*
X0149978Y0107826D01*
X0149929Y0107948D01*
X0149884Y0108072D01*
X0149843Y0108196D01*
X0149806Y0108323D01*
X0149772Y0108450D01*
X0149742Y0108578D01*
X0149717Y0108707D01*
X0149695Y0108836D01*
X0149677Y0108966D01*
X0149663Y0109097D01*
X0149653Y0109228D01*
X0149647Y0109360D01*
X0149645Y0109491D01*
X0264339Y0034156D02*
X0264720Y0034161D01*
X0265100Y0034174D01*
X0265480Y0034197D01*
X0265859Y0034230D01*
X0266237Y0034271D01*
X0266614Y0034321D01*
X0266990Y0034381D01*
X0267365Y0034449D01*
X0267737Y0034527D01*
X0268108Y0034614D01*
X0268476Y0034709D01*
X0268842Y0034814D01*
X0269205Y0034927D01*
X0269566Y0035049D01*
X0269923Y0035179D01*
X0270277Y0035319D01*
X0270628Y0035466D01*
X0270975Y0035623D01*
X0271318Y0035787D01*
X0271657Y0035960D01*
X0271992Y0036141D01*
X0272323Y0036330D01*
X0272648Y0036527D01*
X0272969Y0036731D01*
X0273285Y0036944D01*
X0273595Y0037164D01*
X0273901Y0037391D01*
X0274200Y0037626D01*
X0274494Y0037868D01*
X0274782Y0038116D01*
X0275064Y0038372D01*
X0275339Y0038635D01*
X0275608Y0038904D01*
X0275871Y0039179D01*
X0276127Y0039461D01*
X0276375Y0039749D01*
X0276617Y0040043D01*
X0276852Y0040342D01*
X0277079Y0040648D01*
X0277299Y0040958D01*
X0277512Y0041274D01*
X0277716Y0041595D01*
X0277913Y0041920D01*
X0278102Y0042251D01*
X0278283Y0042586D01*
X0278456Y0042925D01*
X0278620Y0043268D01*
X0278777Y0043615D01*
X0278924Y0043966D01*
X0279064Y0044320D01*
X0279194Y0044677D01*
X0279316Y0045038D01*
X0279429Y0045401D01*
X0279534Y0045767D01*
X0279629Y0046135D01*
X0279716Y0046506D01*
X0279794Y0046878D01*
X0279862Y0047253D01*
X0279922Y0047629D01*
X0279972Y0048006D01*
X0280013Y0048384D01*
X0280046Y0048763D01*
X0280069Y0049143D01*
X0280082Y0049523D01*
X0280087Y0049904D01*
D11*
X0209035Y0119491D03*
X0203917Y0119491D03*
D12*
X0202736Y0128054D03*
X0210217Y0128054D03*
X0206476Y0136322D03*
D13*
X0172476Y0139491D03*
X0162476Y0139491D03*
X0152476Y0139491D03*
X0142476Y0139491D03*
X0132476Y0139491D03*
X0122476Y0139491D03*
X0112476Y0139491D03*
X0102476Y0139491D03*
X0092476Y0139491D03*
X0082476Y0139491D03*
X0072476Y0139491D03*
X0062476Y0139491D03*
X0122476Y0089491D03*
X0132476Y0089491D03*
X0132476Y0079491D03*
X0122476Y0079491D03*
X0112476Y0079491D03*
X0102476Y0079491D03*
X0092476Y0079491D03*
X0082476Y0079491D03*
X0072476Y0079491D03*
X0062476Y0079491D03*
X0142476Y0079491D03*
X0152476Y0079491D03*
X0162476Y0079491D03*
X0172476Y0079491D03*
D14*
X0168976Y0052491D02*
X0168976Y0046491D01*
X0158976Y0046491D02*
X0158976Y0052491D01*
X0148976Y0052491D02*
X0148976Y0046491D01*
X0138976Y0046491D02*
X0138976Y0052491D01*
X0128976Y0052491D02*
X0128976Y0046491D01*
X0118976Y0046491D02*
X0118976Y0052491D01*
X0108976Y0052491D02*
X0108976Y0046491D01*
X0098976Y0046491D02*
X0098976Y0052491D01*
X0088976Y0052491D02*
X0088976Y0046491D01*
X0078976Y0046491D02*
X0078976Y0052491D01*
X0178976Y0052491D02*
X0178976Y0046491D01*
X0188976Y0046491D02*
X0188976Y0052491D01*
X0188976Y0161491D02*
X0188976Y0167491D01*
X0178976Y0167491D02*
X0178976Y0161491D01*
X0168976Y0161491D02*
X0168976Y0167491D01*
X0158976Y0167491D02*
X0158976Y0161491D01*
X0148976Y0161491D02*
X0148976Y0167491D01*
X0138976Y0167491D02*
X0138976Y0161491D01*
X0128976Y0161491D02*
X0128976Y0167491D01*
X0118976Y0167491D02*
X0118976Y0161491D01*
X0108976Y0161491D02*
X0108976Y0167491D01*
X0098976Y0167491D02*
X0098976Y0161491D01*
X0088976Y0161491D02*
X0088976Y0167491D01*
X0078976Y0167491D02*
X0078976Y0161491D01*
D15*
X0177264Y0150298D03*
X0185138Y0150298D03*
X0193012Y0150298D03*
X0200886Y0150298D03*
X0208760Y0150298D03*
X0216634Y0150298D03*
X0224508Y0150298D03*
X0232382Y0150298D03*
X0240256Y0150298D03*
X0248130Y0150298D03*
X0240256Y0063684D03*
X0232382Y0063684D03*
X0224508Y0063684D03*
X0216634Y0063684D03*
X0208760Y0063684D03*
X0200886Y0063684D03*
X0193012Y0063684D03*
X0185138Y0063684D03*
X0177264Y0063684D03*
D16*
X0248130Y0063684D03*
D17*
X0266476Y0084491D03*
X0266476Y0094491D03*
D18*
X0266476Y0101932D03*
X0266476Y0107050D03*
D19*
X0239976Y0140491D03*
X0231976Y0140491D03*
X0223976Y0140491D03*
X0226476Y0166991D03*
X0218976Y0166991D03*
X0211476Y0166991D03*
X0203976Y0166991D03*
X0233976Y0166991D03*
X0241476Y0166991D03*
X0248976Y0166991D03*
X0248976Y0049491D03*
X0241476Y0049491D03*
X0233976Y0049491D03*
X0226476Y0049491D03*
X0218976Y0049491D03*
D20*
X0209826Y0048877D02*
X0193376Y0048877D01*
X0193376Y0047279D02*
X0209826Y0047279D01*
X0209826Y0045680D02*
X0193376Y0045680D01*
X0193376Y0045616D02*
X0193376Y0053366D01*
X0192707Y0054983D01*
X0191469Y0056221D01*
X0189852Y0056891D01*
X0188101Y0056891D01*
X0186737Y0056326D01*
X0184026Y0059036D01*
X0183068Y0059995D01*
X0184302Y0059484D01*
X0185973Y0059484D01*
X0187517Y0060123D01*
X0188698Y0061305D01*
X0189075Y0062213D01*
X0189451Y0061305D01*
X0190633Y0060123D01*
X0192176Y0059484D01*
X0193847Y0059484D01*
X0195391Y0060123D01*
X0196572Y0061305D01*
X0196949Y0062213D01*
X0197325Y0061305D01*
X0198507Y0060123D01*
X0200050Y0059484D01*
X0201721Y0059484D01*
X0203265Y0060123D01*
X0204446Y0061305D01*
X0204823Y0062213D01*
X0205199Y0061305D01*
X0206381Y0060123D01*
X0207924Y0059484D01*
X0208588Y0059484D01*
X0209826Y0058245D01*
X0209826Y0043895D01*
X0210881Y0042841D01*
X0214381Y0039341D01*
X0232322Y0039341D01*
X0233376Y0040395D01*
X0235476Y0042495D01*
X0235476Y0043091D01*
X0237056Y0043091D01*
X0237726Y0043761D01*
X0238396Y0043091D01*
X0244556Y0043091D01*
X0245226Y0043761D01*
X0245896Y0043091D01*
X0251728Y0043091D01*
X0251728Y0035956D01*
X0072225Y0035956D01*
X0072225Y0049606D01*
X0072247Y0049631D01*
X0072225Y0049933D01*
X0072225Y0050236D01*
X0072202Y0050259D01*
X0072122Y0051377D01*
X0072157Y0051431D01*
X0072099Y0051699D01*
X0072079Y0051973D01*
X0072030Y0052015D01*
X0071785Y0053142D01*
X0071812Y0053201D01*
X0071716Y0053458D01*
X0071658Y0053726D01*
X0071603Y0053761D01*
X0071200Y0054841D01*
X0071219Y0054903D01*
X0071087Y0055144D01*
X0070992Y0055401D01*
X0070932Y0055428D01*
X0070380Y0056439D01*
X0070389Y0056504D01*
X0070225Y0056723D01*
X0070094Y0056964D01*
X0070031Y0056982D01*
X0069340Y0057905D01*
X0069340Y0057970D01*
X0069146Y0058164D01*
X0068982Y0058383D01*
X0068918Y0058393D01*
X0068103Y0059208D01*
X0068093Y0059272D01*
X0067874Y0059437D01*
X0067680Y0059630D01*
X0067615Y0059630D01*
X0066692Y0060321D01*
X0066674Y0060384D01*
X0066433Y0060515D01*
X0066214Y0060679D01*
X0066149Y0060670D01*
X0065138Y0061222D01*
X0065111Y0061282D01*
X0064854Y0061377D01*
X0064613Y0061509D01*
X0064551Y0061490D01*
X0063471Y0061893D01*
X0063436Y0061948D01*
X0063168Y0062006D01*
X0062911Y0062102D01*
X0062852Y0062075D01*
X0061725Y0062320D01*
X0061683Y0062369D01*
X0061409Y0062389D01*
X0061141Y0062447D01*
X0061087Y0062412D01*
X0059969Y0062492D01*
X0059946Y0062515D01*
X0059643Y0062515D01*
X0059341Y0062537D01*
X0059316Y0062515D01*
X0045666Y0062515D01*
X0045666Y0151466D01*
X0059316Y0151466D01*
X0059341Y0151445D01*
X0059643Y0151466D01*
X0059946Y0151466D01*
X0059969Y0151490D01*
X0061087Y0151570D01*
X0061141Y0151534D01*
X0061409Y0151593D01*
X0061683Y0151612D01*
X0061725Y0151662D01*
X0062852Y0151907D01*
X0062911Y0151879D01*
X0063168Y0151975D01*
X0063436Y0152034D01*
X0063471Y0152088D01*
X0064551Y0152491D01*
X0064613Y0152473D01*
X0064854Y0152604D01*
X0065111Y0152700D01*
X0065138Y0152759D01*
X0066149Y0153312D01*
X0066214Y0153302D01*
X0066433Y0153467D01*
X0066674Y0153598D01*
X0066692Y0153660D01*
X0067615Y0154351D01*
X0067680Y0154351D01*
X0067874Y0154545D01*
X0068093Y0154709D01*
X0068103Y0154774D01*
X0068918Y0155589D01*
X0068982Y0155598D01*
X0069146Y0155818D01*
X0069340Y0156011D01*
X0069340Y0156077D01*
X0070031Y0156999D01*
X0070094Y0157018D01*
X0070225Y0157258D01*
X0070389Y0157478D01*
X0070380Y0157542D01*
X0070932Y0158554D01*
X0070992Y0158581D01*
X0071087Y0158838D01*
X0071219Y0159078D01*
X0071200Y0159141D01*
X0071603Y0160221D01*
X0071658Y0160256D01*
X0071716Y0160524D01*
X0071812Y0160781D01*
X0071785Y0160840D01*
X0072030Y0161966D01*
X0072079Y0162009D01*
X0072099Y0162282D01*
X0072157Y0162550D01*
X0072122Y0162605D01*
X0072202Y0163723D01*
X0072225Y0163746D01*
X0072225Y0164049D01*
X0072247Y0164351D01*
X0072225Y0164376D01*
X0072225Y0178025D01*
X0251728Y0178025D01*
X0251728Y0173391D01*
X0245896Y0173391D01*
X0245226Y0172721D01*
X0244556Y0173391D01*
X0238396Y0173391D01*
X0237726Y0172721D01*
X0237056Y0173391D01*
X0230896Y0173391D01*
X0230226Y0172721D01*
X0229556Y0173391D01*
X0223396Y0173391D01*
X0222726Y0172721D01*
X0222056Y0173391D01*
X0215896Y0173391D01*
X0215226Y0172721D01*
X0214556Y0173391D01*
X0208396Y0173391D01*
X0207726Y0172721D01*
X0207056Y0173391D01*
X0200896Y0173391D01*
X0200076Y0172571D01*
X0200076Y0168941D01*
X0199072Y0168941D01*
X0193126Y0174886D01*
X0192072Y0175941D01*
X0185681Y0175941D01*
X0182526Y0172786D01*
X0182526Y0170245D01*
X0182876Y0169895D01*
X0182876Y0169573D01*
X0182707Y0169983D01*
X0181469Y0171221D01*
X0179852Y0171891D01*
X0178101Y0171891D01*
X0176484Y0171221D01*
X0175246Y0169983D01*
X0174576Y0168366D01*
X0174576Y0160616D01*
X0175246Y0158998D01*
X0176484Y0157761D01*
X0178101Y0157091D01*
X0179852Y0157091D01*
X0180926Y0157536D01*
X0179031Y0155641D01*
X0177976Y0154586D01*
X0177976Y0154498D01*
X0176428Y0154498D01*
X0174885Y0153858D01*
X0173703Y0152677D01*
X0173064Y0151133D01*
X0173064Y0149462D01*
X0173703Y0147919D01*
X0174885Y0146737D01*
X0176428Y0146098D01*
X0178099Y0146098D01*
X0179643Y0146737D01*
X0180064Y0147158D01*
X0180431Y0146791D01*
X0183298Y0143923D01*
X0183126Y0143508D01*
X0183126Y0142474D01*
X0183522Y0141518D01*
X0184254Y0140787D01*
X0185209Y0140391D01*
X0186244Y0140391D01*
X0186659Y0140563D01*
X0192681Y0134541D01*
X0203502Y0134541D01*
X0203502Y0133970D01*
X0204322Y0133150D01*
X0208631Y0133150D01*
X0209451Y0133970D01*
X0209451Y0138673D01*
X0208631Y0139493D01*
X0204322Y0139493D01*
X0203502Y0138673D01*
X0203502Y0138141D01*
X0194172Y0138141D01*
X0187988Y0144325D01*
X0187931Y0144464D01*
X0187199Y0145195D01*
X0187060Y0145252D01*
X0186997Y0145316D01*
X0186144Y0146169D01*
X0187517Y0146737D01*
X0188698Y0147919D01*
X0189075Y0148828D01*
X0189451Y0147919D01*
X0190633Y0146737D01*
X0192176Y0146098D01*
X0193847Y0146098D01*
X0195391Y0146737D01*
X0196572Y0147919D01*
X0196949Y0148828D01*
X0197325Y0147919D01*
X0198507Y0146737D01*
X0200050Y0146098D01*
X0201721Y0146098D01*
X0203265Y0146737D01*
X0204446Y0147919D01*
X0204823Y0148828D01*
X0205199Y0147919D01*
X0206381Y0146737D01*
X0207924Y0146098D01*
X0208774Y0146098D01*
X0215076Y0139795D01*
X0216131Y0138741D01*
X0220076Y0138741D01*
X0220076Y0134911D01*
X0220896Y0134091D01*
X0227056Y0134091D01*
X0227876Y0134911D01*
X0227876Y0146071D01*
X0227056Y0146891D01*
X0227040Y0146891D01*
X0227311Y0147161D01*
X0228239Y0146233D01*
X0228076Y0146071D01*
X0228076Y0134911D01*
X0228896Y0134091D01*
X0235056Y0134091D01*
X0235876Y0134911D01*
X0235876Y0146071D01*
X0235056Y0146891D01*
X0234914Y0146891D01*
X0235942Y0147919D01*
X0236319Y0148828D01*
X0236695Y0147919D01*
X0237723Y0146891D01*
X0236896Y0146891D01*
X0236076Y0146071D01*
X0236076Y0134911D01*
X0236896Y0134091D01*
X0243056Y0134091D01*
X0243876Y0134911D01*
X0243876Y0146071D01*
X0243056Y0146891D01*
X0242788Y0146891D01*
X0243816Y0147919D01*
X0244193Y0148828D01*
X0244569Y0147919D01*
X0245751Y0146737D01*
X0247294Y0146098D01*
X0248965Y0146098D01*
X0250509Y0146737D01*
X0251691Y0147919D01*
X0252330Y0149462D01*
X0252330Y0151133D01*
X0251691Y0152677D01*
X0251424Y0152943D01*
X0252626Y0154145D01*
X0252626Y0156336D01*
X0251572Y0157391D01*
X0250876Y0158086D01*
X0250876Y0160591D01*
X0252056Y0160591D01*
X0252169Y0160704D01*
X0252236Y0160524D01*
X0252295Y0160256D01*
X0252349Y0160221D01*
X0252752Y0159141D01*
X0252734Y0159078D01*
X0252865Y0158838D01*
X0252961Y0158581D01*
X0253020Y0158554D01*
X0253573Y0157542D01*
X0253564Y0157478D01*
X0253728Y0157258D01*
X0253859Y0157018D01*
X0253922Y0156999D01*
X0254612Y0156077D01*
X0254612Y0156011D01*
X0254806Y0155818D01*
X0254971Y0155598D01*
X0255035Y0155589D01*
X0255850Y0154774D01*
X0255859Y0154709D01*
X0256079Y0154545D01*
X0256273Y0154351D01*
X0256338Y0154351D01*
X0257260Y0153660D01*
X0257279Y0153598D01*
X0257519Y0153467D01*
X0257739Y0153302D01*
X0257803Y0153312D01*
X0258815Y0152759D01*
X0258842Y0152700D01*
X0259099Y0152604D01*
X0259340Y0152473D01*
X0259402Y0152491D01*
X0260482Y0152088D01*
X0260517Y0152034D01*
X0260785Y0151975D01*
X0261042Y0151879D01*
X0261101Y0151907D01*
X0262227Y0151662D01*
X0262270Y0151612D01*
X0262544Y0151593D01*
X0262811Y0151534D01*
X0262866Y0151570D01*
X0263984Y0151490D01*
X0264007Y0151466D01*
X0264310Y0151466D01*
X0264612Y0151445D01*
X0264637Y0151466D01*
X0278287Y0151466D01*
X0278287Y0062515D01*
X0264637Y0062515D01*
X0264612Y0062537D01*
X0264310Y0062515D01*
X0264007Y0062515D01*
X0263984Y0062492D01*
X0262866Y0062412D01*
X0262811Y0062447D01*
X0262544Y0062389D01*
X0262270Y0062369D01*
X0262227Y0062320D01*
X0261101Y0062075D01*
X0261042Y0062102D01*
X0260785Y0062006D01*
X0260517Y0061948D01*
X0260482Y0061893D01*
X0259402Y0061490D01*
X0259340Y0061509D01*
X0259099Y0061377D01*
X0258842Y0061282D01*
X0258815Y0061222D01*
X0257803Y0060670D01*
X0257739Y0060679D01*
X0257519Y0060515D01*
X0257279Y0060384D01*
X0257260Y0060321D01*
X0256338Y0059630D01*
X0256273Y0059630D01*
X0256079Y0059437D01*
X0255859Y0059272D01*
X0255850Y0059208D01*
X0255035Y0058393D01*
X0254971Y0058383D01*
X0254806Y0058164D01*
X0254612Y0057970D01*
X0254612Y0057905D01*
X0253922Y0056982D01*
X0253859Y0056964D01*
X0253728Y0056723D01*
X0253564Y0056504D01*
X0253573Y0056439D01*
X0253020Y0055428D01*
X0252961Y0055401D01*
X0252865Y0055144D01*
X0252843Y0055104D01*
X0252056Y0055891D01*
X0246672Y0055891D01*
X0246326Y0056236D01*
X0245272Y0057291D01*
X0241422Y0057291D01*
X0240026Y0058686D01*
X0239094Y0059619D01*
X0239420Y0059484D01*
X0241091Y0059484D01*
X0242635Y0060123D01*
X0243816Y0061305D01*
X0243930Y0061578D01*
X0243930Y0060304D01*
X0244750Y0059484D01*
X0251510Y0059484D01*
X0252330Y0060304D01*
X0252330Y0067064D01*
X0251510Y0067884D01*
X0244750Y0067884D01*
X0243930Y0067064D01*
X0243930Y0065789D01*
X0243816Y0066063D01*
X0242635Y0067244D01*
X0241091Y0067884D01*
X0240279Y0067884D01*
X0218326Y0089836D01*
X0217272Y0090891D01*
X0138081Y0090891D01*
X0137731Y0090541D01*
X0137072Y0090541D01*
X0136417Y0092124D01*
X0135109Y0093431D01*
X0133401Y0094139D01*
X0131552Y0094139D01*
X0129843Y0093431D01*
X0128536Y0092124D01*
X0127828Y0090415D01*
X0127828Y0088566D01*
X0128460Y0087041D01*
X0127931Y0087041D01*
X0127451Y0086561D01*
X0126633Y0087380D01*
X0127124Y0088566D01*
X0127124Y0090415D01*
X0126417Y0092124D01*
X0125109Y0093431D01*
X0123401Y0094139D01*
X0121552Y0094139D01*
X0119843Y0093431D01*
X0118536Y0092124D01*
X0117828Y0090415D01*
X0117828Y0088566D01*
X0118536Y0086858D01*
X0119843Y0085550D01*
X0121552Y0084843D01*
X0123401Y0084843D01*
X0123880Y0085041D01*
X0126181Y0082741D01*
X0128722Y0082741D01*
X0129422Y0083441D01*
X0129867Y0083441D01*
X0129843Y0083431D01*
X0128536Y0082124D01*
X0127828Y0080415D01*
X0127828Y0078566D01*
X0128536Y0076858D01*
X0129843Y0075550D01*
X0131552Y0074843D01*
X0133401Y0074843D01*
X0134623Y0075349D01*
X0136931Y0073041D01*
X0132222Y0073041D01*
X0126999Y0078264D01*
X0127124Y0078566D01*
X0127124Y0080415D01*
X0126417Y0082124D01*
X0125109Y0083431D01*
X0123401Y0084139D01*
X0121552Y0084139D01*
X0119843Y0083431D01*
X0118536Y0082124D01*
X0117828Y0080415D01*
X0117828Y0078566D01*
X0118536Y0076858D01*
X0119843Y0075550D01*
X0121552Y0074843D01*
X0123401Y0074843D01*
X0124764Y0075407D01*
X0125731Y0074441D01*
X0109122Y0074441D01*
X0106501Y0077062D01*
X0107124Y0078566D01*
X0107124Y0080415D01*
X0106417Y0082124D01*
X0105109Y0083431D01*
X0103401Y0084139D01*
X0101552Y0084139D01*
X0099843Y0083431D01*
X0098536Y0082124D01*
X0097828Y0080415D01*
X0097828Y0078566D01*
X0098536Y0076858D01*
X0099843Y0075550D01*
X0101552Y0074843D01*
X0103401Y0074843D01*
X0103562Y0074910D01*
X0105431Y0073041D01*
X0104222Y0073041D01*
X0103876Y0073386D01*
X0102822Y0074441D01*
X0100722Y0074441D01*
X0096970Y0078193D01*
X0097124Y0078566D01*
X0097124Y0080415D01*
X0096417Y0082124D01*
X0095109Y0083431D01*
X0093401Y0084139D01*
X0091552Y0084139D01*
X0089843Y0083431D01*
X0088536Y0082124D01*
X0087828Y0080415D01*
X0087828Y0078566D01*
X0088536Y0076858D01*
X0089843Y0075550D01*
X0091552Y0074843D01*
X0093401Y0074843D01*
X0094693Y0075378D01*
X0097031Y0073041D01*
X0094422Y0073041D01*
X0094076Y0073386D01*
X0093022Y0074441D01*
X0089172Y0074441D01*
X0086516Y0077097D01*
X0087124Y0078566D01*
X0087124Y0080415D01*
X0086417Y0082124D01*
X0085109Y0083431D01*
X0083401Y0084139D01*
X0081552Y0084139D01*
X0079843Y0083431D01*
X0078536Y0082124D01*
X0077828Y0080415D01*
X0077828Y0078566D01*
X0078536Y0076858D01*
X0079843Y0075550D01*
X0081552Y0074843D01*
X0083401Y0074843D01*
X0083597Y0074924D01*
X0085481Y0073041D01*
X0082172Y0073041D01*
X0076984Y0078228D01*
X0077124Y0078566D01*
X0077124Y0080415D01*
X0076417Y0082124D01*
X0075109Y0083431D01*
X0073401Y0084139D01*
X0071552Y0084139D01*
X0069843Y0083431D01*
X0068536Y0082124D01*
X0067828Y0080415D01*
X0067828Y0078566D01*
X0068536Y0076858D01*
X0069843Y0075550D01*
X0071552Y0074843D01*
X0073401Y0074843D01*
X0074729Y0075393D01*
X0078481Y0071641D01*
X0073422Y0071641D01*
X0066940Y0078122D01*
X0067124Y0078566D01*
X0067124Y0080415D01*
X0066417Y0082124D01*
X0065109Y0083431D01*
X0063401Y0084139D01*
X0061552Y0084139D01*
X0059843Y0083431D01*
X0058607Y0082195D01*
X0058607Y0083210D01*
X0057674Y0085464D01*
X0055949Y0087188D01*
X0053696Y0088122D01*
X0051257Y0088122D01*
X0049004Y0087188D01*
X0047279Y0085464D01*
X0046346Y0083210D01*
X0046346Y0080771D01*
X0047279Y0078518D01*
X0049004Y0076793D01*
X0051257Y0075860D01*
X0053696Y0075860D01*
X0055949Y0076793D01*
X0057674Y0078518D01*
X0057828Y0078891D01*
X0057828Y0078566D01*
X0058536Y0076858D01*
X0059843Y0075550D01*
X0061552Y0074843D01*
X0063401Y0074843D01*
X0064623Y0075349D01*
X0071931Y0068041D01*
X0090131Y0068041D01*
X0104644Y0053528D01*
X0104576Y0053366D01*
X0104576Y0045616D01*
X0105246Y0043998D01*
X0106484Y0042761D01*
X0108101Y0042091D01*
X0109852Y0042091D01*
X0111469Y0042761D01*
X0112707Y0043998D01*
X0113376Y0045616D01*
X0113376Y0053366D01*
X0112707Y0054983D01*
X0111469Y0056221D01*
X0109852Y0056891D01*
X0108101Y0056891D01*
X0106878Y0056384D01*
X0095222Y0068041D01*
X0099931Y0068041D01*
X0114585Y0053387D01*
X0114576Y0053366D01*
X0114576Y0045616D01*
X0115246Y0043998D01*
X0116484Y0042761D01*
X0118101Y0042091D01*
X0119852Y0042091D01*
X0121469Y0042761D01*
X0122707Y0043998D01*
X0123376Y0045616D01*
X0123376Y0053366D01*
X0122707Y0054983D01*
X0121469Y0056221D01*
X0119852Y0056891D01*
X0118101Y0056891D01*
X0116737Y0056326D01*
X0105022Y0068041D01*
X0110081Y0068041D01*
X0124629Y0053493D01*
X0124576Y0053366D01*
X0124576Y0045616D01*
X0125246Y0043998D01*
X0126484Y0042761D01*
X0128101Y0042091D01*
X0129852Y0042091D01*
X0131469Y0042761D01*
X0132707Y0043998D01*
X0133376Y0045616D01*
X0133376Y0053366D01*
X0132707Y0054983D01*
X0131469Y0056221D01*
X0129852Y0056891D01*
X0128101Y0056891D01*
X0126843Y0056370D01*
X0113772Y0069441D01*
X0118481Y0069441D01*
X0134576Y0053345D01*
X0134576Y0045616D01*
X0135246Y0043998D01*
X0136484Y0042761D01*
X0138101Y0042091D01*
X0139852Y0042091D01*
X0141469Y0042761D01*
X0142707Y0043998D01*
X0143376Y0045616D01*
X0143376Y0053366D01*
X0142707Y0054983D01*
X0141469Y0056221D01*
X0139852Y0056891D01*
X0138101Y0056891D01*
X0136702Y0056311D01*
X0122172Y0070841D01*
X0127231Y0070841D01*
X0144614Y0053457D01*
X0144576Y0053366D01*
X0144576Y0045616D01*
X0145246Y0043998D01*
X0146484Y0042761D01*
X0148101Y0042091D01*
X0149852Y0042091D01*
X0151469Y0042761D01*
X0152707Y0043998D01*
X0153376Y0045616D01*
X0153376Y0053366D01*
X0152707Y0054983D01*
X0151469Y0056221D01*
X0149852Y0056891D01*
X0148101Y0056891D01*
X0146808Y0056355D01*
X0133722Y0069441D01*
X0139131Y0069441D01*
X0154761Y0053811D01*
X0154576Y0053366D01*
X0154576Y0045616D01*
X0155246Y0043998D01*
X0156484Y0042761D01*
X0158101Y0042091D01*
X0159852Y0042091D01*
X0161469Y0042761D01*
X0162707Y0043998D01*
X0163376Y0045616D01*
X0163376Y0053366D01*
X0162707Y0054983D01*
X0161469Y0056221D01*
X0159852Y0056891D01*
X0158101Y0056891D01*
X0157161Y0056501D01*
X0142822Y0070841D01*
X0147181Y0070841D01*
X0164600Y0053422D01*
X0164576Y0053366D01*
X0164576Y0045616D01*
X0165246Y0043998D01*
X0166484Y0042761D01*
X0168101Y0042091D01*
X0169852Y0042091D01*
X0171469Y0042761D01*
X0172707Y0043998D01*
X0173376Y0045616D01*
X0173376Y0053366D01*
X0173097Y0054041D01*
X0173431Y0054041D01*
X0174576Y0052895D01*
X0174576Y0045616D01*
X0175246Y0043998D01*
X0176484Y0042761D01*
X0178101Y0042091D01*
X0179852Y0042091D01*
X0181469Y0042761D01*
X0182707Y0043998D01*
X0183376Y0045616D01*
X0183376Y0053366D01*
X0182707Y0054983D01*
X0181469Y0056221D01*
X0181351Y0056270D01*
X0181526Y0056445D01*
X0184585Y0053387D01*
X0184576Y0053366D01*
X0184576Y0045616D01*
X0185246Y0043998D01*
X0186484Y0042761D01*
X0188101Y0042091D01*
X0189852Y0042091D01*
X0191469Y0042761D01*
X0192707Y0043998D01*
X0193376Y0045616D01*
X0192741Y0044082D02*
X0209826Y0044082D01*
X0211238Y0042483D02*
X0190799Y0042483D01*
X0187153Y0042483D02*
X0180799Y0042483D01*
X0182741Y0044082D02*
X0185212Y0044082D01*
X0184576Y0045680D02*
X0183376Y0045680D01*
X0183376Y0047279D02*
X0184576Y0047279D01*
X0184576Y0048877D02*
X0183376Y0048877D01*
X0183376Y0050476D02*
X0184576Y0050476D01*
X0184576Y0052074D02*
X0183376Y0052074D01*
X0183249Y0053673D02*
X0184299Y0053673D01*
X0182700Y0055271D02*
X0182418Y0055271D01*
X0184594Y0058468D02*
X0209603Y0058468D01*
X0209826Y0056870D02*
X0189902Y0056870D01*
X0188051Y0056870D02*
X0186193Y0056870D01*
X0187381Y0060067D02*
X0190768Y0060067D01*
X0189302Y0061666D02*
X0188848Y0061666D01*
X0195255Y0060067D02*
X0198642Y0060067D01*
X0197176Y0061666D02*
X0196722Y0061666D01*
X0203129Y0060067D02*
X0206516Y0060067D01*
X0205050Y0061666D02*
X0204596Y0061666D01*
X0209826Y0055271D02*
X0192418Y0055271D01*
X0193249Y0053673D02*
X0209826Y0053673D01*
X0209826Y0052074D02*
X0193376Y0052074D01*
X0193376Y0050476D02*
X0209826Y0050476D01*
X0212837Y0040885D02*
X0072225Y0040885D01*
X0072225Y0042483D02*
X0076326Y0042483D01*
X0076461Y0042385D02*
X0077134Y0042042D01*
X0077852Y0041809D01*
X0078599Y0041691D01*
X0078776Y0041691D01*
X0078776Y0049291D01*
X0074176Y0049291D01*
X0074176Y0046113D01*
X0074295Y0045367D01*
X0074528Y0044648D01*
X0074871Y0043975D01*
X0075315Y0043364D01*
X0075849Y0042830D01*
X0076461Y0042385D01*
X0078776Y0042483D02*
X0079176Y0042483D01*
X0079176Y0041691D02*
X0079354Y0041691D01*
X0080100Y0041809D01*
X0080819Y0042042D01*
X0081492Y0042385D01*
X0082103Y0042830D01*
X0082638Y0043364D01*
X0083082Y0043975D01*
X0083425Y0044648D01*
X0083658Y0045367D01*
X0083776Y0046113D01*
X0083776Y0049291D01*
X0079176Y0049291D01*
X0079176Y0041691D01*
X0079176Y0044082D02*
X0078776Y0044082D01*
X0078776Y0045680D02*
X0079176Y0045680D01*
X0079176Y0047279D02*
X0078776Y0047279D01*
X0078776Y0048877D02*
X0079176Y0048877D01*
X0079176Y0049291D02*
X0078776Y0049291D01*
X0078776Y0049691D01*
X0074176Y0049691D01*
X0074176Y0052869D01*
X0074295Y0053615D01*
X0074528Y0054333D01*
X0074871Y0055007D01*
X0075315Y0055618D01*
X0075849Y0056152D01*
X0076461Y0056596D01*
X0077134Y0056939D01*
X0077852Y0057173D01*
X0078599Y0057291D01*
X0078776Y0057291D01*
X0078776Y0049691D01*
X0079176Y0049691D01*
X0079176Y0057291D01*
X0079354Y0057291D01*
X0080100Y0057173D01*
X0080819Y0056939D01*
X0081492Y0056596D01*
X0082103Y0056152D01*
X0082638Y0055618D01*
X0083082Y0055007D01*
X0083425Y0054333D01*
X0083658Y0053615D01*
X0083776Y0052869D01*
X0083776Y0049691D01*
X0079176Y0049691D01*
X0079176Y0049291D01*
X0079176Y0050476D02*
X0078776Y0050476D01*
X0078776Y0052074D02*
X0079176Y0052074D01*
X0079176Y0053673D02*
X0078776Y0053673D01*
X0078776Y0055271D02*
X0079176Y0055271D01*
X0079176Y0056870D02*
X0078776Y0056870D01*
X0076998Y0056870D02*
X0070145Y0056870D01*
X0071040Y0055271D02*
X0075064Y0055271D01*
X0074313Y0053673D02*
X0071669Y0053673D01*
X0072017Y0052074D02*
X0074176Y0052074D01*
X0074176Y0050476D02*
X0072186Y0050476D01*
X0072225Y0048877D02*
X0074176Y0048877D01*
X0074176Y0047279D02*
X0072225Y0047279D01*
X0072225Y0045680D02*
X0074245Y0045680D01*
X0074817Y0044082D02*
X0072225Y0044082D01*
X0072225Y0039286D02*
X0251728Y0039286D01*
X0251728Y0037688D02*
X0072225Y0037688D01*
X0072225Y0036089D02*
X0251728Y0036089D01*
X0251728Y0040885D02*
X0233866Y0040885D01*
X0235465Y0042483D02*
X0251728Y0042483D01*
X0252676Y0055271D02*
X0252913Y0055271D01*
X0253808Y0056870D02*
X0245693Y0056870D01*
X0244167Y0060067D02*
X0242499Y0060067D01*
X0240244Y0058468D02*
X0255111Y0058468D01*
X0256921Y0060067D02*
X0252093Y0060067D01*
X0252330Y0061666D02*
X0259871Y0061666D01*
X0252330Y0063264D02*
X0278287Y0063264D01*
X0278287Y0064863D02*
X0252330Y0064863D01*
X0252330Y0066461D02*
X0278287Y0066461D01*
X0278287Y0068060D02*
X0240103Y0068060D01*
X0238505Y0069658D02*
X0278287Y0069658D01*
X0278287Y0071257D02*
X0236906Y0071257D01*
X0235308Y0072855D02*
X0278287Y0072855D01*
X0278287Y0074454D02*
X0233709Y0074454D01*
X0232111Y0076052D02*
X0278287Y0076052D01*
X0278287Y0077651D02*
X0230512Y0077651D01*
X0228914Y0079249D02*
X0264810Y0079249D01*
X0265188Y0079126D02*
X0266044Y0078991D01*
X0266476Y0078991D01*
X0266476Y0084491D01*
X0266476Y0084491D01*
X0260976Y0084491D01*
X0260976Y0084924D01*
X0261112Y0085779D01*
X0261379Y0086602D01*
X0261772Y0087373D01*
X0262281Y0088074D01*
X0262893Y0088686D01*
X0263594Y0089195D01*
X0264365Y0089588D01*
X0264713Y0089701D01*
X0263587Y0090167D01*
X0262153Y0091602D01*
X0261376Y0093476D01*
X0261376Y0095505D01*
X0262153Y0097380D01*
X0263587Y0098814D01*
X0264407Y0099154D01*
X0264125Y0099154D01*
X0263305Y0099974D01*
X0263305Y0103890D01*
X0263906Y0104491D01*
X0263305Y0105092D01*
X0263305Y0105141D01*
X0173781Y0105141D01*
X0159517Y0119405D01*
X0158913Y0118800D01*
X0175272Y0102441D01*
X0221649Y0102441D01*
X0222054Y0102845D01*
X0223009Y0103241D01*
X0224044Y0103241D01*
X0224999Y0102845D01*
X0225731Y0102114D01*
X0226126Y0101158D01*
X0226126Y0100124D01*
X0225731Y0099168D01*
X0224999Y0098437D01*
X0224044Y0098041D01*
X0223009Y0098041D01*
X0222054Y0098437D01*
X0221649Y0098841D01*
X0173781Y0098841D01*
X0155931Y0116691D01*
X0151521Y0116691D01*
X0151576Y0116558D01*
X0151576Y0115524D01*
X0151381Y0115052D01*
X0152757Y0115622D01*
X0155196Y0115622D01*
X0157449Y0114688D01*
X0159174Y0112964D01*
X0160107Y0110710D01*
X0160107Y0108271D01*
X0159174Y0106018D01*
X0157449Y0104293D01*
X0155196Y0103360D01*
X0152757Y0103360D01*
X0150504Y0104293D01*
X0148779Y0106018D01*
X0147846Y0108271D01*
X0147846Y0110710D01*
X0148779Y0112964D01*
X0149256Y0113441D01*
X0148922Y0113441D01*
X0136772Y0101291D01*
X0126972Y0101291D01*
X0115176Y0089495D01*
X0115176Y0088924D01*
X0114781Y0087968D01*
X0114049Y0087237D01*
X0113094Y0086841D01*
X0112059Y0086841D01*
X0111104Y0087237D01*
X0110372Y0087968D01*
X0109976Y0088924D01*
X0109976Y0089958D01*
X0110372Y0090914D01*
X0111104Y0091645D01*
X0112059Y0092041D01*
X0112631Y0092041D01*
X0124426Y0103836D01*
X0125481Y0104891D01*
X0135281Y0104891D01*
X0146376Y0115986D01*
X0146376Y0116558D01*
X0146431Y0116691D01*
X0104303Y0116691D01*
X0103899Y0116287D01*
X0102944Y0115891D01*
X0101909Y0115891D01*
X0100954Y0116287D01*
X0100222Y0117018D01*
X0099826Y0117974D01*
X0099826Y0119008D01*
X0099881Y0119141D01*
X0078931Y0119141D01*
X0077876Y0120195D01*
X0063526Y0134545D01*
X0063526Y0134895D01*
X0063401Y0134843D01*
X0061552Y0134843D01*
X0059843Y0135550D01*
X0058607Y0136787D01*
X0058607Y0135771D01*
X0057674Y0133518D01*
X0055949Y0131793D01*
X0053696Y0130860D01*
X0051257Y0130860D01*
X0049004Y0131793D01*
X0047279Y0133518D01*
X0046346Y0135771D01*
X0046346Y0138210D01*
X0047279Y0140464D01*
X0049004Y0142188D01*
X0051257Y0143122D01*
X0053696Y0143122D01*
X0055949Y0142188D01*
X0057674Y0140464D01*
X0057828Y0140090D01*
X0057828Y0140415D01*
X0058536Y0142124D01*
X0059843Y0143431D01*
X0061552Y0144139D01*
X0063401Y0144139D01*
X0065109Y0143431D01*
X0066417Y0142124D01*
X0067124Y0140415D01*
X0067124Y0138566D01*
X0066487Y0137026D01*
X0067126Y0136386D01*
X0067126Y0136036D01*
X0080422Y0122741D01*
X0155499Y0122741D01*
X0155840Y0123081D01*
X0143880Y0135041D01*
X0143401Y0134843D01*
X0141552Y0134843D01*
X0139843Y0135550D01*
X0138536Y0136858D01*
X0137828Y0138566D01*
X0137828Y0140415D01*
X0138536Y0142124D01*
X0139843Y0143431D01*
X0141552Y0144139D01*
X0143379Y0144139D01*
X0144726Y0145486D01*
X0144726Y0155986D01*
X0145781Y0157041D01*
X0146496Y0157756D01*
X0146484Y0157761D01*
X0145246Y0158998D01*
X0144576Y0160616D01*
X0144576Y0168366D01*
X0145246Y0169983D01*
X0146484Y0171221D01*
X0148101Y0171891D01*
X0149852Y0171891D01*
X0151469Y0171221D01*
X0152707Y0169983D01*
X0153376Y0168366D01*
X0153376Y0160616D01*
X0152707Y0158998D01*
X0151469Y0157761D01*
X0150776Y0157474D01*
X0150776Y0156945D01*
X0148326Y0154495D01*
X0148326Y0143995D01*
X0146428Y0142097D01*
X0147124Y0140415D01*
X0147124Y0138566D01*
X0146633Y0137380D01*
X0175272Y0108741D01*
X0263305Y0108741D01*
X0263305Y0109008D01*
X0264125Y0109828D01*
X0268828Y0109828D01*
X0269648Y0109008D01*
X0269648Y0105092D01*
X0269047Y0104491D01*
X0269648Y0103890D01*
X0269648Y0099974D01*
X0268828Y0099154D01*
X0268546Y0099154D01*
X0269365Y0098814D01*
X0270800Y0097380D01*
X0271576Y0095505D01*
X0271576Y0093476D01*
X0270800Y0091602D01*
X0269365Y0090167D01*
X0268240Y0089701D01*
X0268588Y0089588D01*
X0269359Y0089195D01*
X0270059Y0088686D01*
X0270672Y0088074D01*
X0271180Y0087373D01*
X0271573Y0086602D01*
X0271841Y0085779D01*
X0271976Y0084924D01*
X0271976Y0084491D01*
X0266477Y0084491D01*
X0266477Y0084491D01*
X0271976Y0084491D01*
X0271976Y0084058D01*
X0271841Y0083203D01*
X0271573Y0082380D01*
X0271180Y0081608D01*
X0270672Y0080908D01*
X0270059Y0080296D01*
X0269359Y0079787D01*
X0268588Y0079394D01*
X0267764Y0079126D01*
X0266909Y0078991D01*
X0266476Y0078991D01*
X0266476Y0084491D01*
X0260976Y0084491D01*
X0260976Y0084058D01*
X0261112Y0083203D01*
X0261379Y0082380D01*
X0261772Y0081608D01*
X0262281Y0080908D01*
X0262893Y0080296D01*
X0263594Y0079787D01*
X0264365Y0079394D01*
X0265188Y0079126D01*
X0266476Y0079249D02*
X0266476Y0079249D01*
X0266476Y0080848D02*
X0266476Y0080848D01*
X0266476Y0082446D02*
X0266476Y0082446D01*
X0266476Y0084045D02*
X0266476Y0084045D01*
X0266476Y0084491D02*
X0266476Y0084491D01*
X0271862Y0085643D02*
X0278287Y0085643D01*
X0278287Y0084045D02*
X0271974Y0084045D01*
X0271595Y0082446D02*
X0278287Y0082446D01*
X0278287Y0080848D02*
X0270611Y0080848D01*
X0268142Y0079249D02*
X0278287Y0079249D01*
X0278287Y0087242D02*
X0271248Y0087242D01*
X0269847Y0088840D02*
X0278287Y0088840D01*
X0278287Y0090439D02*
X0269637Y0090439D01*
X0270980Y0092037D02*
X0278287Y0092037D01*
X0278287Y0093636D02*
X0271576Y0093636D01*
X0271576Y0095234D02*
X0278287Y0095234D01*
X0278287Y0096833D02*
X0271027Y0096833D01*
X0269748Y0098431D02*
X0278287Y0098431D01*
X0278287Y0100030D02*
X0269648Y0100030D01*
X0269648Y0101628D02*
X0278287Y0101628D01*
X0278287Y0103227D02*
X0269648Y0103227D01*
X0269381Y0104825D02*
X0278287Y0104825D01*
X0278287Y0106424D02*
X0269648Y0106424D01*
X0269648Y0108022D02*
X0278287Y0108022D01*
X0278287Y0109621D02*
X0269035Y0109621D01*
X0263918Y0109621D02*
X0174392Y0109621D01*
X0172793Y0111219D02*
X0278287Y0111219D01*
X0278287Y0112818D02*
X0171195Y0112818D01*
X0169596Y0114416D02*
X0206540Y0114416D01*
X0206622Y0114218D02*
X0207354Y0113487D01*
X0208309Y0113091D01*
X0209344Y0113091D01*
X0210299Y0113487D01*
X0211031Y0114218D01*
X0211426Y0115174D01*
X0211426Y0116208D01*
X0211267Y0116593D01*
X0211813Y0117139D01*
X0211813Y0121842D01*
X0210993Y0122662D01*
X0211676Y0123345D01*
X0211676Y0124882D01*
X0212371Y0124882D01*
X0213191Y0125702D01*
X0213191Y0130405D01*
X0212371Y0131225D01*
X0208062Y0131225D01*
X0207242Y0130405D01*
X0207242Y0125702D01*
X0208062Y0124882D01*
X0208076Y0124882D01*
X0208076Y0124836D01*
X0207376Y0124136D01*
X0207376Y0122662D01*
X0207078Y0122662D01*
X0206476Y0122061D01*
X0206274Y0122264D01*
X0206526Y0122874D01*
X0206526Y0123908D01*
X0206131Y0124864D01*
X0205501Y0125493D01*
X0205711Y0125702D01*
X0205711Y0130405D01*
X0204891Y0131225D01*
X0200582Y0131225D01*
X0199761Y0130405D01*
X0199761Y0125702D01*
X0200582Y0124882D01*
X0200726Y0124882D01*
X0200726Y0124045D01*
X0201326Y0123445D01*
X0201326Y0122874D01*
X0201574Y0122277D01*
X0201139Y0121842D01*
X0201139Y0117139D01*
X0201959Y0116319D01*
X0205875Y0116319D01*
X0206476Y0116920D01*
X0206508Y0116888D01*
X0206226Y0116208D01*
X0206226Y0115174D01*
X0206622Y0114218D01*
X0206226Y0116015D02*
X0167998Y0116015D01*
X0166399Y0117613D02*
X0201139Y0117613D01*
X0201139Y0119212D02*
X0164801Y0119212D01*
X0163202Y0120810D02*
X0201139Y0120810D01*
X0201519Y0122409D02*
X0161604Y0122409D01*
X0160005Y0124007D02*
X0200764Y0124007D01*
X0199858Y0125606D02*
X0158407Y0125606D01*
X0156808Y0127204D02*
X0199761Y0127204D01*
X0199761Y0128803D02*
X0155210Y0128803D01*
X0153611Y0130401D02*
X0199761Y0130401D01*
X0203873Y0133599D02*
X0150414Y0133599D01*
X0150697Y0135197D02*
X0148816Y0135197D01*
X0149843Y0135550D02*
X0151552Y0134843D01*
X0153401Y0134843D01*
X0155109Y0135550D01*
X0156417Y0136858D01*
X0157124Y0138566D01*
X0157124Y0140415D01*
X0156417Y0142124D01*
X0155109Y0143431D01*
X0153401Y0144139D01*
X0151552Y0144139D01*
X0149843Y0143431D01*
X0148536Y0142124D01*
X0147828Y0140415D01*
X0147828Y0138566D01*
X0148536Y0136858D01*
X0149843Y0135550D01*
X0148598Y0136796D02*
X0147217Y0136796D01*
X0147053Y0138394D02*
X0147900Y0138394D01*
X0147828Y0139993D02*
X0147124Y0139993D01*
X0146637Y0141591D02*
X0148315Y0141591D01*
X0147521Y0143190D02*
X0149602Y0143190D01*
X0148326Y0144788D02*
X0182434Y0144788D01*
X0183126Y0143190D02*
X0175351Y0143190D01*
X0175109Y0143431D02*
X0176417Y0142124D01*
X0177124Y0140415D01*
X0177124Y0138566D01*
X0176417Y0136858D01*
X0175109Y0135550D01*
X0173401Y0134843D01*
X0171552Y0134843D01*
X0169843Y0135550D01*
X0168536Y0136858D01*
X0167828Y0138566D01*
X0167828Y0140415D01*
X0168536Y0142124D01*
X0169843Y0143431D01*
X0171552Y0144139D01*
X0173401Y0144139D01*
X0175109Y0143431D01*
X0176637Y0141591D02*
X0183492Y0141591D01*
X0187229Y0139993D02*
X0177124Y0139993D01*
X0177053Y0138394D02*
X0188828Y0138394D01*
X0190426Y0136796D02*
X0176354Y0136796D01*
X0174256Y0135197D02*
X0192025Y0135197D01*
X0193919Y0138394D02*
X0203502Y0138394D01*
X0209451Y0138394D02*
X0220076Y0138394D01*
X0220076Y0136796D02*
X0209451Y0136796D01*
X0209451Y0135197D02*
X0220076Y0135197D01*
X0213191Y0130401D02*
X0278287Y0130401D01*
X0278287Y0128803D02*
X0213191Y0128803D01*
X0213191Y0127204D02*
X0278287Y0127204D01*
X0278287Y0125606D02*
X0213095Y0125606D01*
X0211676Y0124007D02*
X0278287Y0124007D01*
X0278287Y0122409D02*
X0211247Y0122409D01*
X0211813Y0120810D02*
X0278287Y0120810D01*
X0278287Y0119212D02*
X0211813Y0119212D01*
X0211813Y0117613D02*
X0278287Y0117613D01*
X0278287Y0116015D02*
X0211426Y0116015D01*
X0211113Y0114416D02*
X0278287Y0114416D01*
X0263571Y0104825D02*
X0172887Y0104825D01*
X0172498Y0106424D02*
X0171289Y0106424D01*
X0170899Y0108022D02*
X0169690Y0108022D01*
X0169301Y0109621D02*
X0168092Y0109621D01*
X0167702Y0111219D02*
X0166493Y0111219D01*
X0166104Y0112818D02*
X0164895Y0112818D01*
X0164505Y0114416D02*
X0163296Y0114416D01*
X0162907Y0116015D02*
X0161698Y0116015D01*
X0161308Y0117613D02*
X0160099Y0117613D01*
X0159710Y0119212D02*
X0159324Y0119212D01*
X0156607Y0116015D02*
X0151576Y0116015D01*
X0146376Y0116015D02*
X0103243Y0116015D01*
X0101610Y0116015D02*
X0045666Y0116015D01*
X0045666Y0117613D02*
X0099976Y0117613D01*
X0079155Y0124007D02*
X0154914Y0124007D01*
X0153316Y0125606D02*
X0077557Y0125606D01*
X0075958Y0127204D02*
X0151717Y0127204D01*
X0150119Y0128803D02*
X0074360Y0128803D01*
X0072761Y0130401D02*
X0148520Y0130401D01*
X0146922Y0132000D02*
X0071163Y0132000D01*
X0069564Y0133599D02*
X0145323Y0133599D01*
X0140697Y0135197D02*
X0134256Y0135197D01*
X0135109Y0135550D02*
X0133401Y0134843D01*
X0131552Y0134843D01*
X0129843Y0135550D01*
X0128536Y0136858D01*
X0127828Y0138566D01*
X0127828Y0140415D01*
X0128536Y0142124D01*
X0129843Y0143431D01*
X0131552Y0144139D01*
X0133401Y0144139D01*
X0135109Y0143431D01*
X0136417Y0142124D01*
X0137124Y0140415D01*
X0137124Y0138566D01*
X0136417Y0136858D01*
X0135109Y0135550D01*
X0136354Y0136796D02*
X0138598Y0136796D01*
X0137900Y0138394D02*
X0137053Y0138394D01*
X0137124Y0139993D02*
X0137828Y0139993D01*
X0138315Y0141591D02*
X0136637Y0141591D01*
X0135351Y0143190D02*
X0139602Y0143190D01*
X0144028Y0144788D02*
X0045666Y0144788D01*
X0045666Y0143190D02*
X0059602Y0143190D01*
X0058315Y0141591D02*
X0056546Y0141591D01*
X0048407Y0141591D02*
X0045666Y0141591D01*
X0045666Y0139993D02*
X0047084Y0139993D01*
X0046422Y0138394D02*
X0045666Y0138394D01*
X0045666Y0136796D02*
X0046346Y0136796D01*
X0046584Y0135197D02*
X0045666Y0135197D01*
X0045666Y0133599D02*
X0047246Y0133599D01*
X0048797Y0132000D02*
X0045666Y0132000D01*
X0045666Y0130401D02*
X0067670Y0130401D01*
X0069269Y0128803D02*
X0045666Y0128803D01*
X0045666Y0127204D02*
X0070867Y0127204D01*
X0072466Y0125606D02*
X0045666Y0125606D01*
X0045666Y0124007D02*
X0074064Y0124007D01*
X0075663Y0122409D02*
X0045666Y0122409D01*
X0045666Y0120810D02*
X0077261Y0120810D01*
X0078860Y0119212D02*
X0045666Y0119212D01*
X0045666Y0114416D02*
X0144806Y0114416D01*
X0143208Y0112818D02*
X0045666Y0112818D01*
X0045666Y0111219D02*
X0141609Y0111219D01*
X0140011Y0109621D02*
X0045666Y0109621D01*
X0045666Y0108022D02*
X0138412Y0108022D01*
X0136814Y0106424D02*
X0045666Y0106424D01*
X0045666Y0104825D02*
X0125415Y0104825D01*
X0123817Y0103227D02*
X0045666Y0103227D01*
X0045666Y0101628D02*
X0122218Y0101628D01*
X0120620Y0100030D02*
X0045666Y0100030D01*
X0045666Y0098431D02*
X0119021Y0098431D01*
X0117423Y0096833D02*
X0045666Y0096833D01*
X0045666Y0095234D02*
X0115824Y0095234D01*
X0114226Y0093636D02*
X0045666Y0093636D01*
X0045666Y0092037D02*
X0112051Y0092037D01*
X0110176Y0090439D02*
X0045666Y0090439D01*
X0045666Y0088840D02*
X0110011Y0088840D01*
X0111099Y0087242D02*
X0055820Y0087242D01*
X0057494Y0085643D02*
X0119751Y0085643D01*
X0118377Y0087242D02*
X0114054Y0087242D01*
X0115142Y0088840D02*
X0117828Y0088840D01*
X0117838Y0090439D02*
X0116120Y0090439D01*
X0117718Y0092037D02*
X0118500Y0092037D01*
X0119317Y0093636D02*
X0120337Y0093636D01*
X0120915Y0095234D02*
X0261376Y0095234D01*
X0261376Y0093636D02*
X0134616Y0093636D01*
X0136453Y0092037D02*
X0261972Y0092037D01*
X0263316Y0090439D02*
X0217724Y0090439D01*
X0219323Y0088840D02*
X0263106Y0088840D01*
X0261705Y0087242D02*
X0220921Y0087242D01*
X0222520Y0085643D02*
X0261090Y0085643D01*
X0260978Y0084045D02*
X0224118Y0084045D01*
X0225717Y0082446D02*
X0261358Y0082446D01*
X0262341Y0080848D02*
X0227315Y0080848D01*
X0224986Y0098431D02*
X0263204Y0098431D01*
X0263305Y0100030D02*
X0226087Y0100030D01*
X0225932Y0101628D02*
X0263305Y0101628D01*
X0263305Y0103227D02*
X0224077Y0103227D01*
X0222975Y0103227D02*
X0174486Y0103227D01*
X0170993Y0101628D02*
X0137109Y0101628D01*
X0138708Y0103227D02*
X0169395Y0103227D01*
X0167796Y0104825D02*
X0157981Y0104825D01*
X0159342Y0106424D02*
X0166198Y0106424D01*
X0164599Y0108022D02*
X0160004Y0108022D01*
X0160107Y0109621D02*
X0163001Y0109621D01*
X0161402Y0111219D02*
X0159896Y0111219D01*
X0159804Y0112818D02*
X0159234Y0112818D01*
X0158205Y0114416D02*
X0157721Y0114416D01*
X0148719Y0112818D02*
X0148299Y0112818D01*
X0148057Y0111219D02*
X0146701Y0111219D01*
X0147846Y0109621D02*
X0145102Y0109621D01*
X0143503Y0108022D02*
X0147949Y0108022D01*
X0148611Y0106424D02*
X0141905Y0106424D01*
X0140306Y0104825D02*
X0149972Y0104825D01*
X0130337Y0093636D02*
X0124616Y0093636D01*
X0126453Y0092037D02*
X0128500Y0092037D01*
X0127838Y0090439D02*
X0127115Y0090439D01*
X0127124Y0088840D02*
X0127828Y0088840D01*
X0128377Y0087242D02*
X0126771Y0087242D01*
X0124877Y0084045D02*
X0123628Y0084045D01*
X0121324Y0084045D02*
X0113628Y0084045D01*
X0113401Y0084139D02*
X0111552Y0084139D01*
X0109843Y0083431D01*
X0108536Y0082124D01*
X0107828Y0080415D01*
X0107828Y0078566D01*
X0108536Y0076858D01*
X0109843Y0075550D01*
X0111552Y0074843D01*
X0113401Y0074843D01*
X0115109Y0075550D01*
X0116417Y0076858D01*
X0117124Y0078566D01*
X0117124Y0080415D01*
X0116417Y0082124D01*
X0115109Y0083431D01*
X0113401Y0084139D01*
X0111324Y0084045D02*
X0103628Y0084045D01*
X0101324Y0084045D02*
X0093628Y0084045D01*
X0091324Y0084045D02*
X0083628Y0084045D01*
X0081324Y0084045D02*
X0073628Y0084045D01*
X0071324Y0084045D02*
X0063628Y0084045D01*
X0061324Y0084045D02*
X0058261Y0084045D01*
X0058607Y0082446D02*
X0058858Y0082446D01*
X0058208Y0077651D02*
X0056806Y0077651D01*
X0059342Y0076052D02*
X0054159Y0076052D01*
X0050793Y0076052D02*
X0045666Y0076052D01*
X0045666Y0074454D02*
X0065518Y0074454D01*
X0067117Y0072855D02*
X0045666Y0072855D01*
X0045666Y0071257D02*
X0068715Y0071257D01*
X0070314Y0069658D02*
X0045666Y0069658D01*
X0045666Y0068060D02*
X0071912Y0068060D01*
X0072208Y0072855D02*
X0077267Y0072855D01*
X0075668Y0074454D02*
X0070609Y0074454D01*
X0069342Y0076052D02*
X0069011Y0076052D01*
X0068208Y0077651D02*
X0067412Y0077651D01*
X0067124Y0079249D02*
X0067828Y0079249D01*
X0068007Y0080848D02*
X0066945Y0080848D01*
X0066094Y0082446D02*
X0068858Y0082446D01*
X0076094Y0082446D02*
X0078858Y0082446D01*
X0078007Y0080848D02*
X0076945Y0080848D01*
X0077124Y0079249D02*
X0077828Y0079249D01*
X0077562Y0077651D02*
X0078208Y0077651D01*
X0079161Y0076052D02*
X0079342Y0076052D01*
X0080759Y0074454D02*
X0084068Y0074454D01*
X0087561Y0076052D02*
X0089342Y0076052D01*
X0089159Y0074454D02*
X0095618Y0074454D01*
X0099111Y0076052D02*
X0099342Y0076052D01*
X0098208Y0077651D02*
X0097512Y0077651D01*
X0097828Y0079249D02*
X0097124Y0079249D01*
X0096945Y0080848D02*
X0098007Y0080848D01*
X0098858Y0082446D02*
X0096094Y0082446D01*
X0088858Y0082446D02*
X0086094Y0082446D01*
X0086945Y0080848D02*
X0088007Y0080848D01*
X0087828Y0079249D02*
X0087124Y0079249D01*
X0086745Y0077651D02*
X0088208Y0077651D01*
X0100709Y0074454D02*
X0104018Y0074454D01*
X0107511Y0076052D02*
X0109342Y0076052D01*
X0109109Y0074454D02*
X0125718Y0074454D01*
X0129211Y0076052D02*
X0129342Y0076052D01*
X0128208Y0077651D02*
X0127612Y0077651D01*
X0127828Y0079249D02*
X0127124Y0079249D01*
X0126945Y0080848D02*
X0128007Y0080848D01*
X0128858Y0082446D02*
X0126094Y0082446D01*
X0118858Y0082446D02*
X0116094Y0082446D01*
X0116945Y0080848D02*
X0118007Y0080848D01*
X0117828Y0079249D02*
X0117124Y0079249D01*
X0116745Y0077651D02*
X0118208Y0077651D01*
X0119342Y0076052D02*
X0115611Y0076052D01*
X0108208Y0077651D02*
X0106745Y0077651D01*
X0107124Y0079249D02*
X0107828Y0079249D01*
X0108007Y0080848D02*
X0106945Y0080848D01*
X0106094Y0082446D02*
X0108858Y0082446D01*
X0123355Y0069658D02*
X0128414Y0069658D01*
X0130012Y0068060D02*
X0124953Y0068060D01*
X0126552Y0066461D02*
X0131611Y0066461D01*
X0133209Y0064863D02*
X0128150Y0064863D01*
X0129749Y0063264D02*
X0134808Y0063264D01*
X0136406Y0061666D02*
X0131347Y0061666D01*
X0132946Y0060067D02*
X0138005Y0060067D01*
X0139603Y0058468D02*
X0134544Y0058468D01*
X0136143Y0056870D02*
X0138051Y0056870D01*
X0139902Y0056870D02*
X0141202Y0056870D01*
X0142418Y0055271D02*
X0142800Y0055271D01*
X0143249Y0053673D02*
X0144399Y0053673D01*
X0144576Y0052074D02*
X0143376Y0052074D01*
X0143376Y0050476D02*
X0144576Y0050476D01*
X0144576Y0048877D02*
X0143376Y0048877D01*
X0143376Y0047279D02*
X0144576Y0047279D01*
X0144576Y0045680D02*
X0143376Y0045680D01*
X0142741Y0044082D02*
X0145212Y0044082D01*
X0147153Y0042483D02*
X0140799Y0042483D01*
X0137153Y0042483D02*
X0130799Y0042483D01*
X0132741Y0044082D02*
X0135212Y0044082D01*
X0134576Y0045680D02*
X0133376Y0045680D01*
X0133376Y0047279D02*
X0134576Y0047279D01*
X0134576Y0048877D02*
X0133376Y0048877D01*
X0133376Y0050476D02*
X0134576Y0050476D01*
X0134576Y0052074D02*
X0133376Y0052074D01*
X0133249Y0053673D02*
X0134249Y0053673D01*
X0132650Y0055271D02*
X0132418Y0055271D01*
X0131052Y0056870D02*
X0129902Y0056870D01*
X0129453Y0058468D02*
X0124744Y0058468D01*
X0126343Y0056870D02*
X0128051Y0056870D01*
X0127855Y0060067D02*
X0123146Y0060067D01*
X0121547Y0061666D02*
X0126256Y0061666D01*
X0124658Y0063264D02*
X0119949Y0063264D01*
X0118350Y0064863D02*
X0123059Y0064863D01*
X0121461Y0066461D02*
X0116752Y0066461D01*
X0115153Y0068060D02*
X0119862Y0068060D01*
X0114858Y0063264D02*
X0109799Y0063264D01*
X0111397Y0061666D02*
X0116456Y0061666D01*
X0118055Y0060067D02*
X0112996Y0060067D01*
X0114594Y0058468D02*
X0119653Y0058468D01*
X0119902Y0056870D02*
X0121252Y0056870D01*
X0122418Y0055271D02*
X0122850Y0055271D01*
X0123249Y0053673D02*
X0124449Y0053673D01*
X0124576Y0052074D02*
X0123376Y0052074D01*
X0123376Y0050476D02*
X0124576Y0050476D01*
X0124576Y0048877D02*
X0123376Y0048877D01*
X0123376Y0047279D02*
X0124576Y0047279D01*
X0124576Y0045680D02*
X0123376Y0045680D01*
X0122741Y0044082D02*
X0125212Y0044082D01*
X0127153Y0042483D02*
X0120799Y0042483D01*
X0117153Y0042483D02*
X0110799Y0042483D01*
X0112741Y0044082D02*
X0115212Y0044082D01*
X0114576Y0045680D02*
X0113376Y0045680D01*
X0113376Y0047279D02*
X0114576Y0047279D01*
X0114576Y0048877D02*
X0113376Y0048877D01*
X0113376Y0050476D02*
X0114576Y0050476D01*
X0114576Y0052074D02*
X0113376Y0052074D01*
X0113249Y0053673D02*
X0114299Y0053673D01*
X0112700Y0055271D02*
X0112418Y0055271D01*
X0111102Y0056870D02*
X0109902Y0056870D01*
X0109503Y0058468D02*
X0104794Y0058468D01*
X0106393Y0056870D02*
X0108051Y0056870D01*
X0107905Y0060067D02*
X0103196Y0060067D01*
X0101597Y0061666D02*
X0106306Y0061666D01*
X0104708Y0063264D02*
X0099999Y0063264D01*
X0098400Y0064863D02*
X0103109Y0064863D01*
X0101511Y0066461D02*
X0096802Y0066461D01*
X0094908Y0063264D02*
X0045666Y0063264D01*
X0045666Y0064863D02*
X0093309Y0064863D01*
X0091711Y0066461D02*
X0045666Y0066461D01*
X0045666Y0077651D02*
X0048146Y0077651D01*
X0046976Y0079249D02*
X0045666Y0079249D01*
X0045666Y0080848D02*
X0046346Y0080848D01*
X0046346Y0082446D02*
X0045666Y0082446D01*
X0045666Y0084045D02*
X0046691Y0084045D01*
X0047459Y0085643D02*
X0045666Y0085643D01*
X0045666Y0087242D02*
X0049133Y0087242D01*
X0064081Y0061666D02*
X0096506Y0061666D01*
X0098105Y0060067D02*
X0067032Y0060067D01*
X0068842Y0058468D02*
X0099703Y0058468D01*
X0099852Y0056891D02*
X0098101Y0056891D01*
X0096484Y0056221D01*
X0095246Y0054983D01*
X0094576Y0053366D01*
X0094576Y0045616D01*
X0095246Y0043998D01*
X0096484Y0042761D01*
X0098101Y0042091D01*
X0099852Y0042091D01*
X0101469Y0042761D01*
X0102707Y0043998D01*
X0103376Y0045616D01*
X0103376Y0053366D01*
X0102707Y0054983D01*
X0101469Y0056221D01*
X0099852Y0056891D01*
X0099902Y0056870D02*
X0101302Y0056870D01*
X0102418Y0055271D02*
X0102900Y0055271D01*
X0103249Y0053673D02*
X0104499Y0053673D01*
X0104576Y0052074D02*
X0103376Y0052074D01*
X0103376Y0050476D02*
X0104576Y0050476D01*
X0104576Y0048877D02*
X0103376Y0048877D01*
X0103376Y0047279D02*
X0104576Y0047279D01*
X0104576Y0045680D02*
X0103376Y0045680D01*
X0102741Y0044082D02*
X0105212Y0044082D01*
X0107153Y0042483D02*
X0100799Y0042483D01*
X0097153Y0042483D02*
X0090799Y0042483D01*
X0091469Y0042761D02*
X0092707Y0043998D01*
X0093376Y0045616D01*
X0093376Y0053366D01*
X0092707Y0054983D01*
X0091469Y0056221D01*
X0089852Y0056891D01*
X0088101Y0056891D01*
X0086484Y0056221D01*
X0085246Y0054983D01*
X0084576Y0053366D01*
X0084576Y0045616D01*
X0085246Y0043998D01*
X0086484Y0042761D01*
X0088101Y0042091D01*
X0089852Y0042091D01*
X0091469Y0042761D01*
X0092741Y0044082D02*
X0095212Y0044082D01*
X0094576Y0045680D02*
X0093376Y0045680D01*
X0093376Y0047279D02*
X0094576Y0047279D01*
X0094576Y0048877D02*
X0093376Y0048877D01*
X0093376Y0050476D02*
X0094576Y0050476D01*
X0094576Y0052074D02*
X0093376Y0052074D01*
X0093249Y0053673D02*
X0094704Y0053673D01*
X0095534Y0055271D02*
X0092418Y0055271D01*
X0089902Y0056870D02*
X0098051Y0056870D01*
X0088051Y0056870D02*
X0080955Y0056870D01*
X0082889Y0055271D02*
X0085534Y0055271D01*
X0084704Y0053673D02*
X0083639Y0053673D01*
X0083776Y0052074D02*
X0084576Y0052074D01*
X0084576Y0050476D02*
X0083776Y0050476D01*
X0083776Y0048877D02*
X0084576Y0048877D01*
X0084576Y0047279D02*
X0083776Y0047279D01*
X0083708Y0045680D02*
X0084576Y0045680D01*
X0085212Y0044082D02*
X0083136Y0044082D01*
X0081627Y0042483D02*
X0087153Y0042483D01*
X0116193Y0056870D02*
X0118051Y0056870D01*
X0113259Y0064863D02*
X0108200Y0064863D01*
X0106602Y0066461D02*
X0111661Y0066461D01*
X0130809Y0074454D02*
X0135518Y0074454D01*
X0139011Y0076052D02*
X0139342Y0076052D01*
X0139843Y0075550D02*
X0141552Y0074843D01*
X0143401Y0074843D01*
X0145109Y0075550D01*
X0146417Y0076858D01*
X0147124Y0078566D01*
X0147124Y0080415D01*
X0146999Y0080718D01*
X0150772Y0084491D01*
X0174481Y0084491D01*
X0177276Y0081695D01*
X0177276Y0070495D01*
X0178331Y0069441D01*
X0181643Y0066129D01*
X0181577Y0066063D01*
X0181414Y0065670D01*
X0181198Y0066095D01*
X0180772Y0066680D01*
X0180260Y0067192D01*
X0179675Y0067618D01*
X0179030Y0067947D01*
X0178341Y0068170D01*
X0177626Y0068284D01*
X0177264Y0068284D01*
X0177264Y0063684D01*
X0177264Y0063684D01*
X0177264Y0068284D01*
X0176902Y0068284D01*
X0176187Y0068170D01*
X0175498Y0067947D01*
X0174853Y0067618D01*
X0174267Y0067192D01*
X0173755Y0066680D01*
X0173330Y0066095D01*
X0173001Y0065450D01*
X0172777Y0064761D01*
X0172664Y0064046D01*
X0172664Y0063684D01*
X0177264Y0063684D01*
X0177264Y0063684D01*
X0177264Y0059084D01*
X0177626Y0059084D01*
X0178341Y0059197D01*
X0179030Y0059421D01*
X0179675Y0059749D01*
X0179912Y0059922D01*
X0178331Y0058341D01*
X0177022Y0058341D01*
X0176322Y0059041D01*
X0175272Y0059041D01*
X0172126Y0062186D01*
X0172126Y0072595D01*
X0173176Y0073645D01*
X0173176Y0074695D01*
X0173324Y0074843D01*
X0173401Y0074843D01*
X0175109Y0075550D01*
X0176417Y0076858D01*
X0177124Y0078566D01*
X0177124Y0080415D01*
X0176417Y0082124D01*
X0175109Y0083431D01*
X0173401Y0084139D01*
X0171552Y0084139D01*
X0169843Y0083431D01*
X0168536Y0082124D01*
X0167828Y0080415D01*
X0167828Y0078566D01*
X0168536Y0076858D01*
X0169576Y0075818D01*
X0169576Y0075136D01*
X0168526Y0074086D01*
X0168526Y0063686D01*
X0168276Y0063936D01*
X0168276Y0075136D01*
X0166457Y0076956D01*
X0167124Y0078566D01*
X0167124Y0080415D01*
X0166417Y0082124D01*
X0165109Y0083431D01*
X0163401Y0084139D01*
X0161552Y0084139D01*
X0159843Y0083431D01*
X0158536Y0082124D01*
X0157828Y0080415D01*
X0157828Y0078566D01*
X0158536Y0076858D01*
X0159843Y0075550D01*
X0161552Y0074843D01*
X0163401Y0074843D01*
X0163456Y0074866D01*
X0164676Y0073645D01*
X0164676Y0062445D01*
X0165731Y0061391D01*
X0170499Y0056623D01*
X0169852Y0056891D01*
X0168101Y0056891D01*
X0166772Y0056340D01*
X0149726Y0073386D01*
X0148672Y0074441D01*
X0140622Y0074441D01*
X0136940Y0078122D01*
X0137124Y0078566D01*
X0137124Y0080415D01*
X0136417Y0082124D01*
X0135109Y0083431D01*
X0135041Y0083460D01*
X0135151Y0083570D01*
X0135981Y0082741D01*
X0137822Y0082741D01*
X0138876Y0083795D01*
X0140972Y0085891D01*
X0147081Y0085891D01*
X0144764Y0083574D01*
X0143401Y0084139D01*
X0141552Y0084139D01*
X0139843Y0083431D01*
X0138536Y0082124D01*
X0137828Y0080415D01*
X0137828Y0078566D01*
X0138536Y0076858D01*
X0139843Y0075550D01*
X0140609Y0074454D02*
X0163868Y0074454D01*
X0164676Y0072855D02*
X0150258Y0072855D01*
X0151856Y0071257D02*
X0164676Y0071257D01*
X0164676Y0069658D02*
X0153455Y0069658D01*
X0155053Y0068060D02*
X0164676Y0068060D01*
X0164676Y0066461D02*
X0156652Y0066461D01*
X0158250Y0064863D02*
X0164676Y0064863D01*
X0164676Y0063264D02*
X0159849Y0063264D01*
X0161447Y0061666D02*
X0165456Y0061666D01*
X0167055Y0060067D02*
X0163046Y0060067D01*
X0164644Y0058468D02*
X0168653Y0058468D01*
X0168051Y0056870D02*
X0166243Y0056870D01*
X0169902Y0056870D02*
X0170252Y0056870D01*
X0173249Y0053673D02*
X0173799Y0053673D01*
X0173376Y0052074D02*
X0174576Y0052074D01*
X0174576Y0050476D02*
X0173376Y0050476D01*
X0173376Y0048877D02*
X0174576Y0048877D01*
X0174576Y0047279D02*
X0173376Y0047279D01*
X0173376Y0045680D02*
X0174576Y0045680D01*
X0175212Y0044082D02*
X0172741Y0044082D01*
X0170799Y0042483D02*
X0177153Y0042483D01*
X0167153Y0042483D02*
X0160799Y0042483D01*
X0162741Y0044082D02*
X0165212Y0044082D01*
X0164576Y0045680D02*
X0163376Y0045680D01*
X0163376Y0047279D02*
X0164576Y0047279D01*
X0164576Y0048877D02*
X0163376Y0048877D01*
X0163376Y0050476D02*
X0164576Y0050476D01*
X0164576Y0052074D02*
X0163376Y0052074D01*
X0163249Y0053673D02*
X0164349Y0053673D01*
X0162750Y0055271D02*
X0162418Y0055271D01*
X0161152Y0056870D02*
X0159902Y0056870D01*
X0159553Y0058468D02*
X0155194Y0058468D01*
X0156793Y0056870D02*
X0158051Y0056870D01*
X0157955Y0060067D02*
X0153596Y0060067D01*
X0151997Y0061666D02*
X0156356Y0061666D01*
X0154758Y0063264D02*
X0150399Y0063264D01*
X0148800Y0064863D02*
X0153159Y0064863D01*
X0151561Y0066461D02*
X0147202Y0066461D01*
X0145603Y0068060D02*
X0149962Y0068060D01*
X0148364Y0069658D02*
X0144005Y0069658D01*
X0140512Y0068060D02*
X0135103Y0068060D01*
X0136702Y0066461D02*
X0142111Y0066461D01*
X0143709Y0064863D02*
X0138300Y0064863D01*
X0139899Y0063264D02*
X0145308Y0063264D01*
X0146906Y0061666D02*
X0141497Y0061666D01*
X0143096Y0060067D02*
X0148505Y0060067D01*
X0150103Y0058468D02*
X0144694Y0058468D01*
X0146293Y0056870D02*
X0148051Y0056870D01*
X0149902Y0056870D02*
X0151702Y0056870D01*
X0152418Y0055271D02*
X0153300Y0055271D01*
X0153249Y0053673D02*
X0154704Y0053673D01*
X0154576Y0052074D02*
X0153376Y0052074D01*
X0153376Y0050476D02*
X0154576Y0050476D01*
X0154576Y0048877D02*
X0153376Y0048877D01*
X0153376Y0047279D02*
X0154576Y0047279D01*
X0154576Y0045680D02*
X0153376Y0045680D01*
X0152741Y0044082D02*
X0155212Y0044082D01*
X0157153Y0042483D02*
X0150799Y0042483D01*
X0173755Y0060687D02*
X0174267Y0060175D01*
X0174853Y0059749D01*
X0175498Y0059421D01*
X0176187Y0059197D01*
X0176902Y0059084D01*
X0177264Y0059084D01*
X0177264Y0063684D01*
X0177264Y0063684D01*
X0172664Y0063684D01*
X0172664Y0063322D01*
X0172777Y0062607D01*
X0173001Y0061918D01*
X0173330Y0061273D01*
X0173755Y0060687D01*
X0174246Y0060067D02*
X0174416Y0060067D01*
X0173129Y0061666D02*
X0172647Y0061666D01*
X0172673Y0063264D02*
X0172126Y0063264D01*
X0172126Y0064863D02*
X0172810Y0064863D01*
X0172126Y0066461D02*
X0173596Y0066461D01*
X0172126Y0068060D02*
X0175845Y0068060D01*
X0177264Y0068060D02*
X0177264Y0068060D01*
X0178682Y0068060D02*
X0179712Y0068060D01*
X0178331Y0069441D02*
X0178331Y0069441D01*
X0178114Y0069658D02*
X0172126Y0069658D01*
X0172126Y0071257D02*
X0177276Y0071257D01*
X0177276Y0072855D02*
X0172386Y0072855D01*
X0173176Y0074454D02*
X0177276Y0074454D01*
X0177276Y0076052D02*
X0175611Y0076052D01*
X0176745Y0077651D02*
X0177276Y0077651D01*
X0177276Y0079249D02*
X0177124Y0079249D01*
X0177276Y0080848D02*
X0176945Y0080848D01*
X0176525Y0082446D02*
X0176094Y0082446D01*
X0174927Y0084045D02*
X0173628Y0084045D01*
X0171324Y0084045D02*
X0163628Y0084045D01*
X0161324Y0084045D02*
X0153628Y0084045D01*
X0153401Y0084139D02*
X0151552Y0084139D01*
X0149843Y0083431D01*
X0148536Y0082124D01*
X0147828Y0080415D01*
X0147828Y0078566D01*
X0148536Y0076858D01*
X0149843Y0075550D01*
X0151552Y0074843D01*
X0153401Y0074843D01*
X0155109Y0075550D01*
X0156417Y0076858D01*
X0157124Y0078566D01*
X0157124Y0080415D01*
X0156417Y0082124D01*
X0155109Y0083431D01*
X0153401Y0084139D01*
X0151324Y0084045D02*
X0150326Y0084045D01*
X0148858Y0082446D02*
X0148727Y0082446D01*
X0148007Y0080848D02*
X0147129Y0080848D01*
X0147124Y0079249D02*
X0147828Y0079249D01*
X0148208Y0077651D02*
X0146745Y0077651D01*
X0145611Y0076052D02*
X0149342Y0076052D01*
X0155611Y0076052D02*
X0159342Y0076052D01*
X0158208Y0077651D02*
X0156745Y0077651D01*
X0157124Y0079249D02*
X0157828Y0079249D01*
X0158007Y0080848D02*
X0156945Y0080848D01*
X0156094Y0082446D02*
X0158858Y0082446D01*
X0166094Y0082446D02*
X0168858Y0082446D01*
X0168007Y0080848D02*
X0166945Y0080848D01*
X0167124Y0079249D02*
X0167828Y0079249D01*
X0168208Y0077651D02*
X0166745Y0077651D01*
X0167361Y0076052D02*
X0169342Y0076052D01*
X0168894Y0074454D02*
X0168276Y0074454D01*
X0168276Y0072855D02*
X0168526Y0072855D01*
X0168526Y0071257D02*
X0168276Y0071257D01*
X0168276Y0069658D02*
X0168526Y0069658D01*
X0168526Y0068060D02*
X0168276Y0068060D01*
X0168276Y0066461D02*
X0168526Y0066461D01*
X0168526Y0064863D02*
X0168276Y0064863D01*
X0177264Y0064863D02*
X0177264Y0064863D01*
X0177264Y0066461D02*
X0177264Y0066461D01*
X0177264Y0063264D02*
X0177264Y0063264D01*
X0177264Y0061666D02*
X0177264Y0061666D01*
X0177264Y0060067D02*
X0177264Y0060067D01*
X0176894Y0058468D02*
X0178458Y0058468D01*
X0180932Y0066461D02*
X0181311Y0066461D01*
X0146833Y0085643D02*
X0140724Y0085643D01*
X0141324Y0084045D02*
X0139126Y0084045D01*
X0138876Y0083795D02*
X0138876Y0083795D01*
X0138858Y0082446D02*
X0136094Y0082446D01*
X0136945Y0080848D02*
X0138007Y0080848D01*
X0137828Y0079249D02*
X0137124Y0079249D01*
X0137412Y0077651D02*
X0138208Y0077651D01*
X0143628Y0084045D02*
X0145235Y0084045D01*
X0124112Y0098431D02*
X0222067Y0098431D01*
X0206824Y0122409D02*
X0206334Y0122409D01*
X0206485Y0124007D02*
X0207376Y0124007D01*
X0207338Y0125606D02*
X0205615Y0125606D01*
X0205711Y0127204D02*
X0207242Y0127204D01*
X0207242Y0128803D02*
X0205711Y0128803D01*
X0205711Y0130401D02*
X0207242Y0130401D01*
X0209080Y0133599D02*
X0278287Y0133599D01*
X0278287Y0135197D02*
X0243876Y0135197D01*
X0243876Y0136796D02*
X0278287Y0136796D01*
X0278287Y0138394D02*
X0243876Y0138394D01*
X0243876Y0139993D02*
X0278287Y0139993D01*
X0278287Y0141591D02*
X0243876Y0141591D01*
X0243876Y0143190D02*
X0278287Y0143190D01*
X0278287Y0144788D02*
X0243876Y0144788D01*
X0243560Y0146387D02*
X0246597Y0146387D01*
X0244542Y0147985D02*
X0243844Y0147985D01*
X0249662Y0146387D02*
X0278287Y0146387D01*
X0278287Y0147985D02*
X0251718Y0147985D01*
X0252330Y0149584D02*
X0278287Y0149584D01*
X0278287Y0151182D02*
X0252310Y0151182D01*
X0251587Y0152781D02*
X0258776Y0152781D01*
X0256245Y0154379D02*
X0252626Y0154379D01*
X0252626Y0155978D02*
X0254646Y0155978D01*
X0253554Y0157576D02*
X0251387Y0157576D01*
X0250876Y0159175D02*
X0252740Y0159175D01*
X0236668Y0147985D02*
X0235970Y0147985D01*
X0235560Y0146387D02*
X0236392Y0146387D01*
X0236076Y0144788D02*
X0235876Y0144788D01*
X0235876Y0143190D02*
X0236076Y0143190D01*
X0236076Y0141591D02*
X0235876Y0141591D01*
X0235876Y0139993D02*
X0236076Y0139993D01*
X0236076Y0138394D02*
X0235876Y0138394D01*
X0235876Y0136796D02*
X0236076Y0136796D01*
X0236076Y0135197D02*
X0235876Y0135197D01*
X0228076Y0135197D02*
X0227876Y0135197D01*
X0227876Y0136796D02*
X0228076Y0136796D01*
X0228076Y0138394D02*
X0227876Y0138394D01*
X0227876Y0139993D02*
X0228076Y0139993D01*
X0228076Y0141591D02*
X0227876Y0141591D01*
X0227876Y0143190D02*
X0228076Y0143190D01*
X0228076Y0144788D02*
X0227876Y0144788D01*
X0228085Y0146387D02*
X0227560Y0146387D01*
X0215076Y0139795D02*
X0215076Y0139795D01*
X0214879Y0139993D02*
X0192320Y0139993D01*
X0190722Y0141591D02*
X0213281Y0141591D01*
X0211682Y0143190D02*
X0189123Y0143190D01*
X0187606Y0144788D02*
X0210084Y0144788D01*
X0207227Y0146387D02*
X0202418Y0146387D01*
X0204474Y0147985D02*
X0205172Y0147985D01*
X0199353Y0146387D02*
X0194544Y0146387D01*
X0196600Y0147985D02*
X0197298Y0147985D01*
X0191479Y0146387D02*
X0186670Y0146387D01*
X0188726Y0147985D02*
X0189424Y0147985D01*
X0180835Y0146387D02*
X0178796Y0146387D01*
X0175731Y0146387D02*
X0148326Y0146387D01*
X0148326Y0147985D02*
X0173676Y0147985D01*
X0173064Y0149584D02*
X0148326Y0149584D01*
X0148326Y0151182D02*
X0173084Y0151182D01*
X0173807Y0152781D02*
X0148326Y0152781D01*
X0148326Y0154379D02*
X0176142Y0154379D01*
X0179368Y0155978D02*
X0149809Y0155978D01*
X0151023Y0157576D02*
X0156929Y0157576D01*
X0156484Y0157761D02*
X0158101Y0157091D01*
X0159852Y0157091D01*
X0161469Y0157761D01*
X0162707Y0158998D01*
X0163376Y0160616D01*
X0163376Y0168366D01*
X0162707Y0169983D01*
X0161469Y0171221D01*
X0159852Y0171891D01*
X0158101Y0171891D01*
X0156484Y0171221D01*
X0155246Y0169983D01*
X0154576Y0168366D01*
X0154576Y0160616D01*
X0155246Y0158998D01*
X0156484Y0157761D01*
X0155173Y0159175D02*
X0152780Y0159175D01*
X0153376Y0160773D02*
X0154576Y0160773D01*
X0154576Y0162372D02*
X0153376Y0162372D01*
X0153376Y0163970D02*
X0154576Y0163970D01*
X0154576Y0165569D02*
X0153376Y0165569D01*
X0153376Y0167167D02*
X0154576Y0167167D01*
X0154742Y0168766D02*
X0153211Y0168766D01*
X0152325Y0170364D02*
X0155627Y0170364D01*
X0162325Y0170364D02*
X0165627Y0170364D01*
X0165246Y0169983D02*
X0164576Y0168366D01*
X0164576Y0160616D01*
X0165246Y0158998D01*
X0166484Y0157761D01*
X0168101Y0157091D01*
X0169852Y0157091D01*
X0171469Y0157761D01*
X0172707Y0158998D01*
X0173376Y0160616D01*
X0173376Y0168366D01*
X0172707Y0169983D01*
X0171469Y0171221D01*
X0169852Y0171891D01*
X0168101Y0171891D01*
X0166484Y0171221D01*
X0165246Y0169983D01*
X0164742Y0168766D02*
X0163211Y0168766D01*
X0163376Y0167167D02*
X0164576Y0167167D01*
X0164576Y0165569D02*
X0163376Y0165569D01*
X0163376Y0163970D02*
X0164576Y0163970D01*
X0164576Y0162372D02*
X0163376Y0162372D01*
X0163376Y0160773D02*
X0164576Y0160773D01*
X0165173Y0159175D02*
X0162780Y0159175D01*
X0161023Y0157576D02*
X0166929Y0157576D01*
X0171023Y0157576D02*
X0176929Y0157576D01*
X0175173Y0159175D02*
X0172780Y0159175D01*
X0173376Y0160773D02*
X0174576Y0160773D01*
X0174576Y0162372D02*
X0173376Y0162372D01*
X0173376Y0163970D02*
X0174576Y0163970D01*
X0174576Y0165569D02*
X0173376Y0165569D01*
X0173376Y0167167D02*
X0174576Y0167167D01*
X0174742Y0168766D02*
X0173211Y0168766D01*
X0172325Y0170364D02*
X0175627Y0170364D01*
X0182325Y0170364D02*
X0182526Y0170364D01*
X0182526Y0171963D02*
X0080746Y0171963D01*
X0080819Y0171939D02*
X0080100Y0172173D01*
X0079354Y0172291D01*
X0079176Y0172291D01*
X0079176Y0164691D01*
X0078776Y0164691D01*
X0078776Y0164291D01*
X0074176Y0164291D01*
X0074176Y0161113D01*
X0074295Y0160367D01*
X0074528Y0159648D01*
X0074871Y0158975D01*
X0075315Y0158364D01*
X0075849Y0157830D01*
X0076461Y0157385D01*
X0077134Y0157042D01*
X0077852Y0156809D01*
X0078599Y0156691D01*
X0078776Y0156691D01*
X0078776Y0164291D01*
X0079176Y0164291D01*
X0079176Y0156691D01*
X0079354Y0156691D01*
X0080100Y0156809D01*
X0080819Y0157042D01*
X0081492Y0157385D01*
X0082103Y0157830D01*
X0082638Y0158364D01*
X0083082Y0158975D01*
X0083425Y0159648D01*
X0083658Y0160367D01*
X0083776Y0161113D01*
X0083776Y0164291D01*
X0079176Y0164291D01*
X0079176Y0164691D01*
X0083776Y0164691D01*
X0083776Y0167869D01*
X0083658Y0168615D01*
X0083425Y0169333D01*
X0083082Y0170007D01*
X0082638Y0170618D01*
X0082103Y0171152D01*
X0081492Y0171596D01*
X0080819Y0171939D01*
X0079176Y0171963D02*
X0078776Y0171963D01*
X0078776Y0172291D02*
X0078599Y0172291D01*
X0077852Y0172173D01*
X0077134Y0171939D01*
X0076461Y0171596D01*
X0075849Y0171152D01*
X0075315Y0170618D01*
X0074871Y0170007D01*
X0074528Y0169333D01*
X0074295Y0168615D01*
X0074176Y0167869D01*
X0074176Y0164691D01*
X0078776Y0164691D01*
X0078776Y0172291D01*
X0077207Y0171963D02*
X0072225Y0171963D01*
X0072225Y0173561D02*
X0183301Y0173561D01*
X0184900Y0175160D02*
X0072225Y0175160D01*
X0072225Y0176758D02*
X0251728Y0176758D01*
X0251728Y0175160D02*
X0192853Y0175160D01*
X0194451Y0173561D02*
X0251728Y0173561D01*
X0200076Y0171963D02*
X0196050Y0171963D01*
X0197648Y0170364D02*
X0200076Y0170364D01*
X0166417Y0142124D02*
X0165109Y0143431D01*
X0163401Y0144139D01*
X0161552Y0144139D01*
X0159843Y0143431D01*
X0158536Y0142124D01*
X0157828Y0140415D01*
X0157828Y0138566D01*
X0158536Y0136858D01*
X0159843Y0135550D01*
X0161552Y0134843D01*
X0163401Y0134843D01*
X0165109Y0135550D01*
X0166417Y0136858D01*
X0167124Y0138566D01*
X0167124Y0140415D01*
X0166417Y0142124D01*
X0166637Y0141591D02*
X0168315Y0141591D01*
X0167828Y0139993D02*
X0167124Y0139993D01*
X0167053Y0138394D02*
X0167900Y0138394D01*
X0168598Y0136796D02*
X0166354Y0136796D01*
X0164256Y0135197D02*
X0170697Y0135197D01*
X0160697Y0135197D02*
X0154256Y0135197D01*
X0156354Y0136796D02*
X0158598Y0136796D01*
X0157900Y0138394D02*
X0157053Y0138394D01*
X0157124Y0139993D02*
X0157828Y0139993D01*
X0158315Y0141591D02*
X0156637Y0141591D01*
X0155351Y0143190D02*
X0159602Y0143190D01*
X0165351Y0143190D02*
X0169602Y0143190D01*
X0152013Y0132000D02*
X0278287Y0132000D01*
X0261926Y0096833D02*
X0122514Y0096833D01*
X0125711Y0100030D02*
X0172592Y0100030D01*
X0130697Y0135197D02*
X0124256Y0135197D01*
X0125109Y0135550D02*
X0123401Y0134843D01*
X0121552Y0134843D01*
X0119843Y0135550D01*
X0118536Y0136858D01*
X0117828Y0138566D01*
X0117828Y0140415D01*
X0118536Y0142124D01*
X0119843Y0143431D01*
X0121552Y0144139D01*
X0123401Y0144139D01*
X0125109Y0143431D01*
X0126417Y0142124D01*
X0127124Y0140415D01*
X0127124Y0138566D01*
X0126417Y0136858D01*
X0125109Y0135550D01*
X0126354Y0136796D02*
X0128598Y0136796D01*
X0127900Y0138394D02*
X0127053Y0138394D01*
X0127124Y0139993D02*
X0127828Y0139993D01*
X0128315Y0141591D02*
X0126637Y0141591D01*
X0125351Y0143190D02*
X0129602Y0143190D01*
X0119602Y0143190D02*
X0115351Y0143190D01*
X0115109Y0143431D02*
X0116417Y0142124D01*
X0117124Y0140415D01*
X0117124Y0138566D01*
X0116417Y0136858D01*
X0115109Y0135550D01*
X0113401Y0134843D01*
X0111552Y0134843D01*
X0109843Y0135550D01*
X0108536Y0136858D01*
X0107828Y0138566D01*
X0107828Y0140415D01*
X0108536Y0142124D01*
X0109843Y0143431D01*
X0111552Y0144139D01*
X0113401Y0144139D01*
X0115109Y0143431D01*
X0116637Y0141591D02*
X0118315Y0141591D01*
X0117828Y0139993D02*
X0117124Y0139993D01*
X0117053Y0138394D02*
X0117900Y0138394D01*
X0118598Y0136796D02*
X0116354Y0136796D01*
X0114256Y0135197D02*
X0120697Y0135197D01*
X0110697Y0135197D02*
X0104256Y0135197D01*
X0105109Y0135550D02*
X0103401Y0134843D01*
X0101552Y0134843D01*
X0099843Y0135550D01*
X0098536Y0136858D01*
X0097828Y0138566D01*
X0097828Y0140415D01*
X0098536Y0142124D01*
X0099843Y0143431D01*
X0101552Y0144139D01*
X0103401Y0144139D01*
X0105109Y0143431D01*
X0106417Y0142124D01*
X0107124Y0140415D01*
X0107124Y0138566D01*
X0106417Y0136858D01*
X0105109Y0135550D01*
X0106354Y0136796D02*
X0108598Y0136796D01*
X0107900Y0138394D02*
X0107053Y0138394D01*
X0107124Y0139993D02*
X0107828Y0139993D01*
X0108315Y0141591D02*
X0106637Y0141591D01*
X0105351Y0143190D02*
X0109602Y0143190D01*
X0099602Y0143190D02*
X0095351Y0143190D01*
X0095109Y0143431D02*
X0096417Y0142124D01*
X0097124Y0140415D01*
X0097124Y0138566D01*
X0096417Y0136858D01*
X0095109Y0135550D01*
X0093401Y0134843D01*
X0091552Y0134843D01*
X0089843Y0135550D01*
X0088536Y0136858D01*
X0087828Y0138566D01*
X0087828Y0140415D01*
X0088536Y0142124D01*
X0089843Y0143431D01*
X0091552Y0144139D01*
X0093401Y0144139D01*
X0095109Y0143431D01*
X0096637Y0141591D02*
X0098315Y0141591D01*
X0097828Y0139993D02*
X0097124Y0139993D01*
X0097053Y0138394D02*
X0097900Y0138394D01*
X0098598Y0136796D02*
X0096354Y0136796D01*
X0094256Y0135197D02*
X0100697Y0135197D01*
X0090697Y0135197D02*
X0084256Y0135197D01*
X0085109Y0135550D02*
X0083401Y0134843D01*
X0081552Y0134843D01*
X0079843Y0135550D01*
X0078536Y0136858D01*
X0077828Y0138566D01*
X0077828Y0140415D01*
X0078536Y0142124D01*
X0079843Y0143431D01*
X0081552Y0144139D01*
X0083401Y0144139D01*
X0085109Y0143431D01*
X0086417Y0142124D01*
X0087124Y0140415D01*
X0087124Y0138566D01*
X0086417Y0136858D01*
X0085109Y0135550D01*
X0086354Y0136796D02*
X0088598Y0136796D01*
X0087900Y0138394D02*
X0087053Y0138394D01*
X0087124Y0139993D02*
X0087828Y0139993D01*
X0088315Y0141591D02*
X0086637Y0141591D01*
X0085351Y0143190D02*
X0089602Y0143190D01*
X0079602Y0143190D02*
X0075917Y0143190D01*
X0075765Y0143341D02*
X0075122Y0143808D01*
X0074414Y0144169D01*
X0073658Y0144415D01*
X0072874Y0144539D01*
X0072759Y0144539D01*
X0072759Y0139774D01*
X0072194Y0139774D01*
X0072194Y0144539D01*
X0072079Y0144539D01*
X0071294Y0144415D01*
X0070539Y0144169D01*
X0069831Y0143808D01*
X0069188Y0143341D01*
X0068626Y0142779D01*
X0068159Y0142137D01*
X0067798Y0141429D01*
X0067553Y0140673D01*
X0067428Y0139888D01*
X0067428Y0139773D01*
X0072194Y0139773D01*
X0072194Y0139208D01*
X0072759Y0139208D01*
X0072759Y0134443D01*
X0072874Y0134443D01*
X0073658Y0134567D01*
X0074414Y0134813D01*
X0075122Y0135173D01*
X0075765Y0135640D01*
X0076327Y0136202D01*
X0076794Y0136845D01*
X0077155Y0137553D01*
X0077400Y0138309D01*
X0077524Y0139094D01*
X0077524Y0139208D01*
X0072759Y0139208D01*
X0072759Y0139773D01*
X0077524Y0139773D01*
X0077524Y0139888D01*
X0077400Y0140673D01*
X0077155Y0141429D01*
X0076794Y0142137D01*
X0076327Y0142779D01*
X0075765Y0143341D01*
X0077072Y0141591D02*
X0078315Y0141591D01*
X0077828Y0139993D02*
X0077508Y0139993D01*
X0077414Y0138394D02*
X0077900Y0138394D01*
X0078598Y0136796D02*
X0076758Y0136796D01*
X0075155Y0135197D02*
X0080697Y0135197D01*
X0072759Y0135197D02*
X0072194Y0135197D01*
X0072194Y0134443D02*
X0072194Y0139208D01*
X0067428Y0139208D01*
X0067428Y0139094D01*
X0067553Y0138309D01*
X0067798Y0137553D01*
X0068159Y0136845D01*
X0068626Y0136202D01*
X0069188Y0135640D01*
X0069831Y0135173D01*
X0070539Y0134813D01*
X0071294Y0134567D01*
X0072079Y0134443D01*
X0072194Y0134443D01*
X0072194Y0136796D02*
X0072759Y0136796D01*
X0072759Y0138394D02*
X0072194Y0138394D01*
X0072194Y0139993D02*
X0072759Y0139993D01*
X0072759Y0141591D02*
X0072194Y0141591D01*
X0072194Y0143190D02*
X0072759Y0143190D01*
X0069036Y0143190D02*
X0065351Y0143190D01*
X0066637Y0141591D02*
X0067881Y0141591D01*
X0067445Y0139993D02*
X0067124Y0139993D01*
X0067053Y0138394D02*
X0067539Y0138394D01*
X0068195Y0136796D02*
X0066717Y0136796D01*
X0067966Y0135197D02*
X0069798Y0135197D01*
X0066072Y0132000D02*
X0056156Y0132000D01*
X0057707Y0133599D02*
X0064473Y0133599D01*
X0060697Y0135197D02*
X0058369Y0135197D01*
X0045666Y0146387D02*
X0144726Y0146387D01*
X0144726Y0147985D02*
X0045666Y0147985D01*
X0045666Y0149584D02*
X0144726Y0149584D01*
X0144726Y0151182D02*
X0045666Y0151182D01*
X0065177Y0152781D02*
X0144726Y0152781D01*
X0144726Y0154379D02*
X0067708Y0154379D01*
X0069307Y0155978D02*
X0144726Y0155978D01*
X0146316Y0157576D02*
X0141023Y0157576D01*
X0141469Y0157761D02*
X0142707Y0158998D01*
X0143376Y0160616D01*
X0143376Y0168366D01*
X0142707Y0169983D01*
X0141469Y0171221D01*
X0139852Y0171891D01*
X0138101Y0171891D01*
X0136484Y0171221D01*
X0135246Y0169983D01*
X0134576Y0168366D01*
X0134576Y0160616D01*
X0135246Y0158998D01*
X0136484Y0157761D01*
X0138101Y0157091D01*
X0139852Y0157091D01*
X0141469Y0157761D01*
X0142780Y0159175D02*
X0145173Y0159175D01*
X0144576Y0160773D02*
X0143376Y0160773D01*
X0143376Y0162372D02*
X0144576Y0162372D01*
X0144576Y0163970D02*
X0143376Y0163970D01*
X0143376Y0165569D02*
X0144576Y0165569D01*
X0144576Y0167167D02*
X0143376Y0167167D01*
X0143211Y0168766D02*
X0144742Y0168766D01*
X0145627Y0170364D02*
X0142325Y0170364D01*
X0135627Y0170364D02*
X0132325Y0170364D01*
X0132707Y0169983D02*
X0131469Y0171221D01*
X0129852Y0171891D01*
X0128101Y0171891D01*
X0126484Y0171221D01*
X0125246Y0169983D01*
X0124576Y0168366D01*
X0124576Y0160616D01*
X0125246Y0158998D01*
X0126484Y0157761D01*
X0128101Y0157091D01*
X0129852Y0157091D01*
X0131469Y0157761D01*
X0132707Y0158998D01*
X0133376Y0160616D01*
X0133376Y0168366D01*
X0132707Y0169983D01*
X0133211Y0168766D02*
X0134742Y0168766D01*
X0134576Y0167167D02*
X0133376Y0167167D01*
X0133376Y0165569D02*
X0134576Y0165569D01*
X0134576Y0163970D02*
X0133376Y0163970D01*
X0133376Y0162372D02*
X0134576Y0162372D01*
X0134576Y0160773D02*
X0133376Y0160773D01*
X0132780Y0159175D02*
X0135173Y0159175D01*
X0136929Y0157576D02*
X0131023Y0157576D01*
X0126929Y0157576D02*
X0121023Y0157576D01*
X0121469Y0157761D02*
X0122707Y0158998D01*
X0123376Y0160616D01*
X0123376Y0168366D01*
X0122707Y0169983D01*
X0121469Y0171221D01*
X0119852Y0171891D01*
X0118101Y0171891D01*
X0116484Y0171221D01*
X0115246Y0169983D01*
X0114576Y0168366D01*
X0114576Y0160616D01*
X0115246Y0158998D01*
X0116484Y0157761D01*
X0118101Y0157091D01*
X0119852Y0157091D01*
X0121469Y0157761D01*
X0122780Y0159175D02*
X0125173Y0159175D01*
X0124576Y0160773D02*
X0123376Y0160773D01*
X0123376Y0162372D02*
X0124576Y0162372D01*
X0124576Y0163970D02*
X0123376Y0163970D01*
X0123376Y0165569D02*
X0124576Y0165569D01*
X0124576Y0167167D02*
X0123376Y0167167D01*
X0123211Y0168766D02*
X0124742Y0168766D01*
X0125627Y0170364D02*
X0122325Y0170364D01*
X0115627Y0170364D02*
X0112325Y0170364D01*
X0112707Y0169983D02*
X0111469Y0171221D01*
X0109852Y0171891D01*
X0108101Y0171891D01*
X0106484Y0171221D01*
X0105246Y0169983D01*
X0104576Y0168366D01*
X0104576Y0160616D01*
X0105246Y0158998D01*
X0106484Y0157761D01*
X0108101Y0157091D01*
X0109852Y0157091D01*
X0111469Y0157761D01*
X0112707Y0158998D01*
X0113376Y0160616D01*
X0113376Y0168366D01*
X0112707Y0169983D01*
X0113211Y0168766D02*
X0114742Y0168766D01*
X0114576Y0167167D02*
X0113376Y0167167D01*
X0113376Y0165569D02*
X0114576Y0165569D01*
X0114576Y0163970D02*
X0113376Y0163970D01*
X0113376Y0162372D02*
X0114576Y0162372D01*
X0114576Y0160773D02*
X0113376Y0160773D01*
X0112780Y0159175D02*
X0115173Y0159175D01*
X0116929Y0157576D02*
X0111023Y0157576D01*
X0106929Y0157576D02*
X0101023Y0157576D01*
X0101469Y0157761D02*
X0099852Y0157091D01*
X0098101Y0157091D01*
X0096484Y0157761D01*
X0095246Y0158998D01*
X0094576Y0160616D01*
X0094576Y0168366D01*
X0095246Y0169983D01*
X0096484Y0171221D01*
X0098101Y0171891D01*
X0099852Y0171891D01*
X0101469Y0171221D01*
X0102707Y0169983D01*
X0103376Y0168366D01*
X0103376Y0160616D01*
X0102707Y0158998D01*
X0101469Y0157761D01*
X0102780Y0159175D02*
X0105173Y0159175D01*
X0104576Y0160773D02*
X0103376Y0160773D01*
X0103376Y0162372D02*
X0104576Y0162372D01*
X0104576Y0163970D02*
X0103376Y0163970D01*
X0103376Y0165569D02*
X0104576Y0165569D01*
X0104576Y0167167D02*
X0103376Y0167167D01*
X0103211Y0168766D02*
X0104742Y0168766D01*
X0105627Y0170364D02*
X0102325Y0170364D01*
X0095627Y0170364D02*
X0092325Y0170364D01*
X0092707Y0169983D02*
X0091469Y0171221D01*
X0089852Y0171891D01*
X0088101Y0171891D01*
X0086484Y0171221D01*
X0085246Y0169983D01*
X0084576Y0168366D01*
X0084576Y0160616D01*
X0085246Y0158998D01*
X0086484Y0157761D01*
X0088101Y0157091D01*
X0089852Y0157091D01*
X0091469Y0157761D01*
X0092707Y0158998D01*
X0093376Y0160616D01*
X0093376Y0168366D01*
X0092707Y0169983D01*
X0093211Y0168766D02*
X0094742Y0168766D01*
X0094576Y0167167D02*
X0093376Y0167167D01*
X0093376Y0165569D02*
X0094576Y0165569D01*
X0094576Y0163970D02*
X0093376Y0163970D01*
X0093376Y0162372D02*
X0094576Y0162372D01*
X0094576Y0160773D02*
X0093376Y0160773D01*
X0092780Y0159175D02*
X0095173Y0159175D01*
X0096929Y0157576D02*
X0091023Y0157576D01*
X0086929Y0157576D02*
X0081755Y0157576D01*
X0083183Y0159175D02*
X0085173Y0159175D01*
X0084576Y0160773D02*
X0083723Y0160773D01*
X0083776Y0162372D02*
X0084576Y0162372D01*
X0084576Y0163970D02*
X0083776Y0163970D01*
X0083776Y0165569D02*
X0084576Y0165569D01*
X0084576Y0167167D02*
X0083776Y0167167D01*
X0083609Y0168766D02*
X0084742Y0168766D01*
X0085627Y0170364D02*
X0082822Y0170364D01*
X0079176Y0170364D02*
X0078776Y0170364D01*
X0078776Y0168766D02*
X0079176Y0168766D01*
X0079176Y0167167D02*
X0078776Y0167167D01*
X0078776Y0165569D02*
X0079176Y0165569D01*
X0079176Y0163970D02*
X0078776Y0163970D01*
X0078776Y0162372D02*
X0079176Y0162372D01*
X0079176Y0160773D02*
X0078776Y0160773D01*
X0078776Y0159175D02*
X0079176Y0159175D01*
X0079176Y0157576D02*
X0078776Y0157576D01*
X0076198Y0157576D02*
X0070399Y0157576D01*
X0071213Y0159175D02*
X0074769Y0159175D01*
X0074230Y0160773D02*
X0071809Y0160773D01*
X0072118Y0162372D02*
X0074176Y0162372D01*
X0074176Y0163970D02*
X0072225Y0163970D01*
X0072225Y0165569D02*
X0074176Y0165569D01*
X0074176Y0167167D02*
X0072225Y0167167D01*
X0072225Y0168766D02*
X0074344Y0168766D01*
X0075131Y0170364D02*
X0072225Y0170364D01*
X0243418Y0066461D02*
X0243930Y0066461D01*
D21*
X0249476Y0075991D03*
X0129476Y0105991D03*
X0079476Y0110991D03*
X0071476Y0149491D03*
D22*
X0234476Y0093491D03*
D23*
X0230476Y0127991D03*
D24*
X0231976Y0140491D02*
X0231926Y0140541D01*
X0231926Y0145091D01*
X0227026Y0149991D01*
X0224576Y0149991D01*
X0224508Y0150298D01*
X0221076Y0156641D02*
X0216876Y0152441D01*
X0216876Y0150341D01*
X0216634Y0150298D01*
X0208826Y0149991D02*
X0208826Y0148591D01*
X0216876Y0140541D01*
X0223876Y0140541D01*
X0223976Y0140491D01*
X0232382Y0150298D02*
X0232626Y0150341D01*
X0232626Y0152091D01*
X0241376Y0160841D01*
X0241376Y0166791D01*
X0241476Y0166991D01*
X0248976Y0166991D02*
X0249076Y0166791D01*
X0249076Y0157341D01*
X0250826Y0155591D01*
X0250826Y0154891D01*
X0248376Y0152441D01*
X0248376Y0150341D01*
X0248130Y0150298D01*
X0240256Y0150298D02*
X0239976Y0149991D01*
X0239976Y0140491D01*
X0229826Y0156641D02*
X0221076Y0156641D01*
X0223526Y0158041D02*
X0218276Y0158041D01*
X0216876Y0156641D01*
X0205326Y0156641D01*
X0201126Y0152441D01*
X0201126Y0150341D01*
X0200886Y0150298D01*
X0197626Y0156641D02*
X0193076Y0152091D01*
X0193076Y0150341D01*
X0193012Y0150298D01*
X0192026Y0154891D02*
X0187476Y0150341D01*
X0185376Y0150341D01*
X0185138Y0150298D01*
X0181176Y0151741D02*
X0181176Y0148591D01*
X0186251Y0143516D01*
X0185726Y0142991D01*
X0186251Y0143516D02*
X0193426Y0136341D01*
X0206376Y0136341D01*
X0206476Y0136322D01*
X0209876Y0127941D02*
X0210217Y0128054D01*
X0209876Y0127941D02*
X0209876Y0124091D01*
X0209176Y0123391D01*
X0209176Y0119541D01*
X0209035Y0119491D01*
X0209176Y0119191D01*
X0209176Y0116041D01*
X0208826Y0115691D01*
X0203917Y0119491D02*
X0203926Y0119541D01*
X0203926Y0123391D01*
X0202526Y0124791D01*
X0202526Y0127941D01*
X0202736Y0128054D01*
X0208826Y0149991D02*
X0208760Y0150298D01*
X0203226Y0156641D02*
X0197626Y0156641D01*
X0194476Y0158041D02*
X0192026Y0155591D01*
X0192026Y0154891D01*
X0194476Y0158041D02*
X0202526Y0158041D01*
X0205326Y0160841D01*
X0207076Y0160841D01*
X0211276Y0165041D01*
X0211276Y0166791D01*
X0211476Y0166991D01*
X0203976Y0166991D02*
X0203926Y0167141D01*
X0198326Y0167141D01*
X0191326Y0174141D01*
X0186426Y0174141D01*
X0184326Y0172041D01*
X0184326Y0170991D01*
X0184676Y0170641D01*
X0184676Y0169941D01*
X0185026Y0169591D01*
X0185026Y0169241D01*
X0184676Y0168891D01*
X0184676Y0159791D01*
X0185026Y0159441D01*
X0185026Y0159091D01*
X0184676Y0158741D01*
X0184676Y0158391D01*
X0183276Y0156991D01*
X0183276Y0156641D01*
X0182576Y0155941D01*
X0181876Y0155941D01*
X0179776Y0153841D01*
X0179776Y0153491D01*
X0177326Y0151041D01*
X0177326Y0150341D01*
X0177264Y0150298D01*
X0181176Y0151741D02*
X0184326Y0154891D01*
X0184326Y0155591D01*
X0186076Y0157341D01*
X0186076Y0157691D01*
X0188876Y0160491D01*
X0188876Y0164341D01*
X0188976Y0164491D01*
X0203226Y0156641D02*
X0204626Y0158041D01*
X0216176Y0158041D01*
X0218976Y0160841D01*
X0218976Y0166991D01*
X0226326Y0166791D02*
X0226476Y0166991D01*
X0226326Y0166791D02*
X0226326Y0160841D01*
X0223526Y0158041D01*
X0229826Y0156641D02*
X0233676Y0160491D01*
X0233676Y0166791D01*
X0233976Y0166991D01*
X0174526Y0100641D02*
X0156676Y0118491D01*
X0102426Y0118491D01*
X0079676Y0120941D02*
X0157376Y0120941D01*
X0148976Y0116041D02*
X0136026Y0103091D01*
X0126226Y0103091D01*
X0112576Y0089441D01*
X0122476Y0089491D02*
X0122726Y0089441D01*
X0122726Y0088741D01*
X0126926Y0084541D01*
X0127976Y0084541D01*
X0128676Y0085241D01*
X0134276Y0085241D01*
X0134626Y0085591D01*
X0135676Y0085591D01*
X0136726Y0084541D01*
X0137076Y0084541D01*
X0140226Y0087691D01*
X0209176Y0087691D01*
X0232276Y0064591D01*
X0232276Y0063891D01*
X0232382Y0063684D01*
X0239976Y0063891D02*
X0240256Y0063684D01*
X0239976Y0063891D02*
X0239976Y0065641D01*
X0216526Y0089091D01*
X0138826Y0089091D01*
X0138476Y0088741D01*
X0135676Y0088741D01*
X0134976Y0089441D01*
X0132526Y0089441D01*
X0132476Y0089491D01*
X0132476Y0079491D02*
X0132526Y0079291D01*
X0133226Y0079291D01*
X0139876Y0072641D01*
X0147926Y0072641D01*
X0168926Y0051641D01*
X0168926Y0049541D01*
X0168976Y0049491D01*
X0173826Y0055841D02*
X0166476Y0063191D01*
X0166476Y0074391D01*
X0162626Y0078241D01*
X0162626Y0079291D01*
X0162476Y0079491D01*
X0171726Y0078591D02*
X0171726Y0075791D01*
X0171376Y0075441D01*
X0171376Y0074391D01*
X0170326Y0073341D01*
X0170326Y0061441D01*
X0174526Y0057241D01*
X0175576Y0057241D01*
X0176276Y0056541D01*
X0179076Y0056541D01*
X0180826Y0058291D01*
X0182226Y0058291D01*
X0188876Y0051641D01*
X0188876Y0049541D01*
X0188976Y0049491D01*
X0178976Y0049491D02*
X0178726Y0049541D01*
X0178726Y0051291D01*
X0174176Y0055841D01*
X0173826Y0055841D01*
X0185138Y0063684D02*
X0185026Y0063891D01*
X0185026Y0065291D01*
X0179076Y0071241D01*
X0179076Y0082441D01*
X0175226Y0086291D01*
X0150026Y0086291D01*
X0143376Y0079641D01*
X0142676Y0079641D01*
X0142476Y0079491D01*
X0139876Y0071241D02*
X0131476Y0071241D01*
X0123426Y0079291D01*
X0122726Y0079291D01*
X0122476Y0079491D01*
X0127976Y0072641D02*
X0108376Y0072641D01*
X0102776Y0078241D01*
X0102776Y0079291D01*
X0102476Y0079491D01*
X0099976Y0072641D02*
X0093326Y0079291D01*
X0092626Y0079291D01*
X0092476Y0079491D01*
X0088426Y0072641D02*
X0082476Y0078591D01*
X0082476Y0079491D01*
X0081426Y0071241D02*
X0073376Y0079291D01*
X0072676Y0079291D01*
X0072476Y0079491D01*
X0063226Y0079291D02*
X0062526Y0079291D01*
X0062476Y0079491D01*
X0063226Y0079291D02*
X0072676Y0069841D01*
X0090876Y0069841D01*
X0108726Y0051991D01*
X0108726Y0049541D01*
X0108976Y0049491D01*
X0118876Y0049541D02*
X0118976Y0049491D01*
X0118876Y0049541D02*
X0118876Y0051641D01*
X0100676Y0069841D01*
X0092976Y0069841D01*
X0091576Y0071241D01*
X0081426Y0071241D01*
X0088426Y0072641D02*
X0092276Y0072641D01*
X0093676Y0071241D01*
X0101376Y0071241D01*
X0102776Y0069841D01*
X0110826Y0069841D01*
X0128676Y0051991D01*
X0128676Y0049541D01*
X0128976Y0049491D01*
X0138826Y0049541D02*
X0138976Y0049491D01*
X0138826Y0049541D02*
X0138826Y0051641D01*
X0119226Y0071241D01*
X0103476Y0071241D01*
X0102076Y0072641D01*
X0099976Y0072641D01*
X0127976Y0072641D02*
X0148976Y0051641D01*
X0148976Y0049491D01*
X0158776Y0049541D02*
X0158976Y0049491D01*
X0158776Y0049541D02*
X0158776Y0052341D01*
X0139876Y0071241D01*
X0171726Y0078591D02*
X0172426Y0079291D01*
X0172476Y0079491D01*
X0201126Y0064591D02*
X0201126Y0063891D01*
X0200886Y0063684D01*
X0201126Y0064591D02*
X0206376Y0069841D01*
X0211276Y0069841D01*
X0214076Y0067041D01*
X0214076Y0066691D01*
X0212676Y0065291D01*
X0212676Y0062141D01*
X0219326Y0055491D01*
X0222126Y0055491D01*
X0226326Y0051291D01*
X0226326Y0049541D01*
X0226476Y0049491D01*
X0233676Y0049191D02*
X0233976Y0049491D01*
X0233676Y0049191D02*
X0233676Y0043241D01*
X0231576Y0041141D01*
X0215126Y0041141D01*
X0211626Y0044641D01*
X0211626Y0058991D01*
X0208826Y0061791D01*
X0208826Y0063541D01*
X0208760Y0063684D01*
X0216634Y0063684D02*
X0216876Y0063541D01*
X0216876Y0062841D01*
X0218976Y0060741D01*
X0218976Y0060391D01*
X0221426Y0057941D01*
X0222826Y0057941D01*
X0225276Y0055491D01*
X0237176Y0055491D01*
X0241376Y0051291D01*
X0241376Y0049541D01*
X0241476Y0049491D01*
X0244526Y0055491D02*
X0248726Y0051291D01*
X0248726Y0049541D01*
X0248976Y0049491D01*
X0244526Y0055491D02*
X0240676Y0055491D01*
X0238226Y0057941D01*
X0234376Y0057941D01*
X0233676Y0057241D01*
X0231226Y0057241D01*
X0230526Y0057941D01*
X0229476Y0057941D01*
X0224576Y0062841D01*
X0224576Y0063541D01*
X0224508Y0063684D01*
X0218976Y0049541D02*
X0214426Y0049541D01*
X0218976Y0049541D02*
X0218976Y0049491D01*
X0266476Y0094491D02*
X0266576Y0094691D01*
X0266576Y0101691D01*
X0266476Y0101932D01*
X0266226Y0106941D02*
X0266476Y0107050D01*
X0266226Y0106941D02*
X0174526Y0106941D01*
X0142676Y0138791D01*
X0142676Y0139491D01*
X0142476Y0139491D01*
X0142676Y0139841D01*
X0142676Y0140891D01*
X0146526Y0144741D01*
X0146526Y0155241D01*
X0148976Y0157691D01*
X0148976Y0164491D01*
X0079676Y0120941D02*
X0065326Y0135291D01*
X0065326Y0135641D01*
X0062526Y0138441D01*
X0062526Y0139491D01*
X0062476Y0139491D01*
X0174526Y0100641D02*
X0223526Y0100641D01*
D25*
X0223526Y0100641D03*
X0208826Y0115691D03*
X0203926Y0123391D03*
X0185726Y0142991D03*
X0157376Y0120941D03*
X0148976Y0116041D03*
X0112576Y0089441D03*
X0102426Y0118491D03*
X0214426Y0049541D03*
M02*
